%TF.GenerationSoftware,KiCad,Pcbnew,10.0.1*%
%TF.CreationDate,2026-06-01T13:42:53+01:00*%
%TF.ProjectId,hw-controller,68772d63-6f6e-4747-926f-6c6c65722e6b,rev?*%
%TF.SameCoordinates,Original*%
%TF.FileFunction,Drillmap*%
%TF.FilePolarity,Positive*%
%FSLAX45Y45*%
G04 Gerber Fmt 4.5, Leading zero omitted, Abs format (unit mm)*
G04 Created by KiCad (PCBNEW 10.0.1) date 2026-06-01 13:42:53*
%MOMM*%
%LPD*%
G01*
G04 APERTURE LIST*
%ADD10C,0.050000*%
%ADD11C,0.200000*%
%ADD12C,0.100000*%
%ADD13C,0.110000*%
%ADD14C,0.130000*%
G04 APERTURE END LIST*
D10*
X14400000Y-14300000D02*
X4800000Y-14300000D01*
X4800000Y-4400000D02*
X4800000Y-14300000D01*
X4800000Y-4400000D02*
X8200000Y-4400000D01*
X8800000Y-5000000D02*
X8200000Y-4400000D01*
X8800000Y-5000000D02*
X10700000Y-5000000D01*
X10700000Y-5000000D02*
X11300000Y-4400000D01*
X11300000Y-4400000D02*
X14400000Y-4400000D01*
X14400000Y-4400000D02*
X14400000Y-14300000D01*
D11*
D12*
X5135000Y-5535000D02*
X5165000Y-5565000D01*
X5165000Y-5535000D02*
X5135000Y-5565000D01*
X5389400Y-13309840D02*
X5419400Y-13339840D01*
X5419400Y-13309840D02*
X5389400Y-13339840D01*
X5389400Y-13393000D02*
X5419400Y-13423000D01*
X5419400Y-13393000D02*
X5389400Y-13423000D01*
X5835000Y-10145000D02*
X5865000Y-10175000D01*
X5865000Y-10145000D02*
X5835000Y-10175000D01*
X5835000Y-12258280D02*
X5865000Y-12288280D01*
X5865000Y-12258280D02*
X5835000Y-12288280D01*
X6030200Y-7147800D02*
X6060200Y-7177800D01*
X6060200Y-7147800D02*
X6030200Y-7177800D01*
X6030200Y-9616680D02*
X6060200Y-9646680D01*
X6060200Y-9616680D02*
X6030200Y-9646680D01*
X6035000Y-6035000D02*
X6065000Y-6065000D01*
X6065000Y-6035000D02*
X6035000Y-6065000D01*
X6035000Y-8235000D02*
X6065000Y-8265000D01*
X6065000Y-8235000D02*
X6035000Y-8265000D01*
X6035000Y-9335000D02*
X6065000Y-9365000D01*
X6065000Y-9335000D02*
X6035000Y-9365000D01*
X6119100Y-11122900D02*
X6149100Y-11152900D01*
X6149100Y-11122900D02*
X6119100Y-11152900D01*
X6119100Y-11237200D02*
X6149100Y-11267200D01*
X6149100Y-11237200D02*
X6119100Y-11267200D01*
X6119100Y-11351500D02*
X6149100Y-11381500D01*
X6149100Y-11351500D02*
X6119100Y-11381500D01*
X6233400Y-11122900D02*
X6263400Y-11152900D01*
X6263400Y-11122900D02*
X6233400Y-11152900D01*
X6233400Y-11237200D02*
X6263400Y-11267200D01*
X6263400Y-11237200D02*
X6233400Y-11267200D01*
X6233400Y-11351500D02*
X6263400Y-11381500D01*
X6263400Y-11351500D02*
X6233400Y-11381500D01*
X6255000Y-7905000D02*
X6285000Y-7935000D01*
X6285000Y-7905000D02*
X6255000Y-7935000D01*
X6255000Y-8995000D02*
X6285000Y-9025000D01*
X6285000Y-8995000D02*
X6255000Y-9025000D01*
X6258800Y-5700000D02*
X6288800Y-5730000D01*
X6288800Y-5700000D02*
X6258800Y-5730000D01*
X6258800Y-6817600D02*
X6288800Y-6847600D01*
X6288800Y-6817600D02*
X6258800Y-6847600D01*
X6287500Y-5535000D02*
X6317500Y-5565000D01*
X6317500Y-5535000D02*
X6287500Y-5565000D01*
X6347700Y-11122900D02*
X6377700Y-11152900D01*
X6377700Y-11122900D02*
X6347700Y-11152900D01*
X6347700Y-11237200D02*
X6377700Y-11267200D01*
X6377700Y-11237200D02*
X6347700Y-11267200D01*
X6347700Y-11351500D02*
X6377700Y-11381500D01*
X6377700Y-11351500D02*
X6347700Y-11381500D01*
X6368000Y-6643800D02*
X6398000Y-6673800D01*
X6398000Y-6643800D02*
X6368000Y-6673800D01*
X6376900Y-7732000D02*
X6406900Y-7762000D01*
X6406900Y-7732000D02*
X6376900Y-7762000D01*
X6449300Y-11122900D02*
X6479300Y-11152900D01*
X6479300Y-11122900D02*
X6449300Y-11152900D01*
X6449300Y-11237200D02*
X6479300Y-11267200D01*
X6479300Y-11237200D02*
X6449300Y-11267200D01*
X6449300Y-11351500D02*
X6479300Y-11381500D01*
X6479300Y-11351500D02*
X6449300Y-11381500D01*
X6585000Y-4835000D02*
X6615000Y-4865000D01*
X6615000Y-4835000D02*
X6585000Y-4865000D01*
X6656550Y-8825150D02*
X6686550Y-8855150D01*
X6686550Y-8825150D02*
X6656550Y-8855150D01*
X6660500Y-6643800D02*
X6690500Y-6673800D01*
X6690500Y-6643800D02*
X6660500Y-6673800D01*
X6669400Y-7732000D02*
X6699400Y-7762000D01*
X6699400Y-7732000D02*
X6669400Y-7762000D01*
X6817600Y-6131800D02*
X6847600Y-6161800D01*
X6847600Y-6131800D02*
X6817600Y-6161800D01*
X6825000Y-9460150D02*
X6855000Y-9490150D01*
X6855000Y-9460150D02*
X6825000Y-9490150D01*
X6915000Y-8345000D02*
X6945000Y-8375000D01*
X6945000Y-8345000D02*
X6915000Y-8375000D01*
X6959650Y-11235000D02*
X6989650Y-11265000D01*
X6989650Y-11235000D02*
X6959650Y-11265000D01*
X6959650Y-11491200D02*
X6989650Y-11521200D01*
X6989650Y-11491200D02*
X6959650Y-11521200D01*
X7010640Y-8157860D02*
X7040640Y-8187860D01*
X7040640Y-8157860D02*
X7010640Y-8187860D01*
X7052500Y-4835000D02*
X7082500Y-4865000D01*
X7082500Y-4835000D02*
X7052500Y-4865000D01*
X7137200Y-10257200D02*
X7167200Y-10287200D01*
X7167200Y-10257200D02*
X7137200Y-10287200D01*
X7385000Y-7185000D02*
X7415000Y-7215000D01*
X7415000Y-7185000D02*
X7385000Y-7215000D01*
X7385000Y-8185000D02*
X7415000Y-8215000D01*
X7415000Y-8185000D02*
X7385000Y-8215000D01*
X7535000Y-9375000D02*
X7565000Y-9405000D01*
X7565000Y-9375000D02*
X7535000Y-9405000D01*
X7679800Y-10780000D02*
X7709800Y-10810000D01*
X7709800Y-10780000D02*
X7679800Y-10810000D01*
X7702100Y-6199800D02*
X7732100Y-6229800D01*
X7732100Y-6199800D02*
X7702100Y-6229800D01*
X7720000Y-9850000D02*
X7750000Y-9880000D01*
X7750000Y-9850000D02*
X7720000Y-9880000D01*
X7855000Y-9243300D02*
X7885000Y-9273300D01*
X7885000Y-9243300D02*
X7855000Y-9273300D01*
X7865000Y-8595000D02*
X7895000Y-8625000D01*
X7895000Y-8595000D02*
X7865000Y-8625000D01*
X7935000Y-6370000D02*
X7965000Y-6400000D01*
X7965000Y-6370000D02*
X7935000Y-6400000D01*
X7975000Y-12987500D02*
X8005000Y-13017500D01*
X8005000Y-12987500D02*
X7975000Y-13017500D01*
X8285000Y-9967200D02*
X8315000Y-9997200D01*
X8315000Y-9967200D02*
X8285000Y-9997200D01*
X8310700Y-6635000D02*
X8340700Y-6665000D01*
X8340700Y-6635000D02*
X8310700Y-6665000D01*
X8310700Y-6975000D02*
X8340700Y-7005000D01*
X8340700Y-6975000D02*
X8310700Y-7005000D01*
X8328900Y-8185000D02*
X8358900Y-8215000D01*
X8358900Y-8185000D02*
X8328900Y-8215000D01*
X8405000Y-5915000D02*
X8435000Y-5945000D01*
X8435000Y-5915000D02*
X8405000Y-5945000D01*
X8543400Y-10780000D02*
X8573400Y-10810000D01*
X8573400Y-10780000D02*
X8543400Y-10810000D01*
X8748000Y-7719300D02*
X8778000Y-7749300D01*
X8778000Y-7719300D02*
X8748000Y-7749300D01*
X8811500Y-7808200D02*
X8841500Y-7838200D01*
X8841500Y-7808200D02*
X8811500Y-7838200D01*
X8844400Y-8481300D02*
X8874400Y-8511300D01*
X8874400Y-8481300D02*
X8844400Y-8511300D01*
X8844400Y-8608300D02*
X8874400Y-8638300D01*
X8874400Y-8608300D02*
X8844400Y-8638300D01*
X8844400Y-8989300D02*
X8874400Y-9019300D01*
X8874400Y-8989300D02*
X8844400Y-9019300D01*
X8844400Y-9116300D02*
X8874400Y-9146300D01*
X8874400Y-9116300D02*
X8844400Y-9146300D01*
X8849600Y-8354300D02*
X8879600Y-8384300D01*
X8879600Y-8354300D02*
X8849600Y-8384300D01*
X8887700Y-5471400D02*
X8917700Y-5501400D01*
X8917700Y-5471400D02*
X8887700Y-5501400D01*
X8907500Y-5147900D02*
X8937500Y-5177900D01*
X8937500Y-5147900D02*
X8907500Y-5177900D01*
X8913750Y-5221250D02*
X8943750Y-5251250D01*
X8943750Y-5221250D02*
X8913750Y-5251250D01*
X8915000Y-5307900D02*
X8945000Y-5337900D01*
X8945000Y-5307900D02*
X8915000Y-5337900D01*
X8951200Y-5560300D02*
X8981200Y-5590300D01*
X8981200Y-5560300D02*
X8951200Y-5590300D01*
X9103600Y-8176500D02*
X9133600Y-8206500D01*
X9133600Y-8176500D02*
X9103600Y-8206500D01*
X9107400Y-5052900D02*
X9137400Y-5082900D01*
X9137400Y-5052900D02*
X9107400Y-5082900D01*
X9107400Y-6042900D02*
X9137400Y-6072900D01*
X9137400Y-6042900D02*
X9107400Y-6072900D01*
X9112400Y-5707900D02*
X9142400Y-5737900D01*
X9142400Y-5707900D02*
X9112400Y-5737900D01*
X9203800Y-10056100D02*
X9233800Y-10086100D01*
X9233800Y-10056100D02*
X9203800Y-10086100D01*
X9210700Y-6635000D02*
X9240700Y-6665000D01*
X9240700Y-6635000D02*
X9210700Y-6665000D01*
X9222400Y-6199800D02*
X9252400Y-6229800D01*
X9252400Y-6199800D02*
X9222400Y-6229800D01*
X9457800Y-10780000D02*
X9487800Y-10810000D01*
X9487800Y-10780000D02*
X9457800Y-10810000D01*
X9504900Y-5350400D02*
X9534900Y-5380400D01*
X9534900Y-5350400D02*
X9504900Y-5380400D01*
X9504900Y-5547900D02*
X9534900Y-5577900D01*
X9534900Y-5547900D02*
X9504900Y-5577900D01*
X9504900Y-5745400D02*
X9534900Y-5775400D01*
X9534900Y-5745400D02*
X9504900Y-5775400D01*
X9522700Y-6347700D02*
X9552700Y-6377700D01*
X9552700Y-6347700D02*
X9522700Y-6377700D01*
X9586200Y-9389200D02*
X9616200Y-9419200D01*
X9616200Y-9389200D02*
X9586200Y-9419200D01*
X9675100Y-8328900D02*
X9705100Y-8358900D01*
X9705100Y-8328900D02*
X9675100Y-8358900D01*
X9687800Y-8582900D02*
X9717800Y-8612900D01*
X9717800Y-8582900D02*
X9687800Y-8612900D01*
X9702400Y-5350400D02*
X9732400Y-5380400D01*
X9732400Y-5350400D02*
X9702400Y-5380400D01*
X9702400Y-5547900D02*
X9732400Y-5577900D01*
X9732400Y-5547900D02*
X9702400Y-5577900D01*
X9702400Y-5745400D02*
X9732400Y-5775400D01*
X9732400Y-5745400D02*
X9702400Y-5775400D01*
X9776700Y-9459200D02*
X9806700Y-9489200D01*
X9806700Y-9459200D02*
X9776700Y-9489200D01*
X9899900Y-5350400D02*
X9929900Y-5380400D01*
X9929900Y-5350400D02*
X9899900Y-5380400D01*
X9899900Y-5547900D02*
X9929900Y-5577900D01*
X9929900Y-5547900D02*
X9899900Y-5577900D01*
X9899900Y-5745400D02*
X9929900Y-5775400D01*
X9929900Y-5745400D02*
X9899900Y-5775400D01*
X9954500Y-7128950D02*
X9984500Y-7158950D01*
X9984500Y-7128950D02*
X9954500Y-7158950D01*
X10043400Y-8189200D02*
X10073400Y-8219200D01*
X10073400Y-8189200D02*
X10043400Y-8219200D01*
X10118200Y-10146400D02*
X10148200Y-10176400D01*
X10148200Y-10146400D02*
X10118200Y-10176400D01*
X10297400Y-5052900D02*
X10327400Y-5082900D01*
X10327400Y-5052900D02*
X10297400Y-5082900D01*
X10297400Y-6042900D02*
X10327400Y-6072900D01*
X10327400Y-6042900D02*
X10297400Y-6072900D01*
X10372200Y-10780000D02*
X10402200Y-10810000D01*
X10402200Y-10780000D02*
X10372200Y-10810000D01*
X10681798Y-5466097D02*
X10711798Y-5496097D01*
X10711798Y-5466097D02*
X10681798Y-5496097D01*
X10695000Y-5545000D02*
X10725000Y-5575000D01*
X10725000Y-5545000D02*
X10695000Y-5575000D01*
X10785000Y-6685000D02*
X10815000Y-6715000D01*
X10815000Y-6685000D02*
X10785000Y-6715000D01*
X10818100Y-9319200D02*
X10848100Y-9349200D01*
X10848100Y-9319200D02*
X10818100Y-9349200D01*
X11261200Y-10780000D02*
X11291200Y-10810000D01*
X11291200Y-10780000D02*
X11261200Y-10810000D01*
X11265000Y-5335000D02*
X11295000Y-5365000D01*
X11295000Y-5335000D02*
X11265000Y-5365000D01*
X11275300Y-7617700D02*
X11305300Y-7647700D01*
X11305300Y-7617700D02*
X11275300Y-7647700D01*
X11351500Y-7719300D02*
X11381500Y-7749300D01*
X11381500Y-7719300D02*
X11351500Y-7749300D01*
X11440400Y-7808200D02*
X11470400Y-7838200D01*
X11470400Y-7808200D02*
X11440400Y-7838200D01*
X11491200Y-5514200D02*
X11521200Y-5544200D01*
X11521200Y-5514200D02*
X11491200Y-5544200D01*
X11808700Y-9103600D02*
X11838700Y-9133600D01*
X11838700Y-9103600D02*
X11808700Y-9133600D01*
X11821400Y-8011400D02*
X11851400Y-8041400D01*
X11851400Y-8011400D02*
X11821400Y-8041400D01*
X11921600Y-7581000D02*
X11951600Y-7611000D01*
X11951600Y-7581000D02*
X11921600Y-7611000D01*
X11921600Y-10343500D02*
X11951600Y-10373500D01*
X11951600Y-10343500D02*
X11921600Y-10373500D01*
X11948400Y-5514200D02*
X11978400Y-5544200D01*
X11978400Y-5514200D02*
X11948400Y-5544200D01*
X12035000Y-6035000D02*
X12065000Y-6065000D01*
X12065000Y-6035000D02*
X12035000Y-6065000D01*
X12085000Y-8240000D02*
X12115000Y-8270000D01*
X12115000Y-8240000D02*
X12085000Y-8270000D01*
X12085000Y-10085000D02*
X12115000Y-10115000D01*
X12115000Y-10085000D02*
X12085000Y-10115000D01*
X12175600Y-10780000D02*
X12205600Y-10810000D01*
X12205600Y-10780000D02*
X12175600Y-10810000D01*
X12392500Y-6614400D02*
X12422500Y-6644400D01*
X12422500Y-6614400D02*
X12392500Y-6644400D01*
X12411750Y-7732000D02*
X12441750Y-7762000D01*
X12441750Y-7732000D02*
X12411750Y-7762000D01*
X12411750Y-8824200D02*
X12441750Y-8854200D01*
X12441750Y-8824200D02*
X12411750Y-8854200D01*
X12685000Y-5560300D02*
X12715000Y-5590300D01*
X12715000Y-5560300D02*
X12685000Y-5590300D01*
X12685000Y-5801600D02*
X12715000Y-5831600D01*
X12715000Y-5801600D02*
X12685000Y-5831600D01*
X12685000Y-6614400D02*
X12715000Y-6644400D01*
X12715000Y-6614400D02*
X12685000Y-6644400D01*
X12685000Y-6893800D02*
X12715000Y-6923800D01*
X12715000Y-6893800D02*
X12685000Y-6923800D01*
X12685000Y-8011400D02*
X12715000Y-8041400D01*
X12715000Y-8011400D02*
X12685000Y-8041400D01*
X12704250Y-7732000D02*
X12734250Y-7762000D01*
X12734250Y-7732000D02*
X12704250Y-7762000D01*
X12710400Y-9103600D02*
X12740400Y-9133600D01*
X12740400Y-9103600D02*
X12710400Y-9133600D01*
X13090000Y-10780000D02*
X13120000Y-10810000D01*
X13120000Y-10780000D02*
X13090000Y-10810000D01*
X13929600Y-9179800D02*
X13959600Y-9209800D01*
X13959600Y-9179800D02*
X13929600Y-9209800D01*
X13935000Y-5875000D02*
X13965000Y-5905000D01*
X13965000Y-5875000D02*
X13935000Y-5905000D01*
X13935000Y-6035000D02*
X13965000Y-6065000D01*
X13965000Y-6035000D02*
X13935000Y-6065000D01*
X13935000Y-6975000D02*
X13965000Y-7005000D01*
X13965000Y-6975000D02*
X13935000Y-7005000D01*
X13935000Y-7135000D02*
X13965000Y-7165000D01*
X13965000Y-7135000D02*
X13935000Y-7165000D01*
X13935000Y-8075000D02*
X13965000Y-8105000D01*
X13965000Y-8075000D02*
X13935000Y-8105000D01*
X13935000Y-8235000D02*
X13965000Y-8265000D01*
X13965000Y-8235000D02*
X13935000Y-8265000D01*
X13935000Y-9335000D02*
X13965000Y-9365000D01*
X13965000Y-9335000D02*
X13935000Y-9365000D01*
X14029800Y-10780000D02*
X14059800Y-10810000D01*
X14059800Y-10780000D02*
X14029800Y-10810000D01*
X14183600Y-5712700D02*
X14213600Y-5742700D01*
X14213600Y-5712700D02*
X14183600Y-5742700D01*
X7860000Y-7630000D02*
G75*
G02*
X7820000Y-7630000I-20000J0D01*
G01*
X7820000Y-7630000D02*
G75*
G02*
X7860000Y-7630000I20000J0D01*
G01*
X7982900Y-9258300D02*
G75*
G02*
X7942900Y-9258300I-20000J0D01*
G01*
X7942900Y-9258300D02*
G75*
G02*
X7982900Y-9258300I20000J0D01*
G01*
X8120000Y-5175800D02*
G75*
G02*
X8080000Y-5175800I-20000J0D01*
G01*
X8080000Y-5175800D02*
G75*
G02*
X8120000Y-5175800I20000J0D01*
G01*
X10662600Y-8343900D02*
G75*
G02*
X10622600Y-8343900I-20000J0D01*
G01*
X10622600Y-8343900D02*
G75*
G02*
X10662600Y-8343900I20000J0D01*
G01*
X10947400Y-5314200D02*
X10947400Y-5379200D01*
X10914900Y-5346700D02*
X10979900Y-5346700D01*
X10947400Y-5441200D02*
X10947400Y-5506200D01*
X10914900Y-5473700D02*
X10979900Y-5473700D01*
X10947400Y-5568200D02*
X10947400Y-5633200D01*
X10914900Y-5600700D02*
X10979900Y-5600700D01*
X11074400Y-5314200D02*
X11074400Y-5379200D01*
X11041900Y-5346700D02*
X11106900Y-5346700D01*
X11074400Y-5441200D02*
X11074400Y-5506200D01*
X11041900Y-5473700D02*
X11106900Y-5473700D01*
X11074400Y-5568200D02*
X11074400Y-5633200D01*
X11041900Y-5600700D02*
X11106900Y-5600700D01*
X7065356Y-13135356D02*
X7065356Y-13064644D01*
X6994644Y-13064644D01*
X6994644Y-13135356D01*
X7065356Y-13135356D01*
X6930000Y-13150000D02*
X7130000Y-13150000D01*
X7130000Y-13050000D02*
G75*
G02*
X7130000Y-13150000I0J-50000D01*
G01*
X7130000Y-13050000D02*
X6930000Y-13050000D01*
X6930000Y-13050000D02*
G75*
G03*
X6930000Y-13150000I0J-50000D01*
G01*
X7065356Y-13735356D02*
X7065356Y-13664644D01*
X6994644Y-13664644D01*
X6994644Y-13735356D01*
X7065356Y-13735356D01*
X6930000Y-13750000D02*
X7130000Y-13750000D01*
X7130000Y-13650000D02*
G75*
G02*
X7130000Y-13750000I0J-50000D01*
G01*
X7130000Y-13650000D02*
X6930000Y-13650000D01*
X6930000Y-13650000D02*
G75*
G03*
X6930000Y-13750000I0J-50000D01*
G01*
X7535356Y-13435356D02*
X7535356Y-13364644D01*
X7464644Y-13364644D01*
X7464644Y-13435356D01*
X7535356Y-13435356D01*
X7550000Y-13500000D02*
X7550000Y-13300000D01*
X7450000Y-13300000D02*
G75*
G02*
X7550000Y-13300000I50000J0D01*
G01*
X7450000Y-13300000D02*
X7450000Y-13500000D01*
X7450000Y-13500000D02*
G75*
G03*
X7550000Y-13500000I50000J0D01*
G01*
D13*
X7390000Y-12145400D02*
X7445000Y-12090400D01*
X7390000Y-12035400D01*
X7335000Y-12090400D01*
X7390000Y-12145400D01*
X7390000Y-12399400D02*
X7445000Y-12344400D01*
X7390000Y-12289400D01*
X7335000Y-12344400D01*
X7390000Y-12399400D01*
X7390000Y-12653400D02*
X7445000Y-12598400D01*
X7390000Y-12543400D01*
X7335000Y-12598400D01*
X7390000Y-12653400D01*
X8304400Y-12145400D02*
X8359400Y-12090400D01*
X8304400Y-12035400D01*
X8249400Y-12090400D01*
X8304400Y-12145400D01*
X8304400Y-12399400D02*
X8359400Y-12344400D01*
X8304400Y-12289400D01*
X8249400Y-12344400D01*
X8304400Y-12399400D01*
X8304400Y-12653400D02*
X8359400Y-12598400D01*
X8304400Y-12543400D01*
X8249400Y-12598400D01*
X8304400Y-12653400D01*
X9218800Y-12145400D02*
X9273800Y-12090400D01*
X9218800Y-12035400D01*
X9163800Y-12090400D01*
X9218800Y-12145400D01*
X9218800Y-12399400D02*
X9273800Y-12344400D01*
X9218800Y-12289400D01*
X9163800Y-12344400D01*
X9218800Y-12399400D01*
X9218800Y-12653400D02*
X9273800Y-12598400D01*
X9218800Y-12543400D01*
X9163800Y-12598400D01*
X9218800Y-12653400D01*
X10126600Y-12145400D02*
X10181600Y-12090400D01*
X10126600Y-12035400D01*
X10071600Y-12090400D01*
X10126600Y-12145400D01*
X10126600Y-12399400D02*
X10181600Y-12344400D01*
X10126600Y-12289400D01*
X10071600Y-12344400D01*
X10126600Y-12399400D01*
X10126600Y-12653400D02*
X10181600Y-12598400D01*
X10126600Y-12543400D01*
X10071600Y-12598400D01*
X10126600Y-12653400D01*
X11022200Y-12145400D02*
X11077200Y-12090400D01*
X11022200Y-12035400D01*
X10967200Y-12090400D01*
X11022200Y-12145400D01*
X11022200Y-12399400D02*
X11077200Y-12344400D01*
X11022200Y-12289400D01*
X10967200Y-12344400D01*
X11022200Y-12399400D01*
X11022200Y-12653400D02*
X11077200Y-12598400D01*
X11022200Y-12543400D01*
X10967200Y-12598400D01*
X11022200Y-12653400D01*
X11936600Y-12145400D02*
X11991600Y-12090400D01*
X11936600Y-12035400D01*
X11881600Y-12090400D01*
X11936600Y-12145400D01*
X11936600Y-12399400D02*
X11991600Y-12344400D01*
X11936600Y-12289400D01*
X11881600Y-12344400D01*
X11936600Y-12399400D01*
X11936600Y-12653400D02*
X11991600Y-12598400D01*
X11936600Y-12543400D01*
X11881600Y-12598400D01*
X11936600Y-12653400D01*
X12851000Y-12145400D02*
X12906000Y-12090400D01*
X12851000Y-12035400D01*
X12796000Y-12090400D01*
X12851000Y-12145400D01*
X12851000Y-12399400D02*
X12906000Y-12344400D01*
X12851000Y-12289400D01*
X12796000Y-12344400D01*
X12851000Y-12399400D01*
X12851000Y-12653400D02*
X12906000Y-12598400D01*
X12851000Y-12543400D01*
X12796000Y-12598400D01*
X12851000Y-12653400D01*
X13765400Y-12145400D02*
X13820400Y-12090400D01*
X13765400Y-12035400D01*
X13710400Y-12090400D01*
X13765400Y-12145400D01*
X13765400Y-12399400D02*
X13820400Y-12344400D01*
X13765400Y-12289400D01*
X13710400Y-12344400D01*
X13765400Y-12399400D01*
X13765400Y-12653400D02*
X13820400Y-12598400D01*
X13765400Y-12543400D01*
X13710400Y-12598400D01*
X13765400Y-12653400D01*
D14*
X8380500Y-13685000D02*
X8510500Y-13815000D01*
X8510500Y-13685000D02*
X8380500Y-13815000D01*
X8510500Y-13750000D02*
G75*
G02*
X8380500Y-13750000I-65000J0D01*
G01*
X8380500Y-13750000D02*
G75*
G02*
X8510500Y-13750000I65000J0D01*
G01*
X8888500Y-13685000D02*
X9018500Y-13815000D01*
X9018500Y-13685000D02*
X8888500Y-13815000D01*
X9018500Y-13750000D02*
G75*
G02*
X8888500Y-13750000I-65000J0D01*
G01*
X8888500Y-13750000D02*
G75*
G02*
X9018500Y-13750000I65000J0D01*
G01*
X9396500Y-13685000D02*
X9526500Y-13815000D01*
X9526500Y-13685000D02*
X9396500Y-13815000D01*
X9526500Y-13750000D02*
G75*
G02*
X9396500Y-13750000I-65000J0D01*
G01*
X9396500Y-13750000D02*
G75*
G02*
X9526500Y-13750000I65000J0D01*
G01*
X9904500Y-13685000D02*
X10034500Y-13815000D01*
X10034500Y-13685000D02*
X9904500Y-13815000D01*
X10034500Y-13750000D02*
G75*
G02*
X9904500Y-13750000I-65000J0D01*
G01*
X9904500Y-13750000D02*
G75*
G02*
X10034500Y-13750000I65000J0D01*
G01*
X10412500Y-13685000D02*
X10542500Y-13815000D01*
X10542500Y-13685000D02*
X10412500Y-13815000D01*
X10542500Y-13750000D02*
G75*
G02*
X10412500Y-13750000I-65000J0D01*
G01*
X10412500Y-13750000D02*
G75*
G02*
X10542500Y-13750000I65000J0D01*
G01*
X10920500Y-13685000D02*
X11050500Y-13815000D01*
X11050500Y-13685000D02*
X10920500Y-13815000D01*
X11050500Y-13750000D02*
G75*
G02*
X10920500Y-13750000I-65000J0D01*
G01*
X10920500Y-13750000D02*
G75*
G02*
X11050500Y-13750000I65000J0D01*
G01*
X11428500Y-13685000D02*
X11558500Y-13815000D01*
X11558500Y-13685000D02*
X11428500Y-13815000D01*
X11558500Y-13750000D02*
G75*
G02*
X11428500Y-13750000I-65000J0D01*
G01*
X11428500Y-13750000D02*
G75*
G02*
X11558500Y-13750000I65000J0D01*
G01*
X11936500Y-13685000D02*
X12066500Y-13815000D01*
X12066500Y-13685000D02*
X11936500Y-13815000D01*
X12066500Y-13750000D02*
G75*
G02*
X11936500Y-13750000I-65000J0D01*
G01*
X11936500Y-13750000D02*
G75*
G02*
X12066500Y-13750000I65000J0D01*
G01*
X12444500Y-13685000D02*
X12574500Y-13815000D01*
X12574500Y-13685000D02*
X12444500Y-13815000D01*
X12574500Y-13750000D02*
G75*
G02*
X12444500Y-13750000I-65000J0D01*
G01*
X12444500Y-13750000D02*
G75*
G02*
X12574500Y-13750000I65000J0D01*
G01*
X12952500Y-13685000D02*
X13082500Y-13815000D01*
X13082500Y-13685000D02*
X12952500Y-13815000D01*
X13082500Y-13750000D02*
G75*
G02*
X12952500Y-13750000I-65000J0D01*
G01*
X12952500Y-13750000D02*
G75*
G02*
X13082500Y-13750000I65000J0D01*
G01*
D11*
X5058277Y-14613984D02*
X5058277Y-14413984D01*
X5058277Y-14413984D02*
X5105896Y-14413984D01*
X5105896Y-14413984D02*
X5134467Y-14423508D01*
X5134467Y-14423508D02*
X5153515Y-14442555D01*
X5153515Y-14442555D02*
X5163039Y-14461603D01*
X5163039Y-14461603D02*
X5172563Y-14499698D01*
X5172563Y-14499698D02*
X5172563Y-14528269D01*
X5172563Y-14528269D02*
X5163039Y-14566365D01*
X5163039Y-14566365D02*
X5153515Y-14585412D01*
X5153515Y-14585412D02*
X5134467Y-14604460D01*
X5134467Y-14604460D02*
X5105896Y-14613984D01*
X5105896Y-14613984D02*
X5058277Y-14613984D01*
X5258277Y-14613984D02*
X5258277Y-14480650D01*
X5258277Y-14518746D02*
X5267801Y-14499698D01*
X5267801Y-14499698D02*
X5277324Y-14490174D01*
X5277324Y-14490174D02*
X5296372Y-14480650D01*
X5296372Y-14480650D02*
X5315420Y-14480650D01*
X5382086Y-14613984D02*
X5382086Y-14480650D01*
X5382086Y-14413984D02*
X5372563Y-14423508D01*
X5372563Y-14423508D02*
X5382086Y-14433031D01*
X5382086Y-14433031D02*
X5391610Y-14423508D01*
X5391610Y-14423508D02*
X5382086Y-14413984D01*
X5382086Y-14413984D02*
X5382086Y-14433031D01*
X5505896Y-14613984D02*
X5486848Y-14604460D01*
X5486848Y-14604460D02*
X5477324Y-14585412D01*
X5477324Y-14585412D02*
X5477324Y-14413984D01*
X5610658Y-14613984D02*
X5591610Y-14604460D01*
X5591610Y-14604460D02*
X5582086Y-14585412D01*
X5582086Y-14585412D02*
X5582086Y-14413984D01*
X5839229Y-14613984D02*
X5839229Y-14413984D01*
X5839229Y-14413984D02*
X5905896Y-14556841D01*
X5905896Y-14556841D02*
X5972562Y-14413984D01*
X5972562Y-14413984D02*
X5972562Y-14613984D01*
X6153515Y-14613984D02*
X6153515Y-14509222D01*
X6153515Y-14509222D02*
X6143991Y-14490174D01*
X6143991Y-14490174D02*
X6124943Y-14480650D01*
X6124943Y-14480650D02*
X6086848Y-14480650D01*
X6086848Y-14480650D02*
X6067801Y-14490174D01*
X6153515Y-14604460D02*
X6134467Y-14613984D01*
X6134467Y-14613984D02*
X6086848Y-14613984D01*
X6086848Y-14613984D02*
X6067801Y-14604460D01*
X6067801Y-14604460D02*
X6058277Y-14585412D01*
X6058277Y-14585412D02*
X6058277Y-14566365D01*
X6058277Y-14566365D02*
X6067801Y-14547317D01*
X6067801Y-14547317D02*
X6086848Y-14537793D01*
X6086848Y-14537793D02*
X6134467Y-14537793D01*
X6134467Y-14537793D02*
X6153515Y-14528269D01*
X6248753Y-14480650D02*
X6248753Y-14680650D01*
X6248753Y-14490174D02*
X6267801Y-14480650D01*
X6267801Y-14480650D02*
X6305896Y-14480650D01*
X6305896Y-14480650D02*
X6324943Y-14490174D01*
X6324943Y-14490174D02*
X6334467Y-14499698D01*
X6334467Y-14499698D02*
X6343991Y-14518746D01*
X6343991Y-14518746D02*
X6343991Y-14575888D01*
X6343991Y-14575888D02*
X6334467Y-14594936D01*
X6334467Y-14594936D02*
X6324943Y-14604460D01*
X6324943Y-14604460D02*
X6305896Y-14613984D01*
X6305896Y-14613984D02*
X6267801Y-14613984D01*
X6267801Y-14613984D02*
X6248753Y-14604460D01*
X6429705Y-14594936D02*
X6439229Y-14604460D01*
X6439229Y-14604460D02*
X6429705Y-14613984D01*
X6429705Y-14613984D02*
X6420182Y-14604460D01*
X6420182Y-14604460D02*
X6429705Y-14594936D01*
X6429705Y-14594936D02*
X6429705Y-14613984D01*
X6429705Y-14490174D02*
X6439229Y-14499698D01*
X6439229Y-14499698D02*
X6429705Y-14509222D01*
X6429705Y-14509222D02*
X6420182Y-14499698D01*
X6420182Y-14499698D02*
X6429705Y-14490174D01*
X6429705Y-14490174D02*
X6429705Y-14509222D01*
D12*
X4767500Y-14927500D02*
X4797500Y-14957500D01*
X4797500Y-14927500D02*
X4767500Y-14957500D01*
D11*
X5096372Y-14833984D02*
X5115420Y-14833984D01*
X5115420Y-14833984D02*
X5134467Y-14843508D01*
X5134467Y-14843508D02*
X5143991Y-14853031D01*
X5143991Y-14853031D02*
X5153515Y-14872079D01*
X5153515Y-14872079D02*
X5163039Y-14910174D01*
X5163039Y-14910174D02*
X5163039Y-14957793D01*
X5163039Y-14957793D02*
X5153515Y-14995888D01*
X5153515Y-14995888D02*
X5143991Y-15014936D01*
X5143991Y-15014936D02*
X5134467Y-15024460D01*
X5134467Y-15024460D02*
X5115420Y-15033984D01*
X5115420Y-15033984D02*
X5096372Y-15033984D01*
X5096372Y-15033984D02*
X5077324Y-15024460D01*
X5077324Y-15024460D02*
X5067801Y-15014936D01*
X5067801Y-15014936D02*
X5058277Y-14995888D01*
X5058277Y-14995888D02*
X5048753Y-14957793D01*
X5048753Y-14957793D02*
X5048753Y-14910174D01*
X5048753Y-14910174D02*
X5058277Y-14872079D01*
X5058277Y-14872079D02*
X5067801Y-14853031D01*
X5067801Y-14853031D02*
X5077324Y-14843508D01*
X5077324Y-14843508D02*
X5096372Y-14833984D01*
X5248753Y-15014936D02*
X5258277Y-15024460D01*
X5258277Y-15024460D02*
X5248753Y-15033984D01*
X5248753Y-15033984D02*
X5239229Y-15024460D01*
X5239229Y-15024460D02*
X5248753Y-15014936D01*
X5248753Y-15014936D02*
X5248753Y-15033984D01*
X5324944Y-14833984D02*
X5448753Y-14833984D01*
X5448753Y-14833984D02*
X5382086Y-14910174D01*
X5382086Y-14910174D02*
X5410658Y-14910174D01*
X5410658Y-14910174D02*
X5429705Y-14919698D01*
X5429705Y-14919698D02*
X5439229Y-14929222D01*
X5439229Y-14929222D02*
X5448753Y-14948269D01*
X5448753Y-14948269D02*
X5448753Y-14995888D01*
X5448753Y-14995888D02*
X5439229Y-15014936D01*
X5439229Y-15014936D02*
X5429705Y-15024460D01*
X5429705Y-15024460D02*
X5410658Y-15033984D01*
X5410658Y-15033984D02*
X5353515Y-15033984D01*
X5353515Y-15033984D02*
X5334467Y-15024460D01*
X5334467Y-15024460D02*
X5324944Y-15014936D01*
X5572563Y-14833984D02*
X5591610Y-14833984D01*
X5591610Y-14833984D02*
X5610658Y-14843508D01*
X5610658Y-14843508D02*
X5620182Y-14853031D01*
X5620182Y-14853031D02*
X5629705Y-14872079D01*
X5629705Y-14872079D02*
X5639229Y-14910174D01*
X5639229Y-14910174D02*
X5639229Y-14957793D01*
X5639229Y-14957793D02*
X5629705Y-14995888D01*
X5629705Y-14995888D02*
X5620182Y-15014936D01*
X5620182Y-15014936D02*
X5610658Y-15024460D01*
X5610658Y-15024460D02*
X5591610Y-15033984D01*
X5591610Y-15033984D02*
X5572563Y-15033984D01*
X5572563Y-15033984D02*
X5553515Y-15024460D01*
X5553515Y-15024460D02*
X5543991Y-15014936D01*
X5543991Y-15014936D02*
X5534467Y-14995888D01*
X5534467Y-14995888D02*
X5524944Y-14957793D01*
X5524944Y-14957793D02*
X5524944Y-14910174D01*
X5524944Y-14910174D02*
X5534467Y-14872079D01*
X5534467Y-14872079D02*
X5543991Y-14853031D01*
X5543991Y-14853031D02*
X5553515Y-14843508D01*
X5553515Y-14843508D02*
X5572563Y-14833984D01*
X5763039Y-14833984D02*
X5782086Y-14833984D01*
X5782086Y-14833984D02*
X5801134Y-14843508D01*
X5801134Y-14843508D02*
X5810658Y-14853031D01*
X5810658Y-14853031D02*
X5820182Y-14872079D01*
X5820182Y-14872079D02*
X5829705Y-14910174D01*
X5829705Y-14910174D02*
X5829705Y-14957793D01*
X5829705Y-14957793D02*
X5820182Y-14995888D01*
X5820182Y-14995888D02*
X5810658Y-15014936D01*
X5810658Y-15014936D02*
X5801134Y-15024460D01*
X5801134Y-15024460D02*
X5782086Y-15033984D01*
X5782086Y-15033984D02*
X5763039Y-15033984D01*
X5763039Y-15033984D02*
X5743991Y-15024460D01*
X5743991Y-15024460D02*
X5734467Y-15014936D01*
X5734467Y-15014936D02*
X5724943Y-14995888D01*
X5724943Y-14995888D02*
X5715420Y-14957793D01*
X5715420Y-14957793D02*
X5715420Y-14910174D01*
X5715420Y-14910174D02*
X5724943Y-14872079D01*
X5724943Y-14872079D02*
X5734467Y-14853031D01*
X5734467Y-14853031D02*
X5743991Y-14843508D01*
X5743991Y-14843508D02*
X5763039Y-14833984D01*
X5915420Y-15033984D02*
X5915420Y-14900650D01*
X5915420Y-14919698D02*
X5924943Y-14910174D01*
X5924943Y-14910174D02*
X5943991Y-14900650D01*
X5943991Y-14900650D02*
X5972563Y-14900650D01*
X5972563Y-14900650D02*
X5991610Y-14910174D01*
X5991610Y-14910174D02*
X6001134Y-14929222D01*
X6001134Y-14929222D02*
X6001134Y-15033984D01*
X6001134Y-14929222D02*
X6010658Y-14910174D01*
X6010658Y-14910174D02*
X6029705Y-14900650D01*
X6029705Y-14900650D02*
X6058277Y-14900650D01*
X6058277Y-14900650D02*
X6077324Y-14910174D01*
X6077324Y-14910174D02*
X6086848Y-14929222D01*
X6086848Y-14929222D02*
X6086848Y-15033984D01*
X6182086Y-15033984D02*
X6182086Y-14900650D01*
X6182086Y-14919698D02*
X6191610Y-14910174D01*
X6191610Y-14910174D02*
X6210658Y-14900650D01*
X6210658Y-14900650D02*
X6239229Y-14900650D01*
X6239229Y-14900650D02*
X6258277Y-14910174D01*
X6258277Y-14910174D02*
X6267801Y-14929222D01*
X6267801Y-14929222D02*
X6267801Y-15033984D01*
X6267801Y-14929222D02*
X6277324Y-14910174D01*
X6277324Y-14910174D02*
X6296372Y-14900650D01*
X6296372Y-14900650D02*
X6324943Y-14900650D01*
X6324943Y-14900650D02*
X6343991Y-14910174D01*
X6343991Y-14910174D02*
X6353515Y-14929222D01*
X6353515Y-14929222D02*
X6353515Y-15033984D01*
X6743991Y-14824460D02*
X6572563Y-15081603D01*
X7001134Y-14833984D02*
X7020182Y-14833984D01*
X7020182Y-14833984D02*
X7039229Y-14843508D01*
X7039229Y-14843508D02*
X7048753Y-14853031D01*
X7048753Y-14853031D02*
X7058277Y-14872079D01*
X7058277Y-14872079D02*
X7067801Y-14910174D01*
X7067801Y-14910174D02*
X7067801Y-14957793D01*
X7067801Y-14957793D02*
X7058277Y-14995888D01*
X7058277Y-14995888D02*
X7048753Y-15014936D01*
X7048753Y-15014936D02*
X7039229Y-15024460D01*
X7039229Y-15024460D02*
X7020182Y-15033984D01*
X7020182Y-15033984D02*
X7001134Y-15033984D01*
X7001134Y-15033984D02*
X6982086Y-15024460D01*
X6982086Y-15024460D02*
X6972563Y-15014936D01*
X6972563Y-15014936D02*
X6963039Y-14995888D01*
X6963039Y-14995888D02*
X6953515Y-14957793D01*
X6953515Y-14957793D02*
X6953515Y-14910174D01*
X6953515Y-14910174D02*
X6963039Y-14872079D01*
X6963039Y-14872079D02*
X6972563Y-14853031D01*
X6972563Y-14853031D02*
X6982086Y-14843508D01*
X6982086Y-14843508D02*
X7001134Y-14833984D01*
X7153515Y-15014936D02*
X7163039Y-15024460D01*
X7163039Y-15024460D02*
X7153515Y-15033984D01*
X7153515Y-15033984D02*
X7143991Y-15024460D01*
X7143991Y-15024460D02*
X7153515Y-15014936D01*
X7153515Y-15014936D02*
X7153515Y-15033984D01*
X7286848Y-14833984D02*
X7305896Y-14833984D01*
X7305896Y-14833984D02*
X7324944Y-14843508D01*
X7324944Y-14843508D02*
X7334467Y-14853031D01*
X7334467Y-14853031D02*
X7343991Y-14872079D01*
X7343991Y-14872079D02*
X7353515Y-14910174D01*
X7353515Y-14910174D02*
X7353515Y-14957793D01*
X7353515Y-14957793D02*
X7343991Y-14995888D01*
X7343991Y-14995888D02*
X7334467Y-15014936D01*
X7334467Y-15014936D02*
X7324944Y-15024460D01*
X7324944Y-15024460D02*
X7305896Y-15033984D01*
X7305896Y-15033984D02*
X7286848Y-15033984D01*
X7286848Y-15033984D02*
X7267801Y-15024460D01*
X7267801Y-15024460D02*
X7258277Y-15014936D01*
X7258277Y-15014936D02*
X7248753Y-14995888D01*
X7248753Y-14995888D02*
X7239229Y-14957793D01*
X7239229Y-14957793D02*
X7239229Y-14910174D01*
X7239229Y-14910174D02*
X7248753Y-14872079D01*
X7248753Y-14872079D02*
X7258277Y-14853031D01*
X7258277Y-14853031D02*
X7267801Y-14843508D01*
X7267801Y-14843508D02*
X7286848Y-14833984D01*
X7543991Y-15033984D02*
X7429706Y-15033984D01*
X7486848Y-15033984D02*
X7486848Y-14833984D01*
X7486848Y-14833984D02*
X7467801Y-14862555D01*
X7467801Y-14862555D02*
X7448753Y-14881603D01*
X7448753Y-14881603D02*
X7429706Y-14891127D01*
X7734467Y-15033984D02*
X7620182Y-15033984D01*
X7677325Y-15033984D02*
X7677325Y-14833984D01*
X7677325Y-14833984D02*
X7658277Y-14862555D01*
X7658277Y-14862555D02*
X7639229Y-14881603D01*
X7639229Y-14881603D02*
X7620182Y-14891127D01*
X7848753Y-14919698D02*
X7829706Y-14910174D01*
X7829706Y-14910174D02*
X7820182Y-14900650D01*
X7820182Y-14900650D02*
X7810658Y-14881603D01*
X7810658Y-14881603D02*
X7810658Y-14872079D01*
X7810658Y-14872079D02*
X7820182Y-14853031D01*
X7820182Y-14853031D02*
X7829706Y-14843508D01*
X7829706Y-14843508D02*
X7848753Y-14833984D01*
X7848753Y-14833984D02*
X7886848Y-14833984D01*
X7886848Y-14833984D02*
X7905896Y-14843508D01*
X7905896Y-14843508D02*
X7915420Y-14853031D01*
X7915420Y-14853031D02*
X7924944Y-14872079D01*
X7924944Y-14872079D02*
X7924944Y-14881603D01*
X7924944Y-14881603D02*
X7915420Y-14900650D01*
X7915420Y-14900650D02*
X7905896Y-14910174D01*
X7905896Y-14910174D02*
X7886848Y-14919698D01*
X7886848Y-14919698D02*
X7848753Y-14919698D01*
X7848753Y-14919698D02*
X7829706Y-14929222D01*
X7829706Y-14929222D02*
X7820182Y-14938746D01*
X7820182Y-14938746D02*
X7810658Y-14957793D01*
X7810658Y-14957793D02*
X7810658Y-14995888D01*
X7810658Y-14995888D02*
X7820182Y-15014936D01*
X7820182Y-15014936D02*
X7829706Y-15024460D01*
X7829706Y-15024460D02*
X7848753Y-15033984D01*
X7848753Y-15033984D02*
X7886848Y-15033984D01*
X7886848Y-15033984D02*
X7905896Y-15024460D01*
X7905896Y-15024460D02*
X7915420Y-15014936D01*
X7915420Y-15014936D02*
X7924944Y-14995888D01*
X7924944Y-14995888D02*
X7924944Y-14957793D01*
X7924944Y-14957793D02*
X7915420Y-14938746D01*
X7915420Y-14938746D02*
X7905896Y-14929222D01*
X7905896Y-14929222D02*
X7886848Y-14919698D01*
X8001134Y-14833984D02*
X8001134Y-14872079D01*
X8077325Y-14833984D02*
X8077325Y-14872079D01*
X8372563Y-15110174D02*
X8363039Y-15100650D01*
X8363039Y-15100650D02*
X8343991Y-15072079D01*
X8343991Y-15072079D02*
X8334468Y-15053031D01*
X8334468Y-15053031D02*
X8324944Y-15024460D01*
X8324944Y-15024460D02*
X8315420Y-14976841D01*
X8315420Y-14976841D02*
X8315420Y-14938746D01*
X8315420Y-14938746D02*
X8324944Y-14891127D01*
X8324944Y-14891127D02*
X8334468Y-14862555D01*
X8334468Y-14862555D02*
X8343991Y-14843508D01*
X8343991Y-14843508D02*
X8363039Y-14814936D01*
X8363039Y-14814936D02*
X8372563Y-14805412D01*
X8553515Y-15033984D02*
X8439230Y-15033984D01*
X8496372Y-15033984D02*
X8496372Y-14833984D01*
X8496372Y-14833984D02*
X8477325Y-14862555D01*
X8477325Y-14862555D02*
X8458277Y-14881603D01*
X8458277Y-14881603D02*
X8439230Y-14891127D01*
X8620182Y-14833984D02*
X8743991Y-14833984D01*
X8743991Y-14833984D02*
X8677325Y-14910174D01*
X8677325Y-14910174D02*
X8705896Y-14910174D01*
X8705896Y-14910174D02*
X8724944Y-14919698D01*
X8724944Y-14919698D02*
X8734468Y-14929222D01*
X8734468Y-14929222D02*
X8743991Y-14948269D01*
X8743991Y-14948269D02*
X8743991Y-14995888D01*
X8743991Y-14995888D02*
X8734468Y-15014936D01*
X8734468Y-15014936D02*
X8724944Y-15024460D01*
X8724944Y-15024460D02*
X8705896Y-15033984D01*
X8705896Y-15033984D02*
X8648753Y-15033984D01*
X8648753Y-15033984D02*
X8629706Y-15024460D01*
X8629706Y-15024460D02*
X8620182Y-15014936D01*
X8810658Y-14833984D02*
X8943991Y-14833984D01*
X8943991Y-14833984D02*
X8858277Y-15033984D01*
X9172563Y-15033984D02*
X9172563Y-14833984D01*
X9258277Y-15033984D02*
X9258277Y-14929222D01*
X9258277Y-14929222D02*
X9248753Y-14910174D01*
X9248753Y-14910174D02*
X9229706Y-14900650D01*
X9229706Y-14900650D02*
X9201134Y-14900650D01*
X9201134Y-14900650D02*
X9182087Y-14910174D01*
X9182087Y-14910174D02*
X9172563Y-14919698D01*
X9382087Y-15033984D02*
X9363039Y-15024460D01*
X9363039Y-15024460D02*
X9353515Y-15014936D01*
X9353515Y-15014936D02*
X9343992Y-14995888D01*
X9343992Y-14995888D02*
X9343992Y-14938746D01*
X9343992Y-14938746D02*
X9353515Y-14919698D01*
X9353515Y-14919698D02*
X9363039Y-14910174D01*
X9363039Y-14910174D02*
X9382087Y-14900650D01*
X9382087Y-14900650D02*
X9410658Y-14900650D01*
X9410658Y-14900650D02*
X9429706Y-14910174D01*
X9429706Y-14910174D02*
X9439230Y-14919698D01*
X9439230Y-14919698D02*
X9448753Y-14938746D01*
X9448753Y-14938746D02*
X9448753Y-14995888D01*
X9448753Y-14995888D02*
X9439230Y-15014936D01*
X9439230Y-15014936D02*
X9429706Y-15024460D01*
X9429706Y-15024460D02*
X9410658Y-15033984D01*
X9410658Y-15033984D02*
X9382087Y-15033984D01*
X9563039Y-15033984D02*
X9543992Y-15024460D01*
X9543992Y-15024460D02*
X9534468Y-15005412D01*
X9534468Y-15005412D02*
X9534468Y-14833984D01*
X9715420Y-15024460D02*
X9696373Y-15033984D01*
X9696373Y-15033984D02*
X9658277Y-15033984D01*
X9658277Y-15033984D02*
X9639230Y-15024460D01*
X9639230Y-15024460D02*
X9629706Y-15005412D01*
X9629706Y-15005412D02*
X9629706Y-14929222D01*
X9629706Y-14929222D02*
X9639230Y-14910174D01*
X9639230Y-14910174D02*
X9658277Y-14900650D01*
X9658277Y-14900650D02*
X9696373Y-14900650D01*
X9696373Y-14900650D02*
X9715420Y-14910174D01*
X9715420Y-14910174D02*
X9724944Y-14929222D01*
X9724944Y-14929222D02*
X9724944Y-14948269D01*
X9724944Y-14948269D02*
X9629706Y-14967317D01*
X9801134Y-15024460D02*
X9820182Y-15033984D01*
X9820182Y-15033984D02*
X9858277Y-15033984D01*
X9858277Y-15033984D02*
X9877325Y-15024460D01*
X9877325Y-15024460D02*
X9886849Y-15005412D01*
X9886849Y-15005412D02*
X9886849Y-14995888D01*
X9886849Y-14995888D02*
X9877325Y-14976841D01*
X9877325Y-14976841D02*
X9858277Y-14967317D01*
X9858277Y-14967317D02*
X9829706Y-14967317D01*
X9829706Y-14967317D02*
X9810658Y-14957793D01*
X9810658Y-14957793D02*
X9801134Y-14938746D01*
X9801134Y-14938746D02*
X9801134Y-14929222D01*
X9801134Y-14929222D02*
X9810658Y-14910174D01*
X9810658Y-14910174D02*
X9829706Y-14900650D01*
X9829706Y-14900650D02*
X9858277Y-14900650D01*
X9858277Y-14900650D02*
X9877325Y-14910174D01*
X9953515Y-15110174D02*
X9963039Y-15100650D01*
X9963039Y-15100650D02*
X9982087Y-15072079D01*
X9982087Y-15072079D02*
X9991611Y-15053031D01*
X9991611Y-15053031D02*
X10001134Y-15024460D01*
X10001134Y-15024460D02*
X10010658Y-14976841D01*
X10010658Y-14976841D02*
X10010658Y-14938746D01*
X10010658Y-14938746D02*
X10001134Y-14891127D01*
X10001134Y-14891127D02*
X9991611Y-14862555D01*
X9991611Y-14862555D02*
X9982087Y-14843508D01*
X9982087Y-14843508D02*
X9963039Y-14814936D01*
X9963039Y-14814936D02*
X9953515Y-14805412D01*
D12*
X4797500Y-15206500D02*
G75*
G02*
X4757500Y-15206500I-20000J0D01*
G01*
X4757500Y-15206500D02*
G75*
G02*
X4797500Y-15206500I20000J0D01*
G01*
D11*
X5096372Y-15097984D02*
X5115420Y-15097984D01*
X5115420Y-15097984D02*
X5134467Y-15107508D01*
X5134467Y-15107508D02*
X5143991Y-15117031D01*
X5143991Y-15117031D02*
X5153515Y-15136079D01*
X5153515Y-15136079D02*
X5163039Y-15174174D01*
X5163039Y-15174174D02*
X5163039Y-15221793D01*
X5163039Y-15221793D02*
X5153515Y-15259888D01*
X5153515Y-15259888D02*
X5143991Y-15278936D01*
X5143991Y-15278936D02*
X5134467Y-15288460D01*
X5134467Y-15288460D02*
X5115420Y-15297984D01*
X5115420Y-15297984D02*
X5096372Y-15297984D01*
X5096372Y-15297984D02*
X5077324Y-15288460D01*
X5077324Y-15288460D02*
X5067801Y-15278936D01*
X5067801Y-15278936D02*
X5058277Y-15259888D01*
X5058277Y-15259888D02*
X5048753Y-15221793D01*
X5048753Y-15221793D02*
X5048753Y-15174174D01*
X5048753Y-15174174D02*
X5058277Y-15136079D01*
X5058277Y-15136079D02*
X5067801Y-15117031D01*
X5067801Y-15117031D02*
X5077324Y-15107508D01*
X5077324Y-15107508D02*
X5096372Y-15097984D01*
X5248753Y-15278936D02*
X5258277Y-15288460D01*
X5258277Y-15288460D02*
X5248753Y-15297984D01*
X5248753Y-15297984D02*
X5239229Y-15288460D01*
X5239229Y-15288460D02*
X5248753Y-15278936D01*
X5248753Y-15278936D02*
X5248753Y-15297984D01*
X5429705Y-15164650D02*
X5429705Y-15297984D01*
X5382086Y-15088460D02*
X5334467Y-15231317D01*
X5334467Y-15231317D02*
X5458277Y-15231317D01*
X5572563Y-15097984D02*
X5591610Y-15097984D01*
X5591610Y-15097984D02*
X5610658Y-15107508D01*
X5610658Y-15107508D02*
X5620182Y-15117031D01*
X5620182Y-15117031D02*
X5629705Y-15136079D01*
X5629705Y-15136079D02*
X5639229Y-15174174D01*
X5639229Y-15174174D02*
X5639229Y-15221793D01*
X5639229Y-15221793D02*
X5629705Y-15259888D01*
X5629705Y-15259888D02*
X5620182Y-15278936D01*
X5620182Y-15278936D02*
X5610658Y-15288460D01*
X5610658Y-15288460D02*
X5591610Y-15297984D01*
X5591610Y-15297984D02*
X5572563Y-15297984D01*
X5572563Y-15297984D02*
X5553515Y-15288460D01*
X5553515Y-15288460D02*
X5543991Y-15278936D01*
X5543991Y-15278936D02*
X5534467Y-15259888D01*
X5534467Y-15259888D02*
X5524944Y-15221793D01*
X5524944Y-15221793D02*
X5524944Y-15174174D01*
X5524944Y-15174174D02*
X5534467Y-15136079D01*
X5534467Y-15136079D02*
X5543991Y-15117031D01*
X5543991Y-15117031D02*
X5553515Y-15107508D01*
X5553515Y-15107508D02*
X5572563Y-15097984D01*
X5763039Y-15097984D02*
X5782086Y-15097984D01*
X5782086Y-15097984D02*
X5801134Y-15107508D01*
X5801134Y-15107508D02*
X5810658Y-15117031D01*
X5810658Y-15117031D02*
X5820182Y-15136079D01*
X5820182Y-15136079D02*
X5829705Y-15174174D01*
X5829705Y-15174174D02*
X5829705Y-15221793D01*
X5829705Y-15221793D02*
X5820182Y-15259888D01*
X5820182Y-15259888D02*
X5810658Y-15278936D01*
X5810658Y-15278936D02*
X5801134Y-15288460D01*
X5801134Y-15288460D02*
X5782086Y-15297984D01*
X5782086Y-15297984D02*
X5763039Y-15297984D01*
X5763039Y-15297984D02*
X5743991Y-15288460D01*
X5743991Y-15288460D02*
X5734467Y-15278936D01*
X5734467Y-15278936D02*
X5724943Y-15259888D01*
X5724943Y-15259888D02*
X5715420Y-15221793D01*
X5715420Y-15221793D02*
X5715420Y-15174174D01*
X5715420Y-15174174D02*
X5724943Y-15136079D01*
X5724943Y-15136079D02*
X5734467Y-15117031D01*
X5734467Y-15117031D02*
X5743991Y-15107508D01*
X5743991Y-15107508D02*
X5763039Y-15097984D01*
X5915420Y-15297984D02*
X5915420Y-15164650D01*
X5915420Y-15183698D02*
X5924943Y-15174174D01*
X5924943Y-15174174D02*
X5943991Y-15164650D01*
X5943991Y-15164650D02*
X5972563Y-15164650D01*
X5972563Y-15164650D02*
X5991610Y-15174174D01*
X5991610Y-15174174D02*
X6001134Y-15193222D01*
X6001134Y-15193222D02*
X6001134Y-15297984D01*
X6001134Y-15193222D02*
X6010658Y-15174174D01*
X6010658Y-15174174D02*
X6029705Y-15164650D01*
X6029705Y-15164650D02*
X6058277Y-15164650D01*
X6058277Y-15164650D02*
X6077324Y-15174174D01*
X6077324Y-15174174D02*
X6086848Y-15193222D01*
X6086848Y-15193222D02*
X6086848Y-15297984D01*
X6182086Y-15297984D02*
X6182086Y-15164650D01*
X6182086Y-15183698D02*
X6191610Y-15174174D01*
X6191610Y-15174174D02*
X6210658Y-15164650D01*
X6210658Y-15164650D02*
X6239229Y-15164650D01*
X6239229Y-15164650D02*
X6258277Y-15174174D01*
X6258277Y-15174174D02*
X6267801Y-15193222D01*
X6267801Y-15193222D02*
X6267801Y-15297984D01*
X6267801Y-15193222D02*
X6277324Y-15174174D01*
X6277324Y-15174174D02*
X6296372Y-15164650D01*
X6296372Y-15164650D02*
X6324943Y-15164650D01*
X6324943Y-15164650D02*
X6343991Y-15174174D01*
X6343991Y-15174174D02*
X6353515Y-15193222D01*
X6353515Y-15193222D02*
X6353515Y-15297984D01*
X6743991Y-15088460D02*
X6572563Y-15345603D01*
X7001134Y-15097984D02*
X7020182Y-15097984D01*
X7020182Y-15097984D02*
X7039229Y-15107508D01*
X7039229Y-15107508D02*
X7048753Y-15117031D01*
X7048753Y-15117031D02*
X7058277Y-15136079D01*
X7058277Y-15136079D02*
X7067801Y-15174174D01*
X7067801Y-15174174D02*
X7067801Y-15221793D01*
X7067801Y-15221793D02*
X7058277Y-15259888D01*
X7058277Y-15259888D02*
X7048753Y-15278936D01*
X7048753Y-15278936D02*
X7039229Y-15288460D01*
X7039229Y-15288460D02*
X7020182Y-15297984D01*
X7020182Y-15297984D02*
X7001134Y-15297984D01*
X7001134Y-15297984D02*
X6982086Y-15288460D01*
X6982086Y-15288460D02*
X6972563Y-15278936D01*
X6972563Y-15278936D02*
X6963039Y-15259888D01*
X6963039Y-15259888D02*
X6953515Y-15221793D01*
X6953515Y-15221793D02*
X6953515Y-15174174D01*
X6953515Y-15174174D02*
X6963039Y-15136079D01*
X6963039Y-15136079D02*
X6972563Y-15117031D01*
X6972563Y-15117031D02*
X6982086Y-15107508D01*
X6982086Y-15107508D02*
X7001134Y-15097984D01*
X7153515Y-15278936D02*
X7163039Y-15288460D01*
X7163039Y-15288460D02*
X7153515Y-15297984D01*
X7153515Y-15297984D02*
X7143991Y-15288460D01*
X7143991Y-15288460D02*
X7153515Y-15278936D01*
X7153515Y-15278936D02*
X7153515Y-15297984D01*
X7286848Y-15097984D02*
X7305896Y-15097984D01*
X7305896Y-15097984D02*
X7324944Y-15107508D01*
X7324944Y-15107508D02*
X7334467Y-15117031D01*
X7334467Y-15117031D02*
X7343991Y-15136079D01*
X7343991Y-15136079D02*
X7353515Y-15174174D01*
X7353515Y-15174174D02*
X7353515Y-15221793D01*
X7353515Y-15221793D02*
X7343991Y-15259888D01*
X7343991Y-15259888D02*
X7334467Y-15278936D01*
X7334467Y-15278936D02*
X7324944Y-15288460D01*
X7324944Y-15288460D02*
X7305896Y-15297984D01*
X7305896Y-15297984D02*
X7286848Y-15297984D01*
X7286848Y-15297984D02*
X7267801Y-15288460D01*
X7267801Y-15288460D02*
X7258277Y-15278936D01*
X7258277Y-15278936D02*
X7248753Y-15259888D01*
X7248753Y-15259888D02*
X7239229Y-15221793D01*
X7239229Y-15221793D02*
X7239229Y-15174174D01*
X7239229Y-15174174D02*
X7248753Y-15136079D01*
X7248753Y-15136079D02*
X7258277Y-15117031D01*
X7258277Y-15117031D02*
X7267801Y-15107508D01*
X7267801Y-15107508D02*
X7286848Y-15097984D01*
X7543991Y-15297984D02*
X7429706Y-15297984D01*
X7486848Y-15297984D02*
X7486848Y-15097984D01*
X7486848Y-15097984D02*
X7467801Y-15126555D01*
X7467801Y-15126555D02*
X7448753Y-15145603D01*
X7448753Y-15145603D02*
X7429706Y-15155127D01*
X7724944Y-15097984D02*
X7629706Y-15097984D01*
X7629706Y-15097984D02*
X7620182Y-15193222D01*
X7620182Y-15193222D02*
X7629706Y-15183698D01*
X7629706Y-15183698D02*
X7648753Y-15174174D01*
X7648753Y-15174174D02*
X7696372Y-15174174D01*
X7696372Y-15174174D02*
X7715420Y-15183698D01*
X7715420Y-15183698D02*
X7724944Y-15193222D01*
X7724944Y-15193222D02*
X7734467Y-15212269D01*
X7734467Y-15212269D02*
X7734467Y-15259888D01*
X7734467Y-15259888D02*
X7724944Y-15278936D01*
X7724944Y-15278936D02*
X7715420Y-15288460D01*
X7715420Y-15288460D02*
X7696372Y-15297984D01*
X7696372Y-15297984D02*
X7648753Y-15297984D01*
X7648753Y-15297984D02*
X7629706Y-15288460D01*
X7629706Y-15288460D02*
X7620182Y-15278936D01*
X7801134Y-15097984D02*
X7934467Y-15097984D01*
X7934467Y-15097984D02*
X7848753Y-15297984D01*
X8001134Y-15097984D02*
X8001134Y-15136079D01*
X8077325Y-15097984D02*
X8077325Y-15136079D01*
X8372563Y-15374174D02*
X8363039Y-15364650D01*
X8363039Y-15364650D02*
X8343991Y-15336079D01*
X8343991Y-15336079D02*
X8334468Y-15317031D01*
X8334468Y-15317031D02*
X8324944Y-15288460D01*
X8324944Y-15288460D02*
X8315420Y-15240841D01*
X8315420Y-15240841D02*
X8315420Y-15202746D01*
X8315420Y-15202746D02*
X8324944Y-15155127D01*
X8324944Y-15155127D02*
X8334468Y-15126555D01*
X8334468Y-15126555D02*
X8343991Y-15107508D01*
X8343991Y-15107508D02*
X8363039Y-15078936D01*
X8363039Y-15078936D02*
X8372563Y-15069412D01*
X8534468Y-15164650D02*
X8534468Y-15297984D01*
X8486849Y-15088460D02*
X8439230Y-15231317D01*
X8439230Y-15231317D02*
X8563039Y-15231317D01*
X8791611Y-15297984D02*
X8791611Y-15097984D01*
X8877325Y-15297984D02*
X8877325Y-15193222D01*
X8877325Y-15193222D02*
X8867801Y-15174174D01*
X8867801Y-15174174D02*
X8848753Y-15164650D01*
X8848753Y-15164650D02*
X8820182Y-15164650D01*
X8820182Y-15164650D02*
X8801134Y-15174174D01*
X8801134Y-15174174D02*
X8791611Y-15183698D01*
X9001134Y-15297984D02*
X8982087Y-15288460D01*
X8982087Y-15288460D02*
X8972563Y-15278936D01*
X8972563Y-15278936D02*
X8963039Y-15259888D01*
X8963039Y-15259888D02*
X8963039Y-15202746D01*
X8963039Y-15202746D02*
X8972563Y-15183698D01*
X8972563Y-15183698D02*
X8982087Y-15174174D01*
X8982087Y-15174174D02*
X9001134Y-15164650D01*
X9001134Y-15164650D02*
X9029706Y-15164650D01*
X9029706Y-15164650D02*
X9048753Y-15174174D01*
X9048753Y-15174174D02*
X9058277Y-15183698D01*
X9058277Y-15183698D02*
X9067801Y-15202746D01*
X9067801Y-15202746D02*
X9067801Y-15259888D01*
X9067801Y-15259888D02*
X9058277Y-15278936D01*
X9058277Y-15278936D02*
X9048753Y-15288460D01*
X9048753Y-15288460D02*
X9029706Y-15297984D01*
X9029706Y-15297984D02*
X9001134Y-15297984D01*
X9182087Y-15297984D02*
X9163039Y-15288460D01*
X9163039Y-15288460D02*
X9153515Y-15269412D01*
X9153515Y-15269412D02*
X9153515Y-15097984D01*
X9334468Y-15288460D02*
X9315420Y-15297984D01*
X9315420Y-15297984D02*
X9277325Y-15297984D01*
X9277325Y-15297984D02*
X9258277Y-15288460D01*
X9258277Y-15288460D02*
X9248753Y-15269412D01*
X9248753Y-15269412D02*
X9248753Y-15193222D01*
X9248753Y-15193222D02*
X9258277Y-15174174D01*
X9258277Y-15174174D02*
X9277325Y-15164650D01*
X9277325Y-15164650D02*
X9315420Y-15164650D01*
X9315420Y-15164650D02*
X9334468Y-15174174D01*
X9334468Y-15174174D02*
X9343992Y-15193222D01*
X9343992Y-15193222D02*
X9343992Y-15212269D01*
X9343992Y-15212269D02*
X9248753Y-15231317D01*
X9420182Y-15288460D02*
X9439230Y-15297984D01*
X9439230Y-15297984D02*
X9477325Y-15297984D01*
X9477325Y-15297984D02*
X9496373Y-15288460D01*
X9496373Y-15288460D02*
X9505896Y-15269412D01*
X9505896Y-15269412D02*
X9505896Y-15259888D01*
X9505896Y-15259888D02*
X9496373Y-15240841D01*
X9496373Y-15240841D02*
X9477325Y-15231317D01*
X9477325Y-15231317D02*
X9448753Y-15231317D01*
X9448753Y-15231317D02*
X9429706Y-15221793D01*
X9429706Y-15221793D02*
X9420182Y-15202746D01*
X9420182Y-15202746D02*
X9420182Y-15193222D01*
X9420182Y-15193222D02*
X9429706Y-15174174D01*
X9429706Y-15174174D02*
X9448753Y-15164650D01*
X9448753Y-15164650D02*
X9477325Y-15164650D01*
X9477325Y-15164650D02*
X9496373Y-15174174D01*
X9572563Y-15374174D02*
X9582087Y-15364650D01*
X9582087Y-15364650D02*
X9601134Y-15336079D01*
X9601134Y-15336079D02*
X9610658Y-15317031D01*
X9610658Y-15317031D02*
X9620182Y-15288460D01*
X9620182Y-15288460D02*
X9629706Y-15240841D01*
X9629706Y-15240841D02*
X9629706Y-15202746D01*
X9629706Y-15202746D02*
X9620182Y-15155127D01*
X9620182Y-15155127D02*
X9610658Y-15126555D01*
X9610658Y-15126555D02*
X9601134Y-15107508D01*
X9601134Y-15107508D02*
X9582087Y-15078936D01*
X9582087Y-15078936D02*
X9572563Y-15069412D01*
D12*
X4765000Y-15438000D02*
X4765000Y-15503000D01*
X4732500Y-15470500D02*
X4797500Y-15470500D01*
D11*
X5096372Y-15361984D02*
X5115420Y-15361984D01*
X5115420Y-15361984D02*
X5134467Y-15371508D01*
X5134467Y-15371508D02*
X5143991Y-15381031D01*
X5143991Y-15381031D02*
X5153515Y-15400079D01*
X5153515Y-15400079D02*
X5163039Y-15438174D01*
X5163039Y-15438174D02*
X5163039Y-15485793D01*
X5163039Y-15485793D02*
X5153515Y-15523888D01*
X5153515Y-15523888D02*
X5143991Y-15542936D01*
X5143991Y-15542936D02*
X5134467Y-15552460D01*
X5134467Y-15552460D02*
X5115420Y-15561984D01*
X5115420Y-15561984D02*
X5096372Y-15561984D01*
X5096372Y-15561984D02*
X5077324Y-15552460D01*
X5077324Y-15552460D02*
X5067801Y-15542936D01*
X5067801Y-15542936D02*
X5058277Y-15523888D01*
X5058277Y-15523888D02*
X5048753Y-15485793D01*
X5048753Y-15485793D02*
X5048753Y-15438174D01*
X5048753Y-15438174D02*
X5058277Y-15400079D01*
X5058277Y-15400079D02*
X5067801Y-15381031D01*
X5067801Y-15381031D02*
X5077324Y-15371508D01*
X5077324Y-15371508D02*
X5096372Y-15361984D01*
X5248753Y-15542936D02*
X5258277Y-15552460D01*
X5258277Y-15552460D02*
X5248753Y-15561984D01*
X5248753Y-15561984D02*
X5239229Y-15552460D01*
X5239229Y-15552460D02*
X5248753Y-15542936D01*
X5248753Y-15542936D02*
X5248753Y-15561984D01*
X5429705Y-15361984D02*
X5391610Y-15361984D01*
X5391610Y-15361984D02*
X5372563Y-15371508D01*
X5372563Y-15371508D02*
X5363039Y-15381031D01*
X5363039Y-15381031D02*
X5343991Y-15409603D01*
X5343991Y-15409603D02*
X5334467Y-15447698D01*
X5334467Y-15447698D02*
X5334467Y-15523888D01*
X5334467Y-15523888D02*
X5343991Y-15542936D01*
X5343991Y-15542936D02*
X5353515Y-15552460D01*
X5353515Y-15552460D02*
X5372563Y-15561984D01*
X5372563Y-15561984D02*
X5410658Y-15561984D01*
X5410658Y-15561984D02*
X5429705Y-15552460D01*
X5429705Y-15552460D02*
X5439229Y-15542936D01*
X5439229Y-15542936D02*
X5448753Y-15523888D01*
X5448753Y-15523888D02*
X5448753Y-15476269D01*
X5448753Y-15476269D02*
X5439229Y-15457222D01*
X5439229Y-15457222D02*
X5429705Y-15447698D01*
X5429705Y-15447698D02*
X5410658Y-15438174D01*
X5410658Y-15438174D02*
X5372563Y-15438174D01*
X5372563Y-15438174D02*
X5353515Y-15447698D01*
X5353515Y-15447698D02*
X5343991Y-15457222D01*
X5343991Y-15457222D02*
X5334467Y-15476269D01*
X5629705Y-15361984D02*
X5534467Y-15361984D01*
X5534467Y-15361984D02*
X5524944Y-15457222D01*
X5524944Y-15457222D02*
X5534467Y-15447698D01*
X5534467Y-15447698D02*
X5553515Y-15438174D01*
X5553515Y-15438174D02*
X5601134Y-15438174D01*
X5601134Y-15438174D02*
X5620182Y-15447698D01*
X5620182Y-15447698D02*
X5629705Y-15457222D01*
X5629705Y-15457222D02*
X5639229Y-15476269D01*
X5639229Y-15476269D02*
X5639229Y-15523888D01*
X5639229Y-15523888D02*
X5629705Y-15542936D01*
X5629705Y-15542936D02*
X5620182Y-15552460D01*
X5620182Y-15552460D02*
X5601134Y-15561984D01*
X5601134Y-15561984D02*
X5553515Y-15561984D01*
X5553515Y-15561984D02*
X5534467Y-15552460D01*
X5534467Y-15552460D02*
X5524944Y-15542936D01*
X5763039Y-15361984D02*
X5782086Y-15361984D01*
X5782086Y-15361984D02*
X5801134Y-15371508D01*
X5801134Y-15371508D02*
X5810658Y-15381031D01*
X5810658Y-15381031D02*
X5820182Y-15400079D01*
X5820182Y-15400079D02*
X5829705Y-15438174D01*
X5829705Y-15438174D02*
X5829705Y-15485793D01*
X5829705Y-15485793D02*
X5820182Y-15523888D01*
X5820182Y-15523888D02*
X5810658Y-15542936D01*
X5810658Y-15542936D02*
X5801134Y-15552460D01*
X5801134Y-15552460D02*
X5782086Y-15561984D01*
X5782086Y-15561984D02*
X5763039Y-15561984D01*
X5763039Y-15561984D02*
X5743991Y-15552460D01*
X5743991Y-15552460D02*
X5734467Y-15542936D01*
X5734467Y-15542936D02*
X5724943Y-15523888D01*
X5724943Y-15523888D02*
X5715420Y-15485793D01*
X5715420Y-15485793D02*
X5715420Y-15438174D01*
X5715420Y-15438174D02*
X5724943Y-15400079D01*
X5724943Y-15400079D02*
X5734467Y-15381031D01*
X5734467Y-15381031D02*
X5743991Y-15371508D01*
X5743991Y-15371508D02*
X5763039Y-15361984D01*
X5915420Y-15561984D02*
X5915420Y-15428650D01*
X5915420Y-15447698D02*
X5924943Y-15438174D01*
X5924943Y-15438174D02*
X5943991Y-15428650D01*
X5943991Y-15428650D02*
X5972563Y-15428650D01*
X5972563Y-15428650D02*
X5991610Y-15438174D01*
X5991610Y-15438174D02*
X6001134Y-15457222D01*
X6001134Y-15457222D02*
X6001134Y-15561984D01*
X6001134Y-15457222D02*
X6010658Y-15438174D01*
X6010658Y-15438174D02*
X6029705Y-15428650D01*
X6029705Y-15428650D02*
X6058277Y-15428650D01*
X6058277Y-15428650D02*
X6077324Y-15438174D01*
X6077324Y-15438174D02*
X6086848Y-15457222D01*
X6086848Y-15457222D02*
X6086848Y-15561984D01*
X6182086Y-15561984D02*
X6182086Y-15428650D01*
X6182086Y-15447698D02*
X6191610Y-15438174D01*
X6191610Y-15438174D02*
X6210658Y-15428650D01*
X6210658Y-15428650D02*
X6239229Y-15428650D01*
X6239229Y-15428650D02*
X6258277Y-15438174D01*
X6258277Y-15438174D02*
X6267801Y-15457222D01*
X6267801Y-15457222D02*
X6267801Y-15561984D01*
X6267801Y-15457222D02*
X6277324Y-15438174D01*
X6277324Y-15438174D02*
X6296372Y-15428650D01*
X6296372Y-15428650D02*
X6324943Y-15428650D01*
X6324943Y-15428650D02*
X6343991Y-15438174D01*
X6343991Y-15438174D02*
X6353515Y-15457222D01*
X6353515Y-15457222D02*
X6353515Y-15561984D01*
X6743991Y-15352460D02*
X6572563Y-15609603D01*
X7001134Y-15361984D02*
X7020182Y-15361984D01*
X7020182Y-15361984D02*
X7039229Y-15371508D01*
X7039229Y-15371508D02*
X7048753Y-15381031D01*
X7048753Y-15381031D02*
X7058277Y-15400079D01*
X7058277Y-15400079D02*
X7067801Y-15438174D01*
X7067801Y-15438174D02*
X7067801Y-15485793D01*
X7067801Y-15485793D02*
X7058277Y-15523888D01*
X7058277Y-15523888D02*
X7048753Y-15542936D01*
X7048753Y-15542936D02*
X7039229Y-15552460D01*
X7039229Y-15552460D02*
X7020182Y-15561984D01*
X7020182Y-15561984D02*
X7001134Y-15561984D01*
X7001134Y-15561984D02*
X6982086Y-15552460D01*
X6982086Y-15552460D02*
X6972563Y-15542936D01*
X6972563Y-15542936D02*
X6963039Y-15523888D01*
X6963039Y-15523888D02*
X6953515Y-15485793D01*
X6953515Y-15485793D02*
X6953515Y-15438174D01*
X6953515Y-15438174D02*
X6963039Y-15400079D01*
X6963039Y-15400079D02*
X6972563Y-15381031D01*
X6972563Y-15381031D02*
X6982086Y-15371508D01*
X6982086Y-15371508D02*
X7001134Y-15361984D01*
X7153515Y-15542936D02*
X7163039Y-15552460D01*
X7163039Y-15552460D02*
X7153515Y-15561984D01*
X7153515Y-15561984D02*
X7143991Y-15552460D01*
X7143991Y-15552460D02*
X7153515Y-15542936D01*
X7153515Y-15542936D02*
X7153515Y-15561984D01*
X7286848Y-15361984D02*
X7305896Y-15361984D01*
X7305896Y-15361984D02*
X7324944Y-15371508D01*
X7324944Y-15371508D02*
X7334467Y-15381031D01*
X7334467Y-15381031D02*
X7343991Y-15400079D01*
X7343991Y-15400079D02*
X7353515Y-15438174D01*
X7353515Y-15438174D02*
X7353515Y-15485793D01*
X7353515Y-15485793D02*
X7343991Y-15523888D01*
X7343991Y-15523888D02*
X7334467Y-15542936D01*
X7334467Y-15542936D02*
X7324944Y-15552460D01*
X7324944Y-15552460D02*
X7305896Y-15561984D01*
X7305896Y-15561984D02*
X7286848Y-15561984D01*
X7286848Y-15561984D02*
X7267801Y-15552460D01*
X7267801Y-15552460D02*
X7258277Y-15542936D01*
X7258277Y-15542936D02*
X7248753Y-15523888D01*
X7248753Y-15523888D02*
X7239229Y-15485793D01*
X7239229Y-15485793D02*
X7239229Y-15438174D01*
X7239229Y-15438174D02*
X7248753Y-15400079D01*
X7248753Y-15400079D02*
X7258277Y-15381031D01*
X7258277Y-15381031D02*
X7267801Y-15371508D01*
X7267801Y-15371508D02*
X7286848Y-15361984D01*
X7429706Y-15381031D02*
X7439229Y-15371508D01*
X7439229Y-15371508D02*
X7458277Y-15361984D01*
X7458277Y-15361984D02*
X7505896Y-15361984D01*
X7505896Y-15361984D02*
X7524944Y-15371508D01*
X7524944Y-15371508D02*
X7534467Y-15381031D01*
X7534467Y-15381031D02*
X7543991Y-15400079D01*
X7543991Y-15400079D02*
X7543991Y-15419127D01*
X7543991Y-15419127D02*
X7534467Y-15447698D01*
X7534467Y-15447698D02*
X7420182Y-15561984D01*
X7420182Y-15561984D02*
X7543991Y-15561984D01*
X7724944Y-15361984D02*
X7629706Y-15361984D01*
X7629706Y-15361984D02*
X7620182Y-15457222D01*
X7620182Y-15457222D02*
X7629706Y-15447698D01*
X7629706Y-15447698D02*
X7648753Y-15438174D01*
X7648753Y-15438174D02*
X7696372Y-15438174D01*
X7696372Y-15438174D02*
X7715420Y-15447698D01*
X7715420Y-15447698D02*
X7724944Y-15457222D01*
X7724944Y-15457222D02*
X7734467Y-15476269D01*
X7734467Y-15476269D02*
X7734467Y-15523888D01*
X7734467Y-15523888D02*
X7724944Y-15542936D01*
X7724944Y-15542936D02*
X7715420Y-15552460D01*
X7715420Y-15552460D02*
X7696372Y-15561984D01*
X7696372Y-15561984D02*
X7648753Y-15561984D01*
X7648753Y-15561984D02*
X7629706Y-15552460D01*
X7629706Y-15552460D02*
X7620182Y-15542936D01*
X7905896Y-15361984D02*
X7867801Y-15361984D01*
X7867801Y-15361984D02*
X7848753Y-15371508D01*
X7848753Y-15371508D02*
X7839229Y-15381031D01*
X7839229Y-15381031D02*
X7820182Y-15409603D01*
X7820182Y-15409603D02*
X7810658Y-15447698D01*
X7810658Y-15447698D02*
X7810658Y-15523888D01*
X7810658Y-15523888D02*
X7820182Y-15542936D01*
X7820182Y-15542936D02*
X7829706Y-15552460D01*
X7829706Y-15552460D02*
X7848753Y-15561984D01*
X7848753Y-15561984D02*
X7886848Y-15561984D01*
X7886848Y-15561984D02*
X7905896Y-15552460D01*
X7905896Y-15552460D02*
X7915420Y-15542936D01*
X7915420Y-15542936D02*
X7924944Y-15523888D01*
X7924944Y-15523888D02*
X7924944Y-15476269D01*
X7924944Y-15476269D02*
X7915420Y-15457222D01*
X7915420Y-15457222D02*
X7905896Y-15447698D01*
X7905896Y-15447698D02*
X7886848Y-15438174D01*
X7886848Y-15438174D02*
X7848753Y-15438174D01*
X7848753Y-15438174D02*
X7829706Y-15447698D01*
X7829706Y-15447698D02*
X7820182Y-15457222D01*
X7820182Y-15457222D02*
X7810658Y-15476269D01*
X8001134Y-15361984D02*
X8001134Y-15400079D01*
X8077325Y-15361984D02*
X8077325Y-15400079D01*
X8372563Y-15638174D02*
X8363039Y-15628650D01*
X8363039Y-15628650D02*
X8343991Y-15600079D01*
X8343991Y-15600079D02*
X8334468Y-15581031D01*
X8334468Y-15581031D02*
X8324944Y-15552460D01*
X8324944Y-15552460D02*
X8315420Y-15504841D01*
X8315420Y-15504841D02*
X8315420Y-15466746D01*
X8315420Y-15466746D02*
X8324944Y-15419127D01*
X8324944Y-15419127D02*
X8334468Y-15390555D01*
X8334468Y-15390555D02*
X8343991Y-15371508D01*
X8343991Y-15371508D02*
X8363039Y-15342936D01*
X8363039Y-15342936D02*
X8372563Y-15333412D01*
X8534468Y-15361984D02*
X8496372Y-15361984D01*
X8496372Y-15361984D02*
X8477325Y-15371508D01*
X8477325Y-15371508D02*
X8467801Y-15381031D01*
X8467801Y-15381031D02*
X8448753Y-15409603D01*
X8448753Y-15409603D02*
X8439230Y-15447698D01*
X8439230Y-15447698D02*
X8439230Y-15523888D01*
X8439230Y-15523888D02*
X8448753Y-15542936D01*
X8448753Y-15542936D02*
X8458277Y-15552460D01*
X8458277Y-15552460D02*
X8477325Y-15561984D01*
X8477325Y-15561984D02*
X8515420Y-15561984D01*
X8515420Y-15561984D02*
X8534468Y-15552460D01*
X8534468Y-15552460D02*
X8543991Y-15542936D01*
X8543991Y-15542936D02*
X8553515Y-15523888D01*
X8553515Y-15523888D02*
X8553515Y-15476269D01*
X8553515Y-15476269D02*
X8543991Y-15457222D01*
X8543991Y-15457222D02*
X8534468Y-15447698D01*
X8534468Y-15447698D02*
X8515420Y-15438174D01*
X8515420Y-15438174D02*
X8477325Y-15438174D01*
X8477325Y-15438174D02*
X8458277Y-15447698D01*
X8458277Y-15447698D02*
X8448753Y-15457222D01*
X8448753Y-15457222D02*
X8439230Y-15476269D01*
X8791611Y-15561984D02*
X8791611Y-15361984D01*
X8877325Y-15561984D02*
X8877325Y-15457222D01*
X8877325Y-15457222D02*
X8867801Y-15438174D01*
X8867801Y-15438174D02*
X8848753Y-15428650D01*
X8848753Y-15428650D02*
X8820182Y-15428650D01*
X8820182Y-15428650D02*
X8801134Y-15438174D01*
X8801134Y-15438174D02*
X8791611Y-15447698D01*
X9001134Y-15561984D02*
X8982087Y-15552460D01*
X8982087Y-15552460D02*
X8972563Y-15542936D01*
X8972563Y-15542936D02*
X8963039Y-15523888D01*
X8963039Y-15523888D02*
X8963039Y-15466746D01*
X8963039Y-15466746D02*
X8972563Y-15447698D01*
X8972563Y-15447698D02*
X8982087Y-15438174D01*
X8982087Y-15438174D02*
X9001134Y-15428650D01*
X9001134Y-15428650D02*
X9029706Y-15428650D01*
X9029706Y-15428650D02*
X9048753Y-15438174D01*
X9048753Y-15438174D02*
X9058277Y-15447698D01*
X9058277Y-15447698D02*
X9067801Y-15466746D01*
X9067801Y-15466746D02*
X9067801Y-15523888D01*
X9067801Y-15523888D02*
X9058277Y-15542936D01*
X9058277Y-15542936D02*
X9048753Y-15552460D01*
X9048753Y-15552460D02*
X9029706Y-15561984D01*
X9029706Y-15561984D02*
X9001134Y-15561984D01*
X9182087Y-15561984D02*
X9163039Y-15552460D01*
X9163039Y-15552460D02*
X9153515Y-15533412D01*
X9153515Y-15533412D02*
X9153515Y-15361984D01*
X9334468Y-15552460D02*
X9315420Y-15561984D01*
X9315420Y-15561984D02*
X9277325Y-15561984D01*
X9277325Y-15561984D02*
X9258277Y-15552460D01*
X9258277Y-15552460D02*
X9248753Y-15533412D01*
X9248753Y-15533412D02*
X9248753Y-15457222D01*
X9248753Y-15457222D02*
X9258277Y-15438174D01*
X9258277Y-15438174D02*
X9277325Y-15428650D01*
X9277325Y-15428650D02*
X9315420Y-15428650D01*
X9315420Y-15428650D02*
X9334468Y-15438174D01*
X9334468Y-15438174D02*
X9343992Y-15457222D01*
X9343992Y-15457222D02*
X9343992Y-15476269D01*
X9343992Y-15476269D02*
X9248753Y-15495317D01*
X9420182Y-15552460D02*
X9439230Y-15561984D01*
X9439230Y-15561984D02*
X9477325Y-15561984D01*
X9477325Y-15561984D02*
X9496373Y-15552460D01*
X9496373Y-15552460D02*
X9505896Y-15533412D01*
X9505896Y-15533412D02*
X9505896Y-15523888D01*
X9505896Y-15523888D02*
X9496373Y-15504841D01*
X9496373Y-15504841D02*
X9477325Y-15495317D01*
X9477325Y-15495317D02*
X9448753Y-15495317D01*
X9448753Y-15495317D02*
X9429706Y-15485793D01*
X9429706Y-15485793D02*
X9420182Y-15466746D01*
X9420182Y-15466746D02*
X9420182Y-15457222D01*
X9420182Y-15457222D02*
X9429706Y-15438174D01*
X9429706Y-15438174D02*
X9448753Y-15428650D01*
X9448753Y-15428650D02*
X9477325Y-15428650D01*
X9477325Y-15428650D02*
X9496373Y-15438174D01*
X9572563Y-15638174D02*
X9582087Y-15628650D01*
X9582087Y-15628650D02*
X9601134Y-15600079D01*
X9601134Y-15600079D02*
X9610658Y-15581031D01*
X9610658Y-15581031D02*
X9620182Y-15552460D01*
X9620182Y-15552460D02*
X9629706Y-15504841D01*
X9629706Y-15504841D02*
X9629706Y-15466746D01*
X9629706Y-15466746D02*
X9620182Y-15419127D01*
X9620182Y-15419127D02*
X9610658Y-15390555D01*
X9610658Y-15390555D02*
X9601134Y-15371508D01*
X9601134Y-15371508D02*
X9582087Y-15342936D01*
X9582087Y-15342936D02*
X9572563Y-15333412D01*
D12*
X4782856Y-15769856D02*
X4782856Y-15699144D01*
X4712144Y-15699144D01*
X4712144Y-15769856D01*
X4782856Y-15769856D01*
D11*
X5163039Y-15825984D02*
X5048753Y-15825984D01*
X5105896Y-15825984D02*
X5105896Y-15625984D01*
X5105896Y-15625984D02*
X5086848Y-15654555D01*
X5086848Y-15654555D02*
X5067801Y-15673603D01*
X5067801Y-15673603D02*
X5048753Y-15683127D01*
X5248753Y-15806936D02*
X5258277Y-15816460D01*
X5258277Y-15816460D02*
X5248753Y-15825984D01*
X5248753Y-15825984D02*
X5239229Y-15816460D01*
X5239229Y-15816460D02*
X5248753Y-15806936D01*
X5248753Y-15806936D02*
X5248753Y-15825984D01*
X5382086Y-15625984D02*
X5401134Y-15625984D01*
X5401134Y-15625984D02*
X5420182Y-15635508D01*
X5420182Y-15635508D02*
X5429705Y-15645031D01*
X5429705Y-15645031D02*
X5439229Y-15664079D01*
X5439229Y-15664079D02*
X5448753Y-15702174D01*
X5448753Y-15702174D02*
X5448753Y-15749793D01*
X5448753Y-15749793D02*
X5439229Y-15787888D01*
X5439229Y-15787888D02*
X5429705Y-15806936D01*
X5429705Y-15806936D02*
X5420182Y-15816460D01*
X5420182Y-15816460D02*
X5401134Y-15825984D01*
X5401134Y-15825984D02*
X5382086Y-15825984D01*
X5382086Y-15825984D02*
X5363039Y-15816460D01*
X5363039Y-15816460D02*
X5353515Y-15806936D01*
X5353515Y-15806936D02*
X5343991Y-15787888D01*
X5343991Y-15787888D02*
X5334467Y-15749793D01*
X5334467Y-15749793D02*
X5334467Y-15702174D01*
X5334467Y-15702174D02*
X5343991Y-15664079D01*
X5343991Y-15664079D02*
X5353515Y-15645031D01*
X5353515Y-15645031D02*
X5363039Y-15635508D01*
X5363039Y-15635508D02*
X5382086Y-15625984D01*
X5572563Y-15625984D02*
X5591610Y-15625984D01*
X5591610Y-15625984D02*
X5610658Y-15635508D01*
X5610658Y-15635508D02*
X5620182Y-15645031D01*
X5620182Y-15645031D02*
X5629705Y-15664079D01*
X5629705Y-15664079D02*
X5639229Y-15702174D01*
X5639229Y-15702174D02*
X5639229Y-15749793D01*
X5639229Y-15749793D02*
X5629705Y-15787888D01*
X5629705Y-15787888D02*
X5620182Y-15806936D01*
X5620182Y-15806936D02*
X5610658Y-15816460D01*
X5610658Y-15816460D02*
X5591610Y-15825984D01*
X5591610Y-15825984D02*
X5572563Y-15825984D01*
X5572563Y-15825984D02*
X5553515Y-15816460D01*
X5553515Y-15816460D02*
X5543991Y-15806936D01*
X5543991Y-15806936D02*
X5534467Y-15787888D01*
X5534467Y-15787888D02*
X5524944Y-15749793D01*
X5524944Y-15749793D02*
X5524944Y-15702174D01*
X5524944Y-15702174D02*
X5534467Y-15664079D01*
X5534467Y-15664079D02*
X5543991Y-15645031D01*
X5543991Y-15645031D02*
X5553515Y-15635508D01*
X5553515Y-15635508D02*
X5572563Y-15625984D01*
X5763039Y-15625984D02*
X5782086Y-15625984D01*
X5782086Y-15625984D02*
X5801134Y-15635508D01*
X5801134Y-15635508D02*
X5810658Y-15645031D01*
X5810658Y-15645031D02*
X5820182Y-15664079D01*
X5820182Y-15664079D02*
X5829705Y-15702174D01*
X5829705Y-15702174D02*
X5829705Y-15749793D01*
X5829705Y-15749793D02*
X5820182Y-15787888D01*
X5820182Y-15787888D02*
X5810658Y-15806936D01*
X5810658Y-15806936D02*
X5801134Y-15816460D01*
X5801134Y-15816460D02*
X5782086Y-15825984D01*
X5782086Y-15825984D02*
X5763039Y-15825984D01*
X5763039Y-15825984D02*
X5743991Y-15816460D01*
X5743991Y-15816460D02*
X5734467Y-15806936D01*
X5734467Y-15806936D02*
X5724943Y-15787888D01*
X5724943Y-15787888D02*
X5715420Y-15749793D01*
X5715420Y-15749793D02*
X5715420Y-15702174D01*
X5715420Y-15702174D02*
X5724943Y-15664079D01*
X5724943Y-15664079D02*
X5734467Y-15645031D01*
X5734467Y-15645031D02*
X5743991Y-15635508D01*
X5743991Y-15635508D02*
X5763039Y-15625984D01*
X5915420Y-15825984D02*
X5915420Y-15692650D01*
X5915420Y-15711698D02*
X5924943Y-15702174D01*
X5924943Y-15702174D02*
X5943991Y-15692650D01*
X5943991Y-15692650D02*
X5972563Y-15692650D01*
X5972563Y-15692650D02*
X5991610Y-15702174D01*
X5991610Y-15702174D02*
X6001134Y-15721222D01*
X6001134Y-15721222D02*
X6001134Y-15825984D01*
X6001134Y-15721222D02*
X6010658Y-15702174D01*
X6010658Y-15702174D02*
X6029705Y-15692650D01*
X6029705Y-15692650D02*
X6058277Y-15692650D01*
X6058277Y-15692650D02*
X6077324Y-15702174D01*
X6077324Y-15702174D02*
X6086848Y-15721222D01*
X6086848Y-15721222D02*
X6086848Y-15825984D01*
X6182086Y-15825984D02*
X6182086Y-15692650D01*
X6182086Y-15711698D02*
X6191610Y-15702174D01*
X6191610Y-15702174D02*
X6210658Y-15692650D01*
X6210658Y-15692650D02*
X6239229Y-15692650D01*
X6239229Y-15692650D02*
X6258277Y-15702174D01*
X6258277Y-15702174D02*
X6267801Y-15721222D01*
X6267801Y-15721222D02*
X6267801Y-15825984D01*
X6267801Y-15721222D02*
X6277324Y-15702174D01*
X6277324Y-15702174D02*
X6296372Y-15692650D01*
X6296372Y-15692650D02*
X6324943Y-15692650D01*
X6324943Y-15692650D02*
X6343991Y-15702174D01*
X6343991Y-15702174D02*
X6353515Y-15721222D01*
X6353515Y-15721222D02*
X6353515Y-15825984D01*
X6743991Y-15616460D02*
X6572563Y-15873603D01*
X7001134Y-15625984D02*
X7020182Y-15625984D01*
X7020182Y-15625984D02*
X7039229Y-15635508D01*
X7039229Y-15635508D02*
X7048753Y-15645031D01*
X7048753Y-15645031D02*
X7058277Y-15664079D01*
X7058277Y-15664079D02*
X7067801Y-15702174D01*
X7067801Y-15702174D02*
X7067801Y-15749793D01*
X7067801Y-15749793D02*
X7058277Y-15787888D01*
X7058277Y-15787888D02*
X7048753Y-15806936D01*
X7048753Y-15806936D02*
X7039229Y-15816460D01*
X7039229Y-15816460D02*
X7020182Y-15825984D01*
X7020182Y-15825984D02*
X7001134Y-15825984D01*
X7001134Y-15825984D02*
X6982086Y-15816460D01*
X6982086Y-15816460D02*
X6972563Y-15806936D01*
X6972563Y-15806936D02*
X6963039Y-15787888D01*
X6963039Y-15787888D02*
X6953515Y-15749793D01*
X6953515Y-15749793D02*
X6953515Y-15702174D01*
X6953515Y-15702174D02*
X6963039Y-15664079D01*
X6963039Y-15664079D02*
X6972563Y-15645031D01*
X6972563Y-15645031D02*
X6982086Y-15635508D01*
X6982086Y-15635508D02*
X7001134Y-15625984D01*
X7153515Y-15806936D02*
X7163039Y-15816460D01*
X7163039Y-15816460D02*
X7153515Y-15825984D01*
X7153515Y-15825984D02*
X7143991Y-15816460D01*
X7143991Y-15816460D02*
X7153515Y-15806936D01*
X7153515Y-15806936D02*
X7153515Y-15825984D01*
X7286848Y-15625984D02*
X7305896Y-15625984D01*
X7305896Y-15625984D02*
X7324944Y-15635508D01*
X7324944Y-15635508D02*
X7334467Y-15645031D01*
X7334467Y-15645031D02*
X7343991Y-15664079D01*
X7343991Y-15664079D02*
X7353515Y-15702174D01*
X7353515Y-15702174D02*
X7353515Y-15749793D01*
X7353515Y-15749793D02*
X7343991Y-15787888D01*
X7343991Y-15787888D02*
X7334467Y-15806936D01*
X7334467Y-15806936D02*
X7324944Y-15816460D01*
X7324944Y-15816460D02*
X7305896Y-15825984D01*
X7305896Y-15825984D02*
X7286848Y-15825984D01*
X7286848Y-15825984D02*
X7267801Y-15816460D01*
X7267801Y-15816460D02*
X7258277Y-15806936D01*
X7258277Y-15806936D02*
X7248753Y-15787888D01*
X7248753Y-15787888D02*
X7239229Y-15749793D01*
X7239229Y-15749793D02*
X7239229Y-15702174D01*
X7239229Y-15702174D02*
X7248753Y-15664079D01*
X7248753Y-15664079D02*
X7258277Y-15645031D01*
X7258277Y-15645031D02*
X7267801Y-15635508D01*
X7267801Y-15635508D02*
X7286848Y-15625984D01*
X7420182Y-15625984D02*
X7543991Y-15625984D01*
X7543991Y-15625984D02*
X7477325Y-15702174D01*
X7477325Y-15702174D02*
X7505896Y-15702174D01*
X7505896Y-15702174D02*
X7524944Y-15711698D01*
X7524944Y-15711698D02*
X7534467Y-15721222D01*
X7534467Y-15721222D02*
X7543991Y-15740269D01*
X7543991Y-15740269D02*
X7543991Y-15787888D01*
X7543991Y-15787888D02*
X7534467Y-15806936D01*
X7534467Y-15806936D02*
X7524944Y-15816460D01*
X7524944Y-15816460D02*
X7505896Y-15825984D01*
X7505896Y-15825984D02*
X7448753Y-15825984D01*
X7448753Y-15825984D02*
X7429706Y-15816460D01*
X7429706Y-15816460D02*
X7420182Y-15806936D01*
X7639229Y-15825984D02*
X7677325Y-15825984D01*
X7677325Y-15825984D02*
X7696372Y-15816460D01*
X7696372Y-15816460D02*
X7705896Y-15806936D01*
X7705896Y-15806936D02*
X7724944Y-15778365D01*
X7724944Y-15778365D02*
X7734467Y-15740269D01*
X7734467Y-15740269D02*
X7734467Y-15664079D01*
X7734467Y-15664079D02*
X7724944Y-15645031D01*
X7724944Y-15645031D02*
X7715420Y-15635508D01*
X7715420Y-15635508D02*
X7696372Y-15625984D01*
X7696372Y-15625984D02*
X7658277Y-15625984D01*
X7658277Y-15625984D02*
X7639229Y-15635508D01*
X7639229Y-15635508D02*
X7629706Y-15645031D01*
X7629706Y-15645031D02*
X7620182Y-15664079D01*
X7620182Y-15664079D02*
X7620182Y-15711698D01*
X7620182Y-15711698D02*
X7629706Y-15730746D01*
X7629706Y-15730746D02*
X7639229Y-15740269D01*
X7639229Y-15740269D02*
X7658277Y-15749793D01*
X7658277Y-15749793D02*
X7696372Y-15749793D01*
X7696372Y-15749793D02*
X7715420Y-15740269D01*
X7715420Y-15740269D02*
X7724944Y-15730746D01*
X7724944Y-15730746D02*
X7734467Y-15711698D01*
X7905896Y-15692650D02*
X7905896Y-15825984D01*
X7858277Y-15616460D02*
X7810658Y-15759317D01*
X7810658Y-15759317D02*
X7934467Y-15759317D01*
X8001134Y-15625984D02*
X8001134Y-15664079D01*
X8077325Y-15625984D02*
X8077325Y-15664079D01*
X8372563Y-15902174D02*
X8363039Y-15892650D01*
X8363039Y-15892650D02*
X8343991Y-15864079D01*
X8343991Y-15864079D02*
X8334468Y-15845031D01*
X8334468Y-15845031D02*
X8324944Y-15816460D01*
X8324944Y-15816460D02*
X8315420Y-15768841D01*
X8315420Y-15768841D02*
X8315420Y-15730746D01*
X8315420Y-15730746D02*
X8324944Y-15683127D01*
X8324944Y-15683127D02*
X8334468Y-15654555D01*
X8334468Y-15654555D02*
X8343991Y-15635508D01*
X8343991Y-15635508D02*
X8363039Y-15606936D01*
X8363039Y-15606936D02*
X8372563Y-15597412D01*
X8486849Y-15625984D02*
X8505896Y-15625984D01*
X8505896Y-15625984D02*
X8524944Y-15635508D01*
X8524944Y-15635508D02*
X8534468Y-15645031D01*
X8534468Y-15645031D02*
X8543991Y-15664079D01*
X8543991Y-15664079D02*
X8553515Y-15702174D01*
X8553515Y-15702174D02*
X8553515Y-15749793D01*
X8553515Y-15749793D02*
X8543991Y-15787888D01*
X8543991Y-15787888D02*
X8534468Y-15806936D01*
X8534468Y-15806936D02*
X8524944Y-15816460D01*
X8524944Y-15816460D02*
X8505896Y-15825984D01*
X8505896Y-15825984D02*
X8486849Y-15825984D01*
X8486849Y-15825984D02*
X8467801Y-15816460D01*
X8467801Y-15816460D02*
X8458277Y-15806936D01*
X8458277Y-15806936D02*
X8448753Y-15787888D01*
X8448753Y-15787888D02*
X8439230Y-15749793D01*
X8439230Y-15749793D02*
X8439230Y-15702174D01*
X8439230Y-15702174D02*
X8448753Y-15664079D01*
X8448753Y-15664079D02*
X8458277Y-15645031D01*
X8458277Y-15645031D02*
X8467801Y-15635508D01*
X8467801Y-15635508D02*
X8486849Y-15625984D01*
X8791611Y-15825984D02*
X8791611Y-15625984D01*
X8877325Y-15825984D02*
X8877325Y-15721222D01*
X8877325Y-15721222D02*
X8867801Y-15702174D01*
X8867801Y-15702174D02*
X8848753Y-15692650D01*
X8848753Y-15692650D02*
X8820182Y-15692650D01*
X8820182Y-15692650D02*
X8801134Y-15702174D01*
X8801134Y-15702174D02*
X8791611Y-15711698D01*
X9001134Y-15825984D02*
X8982087Y-15816460D01*
X8982087Y-15816460D02*
X8972563Y-15806936D01*
X8972563Y-15806936D02*
X8963039Y-15787888D01*
X8963039Y-15787888D02*
X8963039Y-15730746D01*
X8963039Y-15730746D02*
X8972563Y-15711698D01*
X8972563Y-15711698D02*
X8982087Y-15702174D01*
X8982087Y-15702174D02*
X9001134Y-15692650D01*
X9001134Y-15692650D02*
X9029706Y-15692650D01*
X9029706Y-15692650D02*
X9048753Y-15702174D01*
X9048753Y-15702174D02*
X9058277Y-15711698D01*
X9058277Y-15711698D02*
X9067801Y-15730746D01*
X9067801Y-15730746D02*
X9067801Y-15787888D01*
X9067801Y-15787888D02*
X9058277Y-15806936D01*
X9058277Y-15806936D02*
X9048753Y-15816460D01*
X9048753Y-15816460D02*
X9029706Y-15825984D01*
X9029706Y-15825984D02*
X9001134Y-15825984D01*
X9182087Y-15825984D02*
X9163039Y-15816460D01*
X9163039Y-15816460D02*
X9153515Y-15797412D01*
X9153515Y-15797412D02*
X9153515Y-15625984D01*
X9334468Y-15816460D02*
X9315420Y-15825984D01*
X9315420Y-15825984D02*
X9277325Y-15825984D01*
X9277325Y-15825984D02*
X9258277Y-15816460D01*
X9258277Y-15816460D02*
X9248753Y-15797412D01*
X9248753Y-15797412D02*
X9248753Y-15721222D01*
X9248753Y-15721222D02*
X9258277Y-15702174D01*
X9258277Y-15702174D02*
X9277325Y-15692650D01*
X9277325Y-15692650D02*
X9315420Y-15692650D01*
X9315420Y-15692650D02*
X9334468Y-15702174D01*
X9334468Y-15702174D02*
X9343992Y-15721222D01*
X9343992Y-15721222D02*
X9343992Y-15740269D01*
X9343992Y-15740269D02*
X9248753Y-15759317D01*
X9420182Y-15816460D02*
X9439230Y-15825984D01*
X9439230Y-15825984D02*
X9477325Y-15825984D01*
X9477325Y-15825984D02*
X9496373Y-15816460D01*
X9496373Y-15816460D02*
X9505896Y-15797412D01*
X9505896Y-15797412D02*
X9505896Y-15787888D01*
X9505896Y-15787888D02*
X9496373Y-15768841D01*
X9496373Y-15768841D02*
X9477325Y-15759317D01*
X9477325Y-15759317D02*
X9448753Y-15759317D01*
X9448753Y-15759317D02*
X9429706Y-15749793D01*
X9429706Y-15749793D02*
X9420182Y-15730746D01*
X9420182Y-15730746D02*
X9420182Y-15721222D01*
X9420182Y-15721222D02*
X9429706Y-15702174D01*
X9429706Y-15702174D02*
X9448753Y-15692650D01*
X9448753Y-15692650D02*
X9477325Y-15692650D01*
X9477325Y-15692650D02*
X9496373Y-15702174D01*
X9743992Y-15749793D02*
X9896373Y-15749793D01*
X9820182Y-15825984D02*
X9820182Y-15673603D01*
X10124944Y-15625984D02*
X10248754Y-15625984D01*
X10248754Y-15625984D02*
X10182087Y-15702174D01*
X10182087Y-15702174D02*
X10210658Y-15702174D01*
X10210658Y-15702174D02*
X10229706Y-15711698D01*
X10229706Y-15711698D02*
X10239230Y-15721222D01*
X10239230Y-15721222D02*
X10248754Y-15740269D01*
X10248754Y-15740269D02*
X10248754Y-15787888D01*
X10248754Y-15787888D02*
X10239230Y-15806936D01*
X10239230Y-15806936D02*
X10229706Y-15816460D01*
X10229706Y-15816460D02*
X10210658Y-15825984D01*
X10210658Y-15825984D02*
X10153515Y-15825984D01*
X10153515Y-15825984D02*
X10134468Y-15816460D01*
X10134468Y-15816460D02*
X10124944Y-15806936D01*
X10477325Y-15816460D02*
X10496373Y-15825984D01*
X10496373Y-15825984D02*
X10534468Y-15825984D01*
X10534468Y-15825984D02*
X10553516Y-15816460D01*
X10553516Y-15816460D02*
X10563039Y-15797412D01*
X10563039Y-15797412D02*
X10563039Y-15787888D01*
X10563039Y-15787888D02*
X10553516Y-15768841D01*
X10553516Y-15768841D02*
X10534468Y-15759317D01*
X10534468Y-15759317D02*
X10505896Y-15759317D01*
X10505896Y-15759317D02*
X10486849Y-15749793D01*
X10486849Y-15749793D02*
X10477325Y-15730746D01*
X10477325Y-15730746D02*
X10477325Y-15721222D01*
X10477325Y-15721222D02*
X10486849Y-15702174D01*
X10486849Y-15702174D02*
X10505896Y-15692650D01*
X10505896Y-15692650D02*
X10534468Y-15692650D01*
X10534468Y-15692650D02*
X10553516Y-15702174D01*
X10677325Y-15825984D02*
X10658277Y-15816460D01*
X10658277Y-15816460D02*
X10648754Y-15797412D01*
X10648754Y-15797412D02*
X10648754Y-15625984D01*
X10782087Y-15825984D02*
X10763039Y-15816460D01*
X10763039Y-15816460D02*
X10753516Y-15806936D01*
X10753516Y-15806936D02*
X10743992Y-15787888D01*
X10743992Y-15787888D02*
X10743992Y-15730746D01*
X10743992Y-15730746D02*
X10753516Y-15711698D01*
X10753516Y-15711698D02*
X10763039Y-15702174D01*
X10763039Y-15702174D02*
X10782087Y-15692650D01*
X10782087Y-15692650D02*
X10810658Y-15692650D01*
X10810658Y-15692650D02*
X10829706Y-15702174D01*
X10829706Y-15702174D02*
X10839230Y-15711698D01*
X10839230Y-15711698D02*
X10848754Y-15730746D01*
X10848754Y-15730746D02*
X10848754Y-15787888D01*
X10848754Y-15787888D02*
X10839230Y-15806936D01*
X10839230Y-15806936D02*
X10829706Y-15816460D01*
X10829706Y-15816460D02*
X10810658Y-15825984D01*
X10810658Y-15825984D02*
X10782087Y-15825984D01*
X10905897Y-15692650D02*
X10982087Y-15692650D01*
X10934468Y-15625984D02*
X10934468Y-15797412D01*
X10934468Y-15797412D02*
X10943992Y-15816460D01*
X10943992Y-15816460D02*
X10963039Y-15825984D01*
X10963039Y-15825984D02*
X10982087Y-15825984D01*
X11039230Y-15816460D02*
X11058277Y-15825984D01*
X11058277Y-15825984D02*
X11096373Y-15825984D01*
X11096373Y-15825984D02*
X11115420Y-15816460D01*
X11115420Y-15816460D02*
X11124944Y-15797412D01*
X11124944Y-15797412D02*
X11124944Y-15787888D01*
X11124944Y-15787888D02*
X11115420Y-15768841D01*
X11115420Y-15768841D02*
X11096373Y-15759317D01*
X11096373Y-15759317D02*
X11067801Y-15759317D01*
X11067801Y-15759317D02*
X11048754Y-15749793D01*
X11048754Y-15749793D02*
X11039230Y-15730746D01*
X11039230Y-15730746D02*
X11039230Y-15721222D01*
X11039230Y-15721222D02*
X11048754Y-15702174D01*
X11048754Y-15702174D02*
X11067801Y-15692650D01*
X11067801Y-15692650D02*
X11096373Y-15692650D01*
X11096373Y-15692650D02*
X11115420Y-15702174D01*
X11191611Y-15902174D02*
X11201135Y-15892650D01*
X11201135Y-15892650D02*
X11220182Y-15864079D01*
X11220182Y-15864079D02*
X11229706Y-15845031D01*
X11229706Y-15845031D02*
X11239230Y-15816460D01*
X11239230Y-15816460D02*
X11248754Y-15768841D01*
X11248754Y-15768841D02*
X11248754Y-15730746D01*
X11248754Y-15730746D02*
X11239230Y-15683127D01*
X11239230Y-15683127D02*
X11229706Y-15654555D01*
X11229706Y-15654555D02*
X11220182Y-15635508D01*
X11220182Y-15635508D02*
X11201135Y-15606936D01*
X11201135Y-15606936D02*
X11191611Y-15597412D01*
D13*
X4742500Y-16053500D02*
X4797500Y-15998500D01*
X4742500Y-15943500D01*
X4687500Y-15998500D01*
X4742500Y-16053500D01*
D11*
X5163039Y-16089984D02*
X5048753Y-16089984D01*
X5105896Y-16089984D02*
X5105896Y-15889984D01*
X5105896Y-15889984D02*
X5086848Y-15918555D01*
X5086848Y-15918555D02*
X5067801Y-15937603D01*
X5067801Y-15937603D02*
X5048753Y-15947127D01*
X5248753Y-16070936D02*
X5258277Y-16080460D01*
X5258277Y-16080460D02*
X5248753Y-16089984D01*
X5248753Y-16089984D02*
X5239229Y-16080460D01*
X5239229Y-16080460D02*
X5248753Y-16070936D01*
X5248753Y-16070936D02*
X5248753Y-16089984D01*
X5448753Y-16089984D02*
X5334467Y-16089984D01*
X5391610Y-16089984D02*
X5391610Y-15889984D01*
X5391610Y-15889984D02*
X5372563Y-15918555D01*
X5372563Y-15918555D02*
X5353515Y-15937603D01*
X5353515Y-15937603D02*
X5334467Y-15947127D01*
X5572563Y-15889984D02*
X5591610Y-15889984D01*
X5591610Y-15889984D02*
X5610658Y-15899508D01*
X5610658Y-15899508D02*
X5620182Y-15909031D01*
X5620182Y-15909031D02*
X5629705Y-15928079D01*
X5629705Y-15928079D02*
X5639229Y-15966174D01*
X5639229Y-15966174D02*
X5639229Y-16013793D01*
X5639229Y-16013793D02*
X5629705Y-16051888D01*
X5629705Y-16051888D02*
X5620182Y-16070936D01*
X5620182Y-16070936D02*
X5610658Y-16080460D01*
X5610658Y-16080460D02*
X5591610Y-16089984D01*
X5591610Y-16089984D02*
X5572563Y-16089984D01*
X5572563Y-16089984D02*
X5553515Y-16080460D01*
X5553515Y-16080460D02*
X5543991Y-16070936D01*
X5543991Y-16070936D02*
X5534467Y-16051888D01*
X5534467Y-16051888D02*
X5524944Y-16013793D01*
X5524944Y-16013793D02*
X5524944Y-15966174D01*
X5524944Y-15966174D02*
X5534467Y-15928079D01*
X5534467Y-15928079D02*
X5543991Y-15909031D01*
X5543991Y-15909031D02*
X5553515Y-15899508D01*
X5553515Y-15899508D02*
X5572563Y-15889984D01*
X5763039Y-15889984D02*
X5782086Y-15889984D01*
X5782086Y-15889984D02*
X5801134Y-15899508D01*
X5801134Y-15899508D02*
X5810658Y-15909031D01*
X5810658Y-15909031D02*
X5820182Y-15928079D01*
X5820182Y-15928079D02*
X5829705Y-15966174D01*
X5829705Y-15966174D02*
X5829705Y-16013793D01*
X5829705Y-16013793D02*
X5820182Y-16051888D01*
X5820182Y-16051888D02*
X5810658Y-16070936D01*
X5810658Y-16070936D02*
X5801134Y-16080460D01*
X5801134Y-16080460D02*
X5782086Y-16089984D01*
X5782086Y-16089984D02*
X5763039Y-16089984D01*
X5763039Y-16089984D02*
X5743991Y-16080460D01*
X5743991Y-16080460D02*
X5734467Y-16070936D01*
X5734467Y-16070936D02*
X5724943Y-16051888D01*
X5724943Y-16051888D02*
X5715420Y-16013793D01*
X5715420Y-16013793D02*
X5715420Y-15966174D01*
X5715420Y-15966174D02*
X5724943Y-15928079D01*
X5724943Y-15928079D02*
X5734467Y-15909031D01*
X5734467Y-15909031D02*
X5743991Y-15899508D01*
X5743991Y-15899508D02*
X5763039Y-15889984D01*
X5915420Y-16089984D02*
X5915420Y-15956650D01*
X5915420Y-15975698D02*
X5924943Y-15966174D01*
X5924943Y-15966174D02*
X5943991Y-15956650D01*
X5943991Y-15956650D02*
X5972563Y-15956650D01*
X5972563Y-15956650D02*
X5991610Y-15966174D01*
X5991610Y-15966174D02*
X6001134Y-15985222D01*
X6001134Y-15985222D02*
X6001134Y-16089984D01*
X6001134Y-15985222D02*
X6010658Y-15966174D01*
X6010658Y-15966174D02*
X6029705Y-15956650D01*
X6029705Y-15956650D02*
X6058277Y-15956650D01*
X6058277Y-15956650D02*
X6077324Y-15966174D01*
X6077324Y-15966174D02*
X6086848Y-15985222D01*
X6086848Y-15985222D02*
X6086848Y-16089984D01*
X6182086Y-16089984D02*
X6182086Y-15956650D01*
X6182086Y-15975698D02*
X6191610Y-15966174D01*
X6191610Y-15966174D02*
X6210658Y-15956650D01*
X6210658Y-15956650D02*
X6239229Y-15956650D01*
X6239229Y-15956650D02*
X6258277Y-15966174D01*
X6258277Y-15966174D02*
X6267801Y-15985222D01*
X6267801Y-15985222D02*
X6267801Y-16089984D01*
X6267801Y-15985222D02*
X6277324Y-15966174D01*
X6277324Y-15966174D02*
X6296372Y-15956650D01*
X6296372Y-15956650D02*
X6324943Y-15956650D01*
X6324943Y-15956650D02*
X6343991Y-15966174D01*
X6343991Y-15966174D02*
X6353515Y-15985222D01*
X6353515Y-15985222D02*
X6353515Y-16089984D01*
X6743991Y-15880460D02*
X6572563Y-16137603D01*
X7001134Y-15889984D02*
X7020182Y-15889984D01*
X7020182Y-15889984D02*
X7039229Y-15899508D01*
X7039229Y-15899508D02*
X7048753Y-15909031D01*
X7048753Y-15909031D02*
X7058277Y-15928079D01*
X7058277Y-15928079D02*
X7067801Y-15966174D01*
X7067801Y-15966174D02*
X7067801Y-16013793D01*
X7067801Y-16013793D02*
X7058277Y-16051888D01*
X7058277Y-16051888D02*
X7048753Y-16070936D01*
X7048753Y-16070936D02*
X7039229Y-16080460D01*
X7039229Y-16080460D02*
X7020182Y-16089984D01*
X7020182Y-16089984D02*
X7001134Y-16089984D01*
X7001134Y-16089984D02*
X6982086Y-16080460D01*
X6982086Y-16080460D02*
X6972563Y-16070936D01*
X6972563Y-16070936D02*
X6963039Y-16051888D01*
X6963039Y-16051888D02*
X6953515Y-16013793D01*
X6953515Y-16013793D02*
X6953515Y-15966174D01*
X6953515Y-15966174D02*
X6963039Y-15928079D01*
X6963039Y-15928079D02*
X6972563Y-15909031D01*
X6972563Y-15909031D02*
X6982086Y-15899508D01*
X6982086Y-15899508D02*
X7001134Y-15889984D01*
X7153515Y-16070936D02*
X7163039Y-16080460D01*
X7163039Y-16080460D02*
X7153515Y-16089984D01*
X7153515Y-16089984D02*
X7143991Y-16080460D01*
X7143991Y-16080460D02*
X7153515Y-16070936D01*
X7153515Y-16070936D02*
X7153515Y-16089984D01*
X7286848Y-15889984D02*
X7305896Y-15889984D01*
X7305896Y-15889984D02*
X7324944Y-15899508D01*
X7324944Y-15899508D02*
X7334467Y-15909031D01*
X7334467Y-15909031D02*
X7343991Y-15928079D01*
X7343991Y-15928079D02*
X7353515Y-15966174D01*
X7353515Y-15966174D02*
X7353515Y-16013793D01*
X7353515Y-16013793D02*
X7343991Y-16051888D01*
X7343991Y-16051888D02*
X7334467Y-16070936D01*
X7334467Y-16070936D02*
X7324944Y-16080460D01*
X7324944Y-16080460D02*
X7305896Y-16089984D01*
X7305896Y-16089984D02*
X7286848Y-16089984D01*
X7286848Y-16089984D02*
X7267801Y-16080460D01*
X7267801Y-16080460D02*
X7258277Y-16070936D01*
X7258277Y-16070936D02*
X7248753Y-16051888D01*
X7248753Y-16051888D02*
X7239229Y-16013793D01*
X7239229Y-16013793D02*
X7239229Y-15966174D01*
X7239229Y-15966174D02*
X7248753Y-15928079D01*
X7248753Y-15928079D02*
X7258277Y-15909031D01*
X7258277Y-15909031D02*
X7267801Y-15899508D01*
X7267801Y-15899508D02*
X7286848Y-15889984D01*
X7524944Y-15956650D02*
X7524944Y-16089984D01*
X7477325Y-15880460D02*
X7429706Y-16023317D01*
X7429706Y-16023317D02*
X7553515Y-16023317D01*
X7610658Y-15889984D02*
X7734467Y-15889984D01*
X7734467Y-15889984D02*
X7667801Y-15966174D01*
X7667801Y-15966174D02*
X7696372Y-15966174D01*
X7696372Y-15966174D02*
X7715420Y-15975698D01*
X7715420Y-15975698D02*
X7724944Y-15985222D01*
X7724944Y-15985222D02*
X7734467Y-16004269D01*
X7734467Y-16004269D02*
X7734467Y-16051888D01*
X7734467Y-16051888D02*
X7724944Y-16070936D01*
X7724944Y-16070936D02*
X7715420Y-16080460D01*
X7715420Y-16080460D02*
X7696372Y-16089984D01*
X7696372Y-16089984D02*
X7639229Y-16089984D01*
X7639229Y-16089984D02*
X7620182Y-16080460D01*
X7620182Y-16080460D02*
X7610658Y-16070936D01*
X7801134Y-15889984D02*
X7924944Y-15889984D01*
X7924944Y-15889984D02*
X7858277Y-15966174D01*
X7858277Y-15966174D02*
X7886848Y-15966174D01*
X7886848Y-15966174D02*
X7905896Y-15975698D01*
X7905896Y-15975698D02*
X7915420Y-15985222D01*
X7915420Y-15985222D02*
X7924944Y-16004269D01*
X7924944Y-16004269D02*
X7924944Y-16051888D01*
X7924944Y-16051888D02*
X7915420Y-16070936D01*
X7915420Y-16070936D02*
X7905896Y-16080460D01*
X7905896Y-16080460D02*
X7886848Y-16089984D01*
X7886848Y-16089984D02*
X7829706Y-16089984D01*
X7829706Y-16089984D02*
X7810658Y-16080460D01*
X7810658Y-16080460D02*
X7801134Y-16070936D01*
X8001134Y-15889984D02*
X8001134Y-15928079D01*
X8077325Y-15889984D02*
X8077325Y-15928079D01*
X8372563Y-16166174D02*
X8363039Y-16156650D01*
X8363039Y-16156650D02*
X8343991Y-16128079D01*
X8343991Y-16128079D02*
X8334468Y-16109031D01*
X8334468Y-16109031D02*
X8324944Y-16080460D01*
X8324944Y-16080460D02*
X8315420Y-16032841D01*
X8315420Y-16032841D02*
X8315420Y-15994746D01*
X8315420Y-15994746D02*
X8324944Y-15947127D01*
X8324944Y-15947127D02*
X8334468Y-15918555D01*
X8334468Y-15918555D02*
X8343991Y-15899508D01*
X8343991Y-15899508D02*
X8363039Y-15870936D01*
X8363039Y-15870936D02*
X8372563Y-15861412D01*
X8439230Y-15909031D02*
X8448753Y-15899508D01*
X8448753Y-15899508D02*
X8467801Y-15889984D01*
X8467801Y-15889984D02*
X8515420Y-15889984D01*
X8515420Y-15889984D02*
X8534468Y-15899508D01*
X8534468Y-15899508D02*
X8543991Y-15909031D01*
X8543991Y-15909031D02*
X8553515Y-15928079D01*
X8553515Y-15928079D02*
X8553515Y-15947127D01*
X8553515Y-15947127D02*
X8543991Y-15975698D01*
X8543991Y-15975698D02*
X8429706Y-16089984D01*
X8429706Y-16089984D02*
X8553515Y-16089984D01*
X8724944Y-15956650D02*
X8724944Y-16089984D01*
X8677325Y-15880460D02*
X8629706Y-16023317D01*
X8629706Y-16023317D02*
X8753515Y-16023317D01*
X8982087Y-16089984D02*
X8982087Y-15889984D01*
X9067801Y-16089984D02*
X9067801Y-15985222D01*
X9067801Y-15985222D02*
X9058277Y-15966174D01*
X9058277Y-15966174D02*
X9039230Y-15956650D01*
X9039230Y-15956650D02*
X9010658Y-15956650D01*
X9010658Y-15956650D02*
X8991611Y-15966174D01*
X8991611Y-15966174D02*
X8982087Y-15975698D01*
X9191611Y-16089984D02*
X9172563Y-16080460D01*
X9172563Y-16080460D02*
X9163039Y-16070936D01*
X9163039Y-16070936D02*
X9153515Y-16051888D01*
X9153515Y-16051888D02*
X9153515Y-15994746D01*
X9153515Y-15994746D02*
X9163039Y-15975698D01*
X9163039Y-15975698D02*
X9172563Y-15966174D01*
X9172563Y-15966174D02*
X9191611Y-15956650D01*
X9191611Y-15956650D02*
X9220182Y-15956650D01*
X9220182Y-15956650D02*
X9239230Y-15966174D01*
X9239230Y-15966174D02*
X9248753Y-15975698D01*
X9248753Y-15975698D02*
X9258277Y-15994746D01*
X9258277Y-15994746D02*
X9258277Y-16051888D01*
X9258277Y-16051888D02*
X9248753Y-16070936D01*
X9248753Y-16070936D02*
X9239230Y-16080460D01*
X9239230Y-16080460D02*
X9220182Y-16089984D01*
X9220182Y-16089984D02*
X9191611Y-16089984D01*
X9372563Y-16089984D02*
X9353515Y-16080460D01*
X9353515Y-16080460D02*
X9343992Y-16061412D01*
X9343992Y-16061412D02*
X9343992Y-15889984D01*
X9524944Y-16080460D02*
X9505896Y-16089984D01*
X9505896Y-16089984D02*
X9467801Y-16089984D01*
X9467801Y-16089984D02*
X9448753Y-16080460D01*
X9448753Y-16080460D02*
X9439230Y-16061412D01*
X9439230Y-16061412D02*
X9439230Y-15985222D01*
X9439230Y-15985222D02*
X9448753Y-15966174D01*
X9448753Y-15966174D02*
X9467801Y-15956650D01*
X9467801Y-15956650D02*
X9505896Y-15956650D01*
X9505896Y-15956650D02*
X9524944Y-15966174D01*
X9524944Y-15966174D02*
X9534468Y-15985222D01*
X9534468Y-15985222D02*
X9534468Y-16004269D01*
X9534468Y-16004269D02*
X9439230Y-16023317D01*
X9610658Y-16080460D02*
X9629706Y-16089984D01*
X9629706Y-16089984D02*
X9667801Y-16089984D01*
X9667801Y-16089984D02*
X9686849Y-16080460D01*
X9686849Y-16080460D02*
X9696373Y-16061412D01*
X9696373Y-16061412D02*
X9696373Y-16051888D01*
X9696373Y-16051888D02*
X9686849Y-16032841D01*
X9686849Y-16032841D02*
X9667801Y-16023317D01*
X9667801Y-16023317D02*
X9639230Y-16023317D01*
X9639230Y-16023317D02*
X9620182Y-16013793D01*
X9620182Y-16013793D02*
X9610658Y-15994746D01*
X9610658Y-15994746D02*
X9610658Y-15985222D01*
X9610658Y-15985222D02*
X9620182Y-15966174D01*
X9620182Y-15966174D02*
X9639230Y-15956650D01*
X9639230Y-15956650D02*
X9667801Y-15956650D01*
X9667801Y-15956650D02*
X9686849Y-15966174D01*
X9763039Y-16166174D02*
X9772563Y-16156650D01*
X9772563Y-16156650D02*
X9791611Y-16128079D01*
X9791611Y-16128079D02*
X9801134Y-16109031D01*
X9801134Y-16109031D02*
X9810658Y-16080460D01*
X9810658Y-16080460D02*
X9820182Y-16032841D01*
X9820182Y-16032841D02*
X9820182Y-15994746D01*
X9820182Y-15994746D02*
X9810658Y-15947127D01*
X9810658Y-15947127D02*
X9801134Y-15918555D01*
X9801134Y-15918555D02*
X9791611Y-15899508D01*
X9791611Y-15899508D02*
X9772563Y-15870936D01*
X9772563Y-15870936D02*
X9763039Y-15861412D01*
D14*
X4667500Y-16197500D02*
X4797500Y-16327500D01*
X4797500Y-16197500D02*
X4667500Y-16327500D01*
X4797500Y-16262500D02*
G75*
G02*
X4667500Y-16262500I-65000J0D01*
G01*
X4667500Y-16262500D02*
G75*
G02*
X4797500Y-16262500I65000J0D01*
G01*
D11*
X5163039Y-16353984D02*
X5048753Y-16353984D01*
X5105896Y-16353984D02*
X5105896Y-16153984D01*
X5105896Y-16153984D02*
X5086848Y-16182555D01*
X5086848Y-16182555D02*
X5067801Y-16201603D01*
X5067801Y-16201603D02*
X5048753Y-16211127D01*
X5248753Y-16334936D02*
X5258277Y-16344460D01*
X5258277Y-16344460D02*
X5248753Y-16353984D01*
X5248753Y-16353984D02*
X5239229Y-16344460D01*
X5239229Y-16344460D02*
X5248753Y-16334936D01*
X5248753Y-16334936D02*
X5248753Y-16353984D01*
X5324944Y-16153984D02*
X5448753Y-16153984D01*
X5448753Y-16153984D02*
X5382086Y-16230174D01*
X5382086Y-16230174D02*
X5410658Y-16230174D01*
X5410658Y-16230174D02*
X5429705Y-16239698D01*
X5429705Y-16239698D02*
X5439229Y-16249222D01*
X5439229Y-16249222D02*
X5448753Y-16268269D01*
X5448753Y-16268269D02*
X5448753Y-16315888D01*
X5448753Y-16315888D02*
X5439229Y-16334936D01*
X5439229Y-16334936D02*
X5429705Y-16344460D01*
X5429705Y-16344460D02*
X5410658Y-16353984D01*
X5410658Y-16353984D02*
X5353515Y-16353984D01*
X5353515Y-16353984D02*
X5334467Y-16344460D01*
X5334467Y-16344460D02*
X5324944Y-16334936D01*
X5572563Y-16153984D02*
X5591610Y-16153984D01*
X5591610Y-16153984D02*
X5610658Y-16163508D01*
X5610658Y-16163508D02*
X5620182Y-16173031D01*
X5620182Y-16173031D02*
X5629705Y-16192079D01*
X5629705Y-16192079D02*
X5639229Y-16230174D01*
X5639229Y-16230174D02*
X5639229Y-16277793D01*
X5639229Y-16277793D02*
X5629705Y-16315888D01*
X5629705Y-16315888D02*
X5620182Y-16334936D01*
X5620182Y-16334936D02*
X5610658Y-16344460D01*
X5610658Y-16344460D02*
X5591610Y-16353984D01*
X5591610Y-16353984D02*
X5572563Y-16353984D01*
X5572563Y-16353984D02*
X5553515Y-16344460D01*
X5553515Y-16344460D02*
X5543991Y-16334936D01*
X5543991Y-16334936D02*
X5534467Y-16315888D01*
X5534467Y-16315888D02*
X5524944Y-16277793D01*
X5524944Y-16277793D02*
X5524944Y-16230174D01*
X5524944Y-16230174D02*
X5534467Y-16192079D01*
X5534467Y-16192079D02*
X5543991Y-16173031D01*
X5543991Y-16173031D02*
X5553515Y-16163508D01*
X5553515Y-16163508D02*
X5572563Y-16153984D01*
X5763039Y-16153984D02*
X5782086Y-16153984D01*
X5782086Y-16153984D02*
X5801134Y-16163508D01*
X5801134Y-16163508D02*
X5810658Y-16173031D01*
X5810658Y-16173031D02*
X5820182Y-16192079D01*
X5820182Y-16192079D02*
X5829705Y-16230174D01*
X5829705Y-16230174D02*
X5829705Y-16277793D01*
X5829705Y-16277793D02*
X5820182Y-16315888D01*
X5820182Y-16315888D02*
X5810658Y-16334936D01*
X5810658Y-16334936D02*
X5801134Y-16344460D01*
X5801134Y-16344460D02*
X5782086Y-16353984D01*
X5782086Y-16353984D02*
X5763039Y-16353984D01*
X5763039Y-16353984D02*
X5743991Y-16344460D01*
X5743991Y-16344460D02*
X5734467Y-16334936D01*
X5734467Y-16334936D02*
X5724943Y-16315888D01*
X5724943Y-16315888D02*
X5715420Y-16277793D01*
X5715420Y-16277793D02*
X5715420Y-16230174D01*
X5715420Y-16230174D02*
X5724943Y-16192079D01*
X5724943Y-16192079D02*
X5734467Y-16173031D01*
X5734467Y-16173031D02*
X5743991Y-16163508D01*
X5743991Y-16163508D02*
X5763039Y-16153984D01*
X5915420Y-16353984D02*
X5915420Y-16220650D01*
X5915420Y-16239698D02*
X5924943Y-16230174D01*
X5924943Y-16230174D02*
X5943991Y-16220650D01*
X5943991Y-16220650D02*
X5972563Y-16220650D01*
X5972563Y-16220650D02*
X5991610Y-16230174D01*
X5991610Y-16230174D02*
X6001134Y-16249222D01*
X6001134Y-16249222D02*
X6001134Y-16353984D01*
X6001134Y-16249222D02*
X6010658Y-16230174D01*
X6010658Y-16230174D02*
X6029705Y-16220650D01*
X6029705Y-16220650D02*
X6058277Y-16220650D01*
X6058277Y-16220650D02*
X6077324Y-16230174D01*
X6077324Y-16230174D02*
X6086848Y-16249222D01*
X6086848Y-16249222D02*
X6086848Y-16353984D01*
X6182086Y-16353984D02*
X6182086Y-16220650D01*
X6182086Y-16239698D02*
X6191610Y-16230174D01*
X6191610Y-16230174D02*
X6210658Y-16220650D01*
X6210658Y-16220650D02*
X6239229Y-16220650D01*
X6239229Y-16220650D02*
X6258277Y-16230174D01*
X6258277Y-16230174D02*
X6267801Y-16249222D01*
X6267801Y-16249222D02*
X6267801Y-16353984D01*
X6267801Y-16249222D02*
X6277324Y-16230174D01*
X6277324Y-16230174D02*
X6296372Y-16220650D01*
X6296372Y-16220650D02*
X6324943Y-16220650D01*
X6324943Y-16220650D02*
X6343991Y-16230174D01*
X6343991Y-16230174D02*
X6353515Y-16249222D01*
X6353515Y-16249222D02*
X6353515Y-16353984D01*
X6743991Y-16144460D02*
X6572563Y-16401603D01*
X7001134Y-16153984D02*
X7020182Y-16153984D01*
X7020182Y-16153984D02*
X7039229Y-16163508D01*
X7039229Y-16163508D02*
X7048753Y-16173031D01*
X7048753Y-16173031D02*
X7058277Y-16192079D01*
X7058277Y-16192079D02*
X7067801Y-16230174D01*
X7067801Y-16230174D02*
X7067801Y-16277793D01*
X7067801Y-16277793D02*
X7058277Y-16315888D01*
X7058277Y-16315888D02*
X7048753Y-16334936D01*
X7048753Y-16334936D02*
X7039229Y-16344460D01*
X7039229Y-16344460D02*
X7020182Y-16353984D01*
X7020182Y-16353984D02*
X7001134Y-16353984D01*
X7001134Y-16353984D02*
X6982086Y-16344460D01*
X6982086Y-16344460D02*
X6972563Y-16334936D01*
X6972563Y-16334936D02*
X6963039Y-16315888D01*
X6963039Y-16315888D02*
X6953515Y-16277793D01*
X6953515Y-16277793D02*
X6953515Y-16230174D01*
X6953515Y-16230174D02*
X6963039Y-16192079D01*
X6963039Y-16192079D02*
X6972563Y-16173031D01*
X6972563Y-16173031D02*
X6982086Y-16163508D01*
X6982086Y-16163508D02*
X7001134Y-16153984D01*
X7153515Y-16334936D02*
X7163039Y-16344460D01*
X7163039Y-16344460D02*
X7153515Y-16353984D01*
X7153515Y-16353984D02*
X7143991Y-16344460D01*
X7143991Y-16344460D02*
X7153515Y-16334936D01*
X7153515Y-16334936D02*
X7153515Y-16353984D01*
X7286848Y-16153984D02*
X7305896Y-16153984D01*
X7305896Y-16153984D02*
X7324944Y-16163508D01*
X7324944Y-16163508D02*
X7334467Y-16173031D01*
X7334467Y-16173031D02*
X7343991Y-16192079D01*
X7343991Y-16192079D02*
X7353515Y-16230174D01*
X7353515Y-16230174D02*
X7353515Y-16277793D01*
X7353515Y-16277793D02*
X7343991Y-16315888D01*
X7343991Y-16315888D02*
X7334467Y-16334936D01*
X7334467Y-16334936D02*
X7324944Y-16344460D01*
X7324944Y-16344460D02*
X7305896Y-16353984D01*
X7305896Y-16353984D02*
X7286848Y-16353984D01*
X7286848Y-16353984D02*
X7267801Y-16344460D01*
X7267801Y-16344460D02*
X7258277Y-16334936D01*
X7258277Y-16334936D02*
X7248753Y-16315888D01*
X7248753Y-16315888D02*
X7239229Y-16277793D01*
X7239229Y-16277793D02*
X7239229Y-16230174D01*
X7239229Y-16230174D02*
X7248753Y-16192079D01*
X7248753Y-16192079D02*
X7258277Y-16173031D01*
X7258277Y-16173031D02*
X7267801Y-16163508D01*
X7267801Y-16163508D02*
X7286848Y-16153984D01*
X7534467Y-16153984D02*
X7439229Y-16153984D01*
X7439229Y-16153984D02*
X7429706Y-16249222D01*
X7429706Y-16249222D02*
X7439229Y-16239698D01*
X7439229Y-16239698D02*
X7458277Y-16230174D01*
X7458277Y-16230174D02*
X7505896Y-16230174D01*
X7505896Y-16230174D02*
X7524944Y-16239698D01*
X7524944Y-16239698D02*
X7534467Y-16249222D01*
X7534467Y-16249222D02*
X7543991Y-16268269D01*
X7543991Y-16268269D02*
X7543991Y-16315888D01*
X7543991Y-16315888D02*
X7534467Y-16334936D01*
X7534467Y-16334936D02*
X7524944Y-16344460D01*
X7524944Y-16344460D02*
X7505896Y-16353984D01*
X7505896Y-16353984D02*
X7458277Y-16353984D01*
X7458277Y-16353984D02*
X7439229Y-16344460D01*
X7439229Y-16344460D02*
X7429706Y-16334936D01*
X7734467Y-16353984D02*
X7620182Y-16353984D01*
X7677325Y-16353984D02*
X7677325Y-16153984D01*
X7677325Y-16153984D02*
X7658277Y-16182555D01*
X7658277Y-16182555D02*
X7639229Y-16201603D01*
X7639229Y-16201603D02*
X7620182Y-16211127D01*
X7810658Y-16173031D02*
X7820182Y-16163508D01*
X7820182Y-16163508D02*
X7839229Y-16153984D01*
X7839229Y-16153984D02*
X7886848Y-16153984D01*
X7886848Y-16153984D02*
X7905896Y-16163508D01*
X7905896Y-16163508D02*
X7915420Y-16173031D01*
X7915420Y-16173031D02*
X7924944Y-16192079D01*
X7924944Y-16192079D02*
X7924944Y-16211127D01*
X7924944Y-16211127D02*
X7915420Y-16239698D01*
X7915420Y-16239698D02*
X7801134Y-16353984D01*
X7801134Y-16353984D02*
X7924944Y-16353984D01*
X8001134Y-16153984D02*
X8001134Y-16192079D01*
X8077325Y-16153984D02*
X8077325Y-16192079D01*
X8372563Y-16430174D02*
X8363039Y-16420650D01*
X8363039Y-16420650D02*
X8343991Y-16392079D01*
X8343991Y-16392079D02*
X8334468Y-16373031D01*
X8334468Y-16373031D02*
X8324944Y-16344460D01*
X8324944Y-16344460D02*
X8315420Y-16296841D01*
X8315420Y-16296841D02*
X8315420Y-16258746D01*
X8315420Y-16258746D02*
X8324944Y-16211127D01*
X8324944Y-16211127D02*
X8334468Y-16182555D01*
X8334468Y-16182555D02*
X8343991Y-16163508D01*
X8343991Y-16163508D02*
X8363039Y-16134936D01*
X8363039Y-16134936D02*
X8372563Y-16125412D01*
X8553515Y-16353984D02*
X8439230Y-16353984D01*
X8496372Y-16353984D02*
X8496372Y-16153984D01*
X8496372Y-16153984D02*
X8477325Y-16182555D01*
X8477325Y-16182555D02*
X8458277Y-16201603D01*
X8458277Y-16201603D02*
X8439230Y-16211127D01*
X8677325Y-16153984D02*
X8696372Y-16153984D01*
X8696372Y-16153984D02*
X8715420Y-16163508D01*
X8715420Y-16163508D02*
X8724944Y-16173031D01*
X8724944Y-16173031D02*
X8734468Y-16192079D01*
X8734468Y-16192079D02*
X8743991Y-16230174D01*
X8743991Y-16230174D02*
X8743991Y-16277793D01*
X8743991Y-16277793D02*
X8734468Y-16315888D01*
X8734468Y-16315888D02*
X8724944Y-16334936D01*
X8724944Y-16334936D02*
X8715420Y-16344460D01*
X8715420Y-16344460D02*
X8696372Y-16353984D01*
X8696372Y-16353984D02*
X8677325Y-16353984D01*
X8677325Y-16353984D02*
X8658277Y-16344460D01*
X8658277Y-16344460D02*
X8648753Y-16334936D01*
X8648753Y-16334936D02*
X8639230Y-16315888D01*
X8639230Y-16315888D02*
X8629706Y-16277793D01*
X8629706Y-16277793D02*
X8629706Y-16230174D01*
X8629706Y-16230174D02*
X8639230Y-16192079D01*
X8639230Y-16192079D02*
X8648753Y-16173031D01*
X8648753Y-16173031D02*
X8658277Y-16163508D01*
X8658277Y-16163508D02*
X8677325Y-16153984D01*
X8982087Y-16353984D02*
X8982087Y-16153984D01*
X9067801Y-16353984D02*
X9067801Y-16249222D01*
X9067801Y-16249222D02*
X9058277Y-16230174D01*
X9058277Y-16230174D02*
X9039230Y-16220650D01*
X9039230Y-16220650D02*
X9010658Y-16220650D01*
X9010658Y-16220650D02*
X8991611Y-16230174D01*
X8991611Y-16230174D02*
X8982087Y-16239698D01*
X9191611Y-16353984D02*
X9172563Y-16344460D01*
X9172563Y-16344460D02*
X9163039Y-16334936D01*
X9163039Y-16334936D02*
X9153515Y-16315888D01*
X9153515Y-16315888D02*
X9153515Y-16258746D01*
X9153515Y-16258746D02*
X9163039Y-16239698D01*
X9163039Y-16239698D02*
X9172563Y-16230174D01*
X9172563Y-16230174D02*
X9191611Y-16220650D01*
X9191611Y-16220650D02*
X9220182Y-16220650D01*
X9220182Y-16220650D02*
X9239230Y-16230174D01*
X9239230Y-16230174D02*
X9248753Y-16239698D01*
X9248753Y-16239698D02*
X9258277Y-16258746D01*
X9258277Y-16258746D02*
X9258277Y-16315888D01*
X9258277Y-16315888D02*
X9248753Y-16334936D01*
X9248753Y-16334936D02*
X9239230Y-16344460D01*
X9239230Y-16344460D02*
X9220182Y-16353984D01*
X9220182Y-16353984D02*
X9191611Y-16353984D01*
X9372563Y-16353984D02*
X9353515Y-16344460D01*
X9353515Y-16344460D02*
X9343992Y-16325412D01*
X9343992Y-16325412D02*
X9343992Y-16153984D01*
X9524944Y-16344460D02*
X9505896Y-16353984D01*
X9505896Y-16353984D02*
X9467801Y-16353984D01*
X9467801Y-16353984D02*
X9448753Y-16344460D01*
X9448753Y-16344460D02*
X9439230Y-16325412D01*
X9439230Y-16325412D02*
X9439230Y-16249222D01*
X9439230Y-16249222D02*
X9448753Y-16230174D01*
X9448753Y-16230174D02*
X9467801Y-16220650D01*
X9467801Y-16220650D02*
X9505896Y-16220650D01*
X9505896Y-16220650D02*
X9524944Y-16230174D01*
X9524944Y-16230174D02*
X9534468Y-16249222D01*
X9534468Y-16249222D02*
X9534468Y-16268269D01*
X9534468Y-16268269D02*
X9439230Y-16287317D01*
X9610658Y-16344460D02*
X9629706Y-16353984D01*
X9629706Y-16353984D02*
X9667801Y-16353984D01*
X9667801Y-16353984D02*
X9686849Y-16344460D01*
X9686849Y-16344460D02*
X9696373Y-16325412D01*
X9696373Y-16325412D02*
X9696373Y-16315888D01*
X9696373Y-16315888D02*
X9686849Y-16296841D01*
X9686849Y-16296841D02*
X9667801Y-16287317D01*
X9667801Y-16287317D02*
X9639230Y-16287317D01*
X9639230Y-16287317D02*
X9620182Y-16277793D01*
X9620182Y-16277793D02*
X9610658Y-16258746D01*
X9610658Y-16258746D02*
X9610658Y-16249222D01*
X9610658Y-16249222D02*
X9620182Y-16230174D01*
X9620182Y-16230174D02*
X9639230Y-16220650D01*
X9639230Y-16220650D02*
X9667801Y-16220650D01*
X9667801Y-16220650D02*
X9686849Y-16230174D01*
X9763039Y-16430174D02*
X9772563Y-16420650D01*
X9772563Y-16420650D02*
X9791611Y-16392079D01*
X9791611Y-16392079D02*
X9801134Y-16373031D01*
X9801134Y-16373031D02*
X9810658Y-16344460D01*
X9810658Y-16344460D02*
X9820182Y-16296841D01*
X9820182Y-16296841D02*
X9820182Y-16258746D01*
X9820182Y-16258746D02*
X9810658Y-16211127D01*
X9810658Y-16211127D02*
X9801134Y-16182555D01*
X9801134Y-16182555D02*
X9791611Y-16163508D01*
X9791611Y-16163508D02*
X9772563Y-16134936D01*
X9772563Y-16134936D02*
X9763039Y-16125412D01*
M02*
