%TF.GenerationSoftware,KiCad,Pcbnew,10.0.1*%
%TF.CreationDate,2026-06-01T13:42:53+01:00*%
%TF.ProjectId,hw-controller,68772d63-6f6e-4747-926f-6c6c65722e6b,rev?*%
%TF.SameCoordinates,Original*%
%TF.FileFunction,Drillmap*%
%TF.FilePolarity,Positive*%
%FSLAX45Y45*%
G04 Gerber Fmt 4.5, Leading zero omitted, Abs format (unit mm)*
G04 Created by KiCad (PCBNEW 10.0.1) date 2026-06-01 13:42:53*
%MOMM*%
%LPD*%
G01*
G04 APERTURE LIST*
%ADD10C,0.050000*%
%ADD11C,0.200000*%
%ADD12C,0.100000*%
%ADD13C,0.350000*%
G04 APERTURE END LIST*
D10*
X14400000Y-14300000D02*
X4800000Y-14300000D01*
X4800000Y-4400000D02*
X4800000Y-14300000D01*
X4800000Y-4400000D02*
X8200000Y-4400000D01*
X8800000Y-5000000D02*
X8200000Y-4400000D01*
X8800000Y-5000000D02*
X10700000Y-5000000D01*
X10700000Y-5000000D02*
X11300000Y-4400000D01*
X11300000Y-4400000D02*
X14400000Y-4400000D01*
X14400000Y-4400000D02*
X14400000Y-14300000D01*
D11*
D12*
X5375000Y-5580000D02*
X5475000Y-5680000D01*
X5475000Y-5580000D02*
X5375000Y-5680000D01*
X5375000Y-6680000D02*
X5475000Y-6780000D01*
X5475000Y-6680000D02*
X5375000Y-6780000D01*
X5375000Y-7780000D02*
X5475000Y-7880000D01*
X5475000Y-7780000D02*
X5375000Y-7880000D01*
X5375000Y-8880000D02*
X5475000Y-8980000D01*
X5475000Y-8880000D02*
X5375000Y-8980000D01*
X5725000Y-5580000D02*
X5825000Y-5680000D01*
X5825000Y-5580000D02*
X5725000Y-5680000D01*
X5725000Y-6680000D02*
X5825000Y-6780000D01*
X5825000Y-6680000D02*
X5725000Y-6780000D01*
X5725000Y-7780000D02*
X5825000Y-7880000D01*
X5825000Y-7780000D02*
X5725000Y-7880000D01*
X5725000Y-8880000D02*
X5825000Y-8980000D01*
X5825000Y-8880000D02*
X5725000Y-8980000D01*
X8550700Y-6680000D02*
X8650700Y-6780000D01*
X8650700Y-6680000D02*
X8550700Y-6780000D01*
X8900700Y-6680000D02*
X9000700Y-6780000D01*
X9000700Y-6680000D02*
X8900700Y-6780000D01*
X13275000Y-5580000D02*
X13375000Y-5680000D01*
X13375000Y-5580000D02*
X13275000Y-5680000D01*
X13275000Y-6680000D02*
X13375000Y-6780000D01*
X13375000Y-6680000D02*
X13275000Y-6780000D01*
X13275000Y-7780000D02*
X13375000Y-7880000D01*
X13375000Y-7780000D02*
X13275000Y-7880000D01*
X13275000Y-8880000D02*
X13375000Y-8980000D01*
X13375000Y-8880000D02*
X13275000Y-8980000D01*
X13625000Y-5580000D02*
X13725000Y-5680000D01*
X13725000Y-5580000D02*
X13625000Y-5680000D01*
X13625000Y-6680000D02*
X13725000Y-6780000D01*
X13725000Y-6680000D02*
X13625000Y-6780000D01*
X13625000Y-7780000D02*
X13725000Y-7880000D01*
X13725000Y-7780000D02*
X13625000Y-7880000D01*
X13625000Y-8880000D02*
X13725000Y-8980000D01*
X13725000Y-8880000D02*
X13625000Y-8980000D01*
D13*
X5675000Y-4900000D02*
G75*
G02*
X5325000Y-4900000I-175000J0D01*
G01*
X5325000Y-4900000D02*
G75*
G02*
X5675000Y-4900000I175000J0D01*
G01*
X5675000Y-13900000D02*
G75*
G02*
X5325000Y-13900000I-175000J0D01*
G01*
X5325000Y-13900000D02*
G75*
G02*
X5675000Y-13900000I175000J0D01*
G01*
X11475000Y-8300000D02*
G75*
G02*
X11125000Y-8300000I-175000J0D01*
G01*
X11125000Y-8300000D02*
G75*
G02*
X11475000Y-8300000I175000J0D01*
G01*
X14075000Y-4900000D02*
G75*
G02*
X13725000Y-4900000I-175000J0D01*
G01*
X13725000Y-4900000D02*
G75*
G02*
X14075000Y-4900000I175000J0D01*
G01*
X14075000Y-13900000D02*
G75*
G02*
X13725000Y-13900000I-175000J0D01*
G01*
X13725000Y-13900000D02*
G75*
G02*
X14075000Y-13900000I175000J0D01*
G01*
D11*
X5058277Y-14613984D02*
X5058277Y-14413984D01*
X5058277Y-14413984D02*
X5105896Y-14413984D01*
X5105896Y-14413984D02*
X5134467Y-14423508D01*
X5134467Y-14423508D02*
X5153515Y-14442555D01*
X5153515Y-14442555D02*
X5163039Y-14461603D01*
X5163039Y-14461603D02*
X5172563Y-14499698D01*
X5172563Y-14499698D02*
X5172563Y-14528269D01*
X5172563Y-14528269D02*
X5163039Y-14566365D01*
X5163039Y-14566365D02*
X5153515Y-14585412D01*
X5153515Y-14585412D02*
X5134467Y-14604460D01*
X5134467Y-14604460D02*
X5105896Y-14613984D01*
X5105896Y-14613984D02*
X5058277Y-14613984D01*
X5258277Y-14613984D02*
X5258277Y-14480650D01*
X5258277Y-14518746D02*
X5267801Y-14499698D01*
X5267801Y-14499698D02*
X5277324Y-14490174D01*
X5277324Y-14490174D02*
X5296372Y-14480650D01*
X5296372Y-14480650D02*
X5315420Y-14480650D01*
X5382086Y-14613984D02*
X5382086Y-14480650D01*
X5382086Y-14413984D02*
X5372563Y-14423508D01*
X5372563Y-14423508D02*
X5382086Y-14433031D01*
X5382086Y-14433031D02*
X5391610Y-14423508D01*
X5391610Y-14423508D02*
X5382086Y-14413984D01*
X5382086Y-14413984D02*
X5382086Y-14433031D01*
X5505896Y-14613984D02*
X5486848Y-14604460D01*
X5486848Y-14604460D02*
X5477324Y-14585412D01*
X5477324Y-14585412D02*
X5477324Y-14413984D01*
X5610658Y-14613984D02*
X5591610Y-14604460D01*
X5591610Y-14604460D02*
X5582086Y-14585412D01*
X5582086Y-14585412D02*
X5582086Y-14413984D01*
X5839229Y-14613984D02*
X5839229Y-14413984D01*
X5839229Y-14413984D02*
X5905896Y-14556841D01*
X5905896Y-14556841D02*
X5972562Y-14413984D01*
X5972562Y-14413984D02*
X5972562Y-14613984D01*
X6153515Y-14613984D02*
X6153515Y-14509222D01*
X6153515Y-14509222D02*
X6143991Y-14490174D01*
X6143991Y-14490174D02*
X6124943Y-14480650D01*
X6124943Y-14480650D02*
X6086848Y-14480650D01*
X6086848Y-14480650D02*
X6067801Y-14490174D01*
X6153515Y-14604460D02*
X6134467Y-14613984D01*
X6134467Y-14613984D02*
X6086848Y-14613984D01*
X6086848Y-14613984D02*
X6067801Y-14604460D01*
X6067801Y-14604460D02*
X6058277Y-14585412D01*
X6058277Y-14585412D02*
X6058277Y-14566365D01*
X6058277Y-14566365D02*
X6067801Y-14547317D01*
X6067801Y-14547317D02*
X6086848Y-14537793D01*
X6086848Y-14537793D02*
X6134467Y-14537793D01*
X6134467Y-14537793D02*
X6153515Y-14528269D01*
X6248753Y-14480650D02*
X6248753Y-14680650D01*
X6248753Y-14490174D02*
X6267801Y-14480650D01*
X6267801Y-14480650D02*
X6305896Y-14480650D01*
X6305896Y-14480650D02*
X6324943Y-14490174D01*
X6324943Y-14490174D02*
X6334467Y-14499698D01*
X6334467Y-14499698D02*
X6343991Y-14518746D01*
X6343991Y-14518746D02*
X6343991Y-14575888D01*
X6343991Y-14575888D02*
X6334467Y-14594936D01*
X6334467Y-14594936D02*
X6324943Y-14604460D01*
X6324943Y-14604460D02*
X6305896Y-14613984D01*
X6305896Y-14613984D02*
X6267801Y-14613984D01*
X6267801Y-14613984D02*
X6248753Y-14604460D01*
X6429705Y-14594936D02*
X6439229Y-14604460D01*
X6439229Y-14604460D02*
X6429705Y-14613984D01*
X6429705Y-14613984D02*
X6420182Y-14604460D01*
X6420182Y-14604460D02*
X6429705Y-14594936D01*
X6429705Y-14594936D02*
X6429705Y-14613984D01*
X6429705Y-14490174D02*
X6439229Y-14499698D01*
X6439229Y-14499698D02*
X6429705Y-14509222D01*
X6429705Y-14509222D02*
X6420182Y-14499698D01*
X6420182Y-14499698D02*
X6429705Y-14490174D01*
X6429705Y-14490174D02*
X6429705Y-14509222D01*
D12*
X4697500Y-14892500D02*
X4797500Y-14992500D01*
X4797500Y-14892500D02*
X4697500Y-14992500D01*
D11*
X5163039Y-15033984D02*
X5048753Y-15033984D01*
X5105896Y-15033984D02*
X5105896Y-14833984D01*
X5105896Y-14833984D02*
X5086848Y-14862555D01*
X5086848Y-14862555D02*
X5067801Y-14881603D01*
X5067801Y-14881603D02*
X5048753Y-14891127D01*
X5248753Y-15014936D02*
X5258277Y-15024460D01*
X5258277Y-15024460D02*
X5248753Y-15033984D01*
X5248753Y-15033984D02*
X5239229Y-15024460D01*
X5239229Y-15024460D02*
X5248753Y-15014936D01*
X5248753Y-15014936D02*
X5248753Y-15033984D01*
X5382086Y-14833984D02*
X5401134Y-14833984D01*
X5401134Y-14833984D02*
X5420182Y-14843508D01*
X5420182Y-14843508D02*
X5429705Y-14853031D01*
X5429705Y-14853031D02*
X5439229Y-14872079D01*
X5439229Y-14872079D02*
X5448753Y-14910174D01*
X5448753Y-14910174D02*
X5448753Y-14957793D01*
X5448753Y-14957793D02*
X5439229Y-14995888D01*
X5439229Y-14995888D02*
X5429705Y-15014936D01*
X5429705Y-15014936D02*
X5420182Y-15024460D01*
X5420182Y-15024460D02*
X5401134Y-15033984D01*
X5401134Y-15033984D02*
X5382086Y-15033984D01*
X5382086Y-15033984D02*
X5363039Y-15024460D01*
X5363039Y-15024460D02*
X5353515Y-15014936D01*
X5353515Y-15014936D02*
X5343991Y-14995888D01*
X5343991Y-14995888D02*
X5334467Y-14957793D01*
X5334467Y-14957793D02*
X5334467Y-14910174D01*
X5334467Y-14910174D02*
X5343991Y-14872079D01*
X5343991Y-14872079D02*
X5353515Y-14853031D01*
X5353515Y-14853031D02*
X5363039Y-14843508D01*
X5363039Y-14843508D02*
X5382086Y-14833984D01*
X5572563Y-14833984D02*
X5591610Y-14833984D01*
X5591610Y-14833984D02*
X5610658Y-14843508D01*
X5610658Y-14843508D02*
X5620182Y-14853031D01*
X5620182Y-14853031D02*
X5629705Y-14872079D01*
X5629705Y-14872079D02*
X5639229Y-14910174D01*
X5639229Y-14910174D02*
X5639229Y-14957793D01*
X5639229Y-14957793D02*
X5629705Y-14995888D01*
X5629705Y-14995888D02*
X5620182Y-15014936D01*
X5620182Y-15014936D02*
X5610658Y-15024460D01*
X5610658Y-15024460D02*
X5591610Y-15033984D01*
X5591610Y-15033984D02*
X5572563Y-15033984D01*
X5572563Y-15033984D02*
X5553515Y-15024460D01*
X5553515Y-15024460D02*
X5543991Y-15014936D01*
X5543991Y-15014936D02*
X5534467Y-14995888D01*
X5534467Y-14995888D02*
X5524944Y-14957793D01*
X5524944Y-14957793D02*
X5524944Y-14910174D01*
X5524944Y-14910174D02*
X5534467Y-14872079D01*
X5534467Y-14872079D02*
X5543991Y-14853031D01*
X5543991Y-14853031D02*
X5553515Y-14843508D01*
X5553515Y-14843508D02*
X5572563Y-14833984D01*
X5763039Y-14833984D02*
X5782086Y-14833984D01*
X5782086Y-14833984D02*
X5801134Y-14843508D01*
X5801134Y-14843508D02*
X5810658Y-14853031D01*
X5810658Y-14853031D02*
X5820182Y-14872079D01*
X5820182Y-14872079D02*
X5829705Y-14910174D01*
X5829705Y-14910174D02*
X5829705Y-14957793D01*
X5829705Y-14957793D02*
X5820182Y-14995888D01*
X5820182Y-14995888D02*
X5810658Y-15014936D01*
X5810658Y-15014936D02*
X5801134Y-15024460D01*
X5801134Y-15024460D02*
X5782086Y-15033984D01*
X5782086Y-15033984D02*
X5763039Y-15033984D01*
X5763039Y-15033984D02*
X5743991Y-15024460D01*
X5743991Y-15024460D02*
X5734467Y-15014936D01*
X5734467Y-15014936D02*
X5724943Y-14995888D01*
X5724943Y-14995888D02*
X5715420Y-14957793D01*
X5715420Y-14957793D02*
X5715420Y-14910174D01*
X5715420Y-14910174D02*
X5724943Y-14872079D01*
X5724943Y-14872079D02*
X5734467Y-14853031D01*
X5734467Y-14853031D02*
X5743991Y-14843508D01*
X5743991Y-14843508D02*
X5763039Y-14833984D01*
X5915420Y-15033984D02*
X5915420Y-14900650D01*
X5915420Y-14919698D02*
X5924943Y-14910174D01*
X5924943Y-14910174D02*
X5943991Y-14900650D01*
X5943991Y-14900650D02*
X5972563Y-14900650D01*
X5972563Y-14900650D02*
X5991610Y-14910174D01*
X5991610Y-14910174D02*
X6001134Y-14929222D01*
X6001134Y-14929222D02*
X6001134Y-15033984D01*
X6001134Y-14929222D02*
X6010658Y-14910174D01*
X6010658Y-14910174D02*
X6029705Y-14900650D01*
X6029705Y-14900650D02*
X6058277Y-14900650D01*
X6058277Y-14900650D02*
X6077324Y-14910174D01*
X6077324Y-14910174D02*
X6086848Y-14929222D01*
X6086848Y-14929222D02*
X6086848Y-15033984D01*
X6182086Y-15033984D02*
X6182086Y-14900650D01*
X6182086Y-14919698D02*
X6191610Y-14910174D01*
X6191610Y-14910174D02*
X6210658Y-14900650D01*
X6210658Y-14900650D02*
X6239229Y-14900650D01*
X6239229Y-14900650D02*
X6258277Y-14910174D01*
X6258277Y-14910174D02*
X6267801Y-14929222D01*
X6267801Y-14929222D02*
X6267801Y-15033984D01*
X6267801Y-14929222D02*
X6277324Y-14910174D01*
X6277324Y-14910174D02*
X6296372Y-14900650D01*
X6296372Y-14900650D02*
X6324943Y-14900650D01*
X6324943Y-14900650D02*
X6343991Y-14910174D01*
X6343991Y-14910174D02*
X6353515Y-14929222D01*
X6353515Y-14929222D02*
X6353515Y-15033984D01*
X6743991Y-14824460D02*
X6572563Y-15081603D01*
X7001134Y-14833984D02*
X7020182Y-14833984D01*
X7020182Y-14833984D02*
X7039229Y-14843508D01*
X7039229Y-14843508D02*
X7048753Y-14853031D01*
X7048753Y-14853031D02*
X7058277Y-14872079D01*
X7058277Y-14872079D02*
X7067801Y-14910174D01*
X7067801Y-14910174D02*
X7067801Y-14957793D01*
X7067801Y-14957793D02*
X7058277Y-14995888D01*
X7058277Y-14995888D02*
X7048753Y-15014936D01*
X7048753Y-15014936D02*
X7039229Y-15024460D01*
X7039229Y-15024460D02*
X7020182Y-15033984D01*
X7020182Y-15033984D02*
X7001134Y-15033984D01*
X7001134Y-15033984D02*
X6982086Y-15024460D01*
X6982086Y-15024460D02*
X6972563Y-15014936D01*
X6972563Y-15014936D02*
X6963039Y-14995888D01*
X6963039Y-14995888D02*
X6953515Y-14957793D01*
X6953515Y-14957793D02*
X6953515Y-14910174D01*
X6953515Y-14910174D02*
X6963039Y-14872079D01*
X6963039Y-14872079D02*
X6972563Y-14853031D01*
X6972563Y-14853031D02*
X6982086Y-14843508D01*
X6982086Y-14843508D02*
X7001134Y-14833984D01*
X7153515Y-15014936D02*
X7163039Y-15024460D01*
X7163039Y-15024460D02*
X7153515Y-15033984D01*
X7153515Y-15033984D02*
X7143991Y-15024460D01*
X7143991Y-15024460D02*
X7153515Y-15014936D01*
X7153515Y-15014936D02*
X7153515Y-15033984D01*
X7286848Y-14833984D02*
X7305896Y-14833984D01*
X7305896Y-14833984D02*
X7324944Y-14843508D01*
X7324944Y-14843508D02*
X7334467Y-14853031D01*
X7334467Y-14853031D02*
X7343991Y-14872079D01*
X7343991Y-14872079D02*
X7353515Y-14910174D01*
X7353515Y-14910174D02*
X7353515Y-14957793D01*
X7353515Y-14957793D02*
X7343991Y-14995888D01*
X7343991Y-14995888D02*
X7334467Y-15014936D01*
X7334467Y-15014936D02*
X7324944Y-15024460D01*
X7324944Y-15024460D02*
X7305896Y-15033984D01*
X7305896Y-15033984D02*
X7286848Y-15033984D01*
X7286848Y-15033984D02*
X7267801Y-15024460D01*
X7267801Y-15024460D02*
X7258277Y-15014936D01*
X7258277Y-15014936D02*
X7248753Y-14995888D01*
X7248753Y-14995888D02*
X7239229Y-14957793D01*
X7239229Y-14957793D02*
X7239229Y-14910174D01*
X7239229Y-14910174D02*
X7248753Y-14872079D01*
X7248753Y-14872079D02*
X7258277Y-14853031D01*
X7258277Y-14853031D02*
X7267801Y-14843508D01*
X7267801Y-14843508D02*
X7286848Y-14833984D01*
X7420182Y-14833984D02*
X7543991Y-14833984D01*
X7543991Y-14833984D02*
X7477325Y-14910174D01*
X7477325Y-14910174D02*
X7505896Y-14910174D01*
X7505896Y-14910174D02*
X7524944Y-14919698D01*
X7524944Y-14919698D02*
X7534467Y-14929222D01*
X7534467Y-14929222D02*
X7543991Y-14948269D01*
X7543991Y-14948269D02*
X7543991Y-14995888D01*
X7543991Y-14995888D02*
X7534467Y-15014936D01*
X7534467Y-15014936D02*
X7524944Y-15024460D01*
X7524944Y-15024460D02*
X7505896Y-15033984D01*
X7505896Y-15033984D02*
X7448753Y-15033984D01*
X7448753Y-15033984D02*
X7429706Y-15024460D01*
X7429706Y-15024460D02*
X7420182Y-15014936D01*
X7639229Y-15033984D02*
X7677325Y-15033984D01*
X7677325Y-15033984D02*
X7696372Y-15024460D01*
X7696372Y-15024460D02*
X7705896Y-15014936D01*
X7705896Y-15014936D02*
X7724944Y-14986365D01*
X7724944Y-14986365D02*
X7734467Y-14948269D01*
X7734467Y-14948269D02*
X7734467Y-14872079D01*
X7734467Y-14872079D02*
X7724944Y-14853031D01*
X7724944Y-14853031D02*
X7715420Y-14843508D01*
X7715420Y-14843508D02*
X7696372Y-14833984D01*
X7696372Y-14833984D02*
X7658277Y-14833984D01*
X7658277Y-14833984D02*
X7639229Y-14843508D01*
X7639229Y-14843508D02*
X7629706Y-14853031D01*
X7629706Y-14853031D02*
X7620182Y-14872079D01*
X7620182Y-14872079D02*
X7620182Y-14919698D01*
X7620182Y-14919698D02*
X7629706Y-14938746D01*
X7629706Y-14938746D02*
X7639229Y-14948269D01*
X7639229Y-14948269D02*
X7658277Y-14957793D01*
X7658277Y-14957793D02*
X7696372Y-14957793D01*
X7696372Y-14957793D02*
X7715420Y-14948269D01*
X7715420Y-14948269D02*
X7724944Y-14938746D01*
X7724944Y-14938746D02*
X7734467Y-14919698D01*
X7905896Y-14900650D02*
X7905896Y-15033984D01*
X7858277Y-14824460D02*
X7810658Y-14967317D01*
X7810658Y-14967317D02*
X7934467Y-14967317D01*
X8001134Y-14833984D02*
X8001134Y-14872079D01*
X8077325Y-14833984D02*
X8077325Y-14872079D01*
X8372563Y-15110174D02*
X8363039Y-15100650D01*
X8363039Y-15100650D02*
X8343991Y-15072079D01*
X8343991Y-15072079D02*
X8334468Y-15053031D01*
X8334468Y-15053031D02*
X8324944Y-15024460D01*
X8324944Y-15024460D02*
X8315420Y-14976841D01*
X8315420Y-14976841D02*
X8315420Y-14938746D01*
X8315420Y-14938746D02*
X8324944Y-14891127D01*
X8324944Y-14891127D02*
X8334468Y-14862555D01*
X8334468Y-14862555D02*
X8343991Y-14843508D01*
X8343991Y-14843508D02*
X8363039Y-14814936D01*
X8363039Y-14814936D02*
X8372563Y-14805412D01*
X8553515Y-15033984D02*
X8439230Y-15033984D01*
X8496372Y-15033984D02*
X8496372Y-14833984D01*
X8496372Y-14833984D02*
X8477325Y-14862555D01*
X8477325Y-14862555D02*
X8458277Y-14881603D01*
X8458277Y-14881603D02*
X8439230Y-14891127D01*
X8667801Y-14919698D02*
X8648753Y-14910174D01*
X8648753Y-14910174D02*
X8639230Y-14900650D01*
X8639230Y-14900650D02*
X8629706Y-14881603D01*
X8629706Y-14881603D02*
X8629706Y-14872079D01*
X8629706Y-14872079D02*
X8639230Y-14853031D01*
X8639230Y-14853031D02*
X8648753Y-14843508D01*
X8648753Y-14843508D02*
X8667801Y-14833984D01*
X8667801Y-14833984D02*
X8705896Y-14833984D01*
X8705896Y-14833984D02*
X8724944Y-14843508D01*
X8724944Y-14843508D02*
X8734468Y-14853031D01*
X8734468Y-14853031D02*
X8743991Y-14872079D01*
X8743991Y-14872079D02*
X8743991Y-14881603D01*
X8743991Y-14881603D02*
X8734468Y-14900650D01*
X8734468Y-14900650D02*
X8724944Y-14910174D01*
X8724944Y-14910174D02*
X8705896Y-14919698D01*
X8705896Y-14919698D02*
X8667801Y-14919698D01*
X8667801Y-14919698D02*
X8648753Y-14929222D01*
X8648753Y-14929222D02*
X8639230Y-14938746D01*
X8639230Y-14938746D02*
X8629706Y-14957793D01*
X8629706Y-14957793D02*
X8629706Y-14995888D01*
X8629706Y-14995888D02*
X8639230Y-15014936D01*
X8639230Y-15014936D02*
X8648753Y-15024460D01*
X8648753Y-15024460D02*
X8667801Y-15033984D01*
X8667801Y-15033984D02*
X8705896Y-15033984D01*
X8705896Y-15033984D02*
X8724944Y-15024460D01*
X8724944Y-15024460D02*
X8734468Y-15014936D01*
X8734468Y-15014936D02*
X8743991Y-14995888D01*
X8743991Y-14995888D02*
X8743991Y-14957793D01*
X8743991Y-14957793D02*
X8734468Y-14938746D01*
X8734468Y-14938746D02*
X8724944Y-14929222D01*
X8724944Y-14929222D02*
X8705896Y-14919698D01*
X8982087Y-15033984D02*
X8982087Y-14833984D01*
X9067801Y-15033984D02*
X9067801Y-14929222D01*
X9067801Y-14929222D02*
X9058277Y-14910174D01*
X9058277Y-14910174D02*
X9039230Y-14900650D01*
X9039230Y-14900650D02*
X9010658Y-14900650D01*
X9010658Y-14900650D02*
X8991611Y-14910174D01*
X8991611Y-14910174D02*
X8982087Y-14919698D01*
X9191611Y-15033984D02*
X9172563Y-15024460D01*
X9172563Y-15024460D02*
X9163039Y-15014936D01*
X9163039Y-15014936D02*
X9153515Y-14995888D01*
X9153515Y-14995888D02*
X9153515Y-14938746D01*
X9153515Y-14938746D02*
X9163039Y-14919698D01*
X9163039Y-14919698D02*
X9172563Y-14910174D01*
X9172563Y-14910174D02*
X9191611Y-14900650D01*
X9191611Y-14900650D02*
X9220182Y-14900650D01*
X9220182Y-14900650D02*
X9239230Y-14910174D01*
X9239230Y-14910174D02*
X9248753Y-14919698D01*
X9248753Y-14919698D02*
X9258277Y-14938746D01*
X9258277Y-14938746D02*
X9258277Y-14995888D01*
X9258277Y-14995888D02*
X9248753Y-15014936D01*
X9248753Y-15014936D02*
X9239230Y-15024460D01*
X9239230Y-15024460D02*
X9220182Y-15033984D01*
X9220182Y-15033984D02*
X9191611Y-15033984D01*
X9372563Y-15033984D02*
X9353515Y-15024460D01*
X9353515Y-15024460D02*
X9343992Y-15005412D01*
X9343992Y-15005412D02*
X9343992Y-14833984D01*
X9524944Y-15024460D02*
X9505896Y-15033984D01*
X9505896Y-15033984D02*
X9467801Y-15033984D01*
X9467801Y-15033984D02*
X9448753Y-15024460D01*
X9448753Y-15024460D02*
X9439230Y-15005412D01*
X9439230Y-15005412D02*
X9439230Y-14929222D01*
X9439230Y-14929222D02*
X9448753Y-14910174D01*
X9448753Y-14910174D02*
X9467801Y-14900650D01*
X9467801Y-14900650D02*
X9505896Y-14900650D01*
X9505896Y-14900650D02*
X9524944Y-14910174D01*
X9524944Y-14910174D02*
X9534468Y-14929222D01*
X9534468Y-14929222D02*
X9534468Y-14948269D01*
X9534468Y-14948269D02*
X9439230Y-14967317D01*
X9610658Y-15024460D02*
X9629706Y-15033984D01*
X9629706Y-15033984D02*
X9667801Y-15033984D01*
X9667801Y-15033984D02*
X9686849Y-15024460D01*
X9686849Y-15024460D02*
X9696373Y-15005412D01*
X9696373Y-15005412D02*
X9696373Y-14995888D01*
X9696373Y-14995888D02*
X9686849Y-14976841D01*
X9686849Y-14976841D02*
X9667801Y-14967317D01*
X9667801Y-14967317D02*
X9639230Y-14967317D01*
X9639230Y-14967317D02*
X9620182Y-14957793D01*
X9620182Y-14957793D02*
X9610658Y-14938746D01*
X9610658Y-14938746D02*
X9610658Y-14929222D01*
X9610658Y-14929222D02*
X9620182Y-14910174D01*
X9620182Y-14910174D02*
X9639230Y-14900650D01*
X9639230Y-14900650D02*
X9667801Y-14900650D01*
X9667801Y-14900650D02*
X9686849Y-14910174D01*
X9763039Y-15110174D02*
X9772563Y-15100650D01*
X9772563Y-15100650D02*
X9791611Y-15072079D01*
X9791611Y-15072079D02*
X9801134Y-15053031D01*
X9801134Y-15053031D02*
X9810658Y-15024460D01*
X9810658Y-15024460D02*
X9820182Y-14976841D01*
X9820182Y-14976841D02*
X9820182Y-14938746D01*
X9820182Y-14938746D02*
X9810658Y-14891127D01*
X9810658Y-14891127D02*
X9801134Y-14862555D01*
X9801134Y-14862555D02*
X9791611Y-14843508D01*
X9791611Y-14843508D02*
X9772563Y-14814936D01*
X9772563Y-14814936D02*
X9763039Y-14805412D01*
X10124944Y-15110174D02*
X10115420Y-15100650D01*
X10115420Y-15100650D02*
X10096373Y-15072079D01*
X10096373Y-15072079D02*
X10086849Y-15053031D01*
X10086849Y-15053031D02*
X10077325Y-15024460D01*
X10077325Y-15024460D02*
X10067801Y-14976841D01*
X10067801Y-14976841D02*
X10067801Y-14938746D01*
X10067801Y-14938746D02*
X10077325Y-14891127D01*
X10077325Y-14891127D02*
X10086849Y-14862555D01*
X10086849Y-14862555D02*
X10096373Y-14843508D01*
X10096373Y-14843508D02*
X10115420Y-14814936D01*
X10115420Y-14814936D02*
X10124944Y-14805412D01*
X10201134Y-14900650D02*
X10201134Y-15033984D01*
X10201134Y-14919698D02*
X10210658Y-14910174D01*
X10210658Y-14910174D02*
X10229706Y-14900650D01*
X10229706Y-14900650D02*
X10258277Y-14900650D01*
X10258277Y-14900650D02*
X10277325Y-14910174D01*
X10277325Y-14910174D02*
X10286849Y-14929222D01*
X10286849Y-14929222D02*
X10286849Y-15033984D01*
X10410658Y-15033984D02*
X10391611Y-15024460D01*
X10391611Y-15024460D02*
X10382087Y-15014936D01*
X10382087Y-15014936D02*
X10372563Y-14995888D01*
X10372563Y-14995888D02*
X10372563Y-14938746D01*
X10372563Y-14938746D02*
X10382087Y-14919698D01*
X10382087Y-14919698D02*
X10391611Y-14910174D01*
X10391611Y-14910174D02*
X10410658Y-14900650D01*
X10410658Y-14900650D02*
X10439230Y-14900650D01*
X10439230Y-14900650D02*
X10458277Y-14910174D01*
X10458277Y-14910174D02*
X10467801Y-14919698D01*
X10467801Y-14919698D02*
X10477325Y-14938746D01*
X10477325Y-14938746D02*
X10477325Y-14995888D01*
X10477325Y-14995888D02*
X10467801Y-15014936D01*
X10467801Y-15014936D02*
X10458277Y-15024460D01*
X10458277Y-15024460D02*
X10439230Y-15033984D01*
X10439230Y-15033984D02*
X10410658Y-15033984D01*
X10534468Y-14900650D02*
X10610658Y-14900650D01*
X10563039Y-14833984D02*
X10563039Y-15005412D01*
X10563039Y-15005412D02*
X10572563Y-15024460D01*
X10572563Y-15024460D02*
X10591611Y-15033984D01*
X10591611Y-15033984D02*
X10610658Y-15033984D01*
X10829706Y-14900650D02*
X10829706Y-15100650D01*
X10829706Y-14910174D02*
X10848754Y-14900650D01*
X10848754Y-14900650D02*
X10886849Y-14900650D01*
X10886849Y-14900650D02*
X10905896Y-14910174D01*
X10905896Y-14910174D02*
X10915420Y-14919698D01*
X10915420Y-14919698D02*
X10924944Y-14938746D01*
X10924944Y-14938746D02*
X10924944Y-14995888D01*
X10924944Y-14995888D02*
X10915420Y-15014936D01*
X10915420Y-15014936D02*
X10905896Y-15024460D01*
X10905896Y-15024460D02*
X10886849Y-15033984D01*
X10886849Y-15033984D02*
X10848754Y-15033984D01*
X10848754Y-15033984D02*
X10829706Y-15024460D01*
X11039230Y-15033984D02*
X11020182Y-15024460D01*
X11020182Y-15024460D02*
X11010658Y-15005412D01*
X11010658Y-15005412D02*
X11010658Y-14833984D01*
X11201134Y-15033984D02*
X11201134Y-14929222D01*
X11201134Y-14929222D02*
X11191611Y-14910174D01*
X11191611Y-14910174D02*
X11172563Y-14900650D01*
X11172563Y-14900650D02*
X11134468Y-14900650D01*
X11134468Y-14900650D02*
X11115420Y-14910174D01*
X11201134Y-15024460D02*
X11182087Y-15033984D01*
X11182087Y-15033984D02*
X11134468Y-15033984D01*
X11134468Y-15033984D02*
X11115420Y-15024460D01*
X11115420Y-15024460D02*
X11105896Y-15005412D01*
X11105896Y-15005412D02*
X11105896Y-14986365D01*
X11105896Y-14986365D02*
X11115420Y-14967317D01*
X11115420Y-14967317D02*
X11134468Y-14957793D01*
X11134468Y-14957793D02*
X11182087Y-14957793D01*
X11182087Y-14957793D02*
X11201134Y-14948269D01*
X11267801Y-14900650D02*
X11343992Y-14900650D01*
X11296373Y-14833984D02*
X11296373Y-15005412D01*
X11296373Y-15005412D02*
X11305896Y-15024460D01*
X11305896Y-15024460D02*
X11324944Y-15033984D01*
X11324944Y-15033984D02*
X11343992Y-15033984D01*
X11486849Y-15024460D02*
X11467801Y-15033984D01*
X11467801Y-15033984D02*
X11429706Y-15033984D01*
X11429706Y-15033984D02*
X11410658Y-15024460D01*
X11410658Y-15024460D02*
X11401134Y-15005412D01*
X11401134Y-15005412D02*
X11401134Y-14929222D01*
X11401134Y-14929222D02*
X11410658Y-14910174D01*
X11410658Y-14910174D02*
X11429706Y-14900650D01*
X11429706Y-14900650D02*
X11467801Y-14900650D01*
X11467801Y-14900650D02*
X11486849Y-14910174D01*
X11486849Y-14910174D02*
X11496373Y-14929222D01*
X11496373Y-14929222D02*
X11496373Y-14948269D01*
X11496373Y-14948269D02*
X11401134Y-14967317D01*
X11667801Y-15033984D02*
X11667801Y-14833984D01*
X11667801Y-15024460D02*
X11648754Y-15033984D01*
X11648754Y-15033984D02*
X11610658Y-15033984D01*
X11610658Y-15033984D02*
X11591611Y-15024460D01*
X11591611Y-15024460D02*
X11582087Y-15014936D01*
X11582087Y-15014936D02*
X11572563Y-14995888D01*
X11572563Y-14995888D02*
X11572563Y-14938746D01*
X11572563Y-14938746D02*
X11582087Y-14919698D01*
X11582087Y-14919698D02*
X11591611Y-14910174D01*
X11591611Y-14910174D02*
X11610658Y-14900650D01*
X11610658Y-14900650D02*
X11648754Y-14900650D01*
X11648754Y-14900650D02*
X11667801Y-14910174D01*
X11743992Y-15110174D02*
X11753515Y-15100650D01*
X11753515Y-15100650D02*
X11772563Y-15072079D01*
X11772563Y-15072079D02*
X11782087Y-15053031D01*
X11782087Y-15053031D02*
X11791611Y-15024460D01*
X11791611Y-15024460D02*
X11801134Y-14976841D01*
X11801134Y-14976841D02*
X11801134Y-14938746D01*
X11801134Y-14938746D02*
X11791611Y-14891127D01*
X11791611Y-14891127D02*
X11782087Y-14862555D01*
X11782087Y-14862555D02*
X11772563Y-14843508D01*
X11772563Y-14843508D02*
X11753515Y-14814936D01*
X11753515Y-14814936D02*
X11743992Y-14805412D01*
X4797500Y-15206500D02*
G75*
G02*
X4597500Y-15206500I-100000J0D01*
G01*
X4597500Y-15206500D02*
G75*
G02*
X4797500Y-15206500I100000J0D01*
G01*
X5039229Y-15097984D02*
X5163039Y-15097984D01*
X5163039Y-15097984D02*
X5096372Y-15174174D01*
X5096372Y-15174174D02*
X5124944Y-15174174D01*
X5124944Y-15174174D02*
X5143991Y-15183698D01*
X5143991Y-15183698D02*
X5153515Y-15193222D01*
X5153515Y-15193222D02*
X5163039Y-15212269D01*
X5163039Y-15212269D02*
X5163039Y-15259888D01*
X5163039Y-15259888D02*
X5153515Y-15278936D01*
X5153515Y-15278936D02*
X5143991Y-15288460D01*
X5143991Y-15288460D02*
X5124944Y-15297984D01*
X5124944Y-15297984D02*
X5067801Y-15297984D01*
X5067801Y-15297984D02*
X5048753Y-15288460D01*
X5048753Y-15288460D02*
X5039229Y-15278936D01*
X5248753Y-15278936D02*
X5258277Y-15288460D01*
X5258277Y-15288460D02*
X5248753Y-15297984D01*
X5248753Y-15297984D02*
X5239229Y-15288460D01*
X5239229Y-15288460D02*
X5248753Y-15278936D01*
X5248753Y-15278936D02*
X5248753Y-15297984D01*
X5439229Y-15097984D02*
X5343991Y-15097984D01*
X5343991Y-15097984D02*
X5334467Y-15193222D01*
X5334467Y-15193222D02*
X5343991Y-15183698D01*
X5343991Y-15183698D02*
X5363039Y-15174174D01*
X5363039Y-15174174D02*
X5410658Y-15174174D01*
X5410658Y-15174174D02*
X5429705Y-15183698D01*
X5429705Y-15183698D02*
X5439229Y-15193222D01*
X5439229Y-15193222D02*
X5448753Y-15212269D01*
X5448753Y-15212269D02*
X5448753Y-15259888D01*
X5448753Y-15259888D02*
X5439229Y-15278936D01*
X5439229Y-15278936D02*
X5429705Y-15288460D01*
X5429705Y-15288460D02*
X5410658Y-15297984D01*
X5410658Y-15297984D02*
X5363039Y-15297984D01*
X5363039Y-15297984D02*
X5343991Y-15288460D01*
X5343991Y-15288460D02*
X5334467Y-15278936D01*
X5572563Y-15097984D02*
X5591610Y-15097984D01*
X5591610Y-15097984D02*
X5610658Y-15107508D01*
X5610658Y-15107508D02*
X5620182Y-15117031D01*
X5620182Y-15117031D02*
X5629705Y-15136079D01*
X5629705Y-15136079D02*
X5639229Y-15174174D01*
X5639229Y-15174174D02*
X5639229Y-15221793D01*
X5639229Y-15221793D02*
X5629705Y-15259888D01*
X5629705Y-15259888D02*
X5620182Y-15278936D01*
X5620182Y-15278936D02*
X5610658Y-15288460D01*
X5610658Y-15288460D02*
X5591610Y-15297984D01*
X5591610Y-15297984D02*
X5572563Y-15297984D01*
X5572563Y-15297984D02*
X5553515Y-15288460D01*
X5553515Y-15288460D02*
X5543991Y-15278936D01*
X5543991Y-15278936D02*
X5534467Y-15259888D01*
X5534467Y-15259888D02*
X5524944Y-15221793D01*
X5524944Y-15221793D02*
X5524944Y-15174174D01*
X5524944Y-15174174D02*
X5534467Y-15136079D01*
X5534467Y-15136079D02*
X5543991Y-15117031D01*
X5543991Y-15117031D02*
X5553515Y-15107508D01*
X5553515Y-15107508D02*
X5572563Y-15097984D01*
X5763039Y-15097984D02*
X5782086Y-15097984D01*
X5782086Y-15097984D02*
X5801134Y-15107508D01*
X5801134Y-15107508D02*
X5810658Y-15117031D01*
X5810658Y-15117031D02*
X5820182Y-15136079D01*
X5820182Y-15136079D02*
X5829705Y-15174174D01*
X5829705Y-15174174D02*
X5829705Y-15221793D01*
X5829705Y-15221793D02*
X5820182Y-15259888D01*
X5820182Y-15259888D02*
X5810658Y-15278936D01*
X5810658Y-15278936D02*
X5801134Y-15288460D01*
X5801134Y-15288460D02*
X5782086Y-15297984D01*
X5782086Y-15297984D02*
X5763039Y-15297984D01*
X5763039Y-15297984D02*
X5743991Y-15288460D01*
X5743991Y-15288460D02*
X5734467Y-15278936D01*
X5734467Y-15278936D02*
X5724943Y-15259888D01*
X5724943Y-15259888D02*
X5715420Y-15221793D01*
X5715420Y-15221793D02*
X5715420Y-15174174D01*
X5715420Y-15174174D02*
X5724943Y-15136079D01*
X5724943Y-15136079D02*
X5734467Y-15117031D01*
X5734467Y-15117031D02*
X5743991Y-15107508D01*
X5743991Y-15107508D02*
X5763039Y-15097984D01*
X5915420Y-15297984D02*
X5915420Y-15164650D01*
X5915420Y-15183698D02*
X5924943Y-15174174D01*
X5924943Y-15174174D02*
X5943991Y-15164650D01*
X5943991Y-15164650D02*
X5972563Y-15164650D01*
X5972563Y-15164650D02*
X5991610Y-15174174D01*
X5991610Y-15174174D02*
X6001134Y-15193222D01*
X6001134Y-15193222D02*
X6001134Y-15297984D01*
X6001134Y-15193222D02*
X6010658Y-15174174D01*
X6010658Y-15174174D02*
X6029705Y-15164650D01*
X6029705Y-15164650D02*
X6058277Y-15164650D01*
X6058277Y-15164650D02*
X6077324Y-15174174D01*
X6077324Y-15174174D02*
X6086848Y-15193222D01*
X6086848Y-15193222D02*
X6086848Y-15297984D01*
X6182086Y-15297984D02*
X6182086Y-15164650D01*
X6182086Y-15183698D02*
X6191610Y-15174174D01*
X6191610Y-15174174D02*
X6210658Y-15164650D01*
X6210658Y-15164650D02*
X6239229Y-15164650D01*
X6239229Y-15164650D02*
X6258277Y-15174174D01*
X6258277Y-15174174D02*
X6267801Y-15193222D01*
X6267801Y-15193222D02*
X6267801Y-15297984D01*
X6267801Y-15193222D02*
X6277324Y-15174174D01*
X6277324Y-15174174D02*
X6296372Y-15164650D01*
X6296372Y-15164650D02*
X6324943Y-15164650D01*
X6324943Y-15164650D02*
X6343991Y-15174174D01*
X6343991Y-15174174D02*
X6353515Y-15193222D01*
X6353515Y-15193222D02*
X6353515Y-15297984D01*
X6743991Y-15088460D02*
X6572563Y-15345603D01*
X7001134Y-15097984D02*
X7020182Y-15097984D01*
X7020182Y-15097984D02*
X7039229Y-15107508D01*
X7039229Y-15107508D02*
X7048753Y-15117031D01*
X7048753Y-15117031D02*
X7058277Y-15136079D01*
X7058277Y-15136079D02*
X7067801Y-15174174D01*
X7067801Y-15174174D02*
X7067801Y-15221793D01*
X7067801Y-15221793D02*
X7058277Y-15259888D01*
X7058277Y-15259888D02*
X7048753Y-15278936D01*
X7048753Y-15278936D02*
X7039229Y-15288460D01*
X7039229Y-15288460D02*
X7020182Y-15297984D01*
X7020182Y-15297984D02*
X7001134Y-15297984D01*
X7001134Y-15297984D02*
X6982086Y-15288460D01*
X6982086Y-15288460D02*
X6972563Y-15278936D01*
X6972563Y-15278936D02*
X6963039Y-15259888D01*
X6963039Y-15259888D02*
X6953515Y-15221793D01*
X6953515Y-15221793D02*
X6953515Y-15174174D01*
X6953515Y-15174174D02*
X6963039Y-15136079D01*
X6963039Y-15136079D02*
X6972563Y-15117031D01*
X6972563Y-15117031D02*
X6982086Y-15107508D01*
X6982086Y-15107508D02*
X7001134Y-15097984D01*
X7153515Y-15278936D02*
X7163039Y-15288460D01*
X7163039Y-15288460D02*
X7153515Y-15297984D01*
X7153515Y-15297984D02*
X7143991Y-15288460D01*
X7143991Y-15288460D02*
X7153515Y-15278936D01*
X7153515Y-15278936D02*
X7153515Y-15297984D01*
X7353515Y-15297984D02*
X7239229Y-15297984D01*
X7296372Y-15297984D02*
X7296372Y-15097984D01*
X7296372Y-15097984D02*
X7277325Y-15126555D01*
X7277325Y-15126555D02*
X7258277Y-15145603D01*
X7258277Y-15145603D02*
X7239229Y-15155127D01*
X7420182Y-15097984D02*
X7543991Y-15097984D01*
X7543991Y-15097984D02*
X7477325Y-15174174D01*
X7477325Y-15174174D02*
X7505896Y-15174174D01*
X7505896Y-15174174D02*
X7524944Y-15183698D01*
X7524944Y-15183698D02*
X7534467Y-15193222D01*
X7534467Y-15193222D02*
X7543991Y-15212269D01*
X7543991Y-15212269D02*
X7543991Y-15259888D01*
X7543991Y-15259888D02*
X7534467Y-15278936D01*
X7534467Y-15278936D02*
X7524944Y-15288460D01*
X7524944Y-15288460D02*
X7505896Y-15297984D01*
X7505896Y-15297984D02*
X7448753Y-15297984D01*
X7448753Y-15297984D02*
X7429706Y-15288460D01*
X7429706Y-15288460D02*
X7420182Y-15278936D01*
X7610658Y-15097984D02*
X7743991Y-15097984D01*
X7743991Y-15097984D02*
X7658277Y-15297984D01*
X7848753Y-15183698D02*
X7829706Y-15174174D01*
X7829706Y-15174174D02*
X7820182Y-15164650D01*
X7820182Y-15164650D02*
X7810658Y-15145603D01*
X7810658Y-15145603D02*
X7810658Y-15136079D01*
X7810658Y-15136079D02*
X7820182Y-15117031D01*
X7820182Y-15117031D02*
X7829706Y-15107508D01*
X7829706Y-15107508D02*
X7848753Y-15097984D01*
X7848753Y-15097984D02*
X7886848Y-15097984D01*
X7886848Y-15097984D02*
X7905896Y-15107508D01*
X7905896Y-15107508D02*
X7915420Y-15117031D01*
X7915420Y-15117031D02*
X7924944Y-15136079D01*
X7924944Y-15136079D02*
X7924944Y-15145603D01*
X7924944Y-15145603D02*
X7915420Y-15164650D01*
X7915420Y-15164650D02*
X7905896Y-15174174D01*
X7905896Y-15174174D02*
X7886848Y-15183698D01*
X7886848Y-15183698D02*
X7848753Y-15183698D01*
X7848753Y-15183698D02*
X7829706Y-15193222D01*
X7829706Y-15193222D02*
X7820182Y-15202746D01*
X7820182Y-15202746D02*
X7810658Y-15221793D01*
X7810658Y-15221793D02*
X7810658Y-15259888D01*
X7810658Y-15259888D02*
X7820182Y-15278936D01*
X7820182Y-15278936D02*
X7829706Y-15288460D01*
X7829706Y-15288460D02*
X7848753Y-15297984D01*
X7848753Y-15297984D02*
X7886848Y-15297984D01*
X7886848Y-15297984D02*
X7905896Y-15288460D01*
X7905896Y-15288460D02*
X7915420Y-15278936D01*
X7915420Y-15278936D02*
X7924944Y-15259888D01*
X7924944Y-15259888D02*
X7924944Y-15221793D01*
X7924944Y-15221793D02*
X7915420Y-15202746D01*
X7915420Y-15202746D02*
X7905896Y-15193222D01*
X7905896Y-15193222D02*
X7886848Y-15183698D01*
X8001134Y-15097984D02*
X8001134Y-15136079D01*
X8077325Y-15097984D02*
X8077325Y-15136079D01*
X8372563Y-15374174D02*
X8363039Y-15364650D01*
X8363039Y-15364650D02*
X8343991Y-15336079D01*
X8343991Y-15336079D02*
X8334468Y-15317031D01*
X8334468Y-15317031D02*
X8324944Y-15288460D01*
X8324944Y-15288460D02*
X8315420Y-15240841D01*
X8315420Y-15240841D02*
X8315420Y-15202746D01*
X8315420Y-15202746D02*
X8324944Y-15155127D01*
X8324944Y-15155127D02*
X8334468Y-15126555D01*
X8334468Y-15126555D02*
X8343991Y-15107508D01*
X8343991Y-15107508D02*
X8363039Y-15078936D01*
X8363039Y-15078936D02*
X8372563Y-15069412D01*
X8543991Y-15097984D02*
X8448753Y-15097984D01*
X8448753Y-15097984D02*
X8439230Y-15193222D01*
X8439230Y-15193222D02*
X8448753Y-15183698D01*
X8448753Y-15183698D02*
X8467801Y-15174174D01*
X8467801Y-15174174D02*
X8515420Y-15174174D01*
X8515420Y-15174174D02*
X8534468Y-15183698D01*
X8534468Y-15183698D02*
X8543991Y-15193222D01*
X8543991Y-15193222D02*
X8553515Y-15212269D01*
X8553515Y-15212269D02*
X8553515Y-15259888D01*
X8553515Y-15259888D02*
X8543991Y-15278936D01*
X8543991Y-15278936D02*
X8534468Y-15288460D01*
X8534468Y-15288460D02*
X8515420Y-15297984D01*
X8515420Y-15297984D02*
X8467801Y-15297984D01*
X8467801Y-15297984D02*
X8448753Y-15288460D01*
X8448753Y-15288460D02*
X8439230Y-15278936D01*
X8791611Y-15297984D02*
X8791611Y-15097984D01*
X8877325Y-15297984D02*
X8877325Y-15193222D01*
X8877325Y-15193222D02*
X8867801Y-15174174D01*
X8867801Y-15174174D02*
X8848753Y-15164650D01*
X8848753Y-15164650D02*
X8820182Y-15164650D01*
X8820182Y-15164650D02*
X8801134Y-15174174D01*
X8801134Y-15174174D02*
X8791611Y-15183698D01*
X9001134Y-15297984D02*
X8982087Y-15288460D01*
X8982087Y-15288460D02*
X8972563Y-15278936D01*
X8972563Y-15278936D02*
X8963039Y-15259888D01*
X8963039Y-15259888D02*
X8963039Y-15202746D01*
X8963039Y-15202746D02*
X8972563Y-15183698D01*
X8972563Y-15183698D02*
X8982087Y-15174174D01*
X8982087Y-15174174D02*
X9001134Y-15164650D01*
X9001134Y-15164650D02*
X9029706Y-15164650D01*
X9029706Y-15164650D02*
X9048753Y-15174174D01*
X9048753Y-15174174D02*
X9058277Y-15183698D01*
X9058277Y-15183698D02*
X9067801Y-15202746D01*
X9067801Y-15202746D02*
X9067801Y-15259888D01*
X9067801Y-15259888D02*
X9058277Y-15278936D01*
X9058277Y-15278936D02*
X9048753Y-15288460D01*
X9048753Y-15288460D02*
X9029706Y-15297984D01*
X9029706Y-15297984D02*
X9001134Y-15297984D01*
X9182087Y-15297984D02*
X9163039Y-15288460D01*
X9163039Y-15288460D02*
X9153515Y-15269412D01*
X9153515Y-15269412D02*
X9153515Y-15097984D01*
X9334468Y-15288460D02*
X9315420Y-15297984D01*
X9315420Y-15297984D02*
X9277325Y-15297984D01*
X9277325Y-15297984D02*
X9258277Y-15288460D01*
X9258277Y-15288460D02*
X9248753Y-15269412D01*
X9248753Y-15269412D02*
X9248753Y-15193222D01*
X9248753Y-15193222D02*
X9258277Y-15174174D01*
X9258277Y-15174174D02*
X9277325Y-15164650D01*
X9277325Y-15164650D02*
X9315420Y-15164650D01*
X9315420Y-15164650D02*
X9334468Y-15174174D01*
X9334468Y-15174174D02*
X9343992Y-15193222D01*
X9343992Y-15193222D02*
X9343992Y-15212269D01*
X9343992Y-15212269D02*
X9248753Y-15231317D01*
X9420182Y-15288460D02*
X9439230Y-15297984D01*
X9439230Y-15297984D02*
X9477325Y-15297984D01*
X9477325Y-15297984D02*
X9496373Y-15288460D01*
X9496373Y-15288460D02*
X9505896Y-15269412D01*
X9505896Y-15269412D02*
X9505896Y-15259888D01*
X9505896Y-15259888D02*
X9496373Y-15240841D01*
X9496373Y-15240841D02*
X9477325Y-15231317D01*
X9477325Y-15231317D02*
X9448753Y-15231317D01*
X9448753Y-15231317D02*
X9429706Y-15221793D01*
X9429706Y-15221793D02*
X9420182Y-15202746D01*
X9420182Y-15202746D02*
X9420182Y-15193222D01*
X9420182Y-15193222D02*
X9429706Y-15174174D01*
X9429706Y-15174174D02*
X9448753Y-15164650D01*
X9448753Y-15164650D02*
X9477325Y-15164650D01*
X9477325Y-15164650D02*
X9496373Y-15174174D01*
X9572563Y-15374174D02*
X9582087Y-15364650D01*
X9582087Y-15364650D02*
X9601134Y-15336079D01*
X9601134Y-15336079D02*
X9610658Y-15317031D01*
X9610658Y-15317031D02*
X9620182Y-15288460D01*
X9620182Y-15288460D02*
X9629706Y-15240841D01*
X9629706Y-15240841D02*
X9629706Y-15202746D01*
X9629706Y-15202746D02*
X9620182Y-15155127D01*
X9620182Y-15155127D02*
X9610658Y-15126555D01*
X9610658Y-15126555D02*
X9601134Y-15107508D01*
X9601134Y-15107508D02*
X9582087Y-15078936D01*
X9582087Y-15078936D02*
X9572563Y-15069412D01*
X9934468Y-15374174D02*
X9924944Y-15364650D01*
X9924944Y-15364650D02*
X9905896Y-15336079D01*
X9905896Y-15336079D02*
X9896373Y-15317031D01*
X9896373Y-15317031D02*
X9886849Y-15288460D01*
X9886849Y-15288460D02*
X9877325Y-15240841D01*
X9877325Y-15240841D02*
X9877325Y-15202746D01*
X9877325Y-15202746D02*
X9886849Y-15155127D01*
X9886849Y-15155127D02*
X9896373Y-15126555D01*
X9896373Y-15126555D02*
X9905896Y-15107508D01*
X9905896Y-15107508D02*
X9924944Y-15078936D01*
X9924944Y-15078936D02*
X9934468Y-15069412D01*
X10010658Y-15164650D02*
X10010658Y-15297984D01*
X10010658Y-15183698D02*
X10020182Y-15174174D01*
X10020182Y-15174174D02*
X10039230Y-15164650D01*
X10039230Y-15164650D02*
X10067801Y-15164650D01*
X10067801Y-15164650D02*
X10086849Y-15174174D01*
X10086849Y-15174174D02*
X10096373Y-15193222D01*
X10096373Y-15193222D02*
X10096373Y-15297984D01*
X10220182Y-15297984D02*
X10201134Y-15288460D01*
X10201134Y-15288460D02*
X10191611Y-15278936D01*
X10191611Y-15278936D02*
X10182087Y-15259888D01*
X10182087Y-15259888D02*
X10182087Y-15202746D01*
X10182087Y-15202746D02*
X10191611Y-15183698D01*
X10191611Y-15183698D02*
X10201134Y-15174174D01*
X10201134Y-15174174D02*
X10220182Y-15164650D01*
X10220182Y-15164650D02*
X10248754Y-15164650D01*
X10248754Y-15164650D02*
X10267801Y-15174174D01*
X10267801Y-15174174D02*
X10277325Y-15183698D01*
X10277325Y-15183698D02*
X10286849Y-15202746D01*
X10286849Y-15202746D02*
X10286849Y-15259888D01*
X10286849Y-15259888D02*
X10277325Y-15278936D01*
X10277325Y-15278936D02*
X10267801Y-15288460D01*
X10267801Y-15288460D02*
X10248754Y-15297984D01*
X10248754Y-15297984D02*
X10220182Y-15297984D01*
X10343992Y-15164650D02*
X10420182Y-15164650D01*
X10372563Y-15097984D02*
X10372563Y-15269412D01*
X10372563Y-15269412D02*
X10382087Y-15288460D01*
X10382087Y-15288460D02*
X10401134Y-15297984D01*
X10401134Y-15297984D02*
X10420182Y-15297984D01*
X10639230Y-15164650D02*
X10639230Y-15364650D01*
X10639230Y-15174174D02*
X10658277Y-15164650D01*
X10658277Y-15164650D02*
X10696373Y-15164650D01*
X10696373Y-15164650D02*
X10715420Y-15174174D01*
X10715420Y-15174174D02*
X10724944Y-15183698D01*
X10724944Y-15183698D02*
X10734468Y-15202746D01*
X10734468Y-15202746D02*
X10734468Y-15259888D01*
X10734468Y-15259888D02*
X10724944Y-15278936D01*
X10724944Y-15278936D02*
X10715420Y-15288460D01*
X10715420Y-15288460D02*
X10696373Y-15297984D01*
X10696373Y-15297984D02*
X10658277Y-15297984D01*
X10658277Y-15297984D02*
X10639230Y-15288460D01*
X10848754Y-15297984D02*
X10829706Y-15288460D01*
X10829706Y-15288460D02*
X10820182Y-15269412D01*
X10820182Y-15269412D02*
X10820182Y-15097984D01*
X11010658Y-15297984D02*
X11010658Y-15193222D01*
X11010658Y-15193222D02*
X11001135Y-15174174D01*
X11001135Y-15174174D02*
X10982087Y-15164650D01*
X10982087Y-15164650D02*
X10943992Y-15164650D01*
X10943992Y-15164650D02*
X10924944Y-15174174D01*
X11010658Y-15288460D02*
X10991611Y-15297984D01*
X10991611Y-15297984D02*
X10943992Y-15297984D01*
X10943992Y-15297984D02*
X10924944Y-15288460D01*
X10924944Y-15288460D02*
X10915420Y-15269412D01*
X10915420Y-15269412D02*
X10915420Y-15250365D01*
X10915420Y-15250365D02*
X10924944Y-15231317D01*
X10924944Y-15231317D02*
X10943992Y-15221793D01*
X10943992Y-15221793D02*
X10991611Y-15221793D01*
X10991611Y-15221793D02*
X11010658Y-15212269D01*
X11077325Y-15164650D02*
X11153515Y-15164650D01*
X11105896Y-15097984D02*
X11105896Y-15269412D01*
X11105896Y-15269412D02*
X11115420Y-15288460D01*
X11115420Y-15288460D02*
X11134468Y-15297984D01*
X11134468Y-15297984D02*
X11153515Y-15297984D01*
X11296373Y-15288460D02*
X11277325Y-15297984D01*
X11277325Y-15297984D02*
X11239230Y-15297984D01*
X11239230Y-15297984D02*
X11220182Y-15288460D01*
X11220182Y-15288460D02*
X11210658Y-15269412D01*
X11210658Y-15269412D02*
X11210658Y-15193222D01*
X11210658Y-15193222D02*
X11220182Y-15174174D01*
X11220182Y-15174174D02*
X11239230Y-15164650D01*
X11239230Y-15164650D02*
X11277325Y-15164650D01*
X11277325Y-15164650D02*
X11296373Y-15174174D01*
X11296373Y-15174174D02*
X11305896Y-15193222D01*
X11305896Y-15193222D02*
X11305896Y-15212269D01*
X11305896Y-15212269D02*
X11210658Y-15231317D01*
X11477325Y-15297984D02*
X11477325Y-15097984D01*
X11477325Y-15288460D02*
X11458277Y-15297984D01*
X11458277Y-15297984D02*
X11420182Y-15297984D01*
X11420182Y-15297984D02*
X11401134Y-15288460D01*
X11401134Y-15288460D02*
X11391611Y-15278936D01*
X11391611Y-15278936D02*
X11382087Y-15259888D01*
X11382087Y-15259888D02*
X11382087Y-15202746D01*
X11382087Y-15202746D02*
X11391611Y-15183698D01*
X11391611Y-15183698D02*
X11401134Y-15174174D01*
X11401134Y-15174174D02*
X11420182Y-15164650D01*
X11420182Y-15164650D02*
X11458277Y-15164650D01*
X11458277Y-15164650D02*
X11477325Y-15174174D01*
X11553515Y-15374174D02*
X11563039Y-15364650D01*
X11563039Y-15364650D02*
X11582087Y-15336079D01*
X11582087Y-15336079D02*
X11591611Y-15317031D01*
X11591611Y-15317031D02*
X11601134Y-15288460D01*
X11601134Y-15288460D02*
X11610658Y-15240841D01*
X11610658Y-15240841D02*
X11610658Y-15202746D01*
X11610658Y-15202746D02*
X11601134Y-15155127D01*
X11601134Y-15155127D02*
X11591611Y-15126555D01*
X11591611Y-15126555D02*
X11582087Y-15107508D01*
X11582087Y-15107508D02*
X11563039Y-15078936D01*
X11563039Y-15078936D02*
X11553515Y-15069412D01*
M02*
