G04 #@! TF.GenerationSoftware,KiCad,Pcbnew,10.0.1*
G04 #@! TF.CreationDate,2026-06-01T13:42:42+01:00*
G04 #@! TF.ProjectId,hw-controller,68772d63-6f6e-4747-926f-6c6c65722e6b,rev?*
G04 #@! TF.SameCoordinates,Original*
G04 #@! TF.FileFunction,Legend,Bot*
G04 #@! TF.FilePolarity,Positive*
%FSLAX46Y46*%
G04 Gerber Fmt 4.6, Leading zero omitted, Abs format (unit mm)*
G04 Created by KiCad (PCBNEW 10.0.1) date 2026-06-01 13:42:42*
%MOMM*%
%LPD*%
G01*
G04 APERTURE LIST*
%ADD10C,0.187500*%
G04 APERTURE END LIST*
D10*
X131250359Y-140663821D02*
X131321787Y-140735250D01*
X131321787Y-140735250D02*
X131536073Y-140806678D01*
X131536073Y-140806678D02*
X131678930Y-140806678D01*
X131678930Y-140806678D02*
X131893216Y-140735250D01*
X131893216Y-140735250D02*
X132036073Y-140592392D01*
X132036073Y-140592392D02*
X132107502Y-140449535D01*
X132107502Y-140449535D02*
X132178930Y-140163821D01*
X132178930Y-140163821D02*
X132178930Y-139949535D01*
X132178930Y-139949535D02*
X132107502Y-139663821D01*
X132107502Y-139663821D02*
X132036073Y-139520964D01*
X132036073Y-139520964D02*
X131893216Y-139378107D01*
X131893216Y-139378107D02*
X131678930Y-139306678D01*
X131678930Y-139306678D02*
X131536073Y-139306678D01*
X131536073Y-139306678D02*
X131321787Y-139378107D01*
X131321787Y-139378107D02*
X131250359Y-139449535D01*
X130607502Y-140806678D02*
X130607502Y-139306678D01*
X130607502Y-140020964D02*
X129750359Y-140020964D01*
X129750359Y-140806678D02*
X129750359Y-139306678D01*
X128821787Y-139949535D02*
X128964644Y-139878107D01*
X128964644Y-139878107D02*
X129036073Y-139806678D01*
X129036073Y-139806678D02*
X129107501Y-139663821D01*
X129107501Y-139663821D02*
X129107501Y-139592392D01*
X129107501Y-139592392D02*
X129036073Y-139449535D01*
X129036073Y-139449535D02*
X128964644Y-139378107D01*
X128964644Y-139378107D02*
X128821787Y-139306678D01*
X128821787Y-139306678D02*
X128536073Y-139306678D01*
X128536073Y-139306678D02*
X128393216Y-139378107D01*
X128393216Y-139378107D02*
X128321787Y-139449535D01*
X128321787Y-139449535D02*
X128250358Y-139592392D01*
X128250358Y-139592392D02*
X128250358Y-139663821D01*
X128250358Y-139663821D02*
X128321787Y-139806678D01*
X128321787Y-139806678D02*
X128393216Y-139878107D01*
X128393216Y-139878107D02*
X128536073Y-139949535D01*
X128536073Y-139949535D02*
X128821787Y-139949535D01*
X128821787Y-139949535D02*
X128964644Y-140020964D01*
X128964644Y-140020964D02*
X129036073Y-140092392D01*
X129036073Y-140092392D02*
X129107501Y-140235250D01*
X129107501Y-140235250D02*
X129107501Y-140520964D01*
X129107501Y-140520964D02*
X129036073Y-140663821D01*
X129036073Y-140663821D02*
X128964644Y-140735250D01*
X128964644Y-140735250D02*
X128821787Y-140806678D01*
X128821787Y-140806678D02*
X128536073Y-140806678D01*
X128536073Y-140806678D02*
X128393216Y-140735250D01*
X128393216Y-140735250D02*
X128321787Y-140663821D01*
X128321787Y-140663821D02*
X128250358Y-140520964D01*
X128250358Y-140520964D02*
X128250358Y-140235250D01*
X128250358Y-140235250D02*
X128321787Y-140092392D01*
X128321787Y-140092392D02*
X128393216Y-140020964D01*
X128393216Y-140020964D02*
X128536073Y-139949535D01*
X126170359Y-140663821D02*
X126241787Y-140735250D01*
X126241787Y-140735250D02*
X126456073Y-140806678D01*
X126456073Y-140806678D02*
X126598930Y-140806678D01*
X126598930Y-140806678D02*
X126813216Y-140735250D01*
X126813216Y-140735250D02*
X126956073Y-140592392D01*
X126956073Y-140592392D02*
X127027502Y-140449535D01*
X127027502Y-140449535D02*
X127098930Y-140163821D01*
X127098930Y-140163821D02*
X127098930Y-139949535D01*
X127098930Y-139949535D02*
X127027502Y-139663821D01*
X127027502Y-139663821D02*
X126956073Y-139520964D01*
X126956073Y-139520964D02*
X126813216Y-139378107D01*
X126813216Y-139378107D02*
X126598930Y-139306678D01*
X126598930Y-139306678D02*
X126456073Y-139306678D01*
X126456073Y-139306678D02*
X126241787Y-139378107D01*
X126241787Y-139378107D02*
X126170359Y-139449535D01*
X125527502Y-140806678D02*
X125527502Y-139306678D01*
X125527502Y-140020964D02*
X124670359Y-140020964D01*
X124670359Y-140806678D02*
X124670359Y-139306678D01*
X124098930Y-139306678D02*
X123098930Y-139306678D01*
X123098930Y-139306678D02*
X123741787Y-140806678D01*
X121090359Y-140663821D02*
X121161787Y-140735250D01*
X121161787Y-140735250D02*
X121376073Y-140806678D01*
X121376073Y-140806678D02*
X121518930Y-140806678D01*
X121518930Y-140806678D02*
X121733216Y-140735250D01*
X121733216Y-140735250D02*
X121876073Y-140592392D01*
X121876073Y-140592392D02*
X121947502Y-140449535D01*
X121947502Y-140449535D02*
X122018930Y-140163821D01*
X122018930Y-140163821D02*
X122018930Y-139949535D01*
X122018930Y-139949535D02*
X121947502Y-139663821D01*
X121947502Y-139663821D02*
X121876073Y-139520964D01*
X121876073Y-139520964D02*
X121733216Y-139378107D01*
X121733216Y-139378107D02*
X121518930Y-139306678D01*
X121518930Y-139306678D02*
X121376073Y-139306678D01*
X121376073Y-139306678D02*
X121161787Y-139378107D01*
X121161787Y-139378107D02*
X121090359Y-139449535D01*
X120447502Y-140806678D02*
X120447502Y-139306678D01*
X120447502Y-140020964D02*
X119590359Y-140020964D01*
X119590359Y-140806678D02*
X119590359Y-139306678D01*
X118233216Y-139306678D02*
X118518930Y-139306678D01*
X118518930Y-139306678D02*
X118661787Y-139378107D01*
X118661787Y-139378107D02*
X118733216Y-139449535D01*
X118733216Y-139449535D02*
X118876073Y-139663821D01*
X118876073Y-139663821D02*
X118947501Y-139949535D01*
X118947501Y-139949535D02*
X118947501Y-140520964D01*
X118947501Y-140520964D02*
X118876073Y-140663821D01*
X118876073Y-140663821D02*
X118804644Y-140735250D01*
X118804644Y-140735250D02*
X118661787Y-140806678D01*
X118661787Y-140806678D02*
X118376073Y-140806678D01*
X118376073Y-140806678D02*
X118233216Y-140735250D01*
X118233216Y-140735250D02*
X118161787Y-140663821D01*
X118161787Y-140663821D02*
X118090358Y-140520964D01*
X118090358Y-140520964D02*
X118090358Y-140163821D01*
X118090358Y-140163821D02*
X118161787Y-140020964D01*
X118161787Y-140020964D02*
X118233216Y-139949535D01*
X118233216Y-139949535D02*
X118376073Y-139878107D01*
X118376073Y-139878107D02*
X118661787Y-139878107D01*
X118661787Y-139878107D02*
X118804644Y-139949535D01*
X118804644Y-139949535D02*
X118876073Y-140020964D01*
X118876073Y-140020964D02*
X118947501Y-140163821D01*
X116010359Y-140663821D02*
X116081787Y-140735250D01*
X116081787Y-140735250D02*
X116296073Y-140806678D01*
X116296073Y-140806678D02*
X116438930Y-140806678D01*
X116438930Y-140806678D02*
X116653216Y-140735250D01*
X116653216Y-140735250D02*
X116796073Y-140592392D01*
X116796073Y-140592392D02*
X116867502Y-140449535D01*
X116867502Y-140449535D02*
X116938930Y-140163821D01*
X116938930Y-140163821D02*
X116938930Y-139949535D01*
X116938930Y-139949535D02*
X116867502Y-139663821D01*
X116867502Y-139663821D02*
X116796073Y-139520964D01*
X116796073Y-139520964D02*
X116653216Y-139378107D01*
X116653216Y-139378107D02*
X116438930Y-139306678D01*
X116438930Y-139306678D02*
X116296073Y-139306678D01*
X116296073Y-139306678D02*
X116081787Y-139378107D01*
X116081787Y-139378107D02*
X116010359Y-139449535D01*
X115367502Y-140806678D02*
X115367502Y-139306678D01*
X115367502Y-140020964D02*
X114510359Y-140020964D01*
X114510359Y-140806678D02*
X114510359Y-139306678D01*
X113081787Y-139306678D02*
X113796073Y-139306678D01*
X113796073Y-139306678D02*
X113867501Y-140020964D01*
X113867501Y-140020964D02*
X113796073Y-139949535D01*
X113796073Y-139949535D02*
X113653216Y-139878107D01*
X113653216Y-139878107D02*
X113296073Y-139878107D01*
X113296073Y-139878107D02*
X113153216Y-139949535D01*
X113153216Y-139949535D02*
X113081787Y-140020964D01*
X113081787Y-140020964D02*
X113010358Y-140163821D01*
X113010358Y-140163821D02*
X113010358Y-140520964D01*
X113010358Y-140520964D02*
X113081787Y-140663821D01*
X113081787Y-140663821D02*
X113153216Y-140735250D01*
X113153216Y-140735250D02*
X113296073Y-140806678D01*
X113296073Y-140806678D02*
X113653216Y-140806678D01*
X113653216Y-140806678D02*
X113796073Y-140735250D01*
X113796073Y-140735250D02*
X113867501Y-140663821D01*
X110930359Y-140663821D02*
X111001787Y-140735250D01*
X111001787Y-140735250D02*
X111216073Y-140806678D01*
X111216073Y-140806678D02*
X111358930Y-140806678D01*
X111358930Y-140806678D02*
X111573216Y-140735250D01*
X111573216Y-140735250D02*
X111716073Y-140592392D01*
X111716073Y-140592392D02*
X111787502Y-140449535D01*
X111787502Y-140449535D02*
X111858930Y-140163821D01*
X111858930Y-140163821D02*
X111858930Y-139949535D01*
X111858930Y-139949535D02*
X111787502Y-139663821D01*
X111787502Y-139663821D02*
X111716073Y-139520964D01*
X111716073Y-139520964D02*
X111573216Y-139378107D01*
X111573216Y-139378107D02*
X111358930Y-139306678D01*
X111358930Y-139306678D02*
X111216073Y-139306678D01*
X111216073Y-139306678D02*
X111001787Y-139378107D01*
X111001787Y-139378107D02*
X110930359Y-139449535D01*
X110287502Y-140806678D02*
X110287502Y-139306678D01*
X110287502Y-140020964D02*
X109430359Y-140020964D01*
X109430359Y-140806678D02*
X109430359Y-139306678D01*
X108073216Y-139806678D02*
X108073216Y-140806678D01*
X108430358Y-139235250D02*
X108787501Y-140306678D01*
X108787501Y-140306678D02*
X107858930Y-140306678D01*
X105977359Y-140663821D02*
X106048787Y-140735250D01*
X106048787Y-140735250D02*
X106263073Y-140806678D01*
X106263073Y-140806678D02*
X106405930Y-140806678D01*
X106405930Y-140806678D02*
X106620216Y-140735250D01*
X106620216Y-140735250D02*
X106763073Y-140592392D01*
X106763073Y-140592392D02*
X106834502Y-140449535D01*
X106834502Y-140449535D02*
X106905930Y-140163821D01*
X106905930Y-140163821D02*
X106905930Y-139949535D01*
X106905930Y-139949535D02*
X106834502Y-139663821D01*
X106834502Y-139663821D02*
X106763073Y-139520964D01*
X106763073Y-139520964D02*
X106620216Y-139378107D01*
X106620216Y-139378107D02*
X106405930Y-139306678D01*
X106405930Y-139306678D02*
X106263073Y-139306678D01*
X106263073Y-139306678D02*
X106048787Y-139378107D01*
X106048787Y-139378107D02*
X105977359Y-139449535D01*
X105334502Y-140806678D02*
X105334502Y-139306678D01*
X105334502Y-140020964D02*
X104477359Y-140020964D01*
X104477359Y-140806678D02*
X104477359Y-139306678D01*
X103905930Y-139306678D02*
X102977358Y-139306678D01*
X102977358Y-139306678D02*
X103477358Y-139878107D01*
X103477358Y-139878107D02*
X103263073Y-139878107D01*
X103263073Y-139878107D02*
X103120216Y-139949535D01*
X103120216Y-139949535D02*
X103048787Y-140020964D01*
X103048787Y-140020964D02*
X102977358Y-140163821D01*
X102977358Y-140163821D02*
X102977358Y-140520964D01*
X102977358Y-140520964D02*
X103048787Y-140663821D01*
X103048787Y-140663821D02*
X103120216Y-140735250D01*
X103120216Y-140735250D02*
X103263073Y-140806678D01*
X103263073Y-140806678D02*
X103691644Y-140806678D01*
X103691644Y-140806678D02*
X103834501Y-140735250D01*
X103834501Y-140735250D02*
X103905930Y-140663821D01*
X100770359Y-140663821D02*
X100841787Y-140735250D01*
X100841787Y-140735250D02*
X101056073Y-140806678D01*
X101056073Y-140806678D02*
X101198930Y-140806678D01*
X101198930Y-140806678D02*
X101413216Y-140735250D01*
X101413216Y-140735250D02*
X101556073Y-140592392D01*
X101556073Y-140592392D02*
X101627502Y-140449535D01*
X101627502Y-140449535D02*
X101698930Y-140163821D01*
X101698930Y-140163821D02*
X101698930Y-139949535D01*
X101698930Y-139949535D02*
X101627502Y-139663821D01*
X101627502Y-139663821D02*
X101556073Y-139520964D01*
X101556073Y-139520964D02*
X101413216Y-139378107D01*
X101413216Y-139378107D02*
X101198930Y-139306678D01*
X101198930Y-139306678D02*
X101056073Y-139306678D01*
X101056073Y-139306678D02*
X100841787Y-139378107D01*
X100841787Y-139378107D02*
X100770359Y-139449535D01*
X100127502Y-140806678D02*
X100127502Y-139306678D01*
X100127502Y-140020964D02*
X99270359Y-140020964D01*
X99270359Y-140806678D02*
X99270359Y-139306678D01*
X98627501Y-139449535D02*
X98556073Y-139378107D01*
X98556073Y-139378107D02*
X98413216Y-139306678D01*
X98413216Y-139306678D02*
X98056073Y-139306678D01*
X98056073Y-139306678D02*
X97913216Y-139378107D01*
X97913216Y-139378107D02*
X97841787Y-139449535D01*
X97841787Y-139449535D02*
X97770358Y-139592392D01*
X97770358Y-139592392D02*
X97770358Y-139735250D01*
X97770358Y-139735250D02*
X97841787Y-139949535D01*
X97841787Y-139949535D02*
X98698930Y-140806678D01*
X98698930Y-140806678D02*
X97770358Y-140806678D01*
X95690359Y-140663821D02*
X95761787Y-140735250D01*
X95761787Y-140735250D02*
X95976073Y-140806678D01*
X95976073Y-140806678D02*
X96118930Y-140806678D01*
X96118930Y-140806678D02*
X96333216Y-140735250D01*
X96333216Y-140735250D02*
X96476073Y-140592392D01*
X96476073Y-140592392D02*
X96547502Y-140449535D01*
X96547502Y-140449535D02*
X96618930Y-140163821D01*
X96618930Y-140163821D02*
X96618930Y-139949535D01*
X96618930Y-139949535D02*
X96547502Y-139663821D01*
X96547502Y-139663821D02*
X96476073Y-139520964D01*
X96476073Y-139520964D02*
X96333216Y-139378107D01*
X96333216Y-139378107D02*
X96118930Y-139306678D01*
X96118930Y-139306678D02*
X95976073Y-139306678D01*
X95976073Y-139306678D02*
X95761787Y-139378107D01*
X95761787Y-139378107D02*
X95690359Y-139449535D01*
X95047502Y-140806678D02*
X95047502Y-139306678D01*
X95047502Y-140020964D02*
X94190359Y-140020964D01*
X94190359Y-140806678D02*
X94190359Y-139306678D01*
X92690358Y-140806678D02*
X93547501Y-140806678D01*
X93118930Y-140806678D02*
X93118930Y-139306678D01*
X93118930Y-139306678D02*
X93261787Y-139520964D01*
X93261787Y-139520964D02*
X93404644Y-139663821D01*
X93404644Y-139663821D02*
X93547501Y-139735250D01*
X88197359Y-140663821D02*
X88268787Y-140735250D01*
X88268787Y-140735250D02*
X88483073Y-140806678D01*
X88483073Y-140806678D02*
X88625930Y-140806678D01*
X88625930Y-140806678D02*
X88840216Y-140735250D01*
X88840216Y-140735250D02*
X88983073Y-140592392D01*
X88983073Y-140592392D02*
X89054502Y-140449535D01*
X89054502Y-140449535D02*
X89125930Y-140163821D01*
X89125930Y-140163821D02*
X89125930Y-139949535D01*
X89125930Y-139949535D02*
X89054502Y-139663821D01*
X89054502Y-139663821D02*
X88983073Y-139520964D01*
X88983073Y-139520964D02*
X88840216Y-139378107D01*
X88840216Y-139378107D02*
X88625930Y-139306678D01*
X88625930Y-139306678D02*
X88483073Y-139306678D01*
X88483073Y-139306678D02*
X88268787Y-139378107D01*
X88268787Y-139378107D02*
X88197359Y-139449535D01*
X87268787Y-139306678D02*
X86983073Y-139306678D01*
X86983073Y-139306678D02*
X86840216Y-139378107D01*
X86840216Y-139378107D02*
X86697359Y-139520964D01*
X86697359Y-139520964D02*
X86625930Y-139806678D01*
X86625930Y-139806678D02*
X86625930Y-140306678D01*
X86625930Y-140306678D02*
X86697359Y-140592392D01*
X86697359Y-140592392D02*
X86840216Y-140735250D01*
X86840216Y-140735250D02*
X86983073Y-140806678D01*
X86983073Y-140806678D02*
X87268787Y-140806678D01*
X87268787Y-140806678D02*
X87411645Y-140735250D01*
X87411645Y-140735250D02*
X87554502Y-140592392D01*
X87554502Y-140592392D02*
X87625930Y-140306678D01*
X87625930Y-140306678D02*
X87625930Y-139806678D01*
X87625930Y-139806678D02*
X87554502Y-139520964D01*
X87554502Y-139520964D02*
X87411645Y-139378107D01*
X87411645Y-139378107D02*
X87268787Y-139306678D01*
X85983073Y-140806678D02*
X85983073Y-139306678D01*
X85983073Y-139306678D02*
X85483073Y-140378107D01*
X85483073Y-140378107D02*
X84983073Y-139306678D01*
X84983073Y-139306678D02*
X84983073Y-140806678D01*
M02*
