G04 #@! TF.GenerationSoftware,KiCad,Pcbnew,10.0.1*
G04 #@! TF.CreationDate,2026-06-01T13:42:42+01:00*
G04 #@! TF.ProjectId,hw-controller,68772d63-6f6e-4747-926f-6c6c65722e6b,rev?*
G04 #@! TF.SameCoordinates,Original*
G04 #@! TF.FileFunction,Copper,L1,Top*
G04 #@! TF.FilePolarity,Positive*
%FSLAX46Y46*%
G04 Gerber Fmt 4.6, Leading zero omitted, Abs format (unit mm)*
G04 Created by KiCad (PCBNEW 10.0.1) date 2026-06-01 13:42:42*
%MOMM*%
%LPD*%
G01*
G04 APERTURE LIST*
G04 Aperture macros list*
%AMRoundRect*
0 Rectangle with rounded corners*
0 $1 Rounding radius*
0 $2 $3 $4 $5 $6 $7 $8 $9 X,Y pos of 4 corners*
0 Add a 4 corners polygon primitive as box body*
4,1,4,$2,$3,$4,$5,$6,$7,$8,$9,$2,$3,0*
0 Add four circle primitives for the rounded corners*
1,1,$1+$1,$2,$3*
1,1,$1+$1,$4,$5*
1,1,$1+$1,$6,$7*
1,1,$1+$1,$8,$9*
0 Add four rect primitives between the rounded corners*
20,1,$1+$1,$2,$3,$4,$5,0*
20,1,$1+$1,$4,$5,$6,$7,0*
20,1,$1+$1,$6,$7,$8,$9,0*
20,1,$1+$1,$8,$9,$2,$3,0*%
%AMFreePoly0*
4,1,14,0.728536,0.728536,0.730000,0.725000,0.730000,-0.725000,0.728536,-0.728536,0.725000,-0.730000,-0.725000,-0.730000,-0.728536,-0.728536,-0.730000,-0.725000,-0.730000,0.125000,-0.728536,0.128536,-0.128536,0.728536,-0.125000,0.730000,0.725000,0.730000,0.728536,0.728536,0.728536,0.728536,$1*%
G04 Aperture macros list end*
G04 #@! TA.AperFunction,SMDPad,CuDef*
%ADD10R,2.200000X1.000000*%
G04 #@! TD*
G04 #@! TA.AperFunction,SMDPad,CuDef*
%ADD11RoundRect,0.250000X-1.137500X-0.550000X1.137500X-0.550000X1.137500X0.550000X-1.137500X0.550000X0*%
G04 #@! TD*
G04 #@! TA.AperFunction,SMDPad,CuDef*
%ADD12RoundRect,0.250000X-0.625000X0.312500X-0.625000X-0.312500X0.625000X-0.312500X0.625000X0.312500X0*%
G04 #@! TD*
G04 #@! TA.AperFunction,SMDPad,CuDef*
%ADD13RoundRect,0.225000X0.250000X-0.225000X0.250000X0.225000X-0.250000X0.225000X-0.250000X-0.225000X0*%
G04 #@! TD*
G04 #@! TA.AperFunction,SMDPad,CuDef*
%ADD14RoundRect,0.250000X-0.450000X0.262500X-0.450000X-0.262500X0.450000X-0.262500X0.450000X0.262500X0*%
G04 #@! TD*
G04 #@! TA.AperFunction,SMDPad,CuDef*
%ADD15RoundRect,0.249999X-0.640001X0.750001X-0.640001X-0.750001X0.640001X-0.750001X0.640001X0.750001X0*%
G04 #@! TD*
G04 #@! TA.AperFunction,SMDPad,CuDef*
%ADD16RoundRect,0.250000X0.262500X0.450000X-0.262500X0.450000X-0.262500X-0.450000X0.262500X-0.450000X0*%
G04 #@! TD*
G04 #@! TA.AperFunction,SMDPad,CuDef*
%ADD17C,1.270000*%
G04 #@! TD*
G04 #@! TA.AperFunction,SMDPad,CuDef*
%ADD18RoundRect,0.225000X-0.250000X0.225000X-0.250000X-0.225000X0.250000X-0.225000X0.250000X0.225000X0*%
G04 #@! TD*
G04 #@! TA.AperFunction,SMDPad,CuDef*
%ADD19RoundRect,0.225000X0.225000X0.250000X-0.225000X0.250000X-0.225000X-0.250000X0.225000X-0.250000X0*%
G04 #@! TD*
G04 #@! TA.AperFunction,SMDPad,CuDef*
%ADD20RoundRect,0.150000X0.150000X-0.800000X0.150000X0.800000X-0.150000X0.800000X-0.150000X-0.800000X0*%
G04 #@! TD*
G04 #@! TA.AperFunction,SMDPad,CuDef*
%ADD21RoundRect,0.250000X-0.312500X-0.625000X0.312500X-0.625000X0.312500X0.625000X-0.312500X0.625000X0*%
G04 #@! TD*
G04 #@! TA.AperFunction,SMDPad,CuDef*
%ADD22RoundRect,0.250000X0.325000X0.650000X-0.325000X0.650000X-0.325000X-0.650000X0.325000X-0.650000X0*%
G04 #@! TD*
G04 #@! TA.AperFunction,ComponentPad*
%ADD23R,2.000000X1.905000*%
G04 #@! TD*
G04 #@! TA.AperFunction,ComponentPad*
%ADD24O,2.000000X1.905000*%
G04 #@! TD*
G04 #@! TA.AperFunction,SMDPad,CuDef*
%ADD25RoundRect,0.250000X-0.262500X-0.450000X0.262500X-0.450000X0.262500X0.450000X-0.262500X0.450000X0*%
G04 #@! TD*
G04 #@! TA.AperFunction,SMDPad,CuDef*
%ADD26RoundRect,0.250000X-1.250000X-0.550000X1.250000X-0.550000X1.250000X0.550000X-1.250000X0.550000X0*%
G04 #@! TD*
G04 #@! TA.AperFunction,SMDPad,CuDef*
%ADD27R,1.450000X1.000000*%
G04 #@! TD*
G04 #@! TA.AperFunction,SMDPad,CuDef*
%ADD28RoundRect,0.375000X-0.375000X0.625000X-0.375000X-0.625000X0.375000X-0.625000X0.375000X0.625000X0*%
G04 #@! TD*
G04 #@! TA.AperFunction,SMDPad,CuDef*
%ADD29RoundRect,0.500000X-1.400000X0.500000X-1.400000X-0.500000X1.400000X-0.500000X1.400000X0.500000X0*%
G04 #@! TD*
G04 #@! TA.AperFunction,SMDPad,CuDef*
%ADD30RoundRect,0.250000X-1.500000X-0.900000X1.500000X-0.900000X1.500000X0.900000X-1.500000X0.900000X0*%
G04 #@! TD*
G04 #@! TA.AperFunction,SMDPad,CuDef*
%ADD31R,3.100000X2.300000*%
G04 #@! TD*
G04 #@! TA.AperFunction,SMDPad,CuDef*
%ADD32RoundRect,0.250000X0.550000X-1.250000X0.550000X1.250000X-0.550000X1.250000X-0.550000X-1.250000X0*%
G04 #@! TD*
G04 #@! TA.AperFunction,SMDPad,CuDef*
%ADD33R,0.800000X0.400000*%
G04 #@! TD*
G04 #@! TA.AperFunction,SMDPad,CuDef*
%ADD34R,0.400000X0.800000*%
G04 #@! TD*
G04 #@! TA.AperFunction,SMDPad,CuDef*
%ADD35FreePoly0,0.000000*%
G04 #@! TD*
G04 #@! TA.AperFunction,SMDPad,CuDef*
%ADD36R,1.450000X1.450000*%
G04 #@! TD*
G04 #@! TA.AperFunction,SMDPad,CuDef*
%ADD37R,0.700000X0.700000*%
G04 #@! TD*
G04 #@! TA.AperFunction,ComponentPad*
%ADD38RoundRect,0.250000X-1.050000X-1.050000X1.050000X-1.050000X1.050000X1.050000X-1.050000X1.050000X0*%
G04 #@! TD*
G04 #@! TA.AperFunction,ComponentPad*
%ADD39R,2.600000X2.600000*%
G04 #@! TD*
G04 #@! TA.AperFunction,ComponentPad*
%ADD40C,2.600000*%
G04 #@! TD*
G04 #@! TA.AperFunction,SMDPad,CuDef*
%ADD41RoundRect,0.150000X-1.050000X-0.150000X1.050000X-0.150000X1.050000X0.150000X-1.050000X0.150000X0*%
G04 #@! TD*
G04 #@! TA.AperFunction,SMDPad,CuDef*
%ADD42R,1.500000X2.200000*%
G04 #@! TD*
G04 #@! TA.AperFunction,SMDPad,CuDef*
%ADD43RoundRect,0.250000X0.312500X0.625000X-0.312500X0.625000X-0.312500X-0.625000X0.312500X-0.625000X0*%
G04 #@! TD*
G04 #@! TA.AperFunction,ComponentPad*
%ADD44R,1.000000X1.000000*%
G04 #@! TD*
G04 #@! TA.AperFunction,ComponentPad*
%ADD45C,1.000000*%
G04 #@! TD*
G04 #@! TA.AperFunction,SMDPad,CuDef*
%ADD46RoundRect,0.250000X0.450000X-0.262500X0.450000X0.262500X-0.450000X0.262500X-0.450000X-0.262500X0*%
G04 #@! TD*
G04 #@! TA.AperFunction,SMDPad,CuDef*
%ADD47RoundRect,0.150000X1.050000X0.150000X-1.050000X0.150000X-1.050000X-0.150000X1.050000X-0.150000X0*%
G04 #@! TD*
G04 #@! TA.AperFunction,ComponentPad*
%ADD48R,3.500000X3.500000*%
G04 #@! TD*
G04 #@! TA.AperFunction,ComponentPad*
%ADD49RoundRect,0.750000X1.000000X-0.750000X1.000000X0.750000X-1.000000X0.750000X-1.000000X-0.750000X0*%
G04 #@! TD*
G04 #@! TA.AperFunction,ComponentPad*
%ADD50RoundRect,0.875000X0.875000X-0.875000X0.875000X0.875000X-0.875000X0.875000X-0.875000X-0.875000X0*%
G04 #@! TD*
G04 #@! TA.AperFunction,SMDPad,CuDef*
%ADD51RoundRect,0.250000X-0.325000X-0.650000X0.325000X-0.650000X0.325000X0.650000X-0.325000X0.650000X0*%
G04 #@! TD*
G04 #@! TA.AperFunction,SMDPad,CuDef*
%ADD52R,2.179320X1.620520*%
G04 #@! TD*
G04 #@! TA.AperFunction,ViaPad*
%ADD53C,0.600000*%
G04 #@! TD*
G04 #@! TA.AperFunction,ViaPad*
%ADD54C,0.800000*%
G04 #@! TD*
G04 #@! TA.AperFunction,Conductor*
%ADD55C,0.400000*%
G04 #@! TD*
G04 #@! TA.AperFunction,Conductor*
%ADD56C,1.000000*%
G04 #@! TD*
G04 #@! TA.AperFunction,Conductor*
%ADD57C,0.500000*%
G04 #@! TD*
G04 APERTURE END LIST*
D10*
G04 #@! TO.P,S1,A1,COM_A1*
G04 #@! TO.N,BTNS_PIN*
X60500000Y-57100000D03*
G04 #@! TO.P,S1,B1,NO_1_B1*
G04 #@! TO.N,GND*
X60500000Y-55500000D03*
G04 #@! TO.P,S1,B2,NO_2_B2*
X51500000Y-55500000D03*
G04 #@! TO.P,S1,L1,COM_A_L1*
G04 #@! TO.N,+5V*
X60500000Y-60500000D03*
G04 #@! TO.P,S1,L2,K_GREEN_L2*
G04 #@! TO.N,Net-(S1-K_GREEN)*
X60500000Y-58900000D03*
G04 #@! TO.P,S1,L3,K_RED_L3*
G04 #@! TO.N,Net-(S1-K_RED)*
X51500000Y-60500000D03*
G04 #@! TO.P,S1,L4,K_BLUE_L4*
G04 #@! TO.N,unconnected-(S1-K_BLUE-PadL4)*
X51500000Y-58900000D03*
G04 #@! TD*
D11*
G04 #@! TO.P,C12,2*
G04 #@! TO.N,GND*
X54762400Y-125730000D03*
G04 #@! TO.P,C12,1*
G04 #@! TO.N,Net-(BR1-+)*
X50637400Y-125730000D03*
G04 #@! TD*
D12*
G04 #@! TO.P,R29,2*
G04 #@! TO.N,Net-(C2-Pad1)*
X140702000Y-127954500D03*
G04 #@! TO.P,R29,1*
G04 #@! TO.N,/24VAC1*
X140702000Y-125029500D03*
G04 #@! TD*
D13*
G04 #@! TO.P,C20,2*
G04 #@! TO.N,GND*
X83000000Y-51725000D03*
G04 #@! TO.P,C20,1*
G04 #@! TO.N,+3.3V*
X83000000Y-53275000D03*
G04 #@! TD*
G04 #@! TO.P,C22,1*
G04 #@! TO.N,+3.3V*
X87000000Y-53275000D03*
G04 #@! TO.P,C22,2*
G04 #@! TO.N,GND*
X87000000Y-51725000D03*
G04 #@! TD*
G04 #@! TO.P,C21,1*
G04 #@! TO.N,+3.3V*
X85000000Y-53275000D03*
G04 #@! TO.P,C21,2*
G04 #@! TO.N,GND*
X85000000Y-51725000D03*
G04 #@! TD*
D14*
G04 #@! TO.P,R8,1*
G04 #@! TO.N,LEDR_CH5*
X110222000Y-103585000D03*
G04 #@! TO.P,R8,2*
G04 #@! TO.N,Net-(R8-Pad2)*
X110222000Y-105410000D03*
G04 #@! TD*
D15*
G04 #@! TO.P,U9,1*
G04 #@! TO.N,+5V*
X103872000Y-107950000D03*
G04 #@! TO.P,U9,2*
G04 #@! TO.N,Net-(R9-Pad2)*
X101332000Y-107950000D03*
G04 #@! TO.P,U9,3*
G04 #@! TO.N,Net-(Q5-G)*
X101332000Y-115570000D03*
G04 #@! TO.P,U9,4*
G04 #@! TO.N,Net-(R17-Pad1)*
X103872000Y-115570000D03*
G04 #@! TD*
D16*
G04 #@! TO.P,R64,1*
G04 #@! TO.N,GND*
X69746500Y-115062000D03*
G04 #@! TO.P,R64,2*
G04 #@! TO.N,Net-(U1-RT{slash}SYNC)*
X67921500Y-115062000D03*
G04 #@! TD*
D17*
G04 #@! TO.P,TP1,1,TP_1*
G04 #@! TO.N,BTNS_PIN*
X108000000Y-67000000D03*
G04 #@! TD*
D18*
G04 #@! TO.P,C17,1*
G04 #@! TO.N,GND*
X63600000Y-101587000D03*
G04 #@! TO.P,C17,2*
G04 #@! TO.N,Net-(U1-COMP)*
X63600000Y-103137000D03*
G04 #@! TD*
D12*
G04 #@! TO.P,R34,1*
G04 #@! TO.N,/24VAC1*
X95236000Y-124968000D03*
G04 #@! TO.P,R34,2*
G04 #@! TO.N,Net-(C7-Pad1)*
X95236000Y-127893000D03*
G04 #@! TD*
D19*
G04 #@! TO.P,C1,1*
G04 #@! TO.N,EN*
X87800000Y-59300000D03*
G04 #@! TO.P,C1,2*
G04 #@! TO.N,GND*
X86250000Y-59300000D03*
G04 #@! TD*
D10*
G04 #@! TO.P,S5,A1,COM_A1*
G04 #@! TO.N,BTNS_PIN*
X139500000Y-57100000D03*
G04 #@! TO.P,S5,B1,NO_1_B1*
G04 #@! TO.N,Net-(S5-NO_1)*
X139500000Y-55500000D03*
G04 #@! TO.P,S5,B2,NO_2_B2*
X130500000Y-55500000D03*
G04 #@! TO.P,S5,L1,COM_A_L1*
G04 #@! TO.N,+5V*
X139500000Y-60500000D03*
G04 #@! TO.P,S5,L2,K_GREEN_L2*
G04 #@! TO.N,Net-(S5-K_GREEN)*
X139500000Y-58900000D03*
G04 #@! TO.P,S5,L3,K_RED_L3*
G04 #@! TO.N,Net-(S5-K_RED)*
X130500000Y-60500000D03*
G04 #@! TO.P,S5,L4,K_BLUE_L4*
G04 #@! TO.N,unconnected-(S5-K_BLUE-PadL4)*
X130500000Y-58900000D03*
G04 #@! TD*
D12*
G04 #@! TO.P,R36,1*
G04 #@! TO.N,/24VAC1*
X76948000Y-124968000D03*
G04 #@! TO.P,R36,2*
G04 #@! TO.N,Net-(C9-Pad1)*
X76948000Y-127893000D03*
G04 #@! TD*
D17*
G04 #@! TO.P,TP6,1,TP_1*
G04 #@! TO.N,+5V*
X74000000Y-82000000D03*
G04 #@! TD*
D12*
G04 #@! TO.P,R13,1*
G04 #@! TO.N,Net-(R13-Pad1)*
X140702000Y-118872000D03*
G04 #@! TO.P,R13,2*
G04 #@! TO.N,/24VAC1*
X140702000Y-121797000D03*
G04 #@! TD*
D20*
G04 #@! TO.P,U1,1,BOOT_1*
G04 #@! TO.N,Net-(U1-BOOT)*
X61087000Y-115932000D03*
G04 #@! TO.P,U1,2,VIN_2*
G04 #@! TO.N,Net-(U1-VIN)*
X62357000Y-115932000D03*
G04 #@! TO.P,U1,3,EN_3*
G04 #@! TO.N,unconnected-(U1-EN-Pad3)*
X63627000Y-115932000D03*
G04 #@! TO.P,U1,4,RT/SYNC_4*
G04 #@! TO.N,Net-(U1-RT{slash}SYNC)*
X64897000Y-115932000D03*
G04 #@! TO.P,U1,5,FB_5*
G04 #@! TO.N,Net-(U1-FB)*
X64897000Y-108932000D03*
G04 #@! TO.P,U1,6,COMP_6*
G04 #@! TO.N,Net-(U1-COMP)*
X63627000Y-108932000D03*
G04 #@! TO.P,U1,7,GND_7*
G04 #@! TO.N,GND*
X62357000Y-108932000D03*
G04 #@! TO.P,U1,8,SW_8*
G04 #@! TO.N,Net-(De1-K)*
X61087000Y-108932000D03*
G04 #@! TD*
D12*
G04 #@! TO.P,R33,1*
G04 #@! TO.N,/24VAC1*
X104267000Y-124968000D03*
G04 #@! TO.P,R33,2*
G04 #@! TO.N,Net-(C6-Pad1)*
X104267000Y-127893000D03*
G04 #@! TD*
D21*
G04 #@! TO.P,R55,1*
G04 #@! TO.N,Net-(S4-NO_1)*
X63790500Y-88401500D03*
G04 #@! TO.P,R55,2*
G04 #@! TO.N,Net-(S3-NO_1)*
X66715500Y-88401500D03*
G04 #@! TD*
D10*
G04 #@! TO.P,S3,A1,COM_A1*
G04 #@! TO.N,BTNS_PIN*
X60500000Y-79100000D03*
G04 #@! TO.P,S3,B1,NO_1_B1*
G04 #@! TO.N,Net-(S3-NO_1)*
X60500000Y-77500000D03*
G04 #@! TO.P,S3,B2,NO_2_B2*
X51500000Y-77500000D03*
G04 #@! TO.P,S3,L1,COM_A_L1*
G04 #@! TO.N,+5V*
X60500000Y-82500000D03*
G04 #@! TO.P,S3,L2,K_GREEN_L2*
G04 #@! TO.N,Net-(S3-K_GREEN)*
X60500000Y-80900000D03*
G04 #@! TO.P,S3,L3,K_RED_L3*
G04 #@! TO.N,Net-(S3-K_RED)*
X51500000Y-82500000D03*
G04 #@! TO.P,S3,L4,K_BLUE_L4*
G04 #@! TO.N,unconnected-(S3-K_BLUE-PadL4)*
X51500000Y-80900000D03*
G04 #@! TD*
D22*
G04 #@! TO.P,C2,1*
G04 #@! TO.N,Net-(C2-Pad1)*
X140716000Y-130149600D03*
G04 #@! TO.P,C2,2*
G04 #@! TO.N,Net-(J2-Pin_10)*
X137766000Y-130149600D03*
G04 #@! TD*
D23*
G04 #@! TO.P,Q2,1,A1_1*
G04 #@! TO.N,Net-(J2-Pin_9)*
X128510000Y-125984000D03*
D24*
G04 #@! TO.P,Q2,2,A2_2*
G04 #@! TO.N,/24VAC1*
X128510000Y-123444000D03*
G04 #@! TO.P,Q2,3,G_3*
G04 #@! TO.N,Net-(Q2-G)*
X128510000Y-120904000D03*
G04 #@! TD*
D15*
G04 #@! TO.P,U11,1*
G04 #@! TO.N,+5V*
X85725000Y-107950000D03*
G04 #@! TO.P,U11,2*
G04 #@! TO.N,Net-(R11-Pad2)*
X83185000Y-107950000D03*
G04 #@! TO.P,U11,3*
G04 #@! TO.N,Net-(Q7-G)*
X83185000Y-115570000D03*
G04 #@! TO.P,U11,4*
G04 #@! TO.N,Net-(R19-Pad1)*
X85725000Y-115570000D03*
G04 #@! TD*
D23*
G04 #@! TO.P,Q4,1,A1_1*
G04 #@! TO.N,Net-(J2-Pin_7)*
X110222000Y-125984000D03*
D24*
G04 #@! TO.P,Q4,2,A2_2*
G04 #@! TO.N,/24VAC1*
X110222000Y-123444000D03*
G04 #@! TO.P,Q4,3,G_3*
G04 #@! TO.N,Net-(Q4-G)*
X110222000Y-120904000D03*
G04 #@! TD*
D19*
G04 #@! TO.P,C14,1*
G04 #@! TO.N,Net-(U1-VIN)*
X60175000Y-120200000D03*
G04 #@! TO.P,C14,2*
G04 #@! TO.N,GND*
X58625000Y-120200000D03*
G04 #@! TD*
D16*
G04 #@! TO.P,R39,1*
G04 #@! TO.N,LEDR_CH3*
X65786000Y-83566000D03*
G04 #@! TO.P,R39,2*
G04 #@! TO.N,Net-(S3-K_RED)*
X63961000Y-83566000D03*
G04 #@! TD*
D25*
G04 #@! TO.P,R48,1*
G04 #@! TO.N,Net-(S4-K_GREEN)*
X63857500Y-91917500D03*
G04 #@! TO.P,R48,2*
G04 #@! TO.N,LEDG_CH4*
X65682500Y-91917500D03*
G04 #@! TD*
D14*
G04 #@! TO.P,R3,1*
G04 #@! TO.N,+3.3V*
X117348000Y-53514000D03*
G04 #@! TO.P,R3,2*
G04 #@! TO.N,SDA*
X117348000Y-55339000D03*
G04 #@! TD*
G04 #@! TO.P,R7,1*
G04 #@! TO.N,LEDR_CH6*
X119366000Y-103585000D03*
G04 #@! TO.P,R7,2*
G04 #@! TO.N,Net-(R7-Pad2)*
X119366000Y-105410000D03*
G04 #@! TD*
D25*
G04 #@! TO.P,R45,1*
G04 #@! TO.N,Net-(S1-K_GREEN)*
X63961000Y-58928000D03*
G04 #@! TO.P,R45,2*
G04 #@! TO.N,LEDG_CH1*
X65786000Y-58928000D03*
G04 #@! TD*
D26*
G04 #@! TO.P,C10,1*
G04 #@! TO.N,+5V*
X50378000Y-119761000D03*
G04 #@! TO.P,C10,2*
G04 #@! TO.N,GND*
X54778000Y-119761000D03*
G04 #@! TD*
D17*
G04 #@! TO.P,TP5,1,TP_1*
G04 #@! TO.N,GND*
X74000000Y-72000000D03*
G04 #@! TD*
D15*
G04 #@! TO.P,U7,1*
G04 #@! TO.N,+5V*
X121906000Y-107950000D03*
G04 #@! TO.P,U7,2*
G04 #@! TO.N,Net-(R7-Pad2)*
X119366000Y-107950000D03*
G04 #@! TO.P,U7,3*
G04 #@! TO.N,Net-(Q3-G)*
X119366000Y-115570000D03*
G04 #@! TO.P,U7,4*
G04 #@! TO.N,Net-(R15-Pad1)*
X121906000Y-115570000D03*
G04 #@! TD*
D27*
G04 #@! TO.P,BR1,1,+_1*
G04 #@! TO.N,Net-(BR1-+)*
X54044000Y-130080000D03*
G04 #@! TO.P,BR1,2,~_1_2*
G04 #@! TO.N,/24VAC1*
X59494000Y-130080000D03*
G04 #@! TO.P,BR1,3,-_3*
G04 #@! TO.N,GND*
X54044000Y-134080000D03*
G04 #@! TO.P,BR1,4,~_2_4*
G04 #@! TO.N,/24VAC2*
X59494000Y-134080000D03*
G04 #@! TD*
D15*
G04 #@! TO.P,U8,1*
G04 #@! TO.N,+5V*
X112762000Y-107950000D03*
G04 #@! TO.P,U8,2*
G04 #@! TO.N,Net-(R8-Pad2)*
X110222000Y-107950000D03*
G04 #@! TO.P,U8,3*
G04 #@! TO.N,Net-(Q4-G)*
X110222000Y-115570000D03*
G04 #@! TO.P,U8,4*
G04 #@! TO.N,Net-(R16-Pad1)*
X112762000Y-115570000D03*
G04 #@! TD*
D28*
G04 #@! TO.P,U13,1,GND_1*
G04 #@! TO.N,GND*
X70600000Y-48500000D03*
G04 #@! TO.P,U13,2,VO_2*
G04 #@! TO.N,+3.3V*
X68300000Y-48500000D03*
D29*
X68300000Y-54800000D03*
D28*
G04 #@! TO.P,U13,3,VI_3*
G04 #@! TO.N,+5V*
X66000000Y-48500000D03*
G04 #@! TD*
D30*
G04 #@! TO.P,De1,1,K_1*
G04 #@! TO.N,Net-(De1-K)*
X53053000Y-99568000D03*
G04 #@! TO.P,De1,2,A_2*
G04 #@! TO.N,GND*
X58453000Y-99568000D03*
G04 #@! TD*
D12*
G04 #@! TO.P,R19,1*
G04 #@! TO.N,Net-(R19-Pad1)*
X86092000Y-118995000D03*
G04 #@! TO.P,R19,2*
G04 #@! TO.N,/24VAC1*
X86092000Y-121920000D03*
G04 #@! TD*
G04 #@! TO.P,R17,1*
G04 #@! TO.N,Net-(R17-Pad1)*
X104267000Y-118995000D03*
G04 #@! TO.P,R17,2*
G04 #@! TO.N,/24VAC1*
X104267000Y-121920000D03*
G04 #@! TD*
D31*
G04 #@! TO.P,F1,1*
G04 #@! TO.N,Net-(BR1-+)*
X65000000Y-127700000D03*
G04 #@! TO.P,F1,2*
G04 #@! TO.N,Net-(U1-VIN)*
X65000000Y-120300000D03*
G04 #@! TD*
D12*
G04 #@! TO.P,R20,1*
G04 #@! TO.N,Net-(R20-Pad1)*
X76948000Y-118995000D03*
G04 #@! TO.P,R20,2*
G04 #@! TO.N,/24VAC1*
X76948000Y-121920000D03*
G04 #@! TD*
D14*
G04 #@! TO.P,R5,1*
G04 #@! TO.N,LEDR_CH8*
X137908000Y-103585000D03*
G04 #@! TO.P,R5,2*
G04 #@! TO.N,Net-(R5-Pad2)*
X137908000Y-105410000D03*
G04 #@! TD*
G04 #@! TO.P,R11,1*
G04 #@! TO.N,LEDR_CH2*
X83000000Y-103585000D03*
G04 #@! TO.P,R11,2*
G04 #@! TO.N,Net-(R11-Pad2)*
X83000000Y-105410000D03*
G04 #@! TD*
D32*
G04 #@! TO.P,C11,1*
G04 #@! TO.N,+3.3V*
X76000000Y-53200000D03*
G04 #@! TO.P,C11,2*
G04 #@! TO.N,GND*
X76000000Y-48800000D03*
G04 #@! TD*
D10*
G04 #@! TO.P,S7,A1,COM_A1*
G04 #@! TO.N,BTNS_PIN*
X139500000Y-79100000D03*
G04 #@! TO.P,S7,B1,NO_1_B1*
G04 #@! TO.N,Net-(S7-NO_1)*
X139500000Y-77500000D03*
G04 #@! TO.P,S7,B2,NO_2_B2*
X130500000Y-77500000D03*
G04 #@! TO.P,S7,L1,COM_A_L1*
G04 #@! TO.N,+5V*
X139500000Y-82500000D03*
G04 #@! TO.P,S7,L2,K_GREEN_L2*
G04 #@! TO.N,Net-(S7-K_GREEN)*
X139500000Y-80900000D03*
G04 #@! TO.P,S7,L3,K_RED_L3*
G04 #@! TO.N,Net-(S7-K_RED)*
X130500000Y-82500000D03*
G04 #@! TO.P,S7,L4,K_BLUE_L4*
G04 #@! TO.N,unconnected-(S7-K_BLUE-PadL4)*
X130500000Y-80900000D03*
G04 #@! TD*
D14*
G04 #@! TO.P,R10,1*
G04 #@! TO.N,LEDR_CH3*
X92188000Y-103585000D03*
G04 #@! TO.P,R10,2*
G04 #@! TO.N,Net-(R10-Pad2)*
X92188000Y-105410000D03*
G04 #@! TD*
D16*
G04 #@! TO.P,R66,1*
G04 #@! TO.N,GND*
X69746500Y-112400000D03*
G04 #@! TO.P,R66,2*
G04 #@! TO.N,Net-(U1-FB)*
X67921500Y-112400000D03*
G04 #@! TD*
D33*
G04 #@! TO.P,U2,1,GND_1*
G04 #@! TO.N,GND*
X91274000Y-51629000D03*
G04 #@! TO.P,U2,2,GND_2*
X91274000Y-52429000D03*
G04 #@! TO.P,U2,3,3V3_3*
G04 #@! TO.N,+3.3V*
X91274000Y-53229000D03*
G04 #@! TO.P,U2,4,NC_4*
G04 #@! TO.N,unconnected-(U2-NC-Pad4)*
X91274000Y-54029000D03*
G04 #@! TO.P,U2,5,IO2_5*
G04 #@! TO.N,STATUS_LEDR_PIN*
X91274000Y-54829000D03*
G04 #@! TO.P,U2,6,IO3_6*
G04 #@! TO.N,STATUS_LEDG_PIN*
X91274000Y-55629000D03*
G04 #@! TO.P,U2,7,NC_7*
G04 #@! TO.N,unconnected-(U2-NC-Pad7)*
X91274000Y-56429000D03*
G04 #@! TO.P,U2,8,EN_8*
G04 #@! TO.N,EN*
X91274000Y-57229000D03*
G04 #@! TO.P,U2,9,NC_9*
G04 #@! TO.N,unconnected-(U2-NC-Pad9)*
X91274000Y-58029000D03*
G04 #@! TO.P,U2,10,NC_10*
G04 #@! TO.N,unconnected-(U2-NC-Pad10)*
X91274000Y-58829000D03*
G04 #@! TO.P,U2,11,GND_11*
G04 #@! TO.N,GND*
X91274000Y-59629000D03*
D34*
G04 #@! TO.P,U2,12,IO0_12*
G04 #@! TO.N,BTNS_PIN*
X92374000Y-60529000D03*
G04 #@! TO.P,U2,13,IO1_13*
G04 #@! TO.N,STATUS_BTN_PIN*
X93174000Y-60529000D03*
G04 #@! TO.P,U2,14,GND_14*
G04 #@! TO.N,GND*
X93974000Y-60529000D03*
G04 #@! TO.P,U2,15,NC_15*
G04 #@! TO.N,unconnected-(U2-NC-Pad15)*
X94774000Y-60529000D03*
G04 #@! TO.P,U2,16,IO10_16*
G04 #@! TO.N,unconnected-(U2-IO10-Pad16)*
X95574000Y-60529000D03*
G04 #@! TO.P,U2,17,NC_17*
G04 #@! TO.N,unconnected-(U2-NC-Pad17)*
X96374000Y-60529000D03*
G04 #@! TO.P,U2,18,IO4_18*
G04 #@! TO.N,STATUS_LEDB_PIN*
X97174000Y-60529000D03*
G04 #@! TO.P,U2,19,IO5_19*
G04 #@! TO.N,LATCH*
X97974000Y-60529000D03*
G04 #@! TO.P,U2,20,IO6_20*
G04 #@! TO.N,SIPO_SCK*
X98774000Y-60529000D03*
G04 #@! TO.P,U2,21,IO7_21*
G04 #@! TO.N,SIPO_DATA*
X99574000Y-60529000D03*
G04 #@! TO.P,U2,22,IO8_22*
G04 #@! TO.N,SDA*
X100374000Y-60529000D03*
G04 #@! TO.P,U2,23,IO9_23*
G04 #@! TO.N,SCL*
X101174000Y-60529000D03*
G04 #@! TO.P,U2,24,NC_24*
G04 #@! TO.N,unconnected-(U2-NC-Pad24)*
X101974000Y-60529000D03*
D33*
G04 #@! TO.P,U2,25,NC_25*
G04 #@! TO.N,unconnected-(U2-NC-Pad25)*
X103074000Y-59629000D03*
G04 #@! TO.P,U2,26,IO18_26*
G04 #@! TO.N,unconnected-(U2-IO18-Pad26)*
X103074000Y-58829000D03*
G04 #@! TO.P,U2,27,IO19_27*
G04 #@! TO.N,unconnected-(U2-IO19-Pad27)*
X103074000Y-58029000D03*
G04 #@! TO.P,U2,28,NC_28*
G04 #@! TO.N,unconnected-(U2-NC-Pad28)*
X103074000Y-57229000D03*
G04 #@! TO.P,U2,29,NC_29*
G04 #@! TO.N,unconnected-(U2-NC-Pad29)*
X103074000Y-56429000D03*
G04 #@! TO.P,U2,30,RXD0_30*
G04 #@! TO.N,RX*
X103074000Y-55629000D03*
G04 #@! TO.P,U2,31,TXD0_31*
G04 #@! TO.N,TX*
X103074000Y-54829000D03*
G04 #@! TO.P,U2,32,NC_32*
G04 #@! TO.N,unconnected-(U2-NC-Pad32)*
X103074000Y-54029000D03*
G04 #@! TO.P,U2,33,NC_33*
G04 #@! TO.N,unconnected-(U2-NC-Pad33)*
X103074000Y-53229000D03*
G04 #@! TO.P,U2,34,NC_34*
G04 #@! TO.N,unconnected-(U2-NC-Pad34)*
X103074000Y-52429000D03*
G04 #@! TO.P,U2,35,NC_35*
G04 #@! TO.N,unconnected-(U2-NC-Pad35)*
X103074000Y-51629000D03*
D34*
G04 #@! TO.P,U2,36,GND_36*
G04 #@! TO.N,GND*
X101974000Y-50729000D03*
G04 #@! TO.P,U2,37,GND_37*
X101174000Y-50729000D03*
G04 #@! TO.P,U2,38,GND_38*
X100374000Y-50729000D03*
G04 #@! TO.P,U2,39,GND_39*
X99574000Y-50729000D03*
G04 #@! TO.P,U2,40,GND_40*
X98774000Y-50729000D03*
G04 #@! TO.P,U2,41,GND_41*
X97974000Y-50729000D03*
G04 #@! TO.P,U2,42,GND_42*
X97174000Y-50729000D03*
G04 #@! TO.P,U2,43,GND_43*
X96374000Y-50729000D03*
G04 #@! TO.P,U2,44,GND_44*
X95574000Y-50729000D03*
G04 #@! TO.P,U2,45,GND_45*
X94774000Y-50729000D03*
G04 #@! TO.P,U2,46,GND_46*
X93974000Y-50729000D03*
G04 #@! TO.P,U2,47,GND_47*
X93174000Y-50729000D03*
G04 #@! TO.P,U2,48,GND_48*
X92374000Y-50729000D03*
D35*
G04 #@! TO.P,U2,49_1,GND_49_1*
X95199000Y-53654000D03*
D36*
G04 #@! TO.P,U2,49_2,GND_49_2*
X97174000Y-53654000D03*
G04 #@! TO.P,U2,49_3,GND_49_3*
X99149000Y-53654000D03*
G04 #@! TO.P,U2,49_4,GND_49_4*
X99149000Y-55629000D03*
G04 #@! TO.P,U2,49_5,GND_49_5*
X99149000Y-57604000D03*
G04 #@! TO.P,U2,49_6,GND_49_6*
X97174000Y-57604000D03*
G04 #@! TO.P,U2,49_7,GND_49_7*
X95199000Y-57604000D03*
G04 #@! TO.P,U2,49_8,GND_49_8*
X95199000Y-55629000D03*
G04 #@! TO.P,U2,49_9,GND_49_9*
X97174000Y-55629000D03*
D37*
G04 #@! TO.P,U2,50,GND_50*
X103124000Y-50679000D03*
G04 #@! TO.P,U2,51,GND_51*
X103124000Y-60579000D03*
G04 #@! TO.P,U2,52,GND_52*
X91224000Y-60579000D03*
G04 #@! TO.P,U2,53,GND_53*
X91224000Y-50679000D03*
G04 #@! TD*
D17*
G04 #@! TO.P,TP3,1,TP_1*
G04 #@! TO.N,SDA*
X115000000Y-61000000D03*
G04 #@! TD*
D12*
G04 #@! TO.P,R30,1*
G04 #@! TO.N,/24VAC1*
X131558000Y-124968000D03*
G04 #@! TO.P,R30,2*
G04 #@! TO.N,Net-(C3-Pad1)*
X131558000Y-127893000D03*
G04 #@! TD*
D25*
G04 #@! TO.P,R42,1*
G04 #@! TO.N,LEDR_CH6*
X125175000Y-71374000D03*
G04 #@! TO.P,R42,2*
G04 #@! TO.N,Net-(S6-K_RED)*
X127000000Y-71374000D03*
G04 #@! TD*
D12*
G04 #@! TO.P,R35,1*
G04 #@! TO.N,/24VAC1*
X86092000Y-124968000D03*
G04 #@! TO.P,R35,2*
G04 #@! TO.N,Net-(C8-Pad1)*
X86092000Y-127893000D03*
G04 #@! TD*
G04 #@! TO.P,R32,1*
G04 #@! TO.N,/24VAC1*
X113270000Y-124968000D03*
G04 #@! TO.P,R32,2*
G04 #@! TO.N,Net-(C5-Pad1)*
X113270000Y-127893000D03*
G04 #@! TD*
D16*
G04 #@! TO.P,R50,1*
G04 #@! TO.N,Net-(S6-K_GREEN)*
X127000000Y-69088000D03*
G04 #@! TO.P,R50,2*
G04 #@! TO.N,LEDG_CH6*
X125175000Y-69088000D03*
G04 #@! TD*
D23*
G04 #@! TO.P,Q7,1,A1_1*
G04 #@! TO.N,Net-(J2-Pin_4)*
X83044000Y-125984000D03*
D24*
G04 #@! TO.P,Q7,2,A2_2*
G04 #@! TO.N,/24VAC1*
X83044000Y-123444000D03*
G04 #@! TO.P,Q7,3,G_3*
G04 #@! TO.N,Net-(Q7-G)*
X83044000Y-120904000D03*
G04 #@! TD*
D16*
G04 #@! TO.P,R40,1*
G04 #@! TO.N,LEDR_CH4*
X65657500Y-94751500D03*
G04 #@! TO.P,R40,2*
G04 #@! TO.N,Net-(S4-K_RED)*
X63832500Y-94751500D03*
G04 #@! TD*
D19*
G04 #@! TO.P,C15,1*
G04 #@! TO.N,Net-(U1-VIN)*
X60175000Y-122682000D03*
G04 #@! TO.P,C15,2*
G04 #@! TO.N,GND*
X58625000Y-122682000D03*
G04 #@! TD*
D38*
G04 #@! TO.P,J2,1,Pin_1_1*
G04 #@! TO.N,/24VAC2*
X84455000Y-137500000D03*
D39*
G04 #@! TO.P,J2,2,Pin_2_2*
X89535000Y-137500000D03*
D40*
G04 #@! TO.P,J2,3,Pin_3_3*
G04 #@! TO.N,Net-(J2-Pin_3)*
X94615000Y-137500000D03*
G04 #@! TO.P,J2,4,Pin_4_4*
G04 #@! TO.N,Net-(J2-Pin_4)*
X99695000Y-137500000D03*
G04 #@! TO.P,J2,5,Pin_5_5*
G04 #@! TO.N,Net-(J2-Pin_5)*
X104775000Y-137500000D03*
G04 #@! TO.P,J2,6,Pin_6_6*
G04 #@! TO.N,Net-(J2-Pin_6)*
X109855000Y-137500000D03*
G04 #@! TO.P,J2,7,Pin_7_7*
G04 #@! TO.N,Net-(J2-Pin_7)*
X114935000Y-137500000D03*
G04 #@! TO.P,J2,8,Pin_8_8*
G04 #@! TO.N,Net-(J2-Pin_8)*
X120015000Y-137500000D03*
G04 #@! TO.P,J2,9,Pin_9_9*
G04 #@! TO.N,Net-(J2-Pin_9)*
X125095000Y-137500000D03*
G04 #@! TO.P,J2,10,Pin_10_10*
G04 #@! TO.N,Net-(J2-Pin_10)*
X130175000Y-137500000D03*
G04 #@! TD*
D41*
G04 #@! TO.P,U4,1,QB_1*
G04 #@! TO.N,LEDG_CH2*
X82094000Y-83693000D03*
G04 #@! TO.P,U4,2,QC_2*
G04 #@! TO.N,LEDG_CH3*
X82094000Y-84963000D03*
G04 #@! TO.P,U4,3,QD_3*
G04 #@! TO.N,LEDG_CH4*
X82094000Y-86233000D03*
G04 #@! TO.P,U4,4,QE_4*
G04 #@! TO.N,LEDG_CH5*
X82094000Y-87503000D03*
G04 #@! TO.P,U4,5,QF_5*
G04 #@! TO.N,LEDG_CH6*
X82094000Y-88773000D03*
G04 #@! TO.P,U4,6,QG_6*
G04 #@! TO.N,LEDG_CH7*
X82094000Y-90043000D03*
G04 #@! TO.P,U4,7,QH_7*
G04 #@! TO.N,LEDG_CH8*
X82094000Y-91313000D03*
G04 #@! TO.P,U4,8,GND_8*
G04 #@! TO.N,GND*
X82094000Y-92583000D03*
G04 #@! TO.P,U4,9,QH'_9*
G04 #@! TO.N,unconnected-(U4-QH'-Pad9)*
X88594000Y-92583000D03*
G04 #@! TO.P,U4,10,~{SRCLR}_10*
G04 #@! TO.N,+5V*
X88594000Y-91313000D03*
G04 #@! TO.P,U4,11,SRCLK_11*
G04 #@! TO.N,SIPO_SCK*
X88594000Y-90043000D03*
G04 #@! TO.P,U4,12,RCLK_12*
G04 #@! TO.N,LATCH*
X88594000Y-88773000D03*
G04 #@! TO.P,U4,13,~{OE}_13*
G04 #@! TO.N,unconnected-(U4-~{OE}-Pad13)*
X88594000Y-87503000D03*
G04 #@! TO.P,U4,14,SER_14*
G04 #@! TO.N,Net-(U3-QH')*
X88594000Y-86233000D03*
G04 #@! TO.P,U4,15,QA_15*
G04 #@! TO.N,LEDG_CH1*
X88594000Y-84963000D03*
G04 #@! TO.P,U4,16,VCC_16*
G04 #@! TO.N,+5V*
X88594000Y-83693000D03*
G04 #@! TD*
D14*
G04 #@! TO.P,R12,1*
G04 #@! TO.N,LEDR_CH1*
X74408000Y-103585000D03*
G04 #@! TO.P,R12,2*
G04 #@! TO.N,Net-(R12-Pad2)*
X74408000Y-105410000D03*
G04 #@! TD*
D12*
G04 #@! TO.P,R15,1*
G04 #@! TO.N,Net-(R15-Pad1)*
X122414000Y-118933500D03*
G04 #@! TO.P,R15,2*
G04 #@! TO.N,/24VAC1*
X122414000Y-121858500D03*
G04 #@! TD*
G04 #@! TO.P,R60,1*
G04 #@! TO.N,STATUS_LEDB_PIN*
X99695000Y-68514500D03*
G04 #@! TO.P,R60,2*
G04 #@! TO.N,Net-(S9-K_BLUE)*
X99695000Y-71439500D03*
G04 #@! TD*
D42*
G04 #@! TO.P,L1,1,1_1*
G04 #@! TO.N,Net-(De1-K)*
X56286000Y-106578000D03*
G04 #@! TO.P,L1,2,2_2*
G04 #@! TO.N,+5V*
X49886000Y-106578000D03*
G04 #@! TD*
D15*
G04 #@! TO.P,U10,1*
G04 #@! TO.N,+5V*
X94728000Y-107950000D03*
G04 #@! TO.P,U10,2*
G04 #@! TO.N,Net-(R10-Pad2)*
X92188000Y-107950000D03*
G04 #@! TO.P,U10,3*
G04 #@! TO.N,Net-(Q6-G)*
X92188000Y-115570000D03*
G04 #@! TO.P,U10,4*
G04 #@! TO.N,Net-(R18-Pad1)*
X94728000Y-115570000D03*
G04 #@! TD*
D25*
G04 #@! TO.P,R41,1*
G04 #@! TO.N,LEDR_CH5*
X125175000Y-60452000D03*
G04 #@! TO.P,R41,2*
G04 #@! TO.N,Net-(S5-K_RED)*
X127000000Y-60452000D03*
G04 #@! TD*
D43*
G04 #@! TO.P,R63,1*
G04 #@! TO.N,Net-(C16-Pad2)*
X66562500Y-105664000D03*
G04 #@! TO.P,R63,2*
G04 #@! TO.N,Net-(U1-COMP)*
X63637500Y-105664000D03*
G04 #@! TD*
G04 #@! TO.P,R59,1*
G04 #@! TO.N,Net-(S8-NO_1)*
X127192500Y-88392000D03*
G04 #@! TO.P,R59,2*
G04 #@! TO.N,Net-(S7-NO_1)*
X124267500Y-88392000D03*
G04 #@! TD*
D44*
G04 #@! TO.P,J1,1,Pin_1_1*
G04 #@! TO.N,EN*
X109474000Y-53467000D03*
D45*
G04 #@! TO.P,J1,2,Pin_2_2*
G04 #@! TO.N,+3.3V*
X110744000Y-53467000D03*
G04 #@! TO.P,J1,3,Pin_3_3*
G04 #@! TO.N,TX*
X109474000Y-54737000D03*
G04 #@! TO.P,J1,4,Pin_4_4*
G04 #@! TO.N,GND*
X110744000Y-54737000D03*
G04 #@! TO.P,J1,5,Pin_5_5*
G04 #@! TO.N,RX*
X109474000Y-56007000D03*
G04 #@! TO.P,J1,6,Pin_6_6*
G04 #@! TO.N,SCL*
X110744000Y-56007000D03*
G04 #@! TD*
D12*
G04 #@! TO.P,R18,1*
G04 #@! TO.N,Net-(R18-Pad1)*
X95236000Y-118933500D03*
G04 #@! TO.P,R18,2*
G04 #@! TO.N,/24VAC1*
X95236000Y-121858500D03*
G04 #@! TD*
D46*
G04 #@! TO.P,R62,1*
G04 #@! TO.N,Net-(S9-K_GREEN)*
X97028000Y-69977000D03*
G04 #@! TO.P,R62,2*
G04 #@! TO.N,STATUS_LEDG_PIN*
X97028000Y-68152000D03*
G04 #@! TD*
D17*
G04 #@! TO.P,TP2,1,TP_1*
G04 #@! TO.N,+3.3V*
X74000000Y-62000000D03*
G04 #@! TD*
D14*
G04 #@! TO.P,R2,1*
G04 #@! TO.N,+3.3V*
X119634000Y-53467000D03*
G04 #@! TO.P,R2,2*
G04 #@! TO.N,BTNS_PIN*
X119634000Y-55292000D03*
G04 #@! TD*
D22*
G04 #@! TO.P,C7,1*
G04 #@! TO.N,Net-(C7-Pad1)*
X95250000Y-129950000D03*
G04 #@! TO.P,C7,2*
G04 #@! TO.N,Net-(J2-Pin_5)*
X92300000Y-129950000D03*
G04 #@! TD*
D10*
G04 #@! TO.P,S8,A1,COM_A1*
G04 #@! TO.N,BTNS_PIN*
X139500000Y-90100000D03*
G04 #@! TO.P,S8,B1,NO_1_B1*
G04 #@! TO.N,Net-(S8-NO_1)*
X139500000Y-88500000D03*
G04 #@! TO.P,S8,B2,NO_2_B2*
X130500000Y-88500000D03*
G04 #@! TO.P,S8,L1,COM_A_L1*
G04 #@! TO.N,+5V*
X139500000Y-93500000D03*
G04 #@! TO.P,S8,L2,K_GREEN_L2*
G04 #@! TO.N,Net-(S8-K_GREEN)*
X139500000Y-91900000D03*
G04 #@! TO.P,S8,L3,K_RED_L3*
G04 #@! TO.N,Net-(S8-K_RED)*
X130500000Y-93500000D03*
G04 #@! TO.P,S8,L4,K_BLUE_L4*
G04 #@! TO.N,unconnected-(S8-K_BLUE-PadL4)*
X130500000Y-91900000D03*
G04 #@! TD*
G04 #@! TO.P,S4,A1,COM_A1*
G04 #@! TO.N,BTNS_PIN*
X60500000Y-90100000D03*
G04 #@! TO.P,S4,B1,NO_1_B1*
G04 #@! TO.N,Net-(S4-NO_1)*
X60500000Y-88500000D03*
G04 #@! TO.P,S4,B2,NO_2_B2*
X51500000Y-88500000D03*
G04 #@! TO.P,S4,L1,COM_A_L1*
G04 #@! TO.N,+5V*
X60500000Y-93500000D03*
G04 #@! TO.P,S4,L2,K_GREEN_L2*
G04 #@! TO.N,Net-(S4-K_GREEN)*
X60500000Y-91900000D03*
G04 #@! TO.P,S4,L3,K_RED_L3*
G04 #@! TO.N,Net-(S4-K_RED)*
X51500000Y-93500000D03*
G04 #@! TO.P,S4,L4,K_BLUE_L4*
G04 #@! TO.N,unconnected-(S4-K_BLUE-PadL4)*
X51500000Y-91900000D03*
G04 #@! TD*
D23*
G04 #@! TO.P,Q5,1,A1_1*
G04 #@! TO.N,Net-(J2-Pin_6)*
X101266000Y-125984000D03*
D24*
G04 #@! TO.P,Q5,2,A2_2*
G04 #@! TO.N,/24VAC1*
X101266000Y-123444000D03*
G04 #@! TO.P,Q5,3,G_3*
G04 #@! TO.N,Net-(Q5-G)*
X101266000Y-120904000D03*
G04 #@! TD*
D47*
G04 #@! TO.P,U3,1,QB_1*
G04 #@! TO.N,LEDR_CH2*
X103707000Y-92329000D03*
G04 #@! TO.P,U3,2,QC_2*
G04 #@! TO.N,LEDR_CH3*
X103707000Y-91059000D03*
G04 #@! TO.P,U3,3,QD_3*
G04 #@! TO.N,LEDR_CH4*
X103707000Y-89789000D03*
G04 #@! TO.P,U3,4,QE_4*
G04 #@! TO.N,LEDR_CH5*
X103707000Y-88519000D03*
G04 #@! TO.P,U3,5,QF_5*
G04 #@! TO.N,LEDR_CH6*
X103707000Y-87249000D03*
G04 #@! TO.P,U3,6,QG_6*
G04 #@! TO.N,LEDR_CH7*
X103707000Y-85979000D03*
G04 #@! TO.P,U3,7,QH_7*
G04 #@! TO.N,LEDR_CH8*
X103707000Y-84709000D03*
G04 #@! TO.P,U3,8,GND_8*
G04 #@! TO.N,GND*
X103707000Y-83439000D03*
G04 #@! TO.P,U3,9,QH'_9*
G04 #@! TO.N,Net-(U3-QH')*
X97207000Y-83439000D03*
G04 #@! TO.P,U3,10,~{SRCLR}_10*
G04 #@! TO.N,+5V*
X97207000Y-84709000D03*
G04 #@! TO.P,U3,11,SRCLK_11*
G04 #@! TO.N,SIPO_SCK*
X97207000Y-85979000D03*
G04 #@! TO.P,U3,12,RCLK_12*
G04 #@! TO.N,LATCH*
X97207000Y-87249000D03*
G04 #@! TO.P,U3,13,~{OE}_13*
G04 #@! TO.N,unconnected-(U3-~{OE}-Pad13)*
X97207000Y-88519000D03*
G04 #@! TO.P,U3,14,SER_14*
G04 #@! TO.N,SIPO_DATA*
X97207000Y-89789000D03*
G04 #@! TO.P,U3,15,QA_15*
G04 #@! TO.N,LEDR_CH1*
X97207000Y-91059000D03*
G04 #@! TO.P,U3,16,VCC_16*
G04 #@! TO.N,+5V*
X97207000Y-92329000D03*
G04 #@! TD*
D16*
G04 #@! TO.P,R49,1*
G04 #@! TO.N,Net-(S5-K_GREEN)*
X127000000Y-58166000D03*
G04 #@! TO.P,R49,2*
G04 #@! TO.N,LEDG_CH5*
X125175000Y-58166000D03*
G04 #@! TD*
D22*
G04 #@! TO.P,C4,1*
G04 #@! TO.N,Net-(C4-Pad1)*
X122375000Y-129950000D03*
G04 #@! TO.P,C4,2*
G04 #@! TO.N,Net-(J2-Pin_8)*
X119425000Y-129950000D03*
G04 #@! TD*
D16*
G04 #@! TO.P,R38,1*
G04 #@! TO.N,LEDR_CH2*
X65786000Y-72644000D03*
G04 #@! TO.P,R38,2*
G04 #@! TO.N,Net-(S2-K_RED)*
X63961000Y-72644000D03*
G04 #@! TD*
D26*
G04 #@! TO.P,C19,1*
G04 #@! TO.N,+5V*
X50378000Y-113792000D03*
G04 #@! TO.P,C19,2*
G04 #@! TO.N,GND*
X54778000Y-113792000D03*
G04 #@! TD*
D14*
G04 #@! TO.P,R6,1*
G04 #@! TO.N,LEDR_CH7*
X128510000Y-103585000D03*
G04 #@! TO.P,R6,2*
G04 #@! TO.N,Net-(R6-Pad2)*
X128510000Y-105410000D03*
G04 #@! TD*
D10*
G04 #@! TO.P,S2,A1,COM_A1*
G04 #@! TO.N,BTNS_PIN*
X60500000Y-68100000D03*
G04 #@! TO.P,S2,B1,NO_1_B1*
G04 #@! TO.N,Net-(S2-NO_1)*
X60500000Y-66500000D03*
G04 #@! TO.P,S2,B2,NO_2_B2*
X51500000Y-66500000D03*
G04 #@! TO.P,S2,L1,COM_A_L1*
G04 #@! TO.N,+5V*
X60500000Y-71500000D03*
G04 #@! TO.P,S2,L2,K_GREEN_L2*
G04 #@! TO.N,Net-(S2-K_GREEN)*
X60500000Y-69900000D03*
G04 #@! TO.P,S2,L3,K_RED_L3*
G04 #@! TO.N,Net-(S2-K_RED)*
X51500000Y-71500000D03*
G04 #@! TO.P,S2,L4,K_BLUE_L4*
G04 #@! TO.N,unconnected-(S2-K_BLUE-PadL4)*
X51500000Y-69900000D03*
G04 #@! TD*
D22*
G04 #@! TO.P,C3,1*
G04 #@! TO.N,Net-(C3-Pad1)*
X131550000Y-129950000D03*
G04 #@! TO.P,C3,2*
G04 #@! TO.N,Net-(J2-Pin_9)*
X128600000Y-129950000D03*
G04 #@! TD*
D43*
G04 #@! TO.P,R56,1*
G04 #@! TO.N,Net-(S5-NO_1)*
X127000000Y-55626000D03*
G04 #@! TO.P,R56,2*
G04 #@! TO.N,Net-(S4-NO_1)*
X124075000Y-55626000D03*
G04 #@! TD*
D14*
G04 #@! TO.P,R61,1*
G04 #@! TO.N,STATUS_LEDR_PIN*
X79502000Y-67540500D03*
G04 #@! TO.P,R61,2*
G04 #@! TO.N,Net-(S9-K_RED)*
X79502000Y-69365500D03*
G04 #@! TD*
D23*
G04 #@! TO.P,Q1,1,A1_1*
G04 #@! TO.N,Net-(J2-Pin_10)*
X137654000Y-125984000D03*
D24*
G04 #@! TO.P,Q1,2,A2_2*
G04 #@! TO.N,/24VAC1*
X137654000Y-123444000D03*
G04 #@! TO.P,Q1,3,G_3*
G04 #@! TO.N,Net-(Q1-G)*
X137654000Y-120904000D03*
G04 #@! TD*
D12*
G04 #@! TO.P,R16,1*
G04 #@! TO.N,Net-(R16-Pad1)*
X113270000Y-118933500D03*
G04 #@! TO.P,R16,2*
G04 #@! TO.N,/24VAC1*
X113270000Y-121858500D03*
G04 #@! TD*
D25*
G04 #@! TO.P,R1,1*
G04 #@! TO.N,+3.3V*
X85962000Y-57268000D03*
G04 #@! TO.P,R1,2*
G04 #@! TO.N,EN*
X87787000Y-57268000D03*
G04 #@! TD*
D10*
G04 #@! TO.P,S9,A1,COM_A1*
G04 #@! TO.N,STATUS_BTN_PIN*
X92257000Y-68100000D03*
G04 #@! TO.P,S9,B1,NO_1_B1*
G04 #@! TO.N,GND*
X92257000Y-66500000D03*
G04 #@! TO.P,S9,B2,NO_2_B2*
X83257000Y-66500000D03*
G04 #@! TO.P,S9,L1,COM_A_L1*
G04 #@! TO.N,+3.3V*
X92257000Y-71500000D03*
G04 #@! TO.P,S9,L2,K_GREEN_L2*
G04 #@! TO.N,Net-(S9-K_GREEN)*
X92257000Y-69900000D03*
G04 #@! TO.P,S9,L3,K_RED_L3*
G04 #@! TO.N,Net-(S9-K_RED)*
X83257000Y-71500000D03*
G04 #@! TO.P,S9,L4,K_BLUE_L4*
G04 #@! TO.N,Net-(S9-K_BLUE)*
X83257000Y-69900000D03*
G04 #@! TD*
D25*
G04 #@! TO.P,R43,1*
G04 #@! TO.N,LEDR_CH7*
X125175000Y-82550000D03*
G04 #@! TO.P,R43,2*
G04 #@! TO.N,Net-(S7-K_RED)*
X127000000Y-82550000D03*
G04 #@! TD*
D16*
G04 #@! TO.P,R37,1*
G04 #@! TO.N,LEDR_CH1*
X65786000Y-61468000D03*
G04 #@! TO.P,R37,2*
G04 #@! TO.N,Net-(S1-K_RED)*
X63961000Y-61468000D03*
G04 #@! TD*
D48*
G04 #@! TO.P,J3,1*
G04 #@! TO.N,/24VAC1*
X70300000Y-131000000D03*
D49*
G04 #@! TO.P,J3,2*
G04 #@! TO.N,/24VAC2*
X70300000Y-137000000D03*
D50*
G04 #@! TO.P,J3,3*
G04 #@! TO.N,N/C*
X75000000Y-134000000D03*
G04 #@! TD*
D22*
G04 #@! TO.P,C8,1*
G04 #@! TO.N,Net-(C8-Pad1)*
X86100000Y-129925000D03*
G04 #@! TO.P,C8,2*
G04 #@! TO.N,Net-(J2-Pin_4)*
X83150000Y-129925000D03*
G04 #@! TD*
D21*
G04 #@! TO.P,R54,1*
G04 #@! TO.N,Net-(S3-NO_1)*
X63919000Y-77470000D03*
G04 #@! TO.P,R54,2*
G04 #@! TO.N,Net-(S2-NO_1)*
X66844000Y-77470000D03*
G04 #@! TD*
G04 #@! TO.P,R53,1*
G04 #@! TO.N,Net-(S2-NO_1)*
X63830000Y-66588000D03*
G04 #@! TO.P,R53,2*
G04 #@! TO.N,GND*
X66755000Y-66588000D03*
G04 #@! TD*
D15*
G04 #@! TO.P,U12,1*
G04 #@! TO.N,+5V*
X76770000Y-107950000D03*
G04 #@! TO.P,U12,2*
G04 #@! TO.N,Net-(R12-Pad2)*
X74230000Y-107950000D03*
G04 #@! TO.P,U12,3*
G04 #@! TO.N,Net-(Q8-G)*
X74230000Y-115570000D03*
G04 #@! TO.P,U12,4*
G04 #@! TO.N,Net-(R20-Pad1)*
X76770000Y-115570000D03*
G04 #@! TD*
D19*
G04 #@! TO.P,C13,1*
G04 #@! TO.N,Net-(U1-VIN)*
X60175000Y-118000000D03*
G04 #@! TO.P,C13,2*
G04 #@! TO.N,GND*
X58625000Y-118000000D03*
G04 #@! TD*
D13*
G04 #@! TO.P,C18,1*
G04 #@! TO.N,Net-(U1-BOOT)*
X58623200Y-110465200D03*
G04 #@! TO.P,C18,2*
G04 #@! TO.N,Net-(De1-K)*
X58623200Y-108915200D03*
G04 #@! TD*
D10*
G04 #@! TO.P,S6,A1,COM_A1*
G04 #@! TO.N,BTNS_PIN*
X139500000Y-68100000D03*
G04 #@! TO.P,S6,B1,NO_1_B1*
G04 #@! TO.N,Net-(S6-NO_1)*
X139500000Y-66500000D03*
G04 #@! TO.P,S6,B2,NO_2_B2*
X130500000Y-66500000D03*
G04 #@! TO.P,S6,L1,COM_A_L1*
G04 #@! TO.N,+5V*
X139500000Y-71500000D03*
G04 #@! TO.P,S6,L2,K_GREEN_L2*
G04 #@! TO.N,Net-(S6-K_GREEN)*
X139500000Y-69900000D03*
G04 #@! TO.P,S6,L3,K_RED_L3*
G04 #@! TO.N,Net-(S6-K_RED)*
X130500000Y-71500000D03*
G04 #@! TO.P,S6,L4,K_BLUE_L4*
G04 #@! TO.N,unconnected-(S6-K_BLUE-PadL4)*
X130500000Y-69900000D03*
G04 #@! TD*
D25*
G04 #@! TO.P,R46,1*
G04 #@! TO.N,Net-(S2-K_GREEN)*
X63914000Y-69850000D03*
G04 #@! TO.P,R46,2*
G04 #@! TO.N,LEDG_CH2*
X65739000Y-69850000D03*
G04 #@! TD*
G04 #@! TO.P,R47,1*
G04 #@! TO.N,Net-(S3-K_GREEN)*
X63961000Y-80772000D03*
G04 #@! TO.P,R47,2*
G04 #@! TO.N,LEDG_CH3*
X65786000Y-80772000D03*
G04 #@! TD*
D15*
G04 #@! TO.P,U6,1*
G04 #@! TO.N,+5V*
X131050000Y-107950000D03*
G04 #@! TO.P,U6,2*
G04 #@! TO.N,Net-(R6-Pad2)*
X128510000Y-107950000D03*
G04 #@! TO.P,U6,3*
G04 #@! TO.N,Net-(Q2-G)*
X128510000Y-115570000D03*
G04 #@! TO.P,U6,4*
G04 #@! TO.N,Net-(R14-Pad1)*
X131050000Y-115570000D03*
G04 #@! TD*
D51*
G04 #@! TO.P,C9,1*
G04 #@! TO.N,Net-(C9-Pad1)*
X76950000Y-130025000D03*
G04 #@! TO.P,C9,2*
G04 #@! TO.N,Net-(J2-Pin_3)*
X79900000Y-130025000D03*
G04 #@! TD*
D14*
G04 #@! TO.P,R9,1*
G04 #@! TO.N,LEDR_CH4*
X101332000Y-103585000D03*
G04 #@! TO.P,R9,2*
G04 #@! TO.N,Net-(R9-Pad2)*
X101332000Y-105410000D03*
G04 #@! TD*
D18*
G04 #@! TO.P,C16,1*
G04 #@! TO.N,GND*
X66600000Y-101587000D03*
G04 #@! TO.P,C16,2*
G04 #@! TO.N,Net-(C16-Pad2)*
X66600000Y-103137000D03*
G04 #@! TD*
D22*
G04 #@! TO.P,C6,1*
G04 #@! TO.N,Net-(C6-Pad1)*
X104125000Y-129925000D03*
G04 #@! TO.P,C6,2*
G04 #@! TO.N,Net-(J2-Pin_6)*
X101175000Y-129925000D03*
G04 #@! TD*
D25*
G04 #@! TO.P,R65,1*
G04 #@! TO.N,Net-(U1-FB)*
X67898000Y-108839000D03*
G04 #@! TO.P,R65,2*
G04 #@! TO.N,+5V*
X69723000Y-108839000D03*
G04 #@! TD*
D16*
G04 #@! TO.P,R51,1*
G04 #@! TO.N,Net-(S7-K_GREEN)*
X127000000Y-80264000D03*
G04 #@! TO.P,R51,2*
G04 #@! TO.N,LEDG_CH7*
X125175000Y-80264000D03*
G04 #@! TD*
D22*
G04 #@! TO.P,C5,1*
G04 #@! TO.N,Net-(C5-Pad1)*
X113250000Y-129900000D03*
G04 #@! TO.P,C5,2*
G04 #@! TO.N,Net-(J2-Pin_7)*
X110300000Y-129900000D03*
G04 #@! TD*
D17*
G04 #@! TO.P,TP4,1,TP_1*
G04 #@! TO.N,SCL*
X107899200Y-61061600D03*
G04 #@! TD*
D23*
G04 #@! TO.P,Q8,1,A1_1*
G04 #@! TO.N,Net-(J2-Pin_3)*
X73900000Y-125984000D03*
D24*
G04 #@! TO.P,Q8,2,A2_2*
G04 #@! TO.N,/24VAC1*
X73900000Y-123444000D03*
G04 #@! TO.P,Q8,3,G_3*
G04 #@! TO.N,Net-(Q8-G)*
X73900000Y-120904000D03*
G04 #@! TD*
D23*
G04 #@! TO.P,Q6,1,A1_1*
G04 #@! TO.N,Net-(J2-Pin_5)*
X92188000Y-125984000D03*
D24*
G04 #@! TO.P,Q6,2,A2_2*
G04 #@! TO.N,/24VAC1*
X92188000Y-123444000D03*
G04 #@! TO.P,Q6,3,G_3*
G04 #@! TO.N,Net-(Q6-G)*
X92188000Y-120904000D03*
G04 #@! TD*
D25*
G04 #@! TO.P,R44,1*
G04 #@! TO.N,LEDR_CH8*
X125325500Y-93472000D03*
G04 #@! TO.P,R44,2*
G04 #@! TO.N,Net-(S8-K_RED)*
X127150500Y-93472000D03*
G04 #@! TD*
D43*
G04 #@! TO.P,R57,1*
G04 #@! TO.N,Net-(S6-NO_1)*
X127000000Y-66294000D03*
G04 #@! TO.P,R57,2*
G04 #@! TO.N,Net-(S5-NO_1)*
X124075000Y-66294000D03*
G04 #@! TD*
D12*
G04 #@! TO.P,R14,1*
G04 #@! TO.N,Net-(R14-Pad1)*
X131558000Y-118933500D03*
G04 #@! TO.P,R14,2*
G04 #@! TO.N,/24VAC1*
X131558000Y-121858500D03*
G04 #@! TD*
D16*
G04 #@! TO.P,R52,1*
G04 #@! TO.N,Net-(S8-K_GREEN)*
X127150500Y-91186000D03*
G04 #@! TO.P,R52,2*
G04 #@! TO.N,LEDG_CH8*
X125325500Y-91186000D03*
G04 #@! TD*
D23*
G04 #@! TO.P,Q3,1,A1_1*
G04 #@! TO.N,Net-(J2-Pin_8)*
X119366000Y-125984000D03*
D24*
G04 #@! TO.P,Q3,2,A2_2*
G04 #@! TO.N,/24VAC1*
X119366000Y-123444000D03*
G04 #@! TO.P,Q3,3,G_3*
G04 #@! TO.N,Net-(Q3-G)*
X119366000Y-120904000D03*
G04 #@! TD*
D14*
G04 #@! TO.P,R4,1*
G04 #@! TO.N,+3.3V*
X115062000Y-53467000D03*
G04 #@! TO.P,R4,2*
G04 #@! TO.N,SCL*
X115062000Y-55292000D03*
G04 #@! TD*
D12*
G04 #@! TO.P,R31,1*
G04 #@! TO.N,/24VAC1*
X122414000Y-124968000D03*
G04 #@! TO.P,R31,2*
G04 #@! TO.N,Net-(C4-Pad1)*
X122414000Y-127893000D03*
G04 #@! TD*
D43*
G04 #@! TO.P,R58,1*
G04 #@! TO.N,Net-(S7-NO_1)*
X127192500Y-77470000D03*
G04 #@! TO.P,R58,2*
G04 #@! TO.N,Net-(S6-NO_1)*
X124267500Y-77470000D03*
G04 #@! TD*
D15*
G04 #@! TO.P,U5,1*
G04 #@! TO.N,+5V*
X140448000Y-107950000D03*
G04 #@! TO.P,U5,2*
G04 #@! TO.N,Net-(R5-Pad2)*
X137908000Y-107950000D03*
G04 #@! TO.P,U5,3*
G04 #@! TO.N,Net-(Q1-G)*
X137908000Y-115570000D03*
G04 #@! TO.P,U5,4*
G04 #@! TO.N,Net-(R13-Pad1)*
X140448000Y-115570000D03*
G04 #@! TD*
D52*
G04 #@! TO.P,D1,1,A1_1*
G04 #@! TO.N,/24VAC2*
X63246000Y-135082280D03*
G04 #@! TO.P,D1,2,A2_2*
G04 #@! TO.N,/24VAC1*
X63246000Y-130860800D03*
G04 #@! TD*
D53*
G04 #@! TO.N,GND*
X54044000Y-133248400D03*
G04 #@! TO.N,+5V*
X60452000Y-96316800D03*
G04 #@! TO.N,GND*
X54044000Y-134080000D03*
G04 #@! TO.N,+5V*
X71522000Y-102722000D03*
G04 #@! TO.N,BTNS_PIN*
X141986000Y-57277000D03*
G04 #@! TO.N,GND*
X70675000Y-48500000D03*
X63025000Y-55500000D03*
G04 #@! TO.N,LEDR_CH5*
X108331000Y-93342000D03*
X120500000Y-60500000D03*
G04 #@! TO.N,+5V*
X139500000Y-82500000D03*
X66000000Y-48500000D03*
X121906000Y-107950000D03*
X60500000Y-93500000D03*
X139500000Y-93500000D03*
X103872000Y-107950000D03*
X85584000Y-107950000D03*
X139500000Y-71500000D03*
X83439000Y-82000000D03*
X88594000Y-91313000D03*
X140448000Y-107950000D03*
X74000000Y-82000000D03*
X139500000Y-60500000D03*
X60500000Y-82500000D03*
X88646000Y-83693000D03*
X112762000Y-107950000D03*
X76948000Y-107950000D03*
X131050000Y-107950000D03*
X94728000Y-107950000D03*
X60500000Y-60500000D03*
X60452000Y-71628000D03*
G04 #@! TO.N,GND*
X103124000Y-50679000D03*
X69746500Y-112500000D03*
X61341000Y-113665000D03*
X64643000Y-113665000D03*
X84200000Y-59300000D03*
X62484000Y-111379000D03*
X95199000Y-57604000D03*
X74000000Y-72000000D03*
D54*
X81000000Y-51758000D03*
D53*
X99149000Y-53654000D03*
X78700000Y-92583000D03*
X97174000Y-55629000D03*
X62484000Y-112522000D03*
X95199000Y-53654000D03*
X89287500Y-52362500D03*
D54*
X106426000Y-83439000D03*
D53*
X62484000Y-113665000D03*
X83257000Y-66500000D03*
X64643000Y-111379000D03*
D54*
X78400000Y-76300000D03*
D53*
X58500000Y-101600000D03*
X95199000Y-55629000D03*
X66755000Y-66588000D03*
X97174000Y-53654000D03*
X91224000Y-60579000D03*
X61341000Y-112522000D03*
X51500000Y-55500000D03*
X75500000Y-93900000D03*
X99149000Y-55629000D03*
X97174000Y-57604000D03*
X63627000Y-111379000D03*
D54*
X79629000Y-92583000D03*
D53*
X69746500Y-115062000D03*
X89225000Y-51629000D03*
X99149000Y-57604000D03*
X92257000Y-66500000D03*
X64643000Y-112522000D03*
X91224000Y-50679000D03*
X63627000Y-112522000D03*
X63627000Y-113665000D03*
X58500000Y-122732800D03*
X103124000Y-60579000D03*
X61341000Y-111379000D03*
G04 #@! TO.N,BTNS_PIN*
X62700000Y-90100000D03*
X119634000Y-55292000D03*
X92374000Y-62148000D03*
X62700000Y-79200000D03*
X108000000Y-67000000D03*
X62738000Y-68326000D03*
X62738000Y-57150000D03*
X77171000Y-62148000D03*
G04 #@! TO.N,EN*
X91274000Y-57229000D03*
G04 #@! TO.N,Net-(S5-NO_1)*
X124075000Y-66294000D03*
X127000000Y-55753000D03*
G04 #@! TO.N,Net-(S5-K_GREEN)*
X139500000Y-58900000D03*
X127000000Y-58166000D03*
G04 #@! TO.N,Net-(S4-NO_1)*
X112903000Y-76327000D03*
X78800000Y-86100000D03*
G04 #@! TO.N,Net-(S3-NO_1)*
X63919000Y-77470000D03*
X66715500Y-88401500D03*
G04 #@! TO.N,LEDR_CH3*
X69300000Y-83600000D03*
X92188000Y-100711000D03*
G04 #@! TO.N,+3.3V*
X112800000Y-53500000D03*
X89300000Y-53229000D03*
G04 #@! TO.N,LEDR_CH6*
X119366000Y-75960000D03*
X119366000Y-103585000D03*
G04 #@! TO.N,LEDG_CH1*
X91186000Y-81915000D03*
X88594000Y-84963000D03*
G04 #@! TO.N,LEDR_CH2*
X83000000Y-99822000D03*
X70256400Y-81728600D03*
G04 #@! TO.N,Net-(S7-NO_1)*
X127192500Y-77470000D03*
X124267500Y-88392000D03*
G04 #@! TO.N,Net-(S7-K_GREEN)*
X139500000Y-80900000D03*
X127000000Y-80264000D03*
G04 #@! TO.N,STATUS_LEDR_PIN*
X89027000Y-54864000D03*
X79500000Y-63850000D03*
G04 #@! TO.N,STATUS_LEDG_PIN*
X89662000Y-55753000D03*
X95377000Y-63627000D03*
G04 #@! TO.N,SIPO_SCK*
X88594000Y-90043000D03*
X97028000Y-85979000D03*
X100584000Y-82042000D03*
G04 #@! TO.N,SCL*
X115062000Y-55292000D03*
G04 #@! TO.N,RX*
X107100000Y-55600000D03*
G04 #@! TO.N,TX*
X106967983Y-54810966D03*
G04 #@! TO.N,Net-(S6-K_GREEN)*
X139500000Y-69900000D03*
X127000000Y-69088000D03*
G04 #@! TO.N,LEDG_CH6*
X114554000Y-78232000D03*
X88265000Y-78232000D03*
G04 #@! TO.N,LEDR_CH4*
X101332000Y-101614000D03*
X68400000Y-94751500D03*
G04 #@! TO.N,Net-(J2-Pin_3)*
X79900000Y-130025000D03*
G04 #@! TO.N,LEDG_CH5*
X87630000Y-77343000D03*
X113665000Y-77343000D03*
G04 #@! TO.N,LEDG_CH7*
X96012000Y-94042000D03*
X118364000Y-80264000D03*
G04 #@! TO.N,LEDG_CH8*
X97917000Y-94742000D03*
X118237000Y-91186000D03*
G04 #@! TO.N,Net-(U3-QH')*
X88594000Y-86233000D03*
X96901000Y-83439000D03*
G04 #@! TO.N,LEDR_CH1*
X77350000Y-98650000D03*
X68326000Y-61468000D03*
G04 #@! TO.N,Net-(S9-K_BLUE)*
X99695000Y-71439500D03*
X83257000Y-69900000D03*
G04 #@! TO.N,Net-(S8-K_GREEN)*
X127254000Y-91186000D03*
X139446000Y-91948000D03*
G04 #@! TO.N,LEDR_CH7*
X121000000Y-101000000D03*
X121000000Y-82550000D03*
G04 #@! TO.N,Net-(S2-NO_1)*
X66844000Y-77470000D03*
X63830000Y-66588000D03*
G04 #@! TO.N,Net-(S6-NO_1)*
X124267500Y-77470000D03*
X127000000Y-66294000D03*
G04 #@! TD*
G04 #@! TO.N,LEDR_CH3*
D55*
X69300000Y-83600000D02*
X65820000Y-83600000D01*
X65820000Y-83600000D02*
X65786000Y-83566000D01*
G04 #@! TO.N,TX*
X106967983Y-54810966D02*
X106949949Y-54829000D01*
X106949949Y-54829000D02*
X103074000Y-54829000D01*
G04 #@! TO.N,SDA*
X100374000Y-60529000D02*
X100374000Y-62401000D01*
X112627000Y-63373000D02*
X115000000Y-61000000D01*
X100374000Y-62401000D02*
X101346000Y-63373000D01*
X101346000Y-63373000D02*
X112627000Y-63373000D01*
G04 #@! TO.N,+3.3V*
X68300000Y-48500000D02*
X68300000Y-54800000D01*
G04 #@! TO.N,LATCH*
X88594000Y-88773000D02*
X91363800Y-88773000D01*
X91363800Y-88773000D02*
X92887800Y-87249000D01*
X92887800Y-87249000D02*
X97207000Y-87249000D01*
G04 #@! TO.N,+5V*
X88646000Y-83693000D02*
X93141800Y-83693000D01*
X93141800Y-83693000D02*
X94157800Y-84709000D01*
X94157800Y-84709000D02*
X97207000Y-84709000D01*
G04 #@! TO.N,LEDR_CH1*
X77350000Y-98650000D02*
X77400000Y-98600000D01*
X77400000Y-98600000D02*
X97945200Y-98600000D01*
X97945200Y-98600000D02*
X99314000Y-97231200D01*
X99314000Y-97231200D02*
X99314000Y-91059000D01*
X99314000Y-91059000D02*
X97207000Y-91059000D01*
G04 #@! TO.N,LEDR_CH2*
X103707000Y-92329000D02*
X103759000Y-92381000D01*
X103759000Y-92381000D02*
X103759000Y-98323400D01*
X103759000Y-98323400D02*
X102260400Y-99822000D01*
X102260400Y-99822000D02*
X83022000Y-99822000D01*
X83022000Y-99822000D02*
X83022000Y-103563000D01*
X83022000Y-103563000D02*
X83044000Y-103585000D01*
G04 #@! TO.N,LEDR_CH3*
X103707000Y-91059000D02*
X105410000Y-91059000D01*
X105410000Y-91059000D02*
X106299000Y-91948000D01*
X106299000Y-91948000D02*
X106299000Y-98933000D01*
X106299000Y-98933000D02*
X104521000Y-100711000D01*
X104521000Y-100711000D02*
X92188000Y-100711000D01*
X92188000Y-100711000D02*
X92188000Y-103585000D01*
G04 #@! TO.N,LEDR_CH4*
X101332000Y-103585000D02*
X101332000Y-101614000D01*
X101346000Y-101614000D02*
X105015000Y-101614000D01*
X105015000Y-101614000D02*
X107315000Y-99314000D01*
X107315000Y-99314000D02*
X107315000Y-90932000D01*
X107315000Y-90932000D02*
X106172000Y-89789000D01*
X106172000Y-89789000D02*
X103707000Y-89789000D01*
G04 #@! TO.N,LEDR_CH2*
X70256400Y-81728600D02*
X70256400Y-74066400D01*
X70256400Y-74066400D02*
X68834000Y-72644000D01*
X68834000Y-72644000D02*
X65786000Y-72644000D01*
G04 #@! TO.N,GND*
D56*
X58453000Y-99568000D02*
X58453000Y-101327000D01*
X58453000Y-101327000D02*
X58713000Y-101587000D01*
G04 #@! TO.N,Net-(BR1-+)*
X65000000Y-127700000D02*
X58482000Y-127700000D01*
X58482000Y-127700000D02*
X57048400Y-129133600D01*
X57048400Y-129133600D02*
X50647600Y-129133600D01*
X50647600Y-129133600D02*
X50358000Y-128844000D01*
X50358000Y-128844000D02*
X50358000Y-125730000D01*
G04 #@! TO.N,GND*
X54044000Y-134080000D02*
X54044000Y-133248400D01*
G04 #@! TO.N,Net-(De1-K)*
D57*
X56286000Y-106578000D02*
X58623200Y-106578000D01*
D55*
X58623200Y-108915200D02*
X58623200Y-106578000D01*
D57*
X58623200Y-106578000D02*
X60959600Y-106578000D01*
X60959600Y-106578000D02*
X61112400Y-106730800D01*
X61112400Y-106730800D02*
X61112400Y-108906600D01*
X61112400Y-108906600D02*
X61087000Y-108932000D01*
G04 #@! TO.N,Net-(U1-BOOT)*
D55*
X61087000Y-115932000D02*
X59032000Y-115932000D01*
X59032000Y-115932000D02*
X58623200Y-115523200D01*
X58623200Y-115523200D02*
X58623200Y-110465200D01*
G04 #@! TO.N,Net-(De1-K)*
D56*
X53053000Y-99568000D02*
X53053000Y-103395800D01*
X53053000Y-103395800D02*
X56235200Y-106578000D01*
X56235200Y-106578000D02*
X56286000Y-106578000D01*
G04 #@! TO.N,+5V*
X49886000Y-106578000D02*
X49886000Y-96468800D01*
X49886000Y-96468800D02*
X50038000Y-96316800D01*
X50038000Y-96316800D02*
X60452000Y-96316800D01*
X50378000Y-119761000D02*
X50378000Y-110830000D01*
X50378000Y-110830000D02*
X49886000Y-110338000D01*
X49886000Y-110338000D02*
X49886000Y-106578000D01*
G04 #@! TO.N,GND*
X54762400Y-122682000D02*
X54762400Y-119776600D01*
X54762400Y-122682000D02*
X58449200Y-122682000D01*
X54778000Y-119761000D02*
X54778000Y-113792000D01*
X54762400Y-125730000D02*
X54762400Y-122682000D01*
X54762400Y-119776600D02*
X54778000Y-119761000D01*
G04 #@! TO.N,/24VAC1*
X59494000Y-130080000D02*
X61578740Y-130080000D01*
X61578740Y-130080000D02*
X62357000Y-130858260D01*
G04 #@! TO.N,/24VAC2*
X62357000Y-135079740D02*
X60493740Y-135079740D01*
X60493740Y-135079740D02*
X59494000Y-134080000D01*
X62436740Y-135000000D02*
X68300000Y-135000000D01*
X68300000Y-135000000D02*
X70300000Y-137000000D01*
G04 #@! TO.N,/24VAC1*
X62801000Y-131000000D02*
X70300000Y-131000000D01*
G04 #@! TO.N,GND*
X58713000Y-101587000D02*
X62357000Y-101587000D01*
D55*
X62357000Y-108932000D02*
X62357000Y-101587000D01*
G04 #@! TO.N,+5V*
X70993000Y-108839000D02*
X71501000Y-108331000D01*
X69723000Y-108839000D02*
X70993000Y-108839000D01*
X71501000Y-108331000D02*
X71501000Y-102743000D01*
X71501000Y-102743000D02*
X71522000Y-102722000D01*
G04 #@! TO.N,Net-(U1-FB)*
X67898000Y-108839000D02*
X67805000Y-108932000D01*
X67805000Y-108932000D02*
X64897000Y-108932000D01*
G04 #@! TO.N,Net-(R19-Pad1)*
X86092000Y-118995000D02*
X86092000Y-115937000D01*
X86092000Y-115937000D02*
X85725000Y-115570000D01*
G04 #@! TO.N,Net-(R17-Pad1)*
X104267000Y-118995000D02*
X104267000Y-115965000D01*
X104267000Y-115965000D02*
X103872000Y-115570000D01*
G04 #@! TO.N,Net-(R18-Pad1)*
X95236000Y-118933500D02*
X95236000Y-116473000D01*
X95377000Y-115570000D02*
X94728000Y-115570000D01*
G04 #@! TO.N,Net-(R16-Pad1)*
X113270000Y-118933500D02*
X113270000Y-116078000D01*
X113270000Y-116078000D02*
X112762000Y-115570000D01*
G04 #@! TO.N,Net-(R15-Pad1)*
X122414000Y-118933500D02*
X122414000Y-116078000D01*
X122414000Y-116078000D02*
X121906000Y-115570000D01*
G04 #@! TO.N,Net-(R14-Pad1)*
X131558000Y-118933500D02*
X131558000Y-116078000D01*
G04 #@! TO.N,Net-(R13-Pad1)*
X140702000Y-118872000D02*
X140702000Y-115824000D01*
X140702000Y-115824000D02*
X140448000Y-115570000D01*
G04 #@! TO.N,Net-(R20-Pad1)*
X76948000Y-118995000D02*
X76948000Y-115570000D01*
G04 #@! TO.N,SCL*
X101174000Y-60529000D02*
X101174000Y-62058000D01*
X101174000Y-62058000D02*
X101473000Y-62357000D01*
X101473000Y-62357000D02*
X105537000Y-62357000D01*
X105537000Y-62357000D02*
X106894000Y-61000000D01*
X106894000Y-61000000D02*
X108000000Y-61000000D01*
G04 #@! TO.N,STATUS_LEDB_PIN*
X97174000Y-60529000D02*
X97174000Y-63900000D01*
X97174000Y-63900000D02*
X99695000Y-66421000D01*
X99695000Y-66421000D02*
X99695000Y-68514500D01*
G04 #@! TO.N,BTNS_PIN*
X139500000Y-57100000D02*
X141809000Y-57100000D01*
X141809000Y-57100000D02*
X141986000Y-57277000D01*
X141986000Y-57277000D02*
X141986000Y-68072000D01*
G04 #@! TO.N,SCL*
X115062000Y-55292000D02*
X115062000Y-57658000D01*
X115062000Y-57658000D02*
X111760000Y-60960000D01*
X111760000Y-60960000D02*
X108040000Y-60960000D01*
X108040000Y-60960000D02*
X108000000Y-61000000D01*
G04 #@! TO.N,+5V*
X140448000Y-107950000D02*
X141986000Y-106412000D01*
X141986000Y-106412000D02*
X141986000Y-94234000D01*
X141986000Y-94234000D02*
X141252000Y-93500000D01*
X141252000Y-93500000D02*
X139500000Y-93500000D01*
G04 #@! TO.N,LEDR_CH8*
X103707000Y-84709000D02*
X107823000Y-84709000D01*
X107823000Y-84709000D02*
X111379000Y-88265000D01*
X111379000Y-88265000D02*
X111379000Y-98171000D01*
X111379000Y-98171000D02*
X113284000Y-100076000D01*
X113284000Y-100076000D02*
X125222000Y-100076000D01*
G04 #@! TO.N,LEDR_CH7*
X121000000Y-101000000D02*
X112747500Y-101000000D01*
X112747500Y-101000000D02*
X110363000Y-98615500D01*
X110363000Y-98615500D02*
X110363000Y-89027000D01*
X110363000Y-89027000D02*
X107315000Y-85979000D01*
X107315000Y-85979000D02*
X103707000Y-85979000D01*
G04 #@! TO.N,LEDR_CH6*
X119366000Y-103585000D02*
X119366000Y-102475000D01*
X119366000Y-102475000D02*
X118999000Y-102108000D01*
X118999000Y-102108000D02*
X112395000Y-102108000D01*
X112395000Y-102108000D02*
X109347000Y-99060000D01*
X109347000Y-99060000D02*
X109347000Y-89789000D01*
X109347000Y-89789000D02*
X106807000Y-87249000D01*
X106807000Y-87249000D02*
X103707000Y-87249000D01*
G04 #@! TO.N,GND*
X58625000Y-120200000D02*
X58625000Y-122682000D01*
X58625000Y-118000000D02*
X58625000Y-120200000D01*
X60500000Y-55500000D02*
X63025000Y-55500000D01*
D56*
X81000000Y-51758000D02*
X81000000Y-49500000D01*
X81000000Y-49500000D02*
X80000000Y-48500000D01*
X80000000Y-48500000D02*
X76300000Y-48500000D01*
D55*
X81000000Y-51758000D02*
X81033000Y-51725000D01*
X81129000Y-51629000D02*
X81033000Y-51725000D01*
X83000000Y-51725000D02*
X81033000Y-51725000D01*
X97174000Y-50729000D02*
X97174000Y-53654000D01*
X92374000Y-50729000D02*
X101974000Y-50729000D01*
X91274000Y-51629000D02*
X91274000Y-50729000D01*
X91274000Y-50729000D02*
X91245000Y-50700000D01*
X91245000Y-50700000D02*
X91224000Y-50700000D01*
X85000000Y-51725000D02*
X89129000Y-51725000D01*
X89129000Y-51725000D02*
X89225000Y-51629000D01*
X83000000Y-51725000D02*
X85000000Y-51725000D01*
G04 #@! TO.N,LEDR_CH5*
X108331000Y-93342000D02*
X108331000Y-90170000D01*
X110222000Y-101205000D02*
X110222000Y-103585000D01*
X108331000Y-99314000D02*
X110222000Y-101205000D01*
X120548000Y-60452000D02*
X125175000Y-60452000D01*
X108331000Y-90170000D02*
X106680000Y-88519000D01*
X106680000Y-88519000D02*
X103707000Y-88519000D01*
X108331000Y-93342000D02*
X108331000Y-99314000D01*
X120500000Y-60500000D02*
X120548000Y-60452000D01*
G04 #@! TO.N,Net-(R8-Pad2)*
X110222000Y-105410000D02*
X110222000Y-107950000D01*
G04 #@! TO.N,+5V*
X93472000Y-92329000D02*
X97155000Y-92329000D01*
X88594000Y-91313000D02*
X92456000Y-91313000D01*
X92456000Y-91313000D02*
X93472000Y-92329000D01*
X60500000Y-71580000D02*
X60452000Y-71628000D01*
X83439000Y-82000000D02*
X74000000Y-82000000D01*
X60500000Y-71500000D02*
X60500000Y-71580000D01*
X97155000Y-92329000D02*
X97207000Y-92329000D01*
X88594000Y-83693000D02*
X88646000Y-83693000D01*
G04 #@! TO.N,Net-(R9-Pad2)*
X101332000Y-105410000D02*
X101332000Y-107950000D01*
G04 #@! TO.N,Net-(Q5-G)*
X101332000Y-115570000D02*
X101332000Y-120838000D01*
X101332000Y-120838000D02*
X101266000Y-120904000D01*
G04 #@! TO.N,Net-(R17-Pad1)*
X103872000Y-118741000D02*
X104126000Y-118995000D01*
G04 #@! TO.N,GND*
X58700000Y-101600000D02*
X58713000Y-101587000D01*
X89287500Y-52362500D02*
X89225000Y-52300000D01*
D56*
X66600000Y-101587000D02*
X67813000Y-101587000D01*
X66755000Y-66588000D02*
X68620000Y-66588000D01*
D55*
X84200000Y-59300000D02*
X86250000Y-59300000D01*
D56*
X67813000Y-101587000D02*
X75500000Y-93900000D01*
D55*
X58500000Y-101600000D02*
X58700000Y-101600000D01*
D56*
X70600000Y-48500000D02*
X75700000Y-48500000D01*
X78700000Y-92583000D02*
X79629000Y-92583000D01*
X75500000Y-93900000D02*
X76817000Y-92583000D01*
X62357000Y-101587000D02*
X63600000Y-101587000D01*
D55*
X63513000Y-101600000D02*
X63754000Y-101841000D01*
D57*
X103707000Y-83439000D02*
X106426000Y-83439000D01*
X82094000Y-92583000D02*
X79629000Y-92583000D01*
D55*
X89225000Y-52300000D02*
X89225000Y-51629000D01*
X89354000Y-52429000D02*
X89287500Y-52362500D01*
X91274000Y-52429000D02*
X89354000Y-52429000D01*
D56*
X68620000Y-66588000D02*
X73660000Y-71628000D01*
D55*
X91274000Y-51629000D02*
X89225000Y-51629000D01*
D56*
X74000000Y-72000000D02*
X74100000Y-72000000D01*
X76817000Y-92583000D02*
X78700000Y-92583000D01*
X74100000Y-72000000D02*
X78400000Y-76300000D01*
X63600000Y-101587000D02*
X66600000Y-101587000D01*
G04 #@! TO.N,Net-(U1-RT{slash}SYNC)*
D55*
X64897000Y-115932000D02*
X67051500Y-115932000D01*
X67051500Y-115932000D02*
X67921500Y-115062000D01*
G04 #@! TO.N,BTNS_PIN*
X60500000Y-57100000D02*
X62688000Y-57100000D01*
X60500000Y-68100000D02*
X62512000Y-68100000D01*
X141986000Y-68072000D02*
X141986000Y-68580000D01*
X141986000Y-68580000D02*
X141986000Y-77978000D01*
X141880000Y-79100000D02*
X141986000Y-78994000D01*
X62512000Y-68100000D02*
X62738000Y-68326000D01*
X141986000Y-77978000D02*
X141986000Y-78994000D01*
X139500000Y-68100000D02*
X141958000Y-68100000D01*
X62700000Y-90100000D02*
X60500000Y-90100000D01*
X62600000Y-79100000D02*
X60500000Y-79100000D01*
X62700000Y-79200000D02*
X62600000Y-79100000D01*
X139500000Y-90100000D02*
X141548000Y-90100000D01*
X141958000Y-68100000D02*
X141986000Y-68072000D01*
X62688000Y-57100000D02*
X62738000Y-57150000D01*
X139500000Y-79100000D02*
X141880000Y-79100000D01*
X92374000Y-62148000D02*
X92374000Y-60529000D01*
X141986000Y-89662000D02*
X141986000Y-78994000D01*
X141548000Y-90100000D02*
X141986000Y-89662000D01*
X77171000Y-62148000D02*
X92374000Y-62148000D01*
G04 #@! TO.N,Net-(U1-COMP)*
X63637500Y-107050500D02*
X63637500Y-105664000D01*
X63627000Y-107061000D02*
X63637500Y-107050500D01*
X63627000Y-108932000D02*
X63627000Y-107061000D01*
X63754000Y-105541000D02*
X63877000Y-105664000D01*
X63637500Y-105664000D02*
X63637500Y-103199500D01*
G04 #@! TO.N,/24VAC1*
D56*
X140702000Y-123444000D02*
X140702000Y-125029500D01*
X140702000Y-121797000D02*
X140702000Y-123444000D01*
X92188000Y-123444000D02*
X83044000Y-123444000D01*
X76948000Y-121920000D02*
X76948000Y-124968000D01*
X86092000Y-121920000D02*
X86092000Y-124968000D01*
X95236000Y-121858500D02*
X95236000Y-124968000D01*
X131558000Y-121858500D02*
X131558000Y-124968000D01*
X137654000Y-123444000D02*
X140702000Y-123444000D01*
X101266000Y-123444000D02*
X92188000Y-123444000D01*
X128510000Y-123444000D02*
X119366000Y-123444000D01*
X128510000Y-123444000D02*
X137654000Y-123444000D01*
X113270000Y-121858500D02*
X113270000Y-124968000D01*
X104126000Y-121920000D02*
X104126000Y-124968000D01*
X119366000Y-123444000D02*
X101266000Y-123444000D01*
X83044000Y-123444000D02*
X73900000Y-123444000D01*
X122414000Y-121858500D02*
X122414000Y-124968000D01*
G04 #@! TO.N,Net-(C2-Pad1)*
X140702000Y-127954500D02*
X140702000Y-129948000D01*
G04 #@! TO.N,Net-(C7-Pad1)*
X95236000Y-129936000D02*
X95250000Y-129950000D01*
X95236000Y-127893000D02*
X95236000Y-129936000D01*
G04 #@! TO.N,EN*
D55*
X87787000Y-57268000D02*
X87787000Y-59287000D01*
X91274000Y-57229000D02*
X87826000Y-57229000D01*
X87826000Y-57229000D02*
X87787000Y-57268000D01*
G04 #@! TO.N,Net-(S5-NO_1)*
X127000000Y-55626000D02*
X130374000Y-55626000D01*
X130374000Y-55626000D02*
X130500000Y-55500000D01*
G04 #@! TO.N,Net-(S5-K_RED)*
X130452000Y-60452000D02*
X130500000Y-60500000D01*
X127000000Y-60452000D02*
X130452000Y-60452000D01*
G04 #@! TO.N,Net-(C9-Pad1)*
D56*
X76948000Y-127893000D02*
X76948000Y-130023000D01*
X76948000Y-130023000D02*
X76950000Y-130025000D01*
G04 #@! TO.N,Net-(U1-VIN)*
X60552000Y-120300000D02*
X60452000Y-120200000D01*
D55*
X60200000Y-122430000D02*
X60200000Y-118227000D01*
X62357000Y-115932000D02*
X62357000Y-118000000D01*
X62357000Y-118000000D02*
X62357000Y-120243000D01*
X60427000Y-118000000D02*
X62357000Y-118000000D01*
D56*
X65000000Y-120300000D02*
X60552000Y-120300000D01*
G04 #@! TO.N,Net-(U1-FB)*
D55*
X67818000Y-112078500D02*
X67921500Y-112182000D01*
X67818000Y-109220000D02*
X67818000Y-112078500D01*
G04 #@! TO.N,Net-(C6-Pad1)*
D56*
X104126000Y-129851000D02*
X104200000Y-129925000D01*
X104126000Y-127893000D02*
X104126000Y-129851000D01*
G04 #@! TO.N,Net-(S4-NO_1)*
D55*
X78800000Y-86100000D02*
X78794000Y-86106000D01*
X117348000Y-71882000D02*
X117348000Y-60706000D01*
X112903000Y-76327000D02*
X117348000Y-71882000D01*
X78794000Y-86106000D02*
X64389000Y-86106000D01*
X117348000Y-60706000D02*
X122428000Y-55626000D01*
X63790500Y-86704500D02*
X63790500Y-88401500D01*
X63692000Y-88500000D02*
X63790500Y-88401500D01*
X122428000Y-55626000D02*
X124075000Y-55626000D01*
X60500000Y-88500000D02*
X63692000Y-88500000D01*
X64389000Y-86106000D02*
X63790500Y-86704500D01*
G04 #@! TO.N,Net-(S3-NO_1)*
X60530000Y-77470000D02*
X60500000Y-77500000D01*
X63919000Y-77470000D02*
X60530000Y-77470000D01*
G04 #@! TO.N,Net-(S3-K_GREEN)*
X60628000Y-80772000D02*
X60500000Y-80900000D01*
X63961000Y-80772000D02*
X60628000Y-80772000D01*
G04 #@! TO.N,Net-(S3-K_RED)*
X63961000Y-83566000D02*
X52566000Y-83566000D01*
X52566000Y-83566000D02*
X51500000Y-82500000D01*
G04 #@! TO.N,Net-(J2-Pin_10)*
D56*
X137700000Y-130000000D02*
X137700000Y-126030000D01*
X137700000Y-126030000D02*
X137654000Y-125984000D01*
G04 #@! TO.N,Net-(J2-Pin_9)*
X128600000Y-129950000D02*
X128600000Y-126074000D01*
X128600000Y-126074000D02*
X128510000Y-125984000D01*
G04 #@! TO.N,Net-(Q2-G)*
D55*
X128510000Y-115570000D02*
X128510000Y-120904000D01*
G04 #@! TO.N,Net-(R11-Pad2)*
X83044000Y-105410000D02*
X83044000Y-107950000D01*
G04 #@! TO.N,Net-(Q7-G)*
X83044000Y-115570000D02*
X83044000Y-120904000D01*
G04 #@! TO.N,Net-(J2-Pin_7)*
D56*
X110300000Y-126062000D02*
X110222000Y-125984000D01*
X110300000Y-129900000D02*
X110300000Y-126062000D01*
G04 #@! TO.N,Net-(Q4-G)*
D55*
X110222000Y-115570000D02*
X110222000Y-120904000D01*
G04 #@! TO.N,Net-(S4-K_GREEN)*
X63857500Y-91917500D02*
X60517500Y-91917500D01*
X60517500Y-91917500D02*
X60500000Y-91900000D01*
G04 #@! TO.N,LEDG_CH4*
X82094000Y-86233000D02*
X80010000Y-86233000D01*
X80010000Y-86233000D02*
X74325500Y-91917500D01*
X74325500Y-91917500D02*
X65682500Y-91917500D01*
G04 #@! TO.N,+3.3V*
X74676000Y-53200000D02*
X73914000Y-53962000D01*
X117301000Y-53467000D02*
X117348000Y-53514000D01*
X76029000Y-53229000D02*
X76000000Y-53200000D01*
X68300000Y-54800000D02*
X73814000Y-54800000D01*
X80010000Y-73025000D02*
X90732000Y-73025000D01*
X115062000Y-53467000D02*
X117301000Y-53467000D01*
X112800000Y-53500000D02*
X115029000Y-53500000D01*
X89300000Y-53229000D02*
X76029000Y-53229000D01*
X119587000Y-53514000D02*
X119634000Y-53467000D01*
X73914000Y-66929000D02*
X80010000Y-73025000D01*
X73814000Y-54800000D02*
X73914000Y-54900000D01*
X115029000Y-53500000D02*
X115062000Y-53467000D01*
X117348000Y-53514000D02*
X119587000Y-53514000D01*
X73914000Y-54900000D02*
X73914000Y-66929000D01*
X90732000Y-73025000D02*
X92257000Y-71500000D01*
X73914000Y-54900000D02*
X73914000Y-53962000D01*
X73914000Y-54356000D02*
X73914000Y-54900000D01*
X91274000Y-53229000D02*
X89300000Y-53229000D01*
X76000000Y-53200000D02*
X74676000Y-53200000D01*
X85962000Y-57268000D02*
X85962000Y-53300000D01*
G04 #@! TO.N,SDA*
X117348000Y-55339000D02*
X117348000Y-56007000D01*
X117348000Y-55339000D02*
X117348000Y-58293000D01*
X115000000Y-61000000D02*
X117348000Y-58652000D01*
X117348000Y-58652000D02*
X117348000Y-58293000D01*
G04 #@! TO.N,LEDR_CH6*
X119366000Y-75960000D02*
X123952000Y-71374000D01*
X123952000Y-71374000D02*
X125175000Y-71374000D01*
G04 #@! TO.N,Net-(R7-Pad2)*
X119366000Y-105410000D02*
X119366000Y-107950000D01*
G04 #@! TO.N,Net-(S1-K_GREEN)*
X60528000Y-58928000D02*
X60500000Y-58900000D01*
X63961000Y-58928000D02*
X60528000Y-58928000D01*
G04 #@! TO.N,LEDG_CH1*
X70612000Y-66040000D02*
X70612000Y-61112000D01*
X91186000Y-76454000D02*
X89027000Y-74295000D01*
X89027000Y-74295000D02*
X78867000Y-74295000D01*
X70612000Y-61112000D02*
X68428000Y-58928000D01*
X78867000Y-74295000D02*
X70612000Y-66040000D01*
X91186000Y-81915000D02*
X91186000Y-76454000D01*
X68428000Y-58928000D02*
X65786000Y-58928000D01*
G04 #@! TO.N,Net-(Q3-G)*
X119366000Y-115570000D02*
X119366000Y-120904000D01*
G04 #@! TO.N,Net-(BR1-+)*
D56*
X65500000Y-127700000D02*
X65800000Y-127400000D01*
X65000000Y-127700000D02*
X65500000Y-127700000D01*
G04 #@! TO.N,LEDR_CH8*
D55*
X125325500Y-99972500D02*
X125222000Y-100076000D01*
X137908000Y-103585000D02*
X137908000Y-101078000D01*
X125325500Y-93472000D02*
X125325500Y-94097500D01*
X136906000Y-100076000D02*
X128524000Y-100076000D01*
X125325500Y-93472000D02*
X125325500Y-99972500D01*
X125222000Y-100076000D02*
X128524000Y-100076000D01*
X137908000Y-101078000D02*
X136906000Y-100076000D01*
G04 #@! TO.N,Net-(R5-Pad2)*
X137908000Y-105410000D02*
X137908000Y-107950000D01*
G04 #@! TO.N,Net-(S7-NO_1)*
X127192500Y-77470000D02*
X130470000Y-77470000D01*
X130470000Y-77470000D02*
X130500000Y-77500000D01*
X130216000Y-77216000D02*
X130500000Y-77500000D01*
G04 #@! TO.N,Net-(S7-K_RED)*
X130450000Y-82550000D02*
X130500000Y-82500000D01*
X127000000Y-82550000D02*
X130450000Y-82550000D01*
G04 #@! TO.N,Net-(S1-K_RED)*
X63961000Y-61468000D02*
X52468000Y-61468000D01*
X52468000Y-61468000D02*
X51500000Y-60500000D01*
G04 #@! TO.N,Net-(R10-Pad2)*
X92188000Y-105410000D02*
X92188000Y-107950000D01*
G04 #@! TO.N,STATUS_LEDR_PIN*
X79502000Y-65278000D02*
X79502000Y-67540500D01*
X91274000Y-54829000D02*
X89062000Y-54829000D01*
X79500000Y-65276000D02*
X79502000Y-65278000D01*
X89062000Y-54829000D02*
X89027000Y-54864000D01*
X79500000Y-63850000D02*
X79500000Y-65276000D01*
G04 #@! TO.N,STATUS_LEDG_PIN*
X95377000Y-63627000D02*
X97028000Y-65278000D01*
X97028000Y-65278000D02*
X97028000Y-68152000D01*
X91274000Y-55629000D02*
X89786000Y-55629000D01*
X89786000Y-55629000D02*
X89662000Y-55753000D01*
G04 #@! TO.N,STATUS_BTN_PIN*
X94361000Y-67338000D02*
X93599000Y-68100000D01*
X94361000Y-65024000D02*
X94361000Y-67338000D01*
X93174000Y-60529000D02*
X93174000Y-63837000D01*
X93174000Y-63837000D02*
X94361000Y-65024000D01*
X93599000Y-68100000D02*
X92257000Y-68100000D01*
G04 #@! TO.N,LATCH*
X97974000Y-60529000D02*
X97974000Y-63430000D01*
X102489000Y-78994000D02*
X99695000Y-81788000D01*
X102489000Y-67945000D02*
X102489000Y-78994000D01*
X99695000Y-86614000D02*
X99060000Y-87249000D01*
X97974000Y-63430000D02*
X102489000Y-67945000D01*
X99060000Y-87249000D02*
X97207000Y-87249000D01*
X99695000Y-81788000D02*
X99695000Y-86614000D01*
G04 #@! TO.N,SIPO_SCK*
X98774000Y-63087000D02*
X98774000Y-60529000D01*
X100584000Y-82042000D02*
X103505000Y-79121000D01*
X103505000Y-67818000D02*
X98774000Y-63087000D01*
X103505000Y-79121000D02*
X103505000Y-67818000D01*
G04 #@! TO.N,SIPO_DATA*
X101473000Y-87722000D02*
X101473000Y-82169000D01*
X104521000Y-67818000D02*
X99574000Y-62871000D01*
X99574000Y-62871000D02*
X99574000Y-60529000D01*
X101473000Y-82169000D02*
X104521000Y-79121000D01*
X99406000Y-89789000D02*
X101473000Y-87722000D01*
X104521000Y-79121000D02*
X104521000Y-67818000D01*
X97207000Y-89789000D02*
X99406000Y-89789000D01*
G04 #@! TO.N,SCL*
X108000000Y-61000000D02*
X108037000Y-61000000D01*
G04 #@! TO.N,RX*
X103074000Y-55629000D02*
X105156000Y-55629000D01*
X107071000Y-55629000D02*
X105540000Y-55629000D01*
X105156000Y-55629000D02*
X105540000Y-55629000D01*
X107100000Y-55600000D02*
X107071000Y-55629000D01*
G04 #@! TO.N,TX*
X109382000Y-54829000D02*
X109474000Y-54737000D01*
G04 #@! TO.N,Net-(C3-Pad1)*
D56*
X131558000Y-129942000D02*
X131550000Y-129950000D01*
X131558000Y-127893000D02*
X131558000Y-129942000D01*
G04 #@! TO.N,Net-(S6-K_RED)*
D55*
X127000000Y-71374000D02*
X130374000Y-71374000D01*
X130372000Y-71628000D02*
X130500000Y-71500000D01*
X130374000Y-71374000D02*
X130500000Y-71500000D01*
G04 #@! TO.N,Net-(C8-Pad1)*
D56*
X86092000Y-129917000D02*
X86100000Y-129925000D01*
X86092000Y-127893000D02*
X86092000Y-129917000D01*
G04 #@! TO.N,Net-(C5-Pad1)*
X113270000Y-127893000D02*
X113270000Y-129880000D01*
X113270000Y-129880000D02*
X113250000Y-129900000D01*
G04 #@! TO.N,LEDG_CH6*
D55*
X123698000Y-69088000D02*
X125175000Y-69088000D01*
X85471000Y-81026000D02*
X85471000Y-88011000D01*
X85471000Y-88011000D02*
X84709000Y-88773000D01*
X114554000Y-78232000D02*
X123698000Y-69088000D01*
X88265000Y-78232000D02*
X85471000Y-81026000D01*
X84709000Y-88773000D02*
X82094000Y-88773000D01*
G04 #@! TO.N,Net-(J2-Pin_4)*
D56*
X83044000Y-125984000D02*
X83044000Y-129819000D01*
X83044000Y-129819000D02*
X83150000Y-129925000D01*
G04 #@! TO.N,LEDR_CH4*
D55*
X68400000Y-94751500D02*
X65657500Y-94751500D01*
G04 #@! TO.N,Net-(S4-K_RED)*
X52751500Y-94751500D02*
X51500000Y-93500000D01*
X63832500Y-94751500D02*
X52751500Y-94751500D01*
G04 #@! TO.N,Net-(J2-Pin_5)*
D56*
X92300000Y-126096000D02*
X92188000Y-125984000D01*
X92300000Y-129950000D02*
X92300000Y-126096000D01*
G04 #@! TO.N,Net-(J2-Pin_6)*
X101250000Y-129925000D02*
X101250000Y-126000000D01*
X101250000Y-126000000D02*
X101266000Y-125984000D01*
G04 #@! TO.N,Net-(J2-Pin_8)*
X119425000Y-126043000D02*
X119366000Y-125984000D01*
X119425000Y-129950000D02*
X119425000Y-126043000D01*
G04 #@! TO.N,LEDG_CH2*
D55*
X72391500Y-83693000D02*
X82094000Y-83693000D01*
X71628000Y-82929500D02*
X72391500Y-83693000D01*
X67945000Y-69850000D02*
X71628000Y-73533000D01*
X71628000Y-73533000D02*
X71628000Y-82929500D01*
X65739000Y-69850000D02*
X67945000Y-69850000D01*
G04 #@! TO.N,LEDG_CH3*
X65786000Y-80772000D02*
X67972000Y-80772000D01*
X67972000Y-80772000D02*
X72163000Y-84963000D01*
X72163000Y-84963000D02*
X82094000Y-84963000D01*
G04 #@! TO.N,LEDG_CH5*
X87630000Y-77343000D02*
X84582000Y-80391000D01*
X118872000Y-60960000D02*
X121666000Y-58166000D01*
X113665000Y-77343000D02*
X118872000Y-72136000D01*
X83947000Y-87503000D02*
X82094000Y-87503000D01*
X121666000Y-58166000D02*
X125175000Y-58166000D01*
X118872000Y-72136000D02*
X118872000Y-60960000D01*
X84582000Y-80391000D02*
X84582000Y-86868000D01*
X84582000Y-86868000D02*
X83947000Y-87503000D01*
G04 #@! TO.N,LEDG_CH7*
X85344000Y-90043000D02*
X85598000Y-90297000D01*
X85914000Y-94042000D02*
X96012000Y-94042000D01*
X82094000Y-90043000D02*
X85344000Y-90043000D01*
X118364000Y-80264000D02*
X125175000Y-80264000D01*
X85598000Y-93726000D02*
X85914000Y-94042000D01*
X85598000Y-90297000D02*
X85598000Y-93726000D01*
G04 #@! TO.N,LEDG_CH8*
X82094000Y-91313000D02*
X84582000Y-91313000D01*
X118237000Y-91186000D02*
X125325500Y-91186000D01*
X85090000Y-94742000D02*
X97917000Y-94742000D01*
X84582000Y-91313000D02*
X84582000Y-94234000D01*
X84582000Y-94234000D02*
X85090000Y-94742000D01*
G04 #@! TO.N,LEDR_CH1*
X74408000Y-101592000D02*
X74408000Y-103585000D01*
X77350000Y-98650000D02*
X74408000Y-101592000D01*
X68326000Y-61468000D02*
X65786000Y-61468000D01*
G04 #@! TO.N,Net-(R12-Pad2)*
X74408000Y-105410000D02*
X74408000Y-107950000D01*
G04 #@! TO.N,Net-(Q6-G)*
X92188000Y-115570000D02*
X92188000Y-120904000D01*
G04 #@! TO.N,Net-(C16-Pad2)*
X66600000Y-103137000D02*
X66600000Y-105626500D01*
X66600000Y-105626500D02*
X66562500Y-105664000D01*
X66802000Y-105664000D02*
X66700000Y-105562000D01*
G04 #@! TO.N,Net-(S8-NO_1)*
X127192500Y-88392000D02*
X130392000Y-88392000D01*
X130392000Y-88392000D02*
X130500000Y-88500000D01*
G04 #@! TO.N,Net-(S9-K_GREEN)*
X92257000Y-69900000D02*
X96951000Y-69900000D01*
X96951000Y-69900000D02*
X97028000Y-69977000D01*
G04 #@! TO.N,Net-(S8-K_GREEN)*
X127150500Y-91186000D02*
X127254000Y-91186000D01*
G04 #@! TO.N,Net-(S8-K_RED)*
X127150500Y-93472000D02*
X130472000Y-93472000D01*
X130472000Y-93472000D02*
X130500000Y-93500000D01*
G04 #@! TO.N,LEDR_CH7*
X127416000Y-101000000D02*
X128510000Y-102094000D01*
X121000000Y-82550000D02*
X125175000Y-82550000D01*
X128510000Y-102094000D02*
X128510000Y-103585000D01*
X121000000Y-101000000D02*
X127416000Y-101000000D01*
G04 #@! TO.N,Net-(C4-Pad1)*
D56*
X122414000Y-127893000D02*
X122414000Y-129911000D01*
X122414000Y-129911000D02*
X122375000Y-129950000D01*
G04 #@! TO.N,Net-(S2-K_RED)*
D55*
X63961000Y-72644000D02*
X52644000Y-72644000D01*
X52644000Y-72644000D02*
X51500000Y-71500000D01*
G04 #@! TO.N,Net-(R6-Pad2)*
X128510000Y-105410000D02*
X128510000Y-107950000D01*
G04 #@! TO.N,Net-(S2-NO_1)*
X60588000Y-66588000D02*
X60500000Y-66500000D01*
X63830000Y-66588000D02*
X60588000Y-66588000D01*
G04 #@! TO.N,Net-(S2-K_GREEN)*
X60550000Y-69850000D02*
X60500000Y-69900000D01*
X63914000Y-69850000D02*
X60550000Y-69850000D01*
G04 #@! TO.N,Net-(S9-K_RED)*
X81025000Y-71500000D02*
X83257000Y-71500000D01*
X79502000Y-69977000D02*
X81025000Y-71500000D01*
X79502000Y-69365500D02*
X79502000Y-69977000D01*
G04 #@! TO.N,Net-(Q1-G)*
X137654000Y-116078000D02*
X137654000Y-120904000D01*
X137908000Y-115570000D02*
X137908000Y-115824000D01*
X137908000Y-115824000D02*
X137654000Y-116078000D01*
G04 #@! TO.N,Net-(Q8-G)*
X74408000Y-115570000D02*
X74408000Y-120396000D01*
X74408000Y-120396000D02*
X73900000Y-120904000D01*
G04 #@! TO.N,Net-(S6-NO_1)*
X130294000Y-66294000D02*
X130500000Y-66500000D01*
X127000000Y-66294000D02*
X130294000Y-66294000D01*
G04 #@! TD*
G04 #@! TA.AperFunction,Conductor*
G04 #@! TO.N,GND*
G36*
X65696994Y-110218273D02*
G01*
X65743115Y-110270758D01*
X65754681Y-110323150D01*
X65751345Y-114561271D01*
X65748787Y-114569955D01*
X65750069Y-114578917D01*
X65739073Y-114602943D01*
X65731608Y-114628295D01*
X65724760Y-114634218D01*
X65720994Y-114642449D01*
X65698755Y-114656716D01*
X65678768Y-114674008D01*
X65668250Y-114676287D01*
X65662186Y-114680178D01*
X65627247Y-114685173D01*
X65571339Y-114685129D01*
X65504315Y-114665392D01*
X65483755Y-114648809D01*
X65448870Y-114613923D01*
X65448862Y-114613917D01*
X65307396Y-114530255D01*
X65307393Y-114530254D01*
X65149573Y-114484402D01*
X65149567Y-114484401D01*
X65112701Y-114481500D01*
X65112694Y-114481500D01*
X64681306Y-114481500D01*
X64681298Y-114481500D01*
X64644432Y-114484401D01*
X64644426Y-114484402D01*
X64486606Y-114530254D01*
X64486603Y-114530255D01*
X64345140Y-114613915D01*
X64338974Y-114618699D01*
X64337084Y-114616262D01*
X64288296Y-114642871D01*
X64218607Y-114637850D01*
X64186294Y-114617072D01*
X64185031Y-114618702D01*
X64178862Y-114613917D01*
X64037396Y-114530255D01*
X64037393Y-114530254D01*
X63879573Y-114484402D01*
X63879567Y-114484401D01*
X63842701Y-114481500D01*
X63842694Y-114481500D01*
X63411306Y-114481500D01*
X63411298Y-114481500D01*
X63374432Y-114484401D01*
X63374426Y-114484402D01*
X63216606Y-114530254D01*
X63216603Y-114530255D01*
X63075140Y-114613915D01*
X63068974Y-114618699D01*
X63067084Y-114616262D01*
X63018296Y-114642871D01*
X62948607Y-114637850D01*
X62916294Y-114617072D01*
X62915031Y-114618702D01*
X62908862Y-114613917D01*
X62767396Y-114530255D01*
X62767393Y-114530254D01*
X62609573Y-114484402D01*
X62609567Y-114484401D01*
X62572701Y-114481500D01*
X62572694Y-114481500D01*
X62141306Y-114481500D01*
X62141298Y-114481500D01*
X62104432Y-114484401D01*
X62104426Y-114484402D01*
X61946606Y-114530254D01*
X61946603Y-114530255D01*
X61805140Y-114613915D01*
X61798974Y-114618699D01*
X61797084Y-114616262D01*
X61748296Y-114642871D01*
X61678607Y-114637850D01*
X61646294Y-114617072D01*
X61645031Y-114618702D01*
X61638862Y-114613917D01*
X61497396Y-114530255D01*
X61497393Y-114530254D01*
X61339573Y-114484402D01*
X61339567Y-114484401D01*
X61302701Y-114481500D01*
X61302694Y-114481500D01*
X60871306Y-114481500D01*
X60871298Y-114481500D01*
X60834432Y-114484401D01*
X60834426Y-114484402D01*
X60676606Y-114530254D01*
X60676603Y-114530255D01*
X60535140Y-114613915D01*
X60528974Y-114618699D01*
X60527821Y-114617213D01*
X60475343Y-114645861D01*
X60405652Y-114640867D01*
X60349724Y-114598989D01*
X60325315Y-114533521D01*
X60325000Y-114524691D01*
X60325000Y-110359139D01*
X60327427Y-110350870D01*
X60326142Y-110342350D01*
X60337122Y-110317853D01*
X60344685Y-110292100D01*
X60351196Y-110286457D01*
X60354722Y-110278593D01*
X60377205Y-110263921D01*
X60397489Y-110246345D01*
X60407548Y-110244119D01*
X60413235Y-110240409D01*
X60448130Y-110235142D01*
X60474770Y-110234956D01*
X60538753Y-110252220D01*
X60676602Y-110333744D01*
X60706224Y-110342350D01*
X60834426Y-110379597D01*
X60834429Y-110379597D01*
X60834431Y-110379598D01*
X60871306Y-110382500D01*
X60871314Y-110382500D01*
X61302686Y-110382500D01*
X61302694Y-110382500D01*
X61339569Y-110379598D01*
X61339571Y-110379597D01*
X61339573Y-110379597D01*
X61381191Y-110367505D01*
X61497398Y-110333744D01*
X61551866Y-110301531D01*
X61645582Y-110246110D01*
X61646766Y-110248112D01*
X61700926Y-110226831D01*
X61711034Y-110226347D01*
X62990264Y-110217438D01*
X63057436Y-110236654D01*
X63068689Y-110245658D01*
X63068969Y-110245298D01*
X63075132Y-110250078D01*
X63075135Y-110250081D01*
X63216602Y-110333744D01*
X63246224Y-110342350D01*
X63374426Y-110379597D01*
X63374429Y-110379597D01*
X63374431Y-110379598D01*
X63411306Y-110382500D01*
X63411314Y-110382500D01*
X63842686Y-110382500D01*
X63842694Y-110382500D01*
X63879569Y-110379598D01*
X63879571Y-110379597D01*
X63879573Y-110379597D01*
X63921191Y-110367505D01*
X64037398Y-110333744D01*
X64178865Y-110250081D01*
X64178870Y-110250075D01*
X64185031Y-110245298D01*
X64186939Y-110247758D01*
X64235516Y-110221169D01*
X64305213Y-110226082D01*
X64337698Y-110246935D01*
X64338969Y-110245298D01*
X64345132Y-110250078D01*
X64345135Y-110250081D01*
X64486602Y-110333744D01*
X64516224Y-110342350D01*
X64644426Y-110379597D01*
X64644429Y-110379597D01*
X64644431Y-110379598D01*
X64681306Y-110382500D01*
X64681314Y-110382500D01*
X65112686Y-110382500D01*
X65112694Y-110382500D01*
X65149569Y-110379598D01*
X65149571Y-110379597D01*
X65149573Y-110379597D01*
X65191191Y-110367505D01*
X65307398Y-110333744D01*
X65448865Y-110250081D01*
X65463018Y-110235927D01*
X65524334Y-110202443D01*
X65549823Y-110199612D01*
X65629819Y-110199055D01*
X65696994Y-110218273D01*
G37*
G04 #@! TD.AperFunction*
G04 #@! TD*
M02*
