G04 #@! TF.GenerationSoftware,KiCad,Pcbnew,10.0.1*
G04 #@! TF.CreationDate,2026-06-01T13:42:42+01:00*
G04 #@! TF.ProjectId,hw-controller,68772d63-6f6e-4747-926f-6c6c65722e6b,rev?*
G04 #@! TF.SameCoordinates,Original*
G04 #@! TF.FileFunction,Soldermask,Top*
G04 #@! TF.FilePolarity,Negative*
%FSLAX46Y46*%
G04 Gerber Fmt 4.6, Leading zero omitted, Abs format (unit mm)*
G04 Created by KiCad (PCBNEW 10.0.1) date 2026-06-01 13:42:42*
%MOMM*%
%LPD*%
G01*
G04 APERTURE LIST*
G04 Aperture macros list*
%AMRoundRect*
0 Rectangle with rounded corners*
0 $1 Rounding radius*
0 $2 $3 $4 $5 $6 $7 $8 $9 X,Y pos of 4 corners*
0 Add a 4 corners polygon primitive as box body*
4,1,4,$2,$3,$4,$5,$6,$7,$8,$9,$2,$3,0*
0 Add four circle primitives for the rounded corners*
1,1,$1+$1,$2,$3*
1,1,$1+$1,$4,$5*
1,1,$1+$1,$6,$7*
1,1,$1+$1,$8,$9*
0 Add four rect primitives between the rounded corners*
20,1,$1+$1,$2,$3,$4,$5,0*
20,1,$1+$1,$4,$5,$6,$7,0*
20,1,$1+$1,$6,$7,$8,$9,0*
20,1,$1+$1,$8,$9,$2,$3,0*%
G04 Aperture macros list end*
%ADD10C,0.010000*%
%ADD11C,1.000000*%
%ADD12R,2.200000X1.000000*%
%ADD13RoundRect,0.250000X-1.137500X-0.550000X1.137500X-0.550000X1.137500X0.550000X-1.137500X0.550000X0*%
%ADD14RoundRect,0.250000X-0.625000X0.312500X-0.625000X-0.312500X0.625000X-0.312500X0.625000X0.312500X0*%
%ADD15RoundRect,0.225000X0.250000X-0.225000X0.250000X0.225000X-0.250000X0.225000X-0.250000X-0.225000X0*%
%ADD16RoundRect,0.250000X-0.450000X0.262500X-0.450000X-0.262500X0.450000X-0.262500X0.450000X0.262500X0*%
%ADD17RoundRect,0.249999X-0.640001X0.750001X-0.640001X-0.750001X0.640001X-0.750001X0.640001X0.750001X0*%
%ADD18RoundRect,0.250000X0.262500X0.450000X-0.262500X0.450000X-0.262500X-0.450000X0.262500X-0.450000X0*%
%ADD19C,1.270000*%
%ADD20RoundRect,0.225000X-0.250000X0.225000X-0.250000X-0.225000X0.250000X-0.225000X0.250000X0.225000X0*%
%ADD21RoundRect,0.225000X0.225000X0.250000X-0.225000X0.250000X-0.225000X-0.250000X0.225000X-0.250000X0*%
%ADD22RoundRect,0.150000X0.150000X-0.800000X0.150000X0.800000X-0.150000X0.800000X-0.150000X-0.800000X0*%
%ADD23RoundRect,0.250000X-0.312500X-0.625000X0.312500X-0.625000X0.312500X0.625000X-0.312500X0.625000X0*%
%ADD24RoundRect,0.250000X0.325000X0.650000X-0.325000X0.650000X-0.325000X-0.650000X0.325000X-0.650000X0*%
%ADD25C,3.500000*%
%ADD26R,2.000000X1.905000*%
%ADD27O,2.000000X1.905000*%
%ADD28RoundRect,0.250000X-0.262500X-0.450000X0.262500X-0.450000X0.262500X0.450000X-0.262500X0.450000X0*%
%ADD29RoundRect,0.250000X-1.250000X-0.550000X1.250000X-0.550000X1.250000X0.550000X-1.250000X0.550000X0*%
%ADD30R,1.450000X1.000000*%
%ADD31RoundRect,0.375000X-0.375000X0.625000X-0.375000X-0.625000X0.375000X-0.625000X0.375000X0.625000X0*%
%ADD32RoundRect,0.500000X-1.400000X0.500000X-1.400000X-0.500000X1.400000X-0.500000X1.400000X0.500000X0*%
%ADD33RoundRect,0.250000X-1.500000X-0.900000X1.500000X-0.900000X1.500000X0.900000X-1.500000X0.900000X0*%
%ADD34R,3.100000X2.300000*%
%ADD35RoundRect,0.250000X0.550000X-1.250000X0.550000X1.250000X-0.550000X1.250000X-0.550000X-1.250000X0*%
%ADD36RoundRect,0.102000X-0.400000X-0.200000X0.400000X-0.200000X0.400000X0.200000X-0.400000X0.200000X0*%
%ADD37RoundRect,0.102000X-0.200000X-0.400000X0.200000X-0.400000X0.200000X0.400000X-0.200000X0.400000X0*%
%ADD38RoundRect,0.102000X-0.725000X-0.725000X0.725000X-0.725000X0.725000X0.725000X-0.725000X0.725000X0*%
%ADD39RoundRect,0.102000X-0.350000X-0.350000X0.350000X-0.350000X0.350000X0.350000X-0.350000X0.350000X0*%
%ADD40RoundRect,0.250000X-1.050000X-1.050000X1.050000X-1.050000X1.050000X1.050000X-1.050000X1.050000X0*%
%ADD41R,2.600000X2.600000*%
%ADD42C,2.600000*%
%ADD43RoundRect,0.150000X-1.050000X-0.150000X1.050000X-0.150000X1.050000X0.150000X-1.050000X0.150000X0*%
%ADD44R,1.500000X2.200000*%
%ADD45RoundRect,0.250000X0.312500X0.625000X-0.312500X0.625000X-0.312500X-0.625000X0.312500X-0.625000X0*%
%ADD46R,1.000000X1.000000*%
%ADD47RoundRect,0.250000X0.450000X-0.262500X0.450000X0.262500X-0.450000X0.262500X-0.450000X-0.262500X0*%
%ADD48RoundRect,0.150000X1.050000X0.150000X-1.050000X0.150000X-1.050000X-0.150000X1.050000X-0.150000X0*%
%ADD49R,3.500000X3.500000*%
%ADD50RoundRect,0.750000X1.000000X-0.750000X1.000000X0.750000X-1.000000X0.750000X-1.000000X-0.750000X0*%
%ADD51RoundRect,0.875000X0.875000X-0.875000X0.875000X0.875000X-0.875000X0.875000X-0.875000X-0.875000X0*%
%ADD52RoundRect,0.250000X-0.325000X-0.650000X0.325000X-0.650000X0.325000X0.650000X-0.325000X0.650000X0*%
%ADD53R,2.179320X1.620520*%
G04 APERTURE END LIST*
D10*
G04 #@! TO.C,U2*
X96024000Y-54479000D02*
X94374000Y-54479000D01*
X94374000Y-53489000D01*
X95034000Y-52829000D01*
X96024000Y-52829000D01*
X96024000Y-54479000D01*
G36*
X96024000Y-54479000D02*
G01*
X94374000Y-54479000D01*
X94374000Y-53489000D01*
X95034000Y-52829000D01*
X96024000Y-52829000D01*
X96024000Y-54479000D01*
G37*
G04 #@! TD*
D11*
G04 #@! TO.C,S1*
X57750000Y-56300000D03*
X54250000Y-56300000D03*
D12*
X60500000Y-57100000D03*
X60500000Y-55500000D03*
X51500000Y-55500000D03*
X60500000Y-60500000D03*
X60500000Y-58900000D03*
X51500000Y-60500000D03*
X51500000Y-58900000D03*
G04 #@! TD*
D13*
G04 #@! TO.C,C12*
X54762400Y-125730000D03*
X50637400Y-125730000D03*
G04 #@! TD*
D14*
G04 #@! TO.C,R29*
X140702000Y-127954500D03*
X140702000Y-125029500D03*
G04 #@! TD*
D15*
G04 #@! TO.C,C20*
X83000000Y-51725000D03*
X83000000Y-53275000D03*
G04 #@! TD*
G04 #@! TO.C,C22*
X87000000Y-53275000D03*
X87000000Y-51725000D03*
G04 #@! TD*
G04 #@! TO.C,C21*
X85000000Y-53275000D03*
X85000000Y-51725000D03*
G04 #@! TD*
D16*
G04 #@! TO.C,R8*
X110222000Y-103585000D03*
X110222000Y-105410000D03*
G04 #@! TD*
D17*
G04 #@! TO.C,U9*
X103872000Y-107950000D03*
X101332000Y-107950000D03*
X101332000Y-115570000D03*
X103872000Y-115570000D03*
G04 #@! TD*
D18*
G04 #@! TO.C,R64*
X69746500Y-115062000D03*
X67921500Y-115062000D03*
G04 #@! TD*
D19*
G04 #@! TO.C,TP1*
X108000000Y-67000000D03*
G04 #@! TD*
D20*
G04 #@! TO.C,C17*
X63600000Y-101587000D03*
X63600000Y-103137000D03*
G04 #@! TD*
D14*
G04 #@! TO.C,R34*
X95236000Y-124968000D03*
X95236000Y-127893000D03*
G04 #@! TD*
D21*
G04 #@! TO.C,C1*
X87800000Y-59300000D03*
X86250000Y-59300000D03*
G04 #@! TD*
D11*
G04 #@! TO.C,S5*
X133250000Y-56300000D03*
X136750000Y-56300000D03*
D12*
X139500000Y-57100000D03*
X139500000Y-55500000D03*
X130500000Y-55500000D03*
X139500000Y-60500000D03*
X139500000Y-58900000D03*
X130500000Y-60500000D03*
X130500000Y-58900000D03*
G04 #@! TD*
D14*
G04 #@! TO.C,R36*
X76948000Y-124968000D03*
X76948000Y-127893000D03*
G04 #@! TD*
D19*
G04 #@! TO.C,TP6*
X74000000Y-82000000D03*
G04 #@! TD*
D14*
G04 #@! TO.C,R13*
X140702000Y-118872000D03*
X140702000Y-121797000D03*
G04 #@! TD*
D22*
G04 #@! TO.C,U1*
X61087000Y-115932000D03*
X62357000Y-115932000D03*
X63627000Y-115932000D03*
X64897000Y-115932000D03*
X64897000Y-108932000D03*
X63627000Y-108932000D03*
X62357000Y-108932000D03*
X61087000Y-108932000D03*
G04 #@! TD*
D14*
G04 #@! TO.C,R33*
X104267000Y-124968000D03*
X104267000Y-127893000D03*
G04 #@! TD*
D23*
G04 #@! TO.C,R55*
X63790500Y-88401500D03*
X66715500Y-88401500D03*
G04 #@! TD*
D11*
G04 #@! TO.C,S3*
X54250000Y-78300000D03*
X57750000Y-78300000D03*
D12*
X60500000Y-79100000D03*
X60500000Y-77500000D03*
X51500000Y-77500000D03*
X60500000Y-82500000D03*
X60500000Y-80900000D03*
X51500000Y-82500000D03*
X51500000Y-80900000D03*
G04 #@! TD*
D24*
G04 #@! TO.C,C2*
X140716000Y-130149600D03*
X137766000Y-130149600D03*
G04 #@! TD*
D25*
G04 #@! TO.C,H4*
X55000000Y-49000000D03*
G04 #@! TD*
D26*
G04 #@! TO.C,Q2*
X128510000Y-125984000D03*
D27*
X128510000Y-123444000D03*
X128510000Y-120904000D03*
G04 #@! TD*
D17*
G04 #@! TO.C,U11*
X85725000Y-107950000D03*
X83185000Y-107950000D03*
X83185000Y-115570000D03*
X85725000Y-115570000D03*
G04 #@! TD*
D26*
G04 #@! TO.C,Q4*
X110222000Y-125984000D03*
D27*
X110222000Y-123444000D03*
X110222000Y-120904000D03*
G04 #@! TD*
D21*
G04 #@! TO.C,C14*
X60175000Y-120200000D03*
X58625000Y-120200000D03*
G04 #@! TD*
D18*
G04 #@! TO.C,R39*
X65786000Y-83566000D03*
X63961000Y-83566000D03*
G04 #@! TD*
D28*
G04 #@! TO.C,R48*
X63857500Y-91917500D03*
X65682500Y-91917500D03*
G04 #@! TD*
D16*
G04 #@! TO.C,R3*
X117348000Y-53514000D03*
X117348000Y-55339000D03*
G04 #@! TD*
G04 #@! TO.C,R7*
X119366000Y-103585000D03*
X119366000Y-105410000D03*
G04 #@! TD*
D28*
G04 #@! TO.C,R45*
X63961000Y-58928000D03*
X65786000Y-58928000D03*
G04 #@! TD*
D29*
G04 #@! TO.C,C10*
X50378000Y-119761000D03*
X54778000Y-119761000D03*
G04 #@! TD*
D19*
G04 #@! TO.C,TP5*
X74000000Y-72000000D03*
G04 #@! TD*
D17*
G04 #@! TO.C,U7*
X121906000Y-107950000D03*
X119366000Y-107950000D03*
X119366000Y-115570000D03*
X121906000Y-115570000D03*
G04 #@! TD*
D30*
G04 #@! TO.C,BR1*
X54044000Y-130080000D03*
X59494000Y-130080000D03*
X54044000Y-134080000D03*
X59494000Y-134080000D03*
G04 #@! TD*
D17*
G04 #@! TO.C,U8*
X112762000Y-107950000D03*
X110222000Y-107950000D03*
X110222000Y-115570000D03*
X112762000Y-115570000D03*
G04 #@! TD*
D31*
G04 #@! TO.C,U13*
X70600000Y-48500000D03*
X68300000Y-48500000D03*
D32*
X68300000Y-54800000D03*
D31*
X66000000Y-48500000D03*
G04 #@! TD*
D33*
G04 #@! TO.C,De1*
X53053000Y-99568000D03*
X58453000Y-99568000D03*
G04 #@! TD*
D14*
G04 #@! TO.C,R19*
X86092000Y-118995000D03*
X86092000Y-121920000D03*
G04 #@! TD*
G04 #@! TO.C,R17*
X104267000Y-118995000D03*
X104267000Y-121920000D03*
G04 #@! TD*
D34*
G04 #@! TO.C,F1*
X65000000Y-127700000D03*
X65000000Y-120300000D03*
G04 #@! TD*
D14*
G04 #@! TO.C,R20*
X76948000Y-118995000D03*
X76948000Y-121920000D03*
G04 #@! TD*
D16*
G04 #@! TO.C,R5*
X137908000Y-103585000D03*
X137908000Y-105410000D03*
G04 #@! TD*
G04 #@! TO.C,R11*
X83000000Y-103585000D03*
X83000000Y-105410000D03*
G04 #@! TD*
D35*
G04 #@! TO.C,C11*
X76000000Y-53200000D03*
X76000000Y-48800000D03*
G04 #@! TD*
D11*
G04 #@! TO.C,S7*
X133250000Y-78300000D03*
X136750000Y-78300000D03*
D12*
X139500000Y-79100000D03*
X139500000Y-77500000D03*
X130500000Y-77500000D03*
X139500000Y-82500000D03*
X139500000Y-80900000D03*
X130500000Y-82500000D03*
X130500000Y-80900000D03*
G04 #@! TD*
D16*
G04 #@! TO.C,R10*
X92188000Y-103585000D03*
X92188000Y-105410000D03*
G04 #@! TD*
D18*
G04 #@! TO.C,R66*
X69746500Y-112400000D03*
X67921500Y-112400000D03*
G04 #@! TD*
D36*
G04 #@! TO.C,U2*
X91274000Y-51629000D03*
X91274000Y-52429000D03*
X91274000Y-53229000D03*
X91274000Y-54029000D03*
X91274000Y-54829000D03*
X91274000Y-55629000D03*
X91274000Y-56429000D03*
X91274000Y-57229000D03*
X91274000Y-58029000D03*
X91274000Y-58829000D03*
X91274000Y-59629000D03*
D37*
X92374000Y-60529000D03*
X93174000Y-60529000D03*
X93974000Y-60529000D03*
X94774000Y-60529000D03*
X95574000Y-60529000D03*
X96374000Y-60529000D03*
X97174000Y-60529000D03*
X97974000Y-60529000D03*
X98774000Y-60529000D03*
X99574000Y-60529000D03*
X100374000Y-60529000D03*
X101174000Y-60529000D03*
X101974000Y-60529000D03*
D36*
X103074000Y-59629000D03*
X103074000Y-58829000D03*
X103074000Y-58029000D03*
X103074000Y-57229000D03*
X103074000Y-56429000D03*
X103074000Y-55629000D03*
X103074000Y-54829000D03*
X103074000Y-54029000D03*
X103074000Y-53229000D03*
X103074000Y-52429000D03*
X103074000Y-51629000D03*
D37*
X101974000Y-50729000D03*
X101174000Y-50729000D03*
X100374000Y-50729000D03*
X99574000Y-50729000D03*
X98774000Y-50729000D03*
X97974000Y-50729000D03*
X97174000Y-50729000D03*
X96374000Y-50729000D03*
X95574000Y-50729000D03*
X94774000Y-50729000D03*
X93974000Y-50729000D03*
X93174000Y-50729000D03*
X92374000Y-50729000D03*
D38*
X97174000Y-53654000D03*
X99149000Y-53654000D03*
X99149000Y-55629000D03*
X99149000Y-57604000D03*
X97174000Y-57604000D03*
X95199000Y-57604000D03*
X95199000Y-55629000D03*
X97174000Y-55629000D03*
D39*
X103124000Y-50679000D03*
X103124000Y-60579000D03*
X91224000Y-60579000D03*
X91224000Y-50679000D03*
G04 #@! TD*
D19*
G04 #@! TO.C,TP3*
X115000000Y-61000000D03*
G04 #@! TD*
D14*
G04 #@! TO.C,R30*
X131558000Y-124968000D03*
X131558000Y-127893000D03*
G04 #@! TD*
D28*
G04 #@! TO.C,R42*
X125175000Y-71374000D03*
X127000000Y-71374000D03*
G04 #@! TD*
D14*
G04 #@! TO.C,R35*
X86092000Y-124968000D03*
X86092000Y-127893000D03*
G04 #@! TD*
G04 #@! TO.C,R32*
X113270000Y-124968000D03*
X113270000Y-127893000D03*
G04 #@! TD*
D18*
G04 #@! TO.C,R50*
X127000000Y-69088000D03*
X125175000Y-69088000D03*
G04 #@! TD*
D26*
G04 #@! TO.C,Q7*
X83044000Y-125984000D03*
D27*
X83044000Y-123444000D03*
X83044000Y-120904000D03*
G04 #@! TD*
D18*
G04 #@! TO.C,R40*
X65657500Y-94751500D03*
X63832500Y-94751500D03*
G04 #@! TD*
D21*
G04 #@! TO.C,C15*
X60175000Y-122682000D03*
X58625000Y-122682000D03*
G04 #@! TD*
D40*
G04 #@! TO.C,J2*
X84455000Y-137500000D03*
D41*
X89535000Y-137500000D03*
D42*
X94615000Y-137500000D03*
X99695000Y-137500000D03*
X104775000Y-137500000D03*
X109855000Y-137500000D03*
X114935000Y-137500000D03*
X120015000Y-137500000D03*
X125095000Y-137500000D03*
X130175000Y-137500000D03*
G04 #@! TD*
D43*
G04 #@! TO.C,U4*
X82094000Y-83693000D03*
X82094000Y-84963000D03*
X82094000Y-86233000D03*
X82094000Y-87503000D03*
X82094000Y-88773000D03*
X82094000Y-90043000D03*
X82094000Y-91313000D03*
X82094000Y-92583000D03*
X88594000Y-92583000D03*
X88594000Y-91313000D03*
X88594000Y-90043000D03*
X88594000Y-88773000D03*
X88594000Y-87503000D03*
X88594000Y-86233000D03*
X88594000Y-84963000D03*
X88594000Y-83693000D03*
G04 #@! TD*
D16*
G04 #@! TO.C,R12*
X74408000Y-103585000D03*
X74408000Y-105410000D03*
G04 #@! TD*
D14*
G04 #@! TO.C,R15*
X122414000Y-118933500D03*
X122414000Y-121858500D03*
G04 #@! TD*
G04 #@! TO.C,R60*
X99695000Y-68514500D03*
X99695000Y-71439500D03*
G04 #@! TD*
D44*
G04 #@! TO.C,L1*
X56286000Y-106578000D03*
X49886000Y-106578000D03*
G04 #@! TD*
D17*
G04 #@! TO.C,U10*
X94728000Y-107950000D03*
X92188000Y-107950000D03*
X92188000Y-115570000D03*
X94728000Y-115570000D03*
G04 #@! TD*
D28*
G04 #@! TO.C,R41*
X125175000Y-60452000D03*
X127000000Y-60452000D03*
G04 #@! TD*
D45*
G04 #@! TO.C,R63*
X66562500Y-105664000D03*
X63637500Y-105664000D03*
G04 #@! TD*
G04 #@! TO.C,R59*
X127192500Y-88392000D03*
X124267500Y-88392000D03*
G04 #@! TD*
D46*
G04 #@! TO.C,J1*
X109474000Y-53467000D03*
D11*
X110744000Y-53467000D03*
X109474000Y-54737000D03*
X110744000Y-54737000D03*
X109474000Y-56007000D03*
X110744000Y-56007000D03*
G04 #@! TD*
D14*
G04 #@! TO.C,R18*
X95236000Y-118933500D03*
X95236000Y-121858500D03*
G04 #@! TD*
D47*
G04 #@! TO.C,R62*
X97028000Y-69977000D03*
X97028000Y-68152000D03*
G04 #@! TD*
D19*
G04 #@! TO.C,TP2*
X74000000Y-62000000D03*
G04 #@! TD*
D16*
G04 #@! TO.C,R2*
X119634000Y-53467000D03*
X119634000Y-55292000D03*
G04 #@! TD*
D24*
G04 #@! TO.C,C7*
X95250000Y-129950000D03*
X92300000Y-129950000D03*
G04 #@! TD*
D11*
G04 #@! TO.C,S8*
X133250000Y-89300000D03*
X136750000Y-89300000D03*
D12*
X139500000Y-90100000D03*
X139500000Y-88500000D03*
X130500000Y-88500000D03*
X139500000Y-93500000D03*
X139500000Y-91900000D03*
X130500000Y-93500000D03*
X130500000Y-91900000D03*
G04 #@! TD*
D11*
G04 #@! TO.C,S4*
X54250000Y-89300000D03*
X57750000Y-89300000D03*
D12*
X60500000Y-90100000D03*
X60500000Y-88500000D03*
X51500000Y-88500000D03*
X60500000Y-93500000D03*
X60500000Y-91900000D03*
X51500000Y-93500000D03*
X51500000Y-91900000D03*
G04 #@! TD*
D26*
G04 #@! TO.C,Q5*
X101266000Y-125984000D03*
D27*
X101266000Y-123444000D03*
X101266000Y-120904000D03*
G04 #@! TD*
D48*
G04 #@! TO.C,U3*
X103707000Y-92329000D03*
X103707000Y-91059000D03*
X103707000Y-89789000D03*
X103707000Y-88519000D03*
X103707000Y-87249000D03*
X103707000Y-85979000D03*
X103707000Y-84709000D03*
X103707000Y-83439000D03*
X97207000Y-83439000D03*
X97207000Y-84709000D03*
X97207000Y-85979000D03*
X97207000Y-87249000D03*
X97207000Y-88519000D03*
X97207000Y-89789000D03*
X97207000Y-91059000D03*
X97207000Y-92329000D03*
G04 #@! TD*
D18*
G04 #@! TO.C,R49*
X127000000Y-58166000D03*
X125175000Y-58166000D03*
G04 #@! TD*
D24*
G04 #@! TO.C,C4*
X122375000Y-129950000D03*
X119425000Y-129950000D03*
G04 #@! TD*
D18*
G04 #@! TO.C,R38*
X65786000Y-72644000D03*
X63961000Y-72644000D03*
G04 #@! TD*
D29*
G04 #@! TO.C,C19*
X50378000Y-113792000D03*
X54778000Y-113792000D03*
G04 #@! TD*
D25*
G04 #@! TO.C,H2*
X139000000Y-139000000D03*
G04 #@! TD*
D16*
G04 #@! TO.C,R6*
X128510000Y-103585000D03*
X128510000Y-105410000D03*
G04 #@! TD*
D11*
G04 #@! TO.C,S2*
X54250000Y-67300000D03*
X57750000Y-67300000D03*
D12*
X60500000Y-68100000D03*
X60500000Y-66500000D03*
X51500000Y-66500000D03*
X60500000Y-71500000D03*
X60500000Y-69900000D03*
X51500000Y-71500000D03*
X51500000Y-69900000D03*
G04 #@! TD*
D25*
G04 #@! TO.C,H1*
X55000000Y-139000000D03*
G04 #@! TD*
D24*
G04 #@! TO.C,C3*
X131550000Y-129950000D03*
X128600000Y-129950000D03*
G04 #@! TD*
D45*
G04 #@! TO.C,R56*
X127000000Y-55626000D03*
X124075000Y-55626000D03*
G04 #@! TD*
D16*
G04 #@! TO.C,R61*
X79502000Y-67540500D03*
X79502000Y-69365500D03*
G04 #@! TD*
D26*
G04 #@! TO.C,Q1*
X137654000Y-125984000D03*
D27*
X137654000Y-123444000D03*
X137654000Y-120904000D03*
G04 #@! TD*
D14*
G04 #@! TO.C,R16*
X113270000Y-118933500D03*
X113270000Y-121858500D03*
G04 #@! TD*
D28*
G04 #@! TO.C,R1*
X85962000Y-57268000D03*
X87787000Y-57268000D03*
G04 #@! TD*
D11*
G04 #@! TO.C,S9*
X86007000Y-67300000D03*
X89507000Y-67300000D03*
D12*
X92257000Y-68100000D03*
X92257000Y-66500000D03*
X83257000Y-66500000D03*
X92257000Y-71500000D03*
X92257000Y-69900000D03*
X83257000Y-71500000D03*
X83257000Y-69900000D03*
G04 #@! TD*
D28*
G04 #@! TO.C,R43*
X125175000Y-82550000D03*
X127000000Y-82550000D03*
G04 #@! TD*
D18*
G04 #@! TO.C,R37*
X65786000Y-61468000D03*
X63961000Y-61468000D03*
G04 #@! TD*
D49*
G04 #@! TO.C,J3*
X70300000Y-131000000D03*
D50*
X70300000Y-137000000D03*
D51*
X75000000Y-134000000D03*
G04 #@! TD*
D24*
G04 #@! TO.C,C8*
X86100000Y-129925000D03*
X83150000Y-129925000D03*
G04 #@! TD*
D23*
G04 #@! TO.C,R54*
X63919000Y-77470000D03*
X66844000Y-77470000D03*
G04 #@! TD*
G04 #@! TO.C,R53*
X63830000Y-66588000D03*
X66755000Y-66588000D03*
G04 #@! TD*
D17*
G04 #@! TO.C,U12*
X76770000Y-107950000D03*
X74230000Y-107950000D03*
X74230000Y-115570000D03*
X76770000Y-115570000D03*
G04 #@! TD*
D21*
G04 #@! TO.C,C13*
X60175000Y-118000000D03*
X58625000Y-118000000D03*
G04 #@! TD*
D15*
G04 #@! TO.C,C18*
X58623200Y-110465200D03*
X58623200Y-108915200D03*
G04 #@! TD*
D11*
G04 #@! TO.C,S6*
X133250000Y-67300000D03*
X136750000Y-67300000D03*
D12*
X139500000Y-68100000D03*
X139500000Y-66500000D03*
X130500000Y-66500000D03*
X139500000Y-71500000D03*
X139500000Y-69900000D03*
X130500000Y-71500000D03*
X130500000Y-69900000D03*
G04 #@! TD*
D28*
G04 #@! TO.C,R46*
X63914000Y-69850000D03*
X65739000Y-69850000D03*
G04 #@! TD*
G04 #@! TO.C,R47*
X63961000Y-80772000D03*
X65786000Y-80772000D03*
G04 #@! TD*
D17*
G04 #@! TO.C,U6*
X131050000Y-107950000D03*
X128510000Y-107950000D03*
X128510000Y-115570000D03*
X131050000Y-115570000D03*
G04 #@! TD*
D52*
G04 #@! TO.C,C9*
X76950000Y-130025000D03*
X79900000Y-130025000D03*
G04 #@! TD*
D16*
G04 #@! TO.C,R9*
X101332000Y-103585000D03*
X101332000Y-105410000D03*
G04 #@! TD*
D20*
G04 #@! TO.C,C16*
X66600000Y-101587000D03*
X66600000Y-103137000D03*
G04 #@! TD*
D24*
G04 #@! TO.C,C6*
X104125000Y-129925000D03*
X101175000Y-129925000D03*
G04 #@! TD*
D28*
G04 #@! TO.C,R65*
X67898000Y-108839000D03*
X69723000Y-108839000D03*
G04 #@! TD*
D18*
G04 #@! TO.C,R51*
X127000000Y-80264000D03*
X125175000Y-80264000D03*
G04 #@! TD*
D24*
G04 #@! TO.C,C5*
X113250000Y-129900000D03*
X110300000Y-129900000D03*
G04 #@! TD*
D19*
G04 #@! TO.C,TP4*
X107899200Y-61061600D03*
G04 #@! TD*
D26*
G04 #@! TO.C,Q8*
X73900000Y-125984000D03*
D27*
X73900000Y-123444000D03*
X73900000Y-120904000D03*
G04 #@! TD*
D26*
G04 #@! TO.C,Q6*
X92188000Y-125984000D03*
D27*
X92188000Y-123444000D03*
X92188000Y-120904000D03*
G04 #@! TD*
D28*
G04 #@! TO.C,R44*
X125325500Y-93472000D03*
X127150500Y-93472000D03*
G04 #@! TD*
D45*
G04 #@! TO.C,R57*
X127000000Y-66294000D03*
X124075000Y-66294000D03*
G04 #@! TD*
D14*
G04 #@! TO.C,R14*
X131558000Y-118933500D03*
X131558000Y-121858500D03*
G04 #@! TD*
D18*
G04 #@! TO.C,R52*
X127150500Y-91186000D03*
X125325500Y-91186000D03*
G04 #@! TD*
D26*
G04 #@! TO.C,Q3*
X119366000Y-125984000D03*
D27*
X119366000Y-123444000D03*
X119366000Y-120904000D03*
G04 #@! TD*
D16*
G04 #@! TO.C,R4*
X115062000Y-53467000D03*
X115062000Y-55292000D03*
G04 #@! TD*
D14*
G04 #@! TO.C,R31*
X122414000Y-124968000D03*
X122414000Y-127893000D03*
G04 #@! TD*
D45*
G04 #@! TO.C,R58*
X127192500Y-77470000D03*
X124267500Y-77470000D03*
G04 #@! TD*
D25*
G04 #@! TO.C,H5*
X113000000Y-83000000D03*
G04 #@! TD*
G04 #@! TO.C,H3*
X139000000Y-49000000D03*
G04 #@! TD*
D17*
G04 #@! TO.C,U5*
X140448000Y-107950000D03*
X137908000Y-107950000D03*
X137908000Y-115570000D03*
X140448000Y-115570000D03*
G04 #@! TD*
D53*
G04 #@! TO.C,D1*
X63246000Y-135082280D03*
X63246000Y-130860800D03*
G04 #@! TD*
M02*
