M48
; DRILL file KiCad 10.0.1 date 2026-06-01T13:42:53
; FORMAT={-:-/ absolute / metric / decimal}
; #@! TF.CreationDate,2026-06-01T13:42:53+01:00
; #@! TF.GenerationSoftware,Kicad,Pcbnew,10.0.1
; #@! TF.FileFunction,NonPlated,1,2,NPTH
FMAT,2
METRIC
; #@! TA.AperFunction,NonPlated,NPTH,ComponentDrill
T1C1.000
; #@! TA.AperFunction,NonPlated,NPTH,ComponentDrill
T2C3.500
%
G90
G05
T1
X54.25Y-56.3
X54.25Y-67.3
X54.25Y-78.3
X54.25Y-89.3
X57.75Y-56.3
X57.75Y-67.3
X57.75Y-78.3
X57.75Y-89.3
X86.007Y-67.3
X89.507Y-67.3
X133.25Y-56.3
X133.25Y-67.3
X133.25Y-78.3
X133.25Y-89.3
X136.75Y-56.3
X136.75Y-67.3
X136.75Y-78.3
X136.75Y-89.3
T2
X55.0Y-49.0
X55.0Y-139.0
X113.0Y-83.0
X139.0Y-49.0
X139.0Y-139.0
M30
