G04 #@! TF.GenerationSoftware,KiCad,Pcbnew,10.0.1*
G04 #@! TF.CreationDate,2026-06-01T13:42:42+01:00*
G04 #@! TF.ProjectId,hw-controller,68772d63-6f6e-4747-926f-6c6c65722e6b,rev?*
G04 #@! TF.SameCoordinates,Original*
G04 #@! TF.FileFunction,Copper,L2,Bot*
G04 #@! TF.FilePolarity,Positive*
%FSLAX46Y46*%
G04 Gerber Fmt 4.6, Leading zero omitted, Abs format (unit mm)*
G04 Created by KiCad (PCBNEW 10.0.1) date 2026-06-01 13:42:42*
%MOMM*%
%LPD*%
G01*
G04 APERTURE LIST*
G04 Aperture macros list*
%AMRoundRect*
0 Rectangle with rounded corners*
0 $1 Rounding radius*
0 $2 $3 $4 $5 $6 $7 $8 $9 X,Y pos of 4 corners*
0 Add a 4 corners polygon primitive as box body*
4,1,4,$2,$3,$4,$5,$6,$7,$8,$9,$2,$3,0*
0 Add four circle primitives for the rounded corners*
1,1,$1+$1,$2,$3*
1,1,$1+$1,$4,$5*
1,1,$1+$1,$6,$7*
1,1,$1+$1,$8,$9*
0 Add four rect primitives between the rounded corners*
20,1,$1+$1,$2,$3,$4,$5,0*
20,1,$1+$1,$4,$5,$6,$7,0*
20,1,$1+$1,$6,$7,$8,$9,0*
20,1,$1+$1,$8,$9,$2,$3,0*%
G04 Aperture macros list end*
G04 #@! TA.AperFunction,ComponentPad*
%ADD10R,2.000000X1.905000*%
G04 #@! TD*
G04 #@! TA.AperFunction,ComponentPad*
%ADD11O,2.000000X1.905000*%
G04 #@! TD*
G04 #@! TA.AperFunction,ComponentPad*
%ADD12RoundRect,0.250000X-1.050000X-1.050000X1.050000X-1.050000X1.050000X1.050000X-1.050000X1.050000X0*%
G04 #@! TD*
G04 #@! TA.AperFunction,ComponentPad*
%ADD13R,2.600000X2.600000*%
G04 #@! TD*
G04 #@! TA.AperFunction,ComponentPad*
%ADD14C,2.600000*%
G04 #@! TD*
G04 #@! TA.AperFunction,ComponentPad*
%ADD15R,1.000000X1.000000*%
G04 #@! TD*
G04 #@! TA.AperFunction,ComponentPad*
%ADD16C,1.000000*%
G04 #@! TD*
G04 #@! TA.AperFunction,ComponentPad*
%ADD17R,3.500000X3.500000*%
G04 #@! TD*
G04 #@! TA.AperFunction,ComponentPad*
%ADD18RoundRect,0.750000X1.000000X-0.750000X1.000000X0.750000X-1.000000X0.750000X-1.000000X-0.750000X0*%
G04 #@! TD*
G04 #@! TA.AperFunction,ComponentPad*
%ADD19RoundRect,0.875000X0.875000X-0.875000X0.875000X0.875000X-0.875000X0.875000X-0.875000X-0.875000X0*%
G04 #@! TD*
G04 #@! TA.AperFunction,ViaPad*
%ADD20C,0.600000*%
G04 #@! TD*
G04 #@! TA.AperFunction,ViaPad*
%ADD21C,0.800000*%
G04 #@! TD*
G04 #@! TA.AperFunction,Conductor*
%ADD22C,0.400000*%
G04 #@! TD*
G04 #@! TA.AperFunction,Conductor*
%ADD23C,1.000000*%
G04 #@! TD*
G04 APERTURE END LIST*
D10*
G04 #@! TO.P,Q2,1,A1_1*
G04 #@! TO.N,Net-(J2-Pin_9)*
X128510000Y-125984000D03*
D11*
G04 #@! TO.P,Q2,2,A2_2*
G04 #@! TO.N,/24VAC1*
X128510000Y-123444000D03*
G04 #@! TO.P,Q2,3,G_3*
G04 #@! TO.N,Net-(Q2-G)*
X128510000Y-120904000D03*
G04 #@! TD*
D10*
G04 #@! TO.P,Q4,1,A1_1*
G04 #@! TO.N,Net-(J2-Pin_7)*
X110222000Y-125984000D03*
D11*
G04 #@! TO.P,Q4,2,A2_2*
G04 #@! TO.N,/24VAC1*
X110222000Y-123444000D03*
G04 #@! TO.P,Q4,3,G_3*
G04 #@! TO.N,Net-(Q4-G)*
X110222000Y-120904000D03*
G04 #@! TD*
D10*
G04 #@! TO.P,Q7,1,A1_1*
G04 #@! TO.N,Net-(J2-Pin_4)*
X83044000Y-125984000D03*
D11*
G04 #@! TO.P,Q7,2,A2_2*
G04 #@! TO.N,/24VAC1*
X83044000Y-123444000D03*
G04 #@! TO.P,Q7,3,G_3*
G04 #@! TO.N,Net-(Q7-G)*
X83044000Y-120904000D03*
G04 #@! TD*
D12*
G04 #@! TO.P,J2,1,Pin_1_1*
G04 #@! TO.N,/24VAC2*
X84455000Y-137500000D03*
D13*
G04 #@! TO.P,J2,2,Pin_2_2*
X89535000Y-137500000D03*
D14*
G04 #@! TO.P,J2,3,Pin_3_3*
G04 #@! TO.N,Net-(J2-Pin_3)*
X94615000Y-137500000D03*
G04 #@! TO.P,J2,4,Pin_4_4*
G04 #@! TO.N,Net-(J2-Pin_4)*
X99695000Y-137500000D03*
G04 #@! TO.P,J2,5,Pin_5_5*
G04 #@! TO.N,Net-(J2-Pin_5)*
X104775000Y-137500000D03*
G04 #@! TO.P,J2,6,Pin_6_6*
G04 #@! TO.N,Net-(J2-Pin_6)*
X109855000Y-137500000D03*
G04 #@! TO.P,J2,7,Pin_7_7*
G04 #@! TO.N,Net-(J2-Pin_7)*
X114935000Y-137500000D03*
G04 #@! TO.P,J2,8,Pin_8_8*
G04 #@! TO.N,Net-(J2-Pin_8)*
X120015000Y-137500000D03*
G04 #@! TO.P,J2,9,Pin_9_9*
G04 #@! TO.N,Net-(J2-Pin_9)*
X125095000Y-137500000D03*
G04 #@! TO.P,J2,10,Pin_10_10*
G04 #@! TO.N,Net-(J2-Pin_10)*
X130175000Y-137500000D03*
G04 #@! TD*
D15*
G04 #@! TO.P,J1,1,Pin_1_1*
G04 #@! TO.N,EN*
X109474000Y-53467000D03*
D16*
G04 #@! TO.P,J1,2,Pin_2_2*
G04 #@! TO.N,+3.3V*
X110744000Y-53467000D03*
G04 #@! TO.P,J1,3,Pin_3_3*
G04 #@! TO.N,TX*
X109474000Y-54737000D03*
G04 #@! TO.P,J1,4,Pin_4_4*
G04 #@! TO.N,GND*
X110744000Y-54737000D03*
G04 #@! TO.P,J1,5,Pin_5_5*
G04 #@! TO.N,RX*
X109474000Y-56007000D03*
G04 #@! TO.P,J1,6,Pin_6_6*
G04 #@! TO.N,SCL*
X110744000Y-56007000D03*
G04 #@! TD*
D10*
G04 #@! TO.P,Q5,1,A1_1*
G04 #@! TO.N,Net-(J2-Pin_6)*
X101266000Y-125984000D03*
D11*
G04 #@! TO.P,Q5,2,A2_2*
G04 #@! TO.N,/24VAC1*
X101266000Y-123444000D03*
G04 #@! TO.P,Q5,3,G_3*
G04 #@! TO.N,Net-(Q5-G)*
X101266000Y-120904000D03*
G04 #@! TD*
D10*
G04 #@! TO.P,Q1,1,A1_1*
G04 #@! TO.N,Net-(J2-Pin_10)*
X137654000Y-125984000D03*
D11*
G04 #@! TO.P,Q1,2,A2_2*
G04 #@! TO.N,/24VAC1*
X137654000Y-123444000D03*
G04 #@! TO.P,Q1,3,G_3*
G04 #@! TO.N,Net-(Q1-G)*
X137654000Y-120904000D03*
G04 #@! TD*
D17*
G04 #@! TO.P,J3,1*
G04 #@! TO.N,/24VAC1*
X70300000Y-131000000D03*
D18*
G04 #@! TO.P,J3,2*
G04 #@! TO.N,/24VAC2*
X70300000Y-137000000D03*
D19*
G04 #@! TO.P,J3,3*
G04 #@! TO.N,N/C*
X75000000Y-134000000D03*
G04 #@! TD*
D10*
G04 #@! TO.P,Q8,1,A1_1*
G04 #@! TO.N,Net-(J2-Pin_3)*
X73900000Y-125984000D03*
D11*
G04 #@! TO.P,Q8,2,A2_2*
G04 #@! TO.N,/24VAC1*
X73900000Y-123444000D03*
G04 #@! TO.P,Q8,3,G_3*
G04 #@! TO.N,Net-(Q8-G)*
X73900000Y-120904000D03*
G04 #@! TD*
D10*
G04 #@! TO.P,Q6,1,A1_1*
G04 #@! TO.N,Net-(J2-Pin_5)*
X92188000Y-125984000D03*
D11*
G04 #@! TO.P,Q6,2,A2_2*
G04 #@! TO.N,/24VAC1*
X92188000Y-123444000D03*
G04 #@! TO.P,Q6,3,G_3*
G04 #@! TO.N,Net-(Q6-G)*
X92188000Y-120904000D03*
G04 #@! TD*
D10*
G04 #@! TO.P,Q3,1,A1_1*
G04 #@! TO.N,Net-(J2-Pin_8)*
X119366000Y-125984000D03*
D11*
G04 #@! TO.P,Q3,2,A2_2*
G04 #@! TO.N,/24VAC1*
X119366000Y-123444000D03*
G04 #@! TO.P,Q3,3,G_3*
G04 #@! TO.N,Net-(Q3-G)*
X119366000Y-120904000D03*
G04 #@! TD*
D20*
G04 #@! TO.N,GND*
X54044000Y-133248400D03*
G04 #@! TO.N,+5V*
X60452000Y-96316800D03*
G04 #@! TO.N,GND*
X54044000Y-134080000D03*
G04 #@! TO.N,+5V*
X71522000Y-102722000D03*
G04 #@! TO.N,BTNS_PIN*
X141986000Y-57277000D03*
G04 #@! TO.N,GND*
X70675000Y-48500000D03*
X63025000Y-55500000D03*
G04 #@! TO.N,LEDR_CH5*
X108331000Y-93342000D03*
X120500000Y-60500000D03*
G04 #@! TO.N,+5V*
X139500000Y-82500000D03*
X66000000Y-48500000D03*
X121906000Y-107950000D03*
X60500000Y-93500000D03*
X139500000Y-93500000D03*
X103872000Y-107950000D03*
X85584000Y-107950000D03*
X139500000Y-71500000D03*
X83439000Y-82000000D03*
X88594000Y-91313000D03*
X140448000Y-107950000D03*
X74000000Y-82000000D03*
X139500000Y-60500000D03*
X60500000Y-82500000D03*
X88646000Y-83693000D03*
X112762000Y-107950000D03*
X76948000Y-107950000D03*
X131050000Y-107950000D03*
X94728000Y-107950000D03*
X60500000Y-60500000D03*
X60452000Y-71628000D03*
G04 #@! TO.N,GND*
X103124000Y-50679000D03*
X69746500Y-112500000D03*
X61341000Y-113665000D03*
X64643000Y-113665000D03*
X84200000Y-59300000D03*
X62484000Y-111379000D03*
X95199000Y-57604000D03*
X74000000Y-72000000D03*
D21*
X81000000Y-51758000D03*
D20*
X99149000Y-53654000D03*
X78700000Y-92583000D03*
X97174000Y-55629000D03*
X62484000Y-112522000D03*
X95199000Y-53654000D03*
X89287500Y-52362500D03*
D21*
X106426000Y-83439000D03*
D20*
X62484000Y-113665000D03*
X83257000Y-66500000D03*
X64643000Y-111379000D03*
D21*
X78400000Y-76300000D03*
D20*
X58500000Y-101600000D03*
X95199000Y-55629000D03*
X66755000Y-66588000D03*
X97174000Y-53654000D03*
X91224000Y-60579000D03*
X61341000Y-112522000D03*
X51500000Y-55500000D03*
X75500000Y-93900000D03*
X99149000Y-55629000D03*
X97174000Y-57604000D03*
X63627000Y-111379000D03*
D21*
X79629000Y-92583000D03*
D20*
X69746500Y-115062000D03*
X89225000Y-51629000D03*
X99149000Y-57604000D03*
X92257000Y-66500000D03*
X64643000Y-112522000D03*
X91224000Y-50679000D03*
X63627000Y-112522000D03*
X63627000Y-113665000D03*
X58500000Y-122732800D03*
X103124000Y-60579000D03*
X61341000Y-111379000D03*
G04 #@! TO.N,BTNS_PIN*
X62700000Y-90100000D03*
X119634000Y-55292000D03*
X92374000Y-62148000D03*
X62700000Y-79200000D03*
X108000000Y-67000000D03*
X62738000Y-68326000D03*
X62738000Y-57150000D03*
X77171000Y-62148000D03*
G04 #@! TO.N,EN*
X91274000Y-57229000D03*
G04 #@! TO.N,Net-(S5-NO_1)*
X124075000Y-66294000D03*
X127000000Y-55753000D03*
G04 #@! TO.N,Net-(S5-K_GREEN)*
X139500000Y-58900000D03*
X127000000Y-58166000D03*
G04 #@! TO.N,Net-(S4-NO_1)*
X112903000Y-76327000D03*
X78800000Y-86100000D03*
G04 #@! TO.N,Net-(S3-NO_1)*
X63919000Y-77470000D03*
X66715500Y-88401500D03*
G04 #@! TO.N,LEDR_CH3*
X69300000Y-83600000D03*
X92188000Y-100711000D03*
G04 #@! TO.N,+3.3V*
X112800000Y-53500000D03*
X89300000Y-53229000D03*
G04 #@! TO.N,LEDR_CH6*
X119366000Y-75960000D03*
X119366000Y-103585000D03*
G04 #@! TO.N,LEDG_CH1*
X91186000Y-81915000D03*
X88594000Y-84963000D03*
G04 #@! TO.N,LEDR_CH2*
X83000000Y-99822000D03*
X70256400Y-81728600D03*
G04 #@! TO.N,Net-(S7-NO_1)*
X127192500Y-77470000D03*
X124267500Y-88392000D03*
G04 #@! TO.N,Net-(S7-K_GREEN)*
X139500000Y-80900000D03*
X127000000Y-80264000D03*
G04 #@! TO.N,STATUS_LEDR_PIN*
X89027000Y-54864000D03*
X79500000Y-63850000D03*
G04 #@! TO.N,STATUS_LEDG_PIN*
X89662000Y-55753000D03*
X95377000Y-63627000D03*
G04 #@! TO.N,SIPO_SCK*
X88594000Y-90043000D03*
X97028000Y-85979000D03*
X100584000Y-82042000D03*
G04 #@! TO.N,SCL*
X115062000Y-55292000D03*
G04 #@! TO.N,RX*
X107100000Y-55600000D03*
G04 #@! TO.N,TX*
X106967983Y-54810966D03*
G04 #@! TO.N,Net-(S6-K_GREEN)*
X139500000Y-69900000D03*
X127000000Y-69088000D03*
G04 #@! TO.N,LEDG_CH6*
X114554000Y-78232000D03*
X88265000Y-78232000D03*
G04 #@! TO.N,LEDR_CH4*
X101332000Y-101614000D03*
X68400000Y-94751500D03*
G04 #@! TO.N,Net-(J2-Pin_3)*
X79900000Y-130025000D03*
G04 #@! TO.N,LEDG_CH5*
X87630000Y-77343000D03*
X113665000Y-77343000D03*
G04 #@! TO.N,LEDG_CH7*
X96012000Y-94042000D03*
X118364000Y-80264000D03*
G04 #@! TO.N,LEDG_CH8*
X97917000Y-94742000D03*
X118237000Y-91186000D03*
G04 #@! TO.N,Net-(U3-QH')*
X88594000Y-86233000D03*
X96901000Y-83439000D03*
G04 #@! TO.N,LEDR_CH1*
X77350000Y-98650000D03*
X68326000Y-61468000D03*
G04 #@! TO.N,Net-(S9-K_BLUE)*
X99695000Y-71439500D03*
X83257000Y-69900000D03*
G04 #@! TO.N,Net-(S8-K_GREEN)*
X127254000Y-91186000D03*
X139446000Y-91948000D03*
G04 #@! TO.N,LEDR_CH7*
X121000000Y-101000000D03*
X121000000Y-82550000D03*
G04 #@! TO.N,Net-(S2-NO_1)*
X66844000Y-77470000D03*
X63830000Y-66588000D03*
G04 #@! TO.N,Net-(S6-NO_1)*
X124267500Y-77470000D03*
X127000000Y-66294000D03*
G04 #@! TD*
G04 #@! TO.N,LEDR_CH3*
D22*
X69300000Y-83600000D02*
X69300000Y-83616000D01*
X69300000Y-83616000D02*
X69342000Y-83658000D01*
X69342000Y-83658000D02*
X69342000Y-93942000D01*
X69342000Y-93942000D02*
X76111000Y-100711000D01*
X76111000Y-100711000D02*
X92188000Y-100711000D01*
G04 #@! TO.N,TX*
X106967983Y-54810966D02*
X107041949Y-54737000D01*
X107041949Y-54737000D02*
X109474000Y-54737000D01*
G04 #@! TO.N,+5V*
X88594000Y-91313000D02*
X87630000Y-91313000D01*
X87630000Y-91313000D02*
X85979000Y-89662000D01*
X85979000Y-89662000D02*
X85979000Y-83693000D01*
X88646000Y-83693000D02*
X85979000Y-83693000D01*
G04 #@! TO.N,LEDR_CH2*
X83022000Y-99822000D02*
X77122000Y-99822000D01*
X77122000Y-99822000D02*
X70256400Y-92956400D01*
X70256400Y-92956400D02*
X70256400Y-81728600D01*
G04 #@! TO.N,LEDR_CH4*
X101346000Y-101614000D02*
X75414000Y-101614000D01*
X75414000Y-101614000D02*
X68542000Y-94742000D01*
X68542000Y-94742000D02*
X68409500Y-94742000D01*
X68409500Y-94742000D02*
X68400000Y-94751500D01*
G04 #@! TO.N,+5V*
X74000000Y-82000000D02*
X74000000Y-81010400D01*
X74000000Y-81010400D02*
X73609200Y-80619600D01*
X73609200Y-80619600D02*
X68833400Y-80619600D01*
X68833400Y-80619600D02*
X68453000Y-81000000D01*
X68453000Y-81000000D02*
X68453000Y-92047000D01*
X68453000Y-92047000D02*
X67000000Y-93500000D01*
X67000000Y-93500000D02*
X60500000Y-93500000D01*
G04 #@! TO.N,GND*
D23*
X54044000Y-134080000D02*
X54044000Y-132392000D01*
X54044000Y-132392000D02*
X58500000Y-127936000D01*
X58500000Y-127936000D02*
X58500000Y-122732800D01*
X58500000Y-101600000D02*
X58500000Y-122732800D01*
G04 #@! TO.N,+5V*
X60452000Y-96316800D02*
X60500000Y-96268800D01*
X60500000Y-96268800D02*
X60500000Y-82500000D01*
X60452000Y-96316800D02*
X65116800Y-96316800D01*
X65116800Y-96316800D02*
X66578500Y-97778500D01*
X76750000Y-107950000D02*
X71522000Y-102722000D01*
G04 #@! TO.N,Net-(J2-Pin_3)*
X73900000Y-125984000D02*
X73900000Y-128800000D01*
X73900000Y-128800000D02*
X75275000Y-130175000D01*
X75275000Y-130175000D02*
X79883000Y-130175000D01*
X79883000Y-130175000D02*
X84208000Y-134500000D01*
X84208000Y-134500000D02*
X93606000Y-134500000D01*
X93606000Y-134500000D02*
X94615000Y-135509000D01*
X94615000Y-135509000D02*
X94615000Y-137500000D01*
G04 #@! TO.N,BTNS_PIN*
D22*
X141986000Y-57277000D02*
X141986000Y-54864000D01*
X141986000Y-54864000D02*
X141478000Y-54356000D01*
X141478000Y-54356000D02*
X125984000Y-54356000D01*
X125984000Y-54356000D02*
X125048000Y-55292000D01*
X125048000Y-55292000D02*
X119634000Y-55292000D01*
X119634000Y-55292000D02*
X119634000Y-57531000D01*
X119634000Y-57531000D02*
X110165000Y-67000000D01*
X110165000Y-67000000D02*
X108000000Y-67000000D01*
G04 #@! TO.N,SCL*
X115062000Y-55292000D02*
X113708000Y-55292000D01*
X113708000Y-55292000D02*
X112993000Y-56007000D01*
X112993000Y-56007000D02*
X110744000Y-56007000D01*
G04 #@! TO.N,GND*
X63025000Y-55500000D02*
X63050000Y-55500000D01*
X63050000Y-55500000D02*
X66075000Y-52475000D01*
X66075000Y-52475000D02*
X67975000Y-52475000D01*
X67975000Y-52475000D02*
X70625000Y-49825000D01*
X70625000Y-49825000D02*
X70625000Y-48700000D01*
X70625000Y-48700000D02*
X70675000Y-48650000D01*
G04 #@! TO.N,+3.3V*
X89300000Y-53229000D02*
X92571000Y-53229000D01*
X92571000Y-53229000D02*
X94025000Y-51775000D01*
X94025000Y-51775000D02*
X111925000Y-51775000D01*
X111925000Y-51775000D02*
X112800000Y-52650000D01*
X112800000Y-52650000D02*
X112800000Y-53500000D01*
G04 #@! TO.N,EN*
X92579000Y-57229000D02*
X93000000Y-56808000D01*
X93000000Y-54050000D02*
X94525000Y-52525000D01*
X106433000Y-52525000D02*
X107375000Y-53467000D01*
X93000000Y-56808000D02*
X93000000Y-54050000D01*
X91274000Y-57229000D02*
X92579000Y-57229000D01*
X94525000Y-52525000D02*
X106433000Y-52525000D01*
X107375000Y-53467000D02*
X109474000Y-53467000D01*
G04 #@! TO.N,LEDR_CH5*
X116903500Y-89852500D02*
X113474500Y-89852500D01*
X117348000Y-63652000D02*
X117348000Y-89408000D01*
X120500000Y-60500000D02*
X117348000Y-63652000D01*
X109985000Y-93342000D02*
X108331000Y-93342000D01*
X117348000Y-89408000D02*
X116903500Y-89852500D01*
X113474500Y-89852500D02*
X109985000Y-93342000D01*
G04 #@! TO.N,+5V*
X141936000Y-82500000D02*
X141986000Y-82550000D01*
X139500000Y-82500000D02*
X141936000Y-82500000D01*
D23*
X103872000Y-107950000D02*
X112762000Y-107950000D01*
X60452000Y-93548000D02*
X60500000Y-93500000D01*
D22*
X139500000Y-60500000D02*
X141526000Y-60500000D01*
X141526000Y-60500000D02*
X141986000Y-60960000D01*
X141986000Y-82550000D02*
X141986000Y-93218000D01*
D23*
X112762000Y-107950000D02*
X121906000Y-107950000D01*
X76948000Y-107950000D02*
X76750000Y-107950000D01*
X71522000Y-102722000D02*
X66578500Y-97778500D01*
D22*
X60452000Y-82452000D02*
X60500000Y-82500000D01*
D23*
X63000000Y-48500000D02*
X66000000Y-48500000D01*
X76948000Y-107950000D02*
X85584000Y-107950000D01*
D22*
X141986000Y-93218000D02*
X141704000Y-93500000D01*
X141986000Y-71374000D02*
X141986000Y-82550000D01*
D23*
X131050000Y-107950000D02*
X140448000Y-107950000D01*
D22*
X141860000Y-71500000D02*
X141986000Y-71374000D01*
D23*
X60500000Y-60500000D02*
X60500000Y-51000000D01*
D22*
X139500000Y-71500000D02*
X141860000Y-71500000D01*
X85979000Y-82804000D02*
X85979000Y-83693000D01*
D23*
X60500000Y-82500000D02*
X60500000Y-71676000D01*
X94728000Y-107950000D02*
X103872000Y-107950000D01*
D22*
X141986000Y-60960000D02*
X141986000Y-71374000D01*
D23*
X121906000Y-107950000D02*
X131050000Y-107950000D01*
D22*
X85175000Y-82000000D02*
X85979000Y-82804000D01*
D23*
X85584000Y-107950000D02*
X94728000Y-107950000D01*
X60500000Y-71676000D02*
X60452000Y-71628000D01*
X60452000Y-71628000D02*
X60500000Y-71580000D01*
X60500000Y-71580000D02*
X60500000Y-60500000D01*
X60500000Y-51000000D02*
X63000000Y-48500000D01*
D22*
X83439000Y-82000000D02*
X85175000Y-82000000D01*
X141704000Y-93500000D02*
X139500000Y-93500000D01*
G04 #@! TO.N,GND*
D23*
X69724500Y-112522000D02*
X64643000Y-112522000D01*
X59088000Y-112522000D02*
X61341000Y-112522000D01*
X61341000Y-112522000D02*
X64643000Y-112522000D01*
D22*
X69746500Y-115062000D02*
X69746500Y-112500000D01*
G04 #@! TO.N,BTNS_PIN*
X62700000Y-79600000D02*
X62700000Y-68364000D01*
X101854000Y-62738000D02*
X106116000Y-67000000D01*
X106116000Y-67000000D02*
X108000000Y-67000000D01*
X92374000Y-62148000D02*
X92964000Y-62738000D01*
X62700000Y-79200000D02*
X62600000Y-79100000D01*
X62600000Y-79100000D02*
X62600000Y-79056000D01*
X92964000Y-62738000D02*
X101854000Y-62738000D01*
X72173000Y-57150000D02*
X62738000Y-57150000D01*
X62700000Y-79200000D02*
X62700000Y-90100000D01*
X62700000Y-68364000D02*
X62738000Y-68326000D01*
X77171000Y-62148000D02*
X72173000Y-57150000D01*
X62738000Y-57150000D02*
X62738000Y-68326000D01*
G04 #@! TO.N,/24VAC1*
D23*
X70300000Y-131000000D02*
X70300000Y-123700000D01*
X70556000Y-123444000D02*
X73900000Y-123444000D01*
X70200000Y-130900000D02*
X70300000Y-131000000D01*
X70300000Y-123700000D02*
X70556000Y-123444000D01*
X101266000Y-123444000D02*
X110222000Y-123444000D01*
X110222000Y-123444000D02*
X119366000Y-123444000D01*
G04 #@! TO.N,Net-(S5-NO_1)*
D22*
X124075000Y-58678000D02*
X124075000Y-66294000D01*
X127000000Y-55753000D02*
X124075000Y-58678000D01*
G04 #@! TO.N,Net-(S5-K_GREEN)*
X134874000Y-58166000D02*
X135636000Y-58928000D01*
X127000000Y-58166000D02*
X134874000Y-58166000D01*
X135636000Y-58928000D02*
X139472000Y-58928000D01*
X139472000Y-58928000D02*
X139500000Y-58900000D01*
G04 #@! TO.N,Net-(S4-NO_1)*
X112903000Y-76327000D02*
X86973000Y-76327000D01*
X86973000Y-76327000D02*
X78800000Y-84500000D01*
X78800000Y-84500000D02*
X78800000Y-86100000D01*
G04 #@! TO.N,Net-(S3-NO_1)*
X66715500Y-87289500D02*
X66715500Y-88401500D01*
X63919000Y-84493000D02*
X66715500Y-87289500D01*
X63919000Y-77470000D02*
X63919000Y-84493000D01*
G04 #@! TO.N,Net-(J2-Pin_10)*
D23*
X130175000Y-137500000D02*
X132000000Y-137500000D01*
X137654000Y-131846000D02*
X137654000Y-130021000D01*
X132000000Y-137500000D02*
X137654000Y-131846000D01*
X137654000Y-125984000D02*
X137654000Y-130021000D01*
G04 #@! TO.N,Net-(J2-Pin_9)*
X128525000Y-130556000D02*
X128525000Y-131875000D01*
X128510000Y-125984000D02*
X128510000Y-130458000D01*
X128525000Y-131875000D02*
X125095000Y-135305000D01*
X125095000Y-135305000D02*
X125095000Y-137500000D01*
G04 #@! TO.N,Net-(J2-Pin_7)*
X110222000Y-128510000D02*
X110222000Y-125984000D01*
X114935000Y-137500000D02*
X114935000Y-133223000D01*
X114935000Y-133223000D02*
X110222000Y-128510000D01*
G04 #@! TO.N,+3.3V*
D22*
X112767000Y-53467000D02*
X112800000Y-53500000D01*
X110744000Y-53467000D02*
X112767000Y-53467000D01*
G04 #@! TO.N,LEDR_CH6*
X119366000Y-75960000D02*
X119366000Y-103585000D01*
G04 #@! TO.N,LEDG_CH1*
X90551000Y-84963000D02*
X88594000Y-84963000D01*
X91186000Y-81915000D02*
X91186000Y-84328000D01*
X91186000Y-84328000D02*
X90551000Y-84963000D01*
G04 #@! TO.N,/24VAC2*
D23*
X70800000Y-137500000D02*
X70300000Y-137000000D01*
X84455000Y-137500000D02*
X70800000Y-137500000D01*
X89535000Y-137500000D02*
X84455000Y-137500000D01*
G04 #@! TO.N,Net-(S7-NO_1)*
D22*
X127127000Y-77470000D02*
X124267500Y-80329500D01*
X127192500Y-77470000D02*
X127127000Y-77470000D01*
X124267500Y-80329500D02*
X124267500Y-88392000D01*
G04 #@! TO.N,Net-(S7-K_GREEN)*
X139372000Y-80772000D02*
X139500000Y-80900000D01*
X135382000Y-80772000D02*
X139372000Y-80772000D01*
X134874000Y-80264000D02*
X135382000Y-80772000D01*
X127000000Y-80264000D02*
X134874000Y-80264000D01*
G04 #@! TO.N,STATUS_LEDR_PIN*
X79500000Y-63850000D02*
X79500000Y-61343000D01*
X89013000Y-54850000D02*
X89027000Y-54864000D01*
X79500000Y-61343000D02*
X85993000Y-54850000D01*
X85993000Y-54850000D02*
X89013000Y-54850000D01*
G04 #@! TO.N,STATUS_LEDG_PIN*
X95377000Y-63627000D02*
X91567000Y-63627000D01*
X89662000Y-61722000D02*
X89662000Y-55753000D01*
X91567000Y-63627000D02*
X89662000Y-61722000D01*
G04 #@! TO.N,SIPO_SCK*
X95250000Y-85979000D02*
X97028000Y-85979000D01*
X100584000Y-84709000D02*
X99314000Y-85979000D01*
X91186000Y-90043000D02*
X95250000Y-85979000D01*
X99314000Y-85979000D02*
X97028000Y-85979000D01*
X100584000Y-82042000D02*
X100584000Y-84709000D01*
X88594000Y-90043000D02*
X91186000Y-90043000D01*
G04 #@! TO.N,RX*
X107507000Y-56007000D02*
X107100000Y-55600000D01*
X109474000Y-56007000D02*
X107507000Y-56007000D01*
G04 #@! TO.N,Net-(S6-K_GREEN)*
X127000000Y-69088000D02*
X134620000Y-69088000D01*
X139450000Y-69850000D02*
X139500000Y-69900000D01*
X135382000Y-69850000D02*
X139450000Y-69850000D01*
X134620000Y-69088000D02*
X135382000Y-69850000D01*
G04 #@! TO.N,LEDG_CH6*
X88265000Y-78232000D02*
X114554000Y-78232000D01*
G04 #@! TO.N,Net-(J2-Pin_4)*
D23*
X89550000Y-130850000D02*
X91500000Y-132800000D01*
X99695000Y-135509000D02*
X99695000Y-137500000D01*
X84050000Y-130850000D02*
X86100000Y-130850000D01*
X83044000Y-129844000D02*
X84050000Y-130850000D01*
X83044000Y-125984000D02*
X83044000Y-129844000D01*
X86100000Y-130850000D02*
X89550000Y-130850000D01*
X91500000Y-132800000D02*
X96986000Y-132800000D01*
X96986000Y-132800000D02*
X99695000Y-135509000D01*
G04 #@! TO.N,Net-(J2-Pin_5)*
X95275400Y-130839000D02*
X100130400Y-130839000D01*
X95275400Y-130839000D02*
X92839000Y-130839000D01*
X101574600Y-132308600D02*
X104775000Y-135509000D01*
X92188000Y-130188000D02*
X92188000Y-125984000D01*
X104775000Y-137500000D02*
X104775000Y-135509000D01*
X101574600Y-132283200D02*
X101574600Y-132308600D01*
X100130400Y-130839000D02*
X101574600Y-132283200D01*
X92839000Y-130839000D02*
X92188000Y-130188000D01*
G04 #@! TO.N,Net-(J2-Pin_6)*
X102946000Y-130839000D02*
X101266000Y-129159000D01*
X105239000Y-130839000D02*
X104140000Y-130839000D01*
X109855000Y-137500000D02*
X109855000Y-135455000D01*
X109855000Y-135455000D02*
X105239000Y-130839000D01*
X101266000Y-125984000D02*
X101266000Y-129159000D01*
X104140000Y-130839000D02*
X102946000Y-130839000D01*
G04 #@! TO.N,Net-(J2-Pin_8)*
X119425000Y-136910000D02*
X119425000Y-130556000D01*
X120015000Y-137500000D02*
X119425000Y-136910000D01*
X119366000Y-130458000D02*
X119464000Y-130556000D01*
X119366000Y-125984000D02*
X119366000Y-130458000D01*
G04 #@! TO.N,LEDG_CH5*
D22*
X87630000Y-77343000D02*
X113665000Y-77343000D01*
G04 #@! TO.N,LEDG_CH7*
X118364000Y-89535000D02*
X118364000Y-80264000D01*
X117313000Y-90586000D02*
X118364000Y-89535000D01*
X110595472Y-94042000D02*
X114051472Y-90586000D01*
X114051472Y-90586000D02*
X117313000Y-90586000D01*
X96012000Y-94042000D02*
X110595472Y-94042000D01*
G04 #@! TO.N,LEDG_CH8*
X111125000Y-94742000D02*
X97917000Y-94742000D01*
X118237000Y-91186000D02*
X114681000Y-91186000D01*
X114681000Y-91186000D02*
X111125000Y-94742000D01*
G04 #@! TO.N,Net-(U3-QH')*
X88594000Y-86233000D02*
X91440000Y-86233000D01*
X91440000Y-86233000D02*
X94234000Y-83439000D01*
X94234000Y-83439000D02*
X96901000Y-83439000D01*
G04 #@! TO.N,LEDR_CH1*
X77350000Y-98650000D02*
X77350000Y-70492000D01*
X77350000Y-70492000D02*
X68326000Y-61468000D01*
G04 #@! TO.N,Net-(S9-K_BLUE)*
X99695000Y-70612000D02*
X98983000Y-69900000D01*
X98983000Y-69900000D02*
X83257000Y-69900000D01*
X99695000Y-71439500D02*
X99695000Y-70612000D01*
G04 #@! TO.N,Net-(S8-K_GREEN)*
X127254000Y-91186000D02*
X134874000Y-91186000D01*
X135636000Y-91948000D02*
X139446000Y-91948000D01*
X134874000Y-91186000D02*
X135636000Y-91948000D01*
G04 #@! TO.N,LEDR_CH7*
X121000000Y-101000000D02*
X121000000Y-82550000D01*
G04 #@! TO.N,Net-(S2-NO_1)*
X63830000Y-72974000D02*
X66844000Y-75988000D01*
X63830000Y-66588000D02*
X63830000Y-72974000D01*
X66844000Y-75988000D02*
X66844000Y-77470000D01*
G04 #@! TO.N,Net-(S6-NO_1)*
X124267500Y-77470000D02*
X124267500Y-69026500D01*
X124267500Y-69026500D02*
X127000000Y-66294000D01*
G04 #@! TD*
G04 #@! TA.AperFunction,Conductor*
G04 #@! TO.N,GND*
G36*
X87342825Y-50101521D02*
G01*
X87409783Y-50121462D01*
X87430024Y-50137838D01*
X87599500Y-50307314D01*
X87692686Y-50400500D01*
X87788617Y-50455886D01*
X87806814Y-50466392D01*
X87934107Y-50500500D01*
X87934108Y-50500500D01*
X87934109Y-50500500D01*
X107065890Y-50500500D01*
X107065892Y-50500500D01*
X107193186Y-50466392D01*
X107307314Y-50400500D01*
X107492153Y-50215660D01*
X107553470Y-50182179D01*
X107580299Y-50179346D01*
X137414059Y-50294075D01*
X137481018Y-50314016D01*
X137501259Y-50330392D01*
X137678140Y-50507274D01*
X137678148Y-50507281D01*
X137886196Y-50666924D01*
X138113299Y-50798041D01*
X138113309Y-50798046D01*
X138355571Y-50898394D01*
X138355581Y-50898398D01*
X138608884Y-50966270D01*
X138868880Y-51000500D01*
X138868887Y-51000500D01*
X139131113Y-51000500D01*
X139131120Y-51000500D01*
X139391116Y-50966270D01*
X139644419Y-50898398D01*
X139886697Y-50798043D01*
X140113803Y-50666924D01*
X140321851Y-50507282D01*
X140486588Y-50342544D01*
X140547907Y-50309062D01*
X140574732Y-50306230D01*
X142886813Y-50315121D01*
X142953775Y-50335063D01*
X142999327Y-50388043D01*
X143010334Y-50439525D01*
X142831884Y-105082929D01*
X142811981Y-105149904D01*
X142759028Y-105195486D01*
X142706527Y-105206517D01*
X74297801Y-104457133D01*
X74230981Y-104436715D01*
X74211478Y-104420821D01*
X73646300Y-103855643D01*
X73612815Y-103794320D01*
X73609985Y-103767174D01*
X73629833Y-100694779D01*
X73649950Y-100627872D01*
X73703048Y-100582459D01*
X73772270Y-100572963D01*
X73835636Y-100602398D01*
X73841511Y-100607903D01*
X75089179Y-101855571D01*
X75089189Y-101855582D01*
X75093519Y-101859912D01*
X75093520Y-101859913D01*
X75168087Y-101934480D01*
X75259413Y-101987207D01*
X75361273Y-102014501D01*
X75361275Y-102014501D01*
X75474323Y-102014501D01*
X75474339Y-102014500D01*
X100991460Y-102014500D01*
X101053460Y-102031113D01*
X101138814Y-102080392D01*
X101266108Y-102114500D01*
X101266110Y-102114500D01*
X101397890Y-102114500D01*
X101397892Y-102114500D01*
X101525186Y-102080392D01*
X101639314Y-102014500D01*
X101732500Y-101921314D01*
X101798392Y-101807186D01*
X101832500Y-101679892D01*
X101832500Y-101548108D01*
X101798392Y-101420814D01*
X101732500Y-101306686D01*
X101639314Y-101213500D01*
X101568617Y-101172683D01*
X101525187Y-101147608D01*
X101461539Y-101130554D01*
X101397892Y-101113500D01*
X101266108Y-101113500D01*
X101138814Y-101147608D01*
X101138813Y-101147608D01*
X101138811Y-101147609D01*
X101138810Y-101147609D01*
X101053460Y-101196887D01*
X100991460Y-101213500D01*
X92690175Y-101213500D01*
X92623136Y-101193815D01*
X92577381Y-101141011D01*
X92567437Y-101071853D01*
X92586520Y-101026555D01*
X92584436Y-101025352D01*
X92588498Y-101018315D01*
X92588500Y-101018314D01*
X92654392Y-100904186D01*
X92688500Y-100776892D01*
X92688500Y-100645108D01*
X92654392Y-100517814D01*
X92588500Y-100403686D01*
X92495314Y-100310500D01*
X92424622Y-100269686D01*
X92381187Y-100244608D01*
X92317539Y-100227554D01*
X92253892Y-100210500D01*
X92122108Y-100210500D01*
X91994814Y-100244608D01*
X91994813Y-100244608D01*
X91994811Y-100244609D01*
X91994810Y-100244609D01*
X91909460Y-100293887D01*
X91847460Y-100310500D01*
X83510666Y-100310500D01*
X83443627Y-100290815D01*
X83397872Y-100238011D01*
X83387928Y-100168853D01*
X83403277Y-100124503D01*
X83466392Y-100015186D01*
X83500500Y-99887892D01*
X83500500Y-99756108D01*
X83466392Y-99628814D01*
X83400500Y-99514686D01*
X83307314Y-99421500D01*
X83244408Y-99385181D01*
X83193187Y-99355608D01*
X83129539Y-99338554D01*
X83065892Y-99321500D01*
X82934108Y-99321500D01*
X82806814Y-99355608D01*
X82806813Y-99355608D01*
X82806811Y-99355609D01*
X82806810Y-99355609D01*
X82721460Y-99404887D01*
X82659460Y-99421500D01*
X77339254Y-99421500D01*
X77309813Y-99412855D01*
X77279827Y-99406332D01*
X77274811Y-99402577D01*
X77272215Y-99401815D01*
X77251573Y-99385181D01*
X77228573Y-99362181D01*
X77195088Y-99300858D01*
X77200072Y-99231166D01*
X77241944Y-99175233D01*
X77307408Y-99150816D01*
X77316254Y-99150500D01*
X77415890Y-99150500D01*
X77415892Y-99150500D01*
X77543186Y-99116392D01*
X77657314Y-99050500D01*
X77750500Y-98957314D01*
X77816392Y-98843186D01*
X77850500Y-98715892D01*
X77850500Y-98584108D01*
X77816392Y-98456814D01*
X77767113Y-98371460D01*
X77750500Y-98309460D01*
X77750500Y-93976108D01*
X95511500Y-93976108D01*
X95511500Y-94107891D01*
X95545608Y-94235187D01*
X95578554Y-94292250D01*
X95611500Y-94349314D01*
X95704686Y-94442500D01*
X95803521Y-94499563D01*
X95818810Y-94508390D01*
X95818814Y-94508392D01*
X95946108Y-94542500D01*
X95946110Y-94542500D01*
X96077890Y-94542500D01*
X96077892Y-94542500D01*
X96205186Y-94508392D01*
X96290540Y-94459113D01*
X96352540Y-94442500D01*
X97317495Y-94442500D01*
X97384534Y-94462185D01*
X97430289Y-94514989D01*
X97440233Y-94584147D01*
X97437270Y-94598591D01*
X97416500Y-94676108D01*
X97416500Y-94807892D01*
X97433554Y-94871539D01*
X97450608Y-94935187D01*
X97483554Y-94992250D01*
X97516500Y-95049314D01*
X97609686Y-95142500D01*
X97708521Y-95199563D01*
X97723810Y-95208390D01*
X97723814Y-95208392D01*
X97851108Y-95242500D01*
X97851110Y-95242500D01*
X97982890Y-95242500D01*
X97982892Y-95242500D01*
X98110186Y-95208392D01*
X98195540Y-95159113D01*
X98257540Y-95142500D01*
X111177725Y-95142500D01*
X111177727Y-95142500D01*
X111279588Y-95115207D01*
X111370913Y-95062480D01*
X114810574Y-91622819D01*
X114871897Y-91589334D01*
X114898255Y-91586500D01*
X117896460Y-91586500D01*
X117958460Y-91603113D01*
X118043814Y-91652392D01*
X118171108Y-91686500D01*
X118171110Y-91686500D01*
X118302890Y-91686500D01*
X118302892Y-91686500D01*
X118430186Y-91652392D01*
X118544314Y-91586500D01*
X118637500Y-91493314D01*
X118703392Y-91379186D01*
X118721725Y-91310762D01*
X118758090Y-91251103D01*
X118820937Y-91220574D01*
X118890312Y-91228869D01*
X118944190Y-91273354D01*
X118965465Y-91339906D01*
X118965500Y-91342857D01*
X118965500Y-103244460D01*
X118948887Y-103306460D01*
X118899609Y-103391810D01*
X118899609Y-103391811D01*
X118865500Y-103519108D01*
X118865500Y-103650891D01*
X118899608Y-103778187D01*
X118908923Y-103794320D01*
X118965500Y-103892314D01*
X119058686Y-103985500D01*
X119172814Y-104051392D01*
X119300108Y-104085500D01*
X119300110Y-104085500D01*
X119431890Y-104085500D01*
X119431892Y-104085500D01*
X119559186Y-104051392D01*
X119673314Y-103985500D01*
X119766500Y-103892314D01*
X119832392Y-103778186D01*
X119866500Y-103650892D01*
X119866500Y-103519108D01*
X119832392Y-103391814D01*
X119783113Y-103306460D01*
X119766500Y-103244460D01*
X119766500Y-82484108D01*
X120499500Y-82484108D01*
X120499500Y-82615892D01*
X120533608Y-82743186D01*
X120582887Y-82828540D01*
X120599500Y-82890539D01*
X120599500Y-100659460D01*
X120582887Y-100721460D01*
X120533609Y-100806810D01*
X120533609Y-100806811D01*
X120533608Y-100806813D01*
X120533608Y-100806814D01*
X120499500Y-100934108D01*
X120499500Y-101065892D01*
X120511721Y-101111500D01*
X120533608Y-101193187D01*
X120545153Y-101213183D01*
X120599500Y-101307314D01*
X120692686Y-101400500D01*
X120806814Y-101466392D01*
X120934108Y-101500500D01*
X120934110Y-101500500D01*
X121065890Y-101500500D01*
X121065892Y-101500500D01*
X121193186Y-101466392D01*
X121307314Y-101400500D01*
X121400500Y-101307314D01*
X121466392Y-101193186D01*
X121500500Y-101065892D01*
X121500500Y-100934108D01*
X121466392Y-100806814D01*
X121449116Y-100776892D01*
X121417113Y-100721460D01*
X121400500Y-100659460D01*
X121400500Y-91120108D01*
X126753500Y-91120108D01*
X126753500Y-91251891D01*
X126787608Y-91379187D01*
X126820554Y-91436250D01*
X126853500Y-91493314D01*
X126946686Y-91586500D01*
X127040539Y-91640686D01*
X127060810Y-91652390D01*
X127060814Y-91652392D01*
X127188108Y-91686500D01*
X127188110Y-91686500D01*
X127319890Y-91686500D01*
X127319892Y-91686500D01*
X127447186Y-91652392D01*
X127532540Y-91603113D01*
X127594540Y-91586500D01*
X134656745Y-91586500D01*
X134723784Y-91606185D01*
X134744426Y-91622819D01*
X135311179Y-92189571D01*
X135311189Y-92189582D01*
X135315519Y-92193912D01*
X135315520Y-92193913D01*
X135390087Y-92268480D01*
X135481413Y-92321207D01*
X135583273Y-92348501D01*
X135583275Y-92348501D01*
X135696323Y-92348501D01*
X135696339Y-92348500D01*
X139105460Y-92348500D01*
X139167460Y-92365113D01*
X139252814Y-92414392D01*
X139380108Y-92448500D01*
X139380110Y-92448500D01*
X139511890Y-92448500D01*
X139511892Y-92448500D01*
X139639186Y-92414392D01*
X139753314Y-92348500D01*
X139846500Y-92255314D01*
X139912392Y-92141186D01*
X139946500Y-92013892D01*
X139946500Y-91882108D01*
X139912392Y-91754814D01*
X139846500Y-91640686D01*
X139753314Y-91547500D01*
X139659465Y-91493316D01*
X139639187Y-91481608D01*
X139575539Y-91464554D01*
X139511892Y-91447500D01*
X139380108Y-91447500D01*
X139252814Y-91481608D01*
X139252813Y-91481608D01*
X139252811Y-91481609D01*
X139252810Y-91481609D01*
X139167460Y-91530887D01*
X139105460Y-91547500D01*
X135853254Y-91547500D01*
X135786215Y-91527815D01*
X135765573Y-91511181D01*
X135119915Y-90865522D01*
X135119914Y-90865521D01*
X135119913Y-90865520D01*
X135074250Y-90839156D01*
X135028589Y-90812793D01*
X134977657Y-90799146D01*
X134926727Y-90785500D01*
X134926726Y-90785500D01*
X127594540Y-90785500D01*
X127532540Y-90768887D01*
X127447188Y-90719609D01*
X127447187Y-90719608D01*
X127447186Y-90719608D01*
X127319892Y-90685500D01*
X127188108Y-90685500D01*
X127060812Y-90719608D01*
X126946686Y-90785500D01*
X126946683Y-90785502D01*
X126853502Y-90878683D01*
X126853500Y-90878686D01*
X126787608Y-90992812D01*
X126753500Y-91120108D01*
X121400500Y-91120108D01*
X121400500Y-89373920D01*
X132499499Y-89373920D01*
X132528340Y-89518907D01*
X132528343Y-89518917D01*
X132584912Y-89655488D01*
X132584919Y-89655501D01*
X132667048Y-89778415D01*
X132667051Y-89778419D01*
X132771580Y-89882948D01*
X132771584Y-89882951D01*
X132894498Y-89965080D01*
X132894511Y-89965087D01*
X133031082Y-90021656D01*
X133031087Y-90021658D01*
X133031091Y-90021658D01*
X133031092Y-90021659D01*
X133176079Y-90050500D01*
X133176082Y-90050500D01*
X133323920Y-90050500D01*
X133421462Y-90031096D01*
X133468913Y-90021658D01*
X133605495Y-89965084D01*
X133728416Y-89882951D01*
X133832951Y-89778416D01*
X133915084Y-89655495D01*
X133971658Y-89518913D01*
X134000500Y-89373920D01*
X135999499Y-89373920D01*
X136028340Y-89518907D01*
X136028343Y-89518917D01*
X136084912Y-89655488D01*
X136084919Y-89655501D01*
X136167048Y-89778415D01*
X136167051Y-89778419D01*
X136271580Y-89882948D01*
X136271584Y-89882951D01*
X136394498Y-89965080D01*
X136394511Y-89965087D01*
X136531082Y-90021656D01*
X136531087Y-90021658D01*
X136531091Y-90021658D01*
X136531092Y-90021659D01*
X136676079Y-90050500D01*
X136676082Y-90050500D01*
X136823920Y-90050500D01*
X136921462Y-90031096D01*
X136968913Y-90021658D01*
X137105495Y-89965084D01*
X137228416Y-89882951D01*
X137332951Y-89778416D01*
X137415084Y-89655495D01*
X137471658Y-89518913D01*
X137500500Y-89373918D01*
X137500500Y-89226082D01*
X137500500Y-89226079D01*
X137471659Y-89081092D01*
X137471658Y-89081091D01*
X137471658Y-89081087D01*
X137471656Y-89081082D01*
X137415087Y-88944511D01*
X137415080Y-88944498D01*
X137332951Y-88821584D01*
X137332948Y-88821580D01*
X137228419Y-88717051D01*
X137228415Y-88717048D01*
X137105501Y-88634919D01*
X137105488Y-88634912D01*
X136968917Y-88578343D01*
X136968907Y-88578340D01*
X136823920Y-88549500D01*
X136823918Y-88549500D01*
X136676082Y-88549500D01*
X136676080Y-88549500D01*
X136531092Y-88578340D01*
X136531082Y-88578343D01*
X136394511Y-88634912D01*
X136394498Y-88634919D01*
X136271584Y-88717048D01*
X136271580Y-88717051D01*
X136167051Y-88821580D01*
X136167048Y-88821584D01*
X136084919Y-88944498D01*
X136084912Y-88944511D01*
X136028343Y-89081082D01*
X136028340Y-89081092D01*
X135999500Y-89226079D01*
X135999500Y-89226082D01*
X135999500Y-89373918D01*
X135999500Y-89373920D01*
X135999499Y-89373920D01*
X134000500Y-89373920D01*
X134000500Y-89373918D01*
X134000500Y-89226082D01*
X134000500Y-89226079D01*
X133971659Y-89081092D01*
X133971658Y-89081091D01*
X133971658Y-89081087D01*
X133971656Y-89081082D01*
X133915087Y-88944511D01*
X133915080Y-88944498D01*
X133832951Y-88821584D01*
X133832948Y-88821580D01*
X133728419Y-88717051D01*
X133728415Y-88717048D01*
X133605501Y-88634919D01*
X133605488Y-88634912D01*
X133468917Y-88578343D01*
X133468907Y-88578340D01*
X133323920Y-88549500D01*
X133323918Y-88549500D01*
X133176082Y-88549500D01*
X133176080Y-88549500D01*
X133031092Y-88578340D01*
X133031082Y-88578343D01*
X132894511Y-88634912D01*
X132894498Y-88634919D01*
X132771584Y-88717048D01*
X132771580Y-88717051D01*
X132667051Y-88821580D01*
X132667048Y-88821584D01*
X132584919Y-88944498D01*
X132584912Y-88944511D01*
X132528343Y-89081082D01*
X132528340Y-89081092D01*
X132499500Y-89226079D01*
X132499500Y-89226082D01*
X132499500Y-89373918D01*
X132499500Y-89373920D01*
X132499499Y-89373920D01*
X121400500Y-89373920D01*
X121400500Y-88326108D01*
X123767000Y-88326108D01*
X123767000Y-88457892D01*
X123784054Y-88521539D01*
X123801108Y-88585187D01*
X123806593Y-88594687D01*
X123867000Y-88699314D01*
X123960186Y-88792500D01*
X124074314Y-88858392D01*
X124201608Y-88892500D01*
X124201610Y-88892500D01*
X124333390Y-88892500D01*
X124333392Y-88892500D01*
X124460686Y-88858392D01*
X124574814Y-88792500D01*
X124668000Y-88699314D01*
X124733892Y-88585186D01*
X124768000Y-88457892D01*
X124768000Y-88326108D01*
X124733892Y-88198814D01*
X124684613Y-88113460D01*
X124668000Y-88051460D01*
X124668000Y-80546754D01*
X124687685Y-80479715D01*
X124704319Y-80459073D01*
X124965284Y-80198108D01*
X126499500Y-80198108D01*
X126499500Y-80329891D01*
X126533608Y-80457187D01*
X126534697Y-80459073D01*
X126599500Y-80571314D01*
X126692686Y-80664500D01*
X126765976Y-80706814D01*
X126806810Y-80730390D01*
X126806814Y-80730392D01*
X126934108Y-80764500D01*
X126934110Y-80764500D01*
X127065890Y-80764500D01*
X127065892Y-80764500D01*
X127193186Y-80730392D01*
X127244408Y-80700819D01*
X127278540Y-80681113D01*
X127340540Y-80664500D01*
X134656745Y-80664500D01*
X134723784Y-80684185D01*
X134744426Y-80700819D01*
X135061519Y-81017912D01*
X135061520Y-81017913D01*
X135136087Y-81092480D01*
X135227413Y-81145207D01*
X135329273Y-81172500D01*
X135434726Y-81172500D01*
X139013324Y-81172500D01*
X139080363Y-81192185D01*
X139101005Y-81208819D01*
X139192686Y-81300500D01*
X139306814Y-81366392D01*
X139434108Y-81400500D01*
X139434110Y-81400500D01*
X139565890Y-81400500D01*
X139565892Y-81400500D01*
X139693186Y-81366392D01*
X139807314Y-81300500D01*
X139900500Y-81207314D01*
X139966392Y-81093186D01*
X140000500Y-80965892D01*
X140000500Y-80834108D01*
X139966392Y-80706814D01*
X139900500Y-80592686D01*
X139807314Y-80499500D01*
X139734024Y-80457186D01*
X139693187Y-80433608D01*
X139629539Y-80416554D01*
X139565892Y-80399500D01*
X139565891Y-80399500D01*
X139545552Y-80399500D01*
X139513460Y-80395275D01*
X139424728Y-80371500D01*
X139424727Y-80371500D01*
X135599255Y-80371500D01*
X135532216Y-80351815D01*
X135511574Y-80335181D01*
X135119915Y-79943522D01*
X135119913Y-79943520D01*
X135074250Y-79917156D01*
X135028589Y-79890793D01*
X134959659Y-79872324D01*
X134926727Y-79863500D01*
X134926726Y-79863500D01*
X127340540Y-79863500D01*
X127278540Y-79846887D01*
X127193188Y-79797609D01*
X127193187Y-79797608D01*
X127193186Y-79797608D01*
X127065892Y-79763500D01*
X126934108Y-79763500D01*
X126806812Y-79797608D01*
X126692686Y-79863500D01*
X126692683Y-79863502D01*
X126599502Y-79956683D01*
X126599500Y-79956686D01*
X126533608Y-80070812D01*
X126499500Y-80198108D01*
X124965284Y-80198108D01*
X126789472Y-78373920D01*
X132499499Y-78373920D01*
X132528340Y-78518907D01*
X132528343Y-78518917D01*
X132584912Y-78655488D01*
X132584919Y-78655501D01*
X132667048Y-78778415D01*
X132667051Y-78778419D01*
X132771580Y-78882948D01*
X132771584Y-78882951D01*
X132894498Y-78965080D01*
X132894511Y-78965087D01*
X132995243Y-79006811D01*
X133031087Y-79021658D01*
X133031091Y-79021658D01*
X133031092Y-79021659D01*
X133176079Y-79050500D01*
X133176082Y-79050500D01*
X133323920Y-79050500D01*
X133421462Y-79031096D01*
X133468913Y-79021658D01*
X133605495Y-78965084D01*
X133728416Y-78882951D01*
X133832951Y-78778416D01*
X133915084Y-78655495D01*
X133971658Y-78518913D01*
X134000500Y-78373920D01*
X135999499Y-78373920D01*
X136028340Y-78518907D01*
X136028343Y-78518917D01*
X136084912Y-78655488D01*
X136084919Y-78655501D01*
X136167048Y-78778415D01*
X136167051Y-78778419D01*
X136271580Y-78882948D01*
X136271584Y-78882951D01*
X136394498Y-78965080D01*
X136394511Y-78965087D01*
X136495243Y-79006811D01*
X136531087Y-79021658D01*
X136531091Y-79021658D01*
X136531092Y-79021659D01*
X136676079Y-79050500D01*
X136676082Y-79050500D01*
X136823920Y-79050500D01*
X136921462Y-79031096D01*
X136968913Y-79021658D01*
X137105495Y-78965084D01*
X137228416Y-78882951D01*
X137332951Y-78778416D01*
X137415084Y-78655495D01*
X137471658Y-78518913D01*
X137500500Y-78373918D01*
X137500500Y-78226082D01*
X137500500Y-78226079D01*
X137471659Y-78081092D01*
X137471658Y-78081091D01*
X137471658Y-78081087D01*
X137454147Y-78038812D01*
X137415087Y-77944511D01*
X137415080Y-77944498D01*
X137332951Y-77821584D01*
X137332948Y-77821580D01*
X137228419Y-77717051D01*
X137228415Y-77717048D01*
X137105501Y-77634919D01*
X137105488Y-77634912D01*
X136968917Y-77578343D01*
X136968907Y-77578340D01*
X136823920Y-77549500D01*
X136823918Y-77549500D01*
X136676082Y-77549500D01*
X136676080Y-77549500D01*
X136531092Y-77578340D01*
X136531082Y-77578343D01*
X136394511Y-77634912D01*
X136394498Y-77634919D01*
X136271584Y-77717048D01*
X136271580Y-77717051D01*
X136167051Y-77821580D01*
X136167048Y-77821584D01*
X136084919Y-77944498D01*
X136084912Y-77944511D01*
X136028343Y-78081082D01*
X136028340Y-78081092D01*
X135999500Y-78226079D01*
X135999500Y-78226082D01*
X135999500Y-78373918D01*
X135999500Y-78373920D01*
X135999499Y-78373920D01*
X134000500Y-78373920D01*
X134000500Y-78373918D01*
X134000500Y-78226082D01*
X134000500Y-78226079D01*
X133971659Y-78081092D01*
X133971658Y-78081091D01*
X133971658Y-78081087D01*
X133954147Y-78038812D01*
X133915087Y-77944511D01*
X133915080Y-77944498D01*
X133832951Y-77821584D01*
X133832948Y-77821580D01*
X133728419Y-77717051D01*
X133728415Y-77717048D01*
X133605501Y-77634919D01*
X133605488Y-77634912D01*
X133468917Y-77578343D01*
X133468907Y-77578340D01*
X133323920Y-77549500D01*
X133323918Y-77549500D01*
X133176082Y-77549500D01*
X133176080Y-77549500D01*
X133031092Y-77578340D01*
X133031082Y-77578343D01*
X132894511Y-77634912D01*
X132894498Y-77634919D01*
X132771584Y-77717048D01*
X132771580Y-77717051D01*
X132667051Y-77821580D01*
X132667048Y-77821584D01*
X132584919Y-77944498D01*
X132584912Y-77944511D01*
X132528343Y-78081082D01*
X132528340Y-78081092D01*
X132499500Y-78226079D01*
X132499500Y-78226082D01*
X132499500Y-78373918D01*
X132499500Y-78373920D01*
X132499499Y-78373920D01*
X126789472Y-78373920D01*
X127156573Y-78006819D01*
X127217896Y-77973334D01*
X127244254Y-77970500D01*
X127258390Y-77970500D01*
X127258392Y-77970500D01*
X127385686Y-77936392D01*
X127499814Y-77870500D01*
X127593000Y-77777314D01*
X127658892Y-77663186D01*
X127693000Y-77535892D01*
X127693000Y-77404108D01*
X127658892Y-77276814D01*
X127593000Y-77162686D01*
X127499814Y-77069500D01*
X127441241Y-77035683D01*
X127385687Y-77003608D01*
X127322039Y-76986554D01*
X127258392Y-76969500D01*
X127126608Y-76969500D01*
X126999312Y-77003608D01*
X126885186Y-77069500D01*
X126885183Y-77069502D01*
X126792002Y-77162683D01*
X126792000Y-77162686D01*
X126726107Y-77276814D01*
X126726107Y-77276815D01*
X126724573Y-77282541D01*
X126692480Y-77338126D01*
X123947022Y-80083584D01*
X123947018Y-80083590D01*
X123894292Y-80174912D01*
X123894293Y-80174913D01*
X123867000Y-80276773D01*
X123867000Y-88051460D01*
X123850387Y-88113460D01*
X123801109Y-88198810D01*
X123801109Y-88198811D01*
X123801108Y-88198813D01*
X123801108Y-88198814D01*
X123767000Y-88326108D01*
X121400500Y-88326108D01*
X121400500Y-82890539D01*
X121417112Y-82828540D01*
X121466392Y-82743186D01*
X121500500Y-82615892D01*
X121500500Y-82484108D01*
X121466392Y-82356814D01*
X121400500Y-82242686D01*
X121307314Y-82149500D01*
X121235247Y-82107892D01*
X121193187Y-82083608D01*
X121127061Y-82065890D01*
X121065892Y-82049500D01*
X120934108Y-82049500D01*
X120806812Y-82083608D01*
X120692686Y-82149500D01*
X120692683Y-82149502D01*
X120599502Y-82242683D01*
X120599500Y-82242686D01*
X120533608Y-82356812D01*
X120521902Y-82400500D01*
X120499500Y-82484108D01*
X119766500Y-82484108D01*
X119766500Y-77404108D01*
X123767000Y-77404108D01*
X123767000Y-77535891D01*
X123801108Y-77663187D01*
X123816504Y-77689853D01*
X123867000Y-77777314D01*
X123960186Y-77870500D01*
X124074314Y-77936392D01*
X124201608Y-77970500D01*
X124201610Y-77970500D01*
X124333390Y-77970500D01*
X124333392Y-77970500D01*
X124460686Y-77936392D01*
X124574814Y-77870500D01*
X124668000Y-77777314D01*
X124733892Y-77663186D01*
X124768000Y-77535892D01*
X124768000Y-77404108D01*
X124733892Y-77276814D01*
X124684613Y-77191460D01*
X124668000Y-77129460D01*
X124668000Y-69243754D01*
X124687685Y-69176715D01*
X124704319Y-69156073D01*
X124838284Y-69022108D01*
X126499500Y-69022108D01*
X126499500Y-69153892D01*
X126509816Y-69192392D01*
X126533608Y-69281187D01*
X126566554Y-69338250D01*
X126599500Y-69395314D01*
X126692686Y-69488500D01*
X126791521Y-69545563D01*
X126806810Y-69554390D01*
X126806814Y-69554392D01*
X126934108Y-69588500D01*
X126934110Y-69588500D01*
X127065890Y-69588500D01*
X127065892Y-69588500D01*
X127193186Y-69554392D01*
X127278540Y-69505113D01*
X127340540Y-69488500D01*
X134402745Y-69488500D01*
X134469784Y-69508185D01*
X134490426Y-69524819D01*
X135061518Y-70095910D01*
X135061520Y-70095913D01*
X135136087Y-70170480D01*
X135207136Y-70211500D01*
X135215102Y-70216099D01*
X135227411Y-70223206D01*
X135227412Y-70223206D01*
X135227413Y-70223207D01*
X135329273Y-70250501D01*
X135329275Y-70250501D01*
X135442323Y-70250501D01*
X135442339Y-70250500D01*
X139091324Y-70250500D01*
X139158363Y-70270185D01*
X139179005Y-70286819D01*
X139192686Y-70300500D01*
X139291521Y-70357563D01*
X139306810Y-70366390D01*
X139306814Y-70366392D01*
X139434108Y-70400500D01*
X139434110Y-70400500D01*
X139565890Y-70400500D01*
X139565892Y-70400500D01*
X139693186Y-70366392D01*
X139807314Y-70300500D01*
X139900500Y-70207314D01*
X139966392Y-70093186D01*
X140000500Y-69965892D01*
X140000500Y-69834108D01*
X139966392Y-69706814D01*
X139900500Y-69592686D01*
X139807314Y-69499500D01*
X139720712Y-69449500D01*
X139693187Y-69433608D01*
X139629539Y-69416554D01*
X139565892Y-69399500D01*
X139434108Y-69399500D01*
X139306814Y-69433608D01*
X139299304Y-69436719D01*
X139298750Y-69435381D01*
X139246063Y-69449500D01*
X135599254Y-69449500D01*
X135532215Y-69429815D01*
X135511573Y-69413181D01*
X134865915Y-68767522D01*
X134865914Y-68767521D01*
X134865913Y-68767520D01*
X134788242Y-68722676D01*
X134774589Y-68714793D01*
X134723657Y-68701146D01*
X134672727Y-68687500D01*
X134672726Y-68687500D01*
X127340540Y-68687500D01*
X127278540Y-68670887D01*
X127193188Y-68621609D01*
X127193187Y-68621608D01*
X127193186Y-68621608D01*
X127065892Y-68587500D01*
X126934108Y-68587500D01*
X126806812Y-68621608D01*
X126692686Y-68687500D01*
X126692683Y-68687502D01*
X126599502Y-68780683D01*
X126599500Y-68780686D01*
X126533608Y-68894812D01*
X126523265Y-68933414D01*
X126499500Y-69022108D01*
X124838284Y-69022108D01*
X124934092Y-68926300D01*
X125812932Y-68047460D01*
X126486471Y-67373920D01*
X132499499Y-67373920D01*
X132528340Y-67518907D01*
X132528343Y-67518917D01*
X132584912Y-67655488D01*
X132584919Y-67655501D01*
X132667048Y-67778415D01*
X132667051Y-67778419D01*
X132771580Y-67882948D01*
X132771584Y-67882951D01*
X132894498Y-67965080D01*
X132894511Y-67965087D01*
X133023912Y-68018686D01*
X133031087Y-68021658D01*
X133031091Y-68021658D01*
X133031092Y-68021659D01*
X133176079Y-68050500D01*
X133176082Y-68050500D01*
X133323920Y-68050500D01*
X133421462Y-68031096D01*
X133468913Y-68021658D01*
X133605495Y-67965084D01*
X133728416Y-67882951D01*
X133832951Y-67778416D01*
X133915084Y-67655495D01*
X133971658Y-67518913D01*
X133991908Y-67417113D01*
X134000500Y-67373920D01*
X135999499Y-67373920D01*
X136028340Y-67518907D01*
X136028343Y-67518917D01*
X136084912Y-67655488D01*
X136084919Y-67655501D01*
X136167048Y-67778415D01*
X136167051Y-67778419D01*
X136271580Y-67882948D01*
X136271584Y-67882951D01*
X136394498Y-67965080D01*
X136394511Y-67965087D01*
X136523912Y-68018686D01*
X136531087Y-68021658D01*
X136531091Y-68021658D01*
X136531092Y-68021659D01*
X136676079Y-68050500D01*
X136676082Y-68050500D01*
X136823920Y-68050500D01*
X136921462Y-68031096D01*
X136968913Y-68021658D01*
X137105495Y-67965084D01*
X137228416Y-67882951D01*
X137332951Y-67778416D01*
X137415084Y-67655495D01*
X137471658Y-67518913D01*
X137491908Y-67417113D01*
X137500500Y-67373920D01*
X137500500Y-67226079D01*
X137471659Y-67081092D01*
X137471658Y-67081091D01*
X137471658Y-67081087D01*
X137471656Y-67081082D01*
X137415087Y-66944511D01*
X137415080Y-66944498D01*
X137332951Y-66821584D01*
X137332948Y-66821580D01*
X137228419Y-66717051D01*
X137228415Y-66717048D01*
X137105501Y-66634919D01*
X137105488Y-66634912D01*
X136968917Y-66578343D01*
X136968907Y-66578340D01*
X136823920Y-66549500D01*
X136823918Y-66549500D01*
X136676082Y-66549500D01*
X136676080Y-66549500D01*
X136531092Y-66578340D01*
X136531082Y-66578343D01*
X136394511Y-66634912D01*
X136394498Y-66634919D01*
X136271584Y-66717048D01*
X136271580Y-66717051D01*
X136167051Y-66821580D01*
X136167048Y-66821584D01*
X136084919Y-66944498D01*
X136084912Y-66944511D01*
X136028343Y-67081082D01*
X136028340Y-67081092D01*
X135999500Y-67226079D01*
X135999500Y-67226082D01*
X135999500Y-67373918D01*
X135999500Y-67373920D01*
X135999499Y-67373920D01*
X134000500Y-67373920D01*
X134000500Y-67226079D01*
X133971659Y-67081092D01*
X133971658Y-67081091D01*
X133971658Y-67081087D01*
X133971656Y-67081082D01*
X133915087Y-66944511D01*
X133915080Y-66944498D01*
X133832951Y-66821584D01*
X133832948Y-66821580D01*
X133728419Y-66717051D01*
X133728415Y-66717048D01*
X133605501Y-66634919D01*
X133605488Y-66634912D01*
X133468917Y-66578343D01*
X133468907Y-66578340D01*
X133323920Y-66549500D01*
X133323918Y-66549500D01*
X133176082Y-66549500D01*
X133176080Y-66549500D01*
X133031092Y-66578340D01*
X133031082Y-66578343D01*
X132894511Y-66634912D01*
X132894498Y-66634919D01*
X132771584Y-66717048D01*
X132771580Y-66717051D01*
X132667051Y-66821580D01*
X132667048Y-66821584D01*
X132584919Y-66944498D01*
X132584912Y-66944511D01*
X132528343Y-67081082D01*
X132528340Y-67081092D01*
X132499500Y-67226079D01*
X132499500Y-67226082D01*
X132499500Y-67373918D01*
X132499500Y-67373920D01*
X132499499Y-67373920D01*
X126486471Y-67373920D01*
X127042399Y-66817992D01*
X127097982Y-66785901D01*
X127193186Y-66760392D01*
X127307314Y-66694500D01*
X127400500Y-66601314D01*
X127466392Y-66487186D01*
X127500500Y-66359892D01*
X127500500Y-66228108D01*
X127466392Y-66100814D01*
X127400500Y-65986686D01*
X127307314Y-65893500D01*
X127250250Y-65860554D01*
X127193187Y-65827608D01*
X127129539Y-65810554D01*
X127065892Y-65793500D01*
X126934108Y-65793500D01*
X126806812Y-65827608D01*
X126692686Y-65893500D01*
X126692683Y-65893502D01*
X126599502Y-65986683D01*
X126599500Y-65986686D01*
X126533608Y-66100812D01*
X126508099Y-66196014D01*
X126476005Y-66251601D01*
X123947022Y-68780584D01*
X123947020Y-68780587D01*
X123894293Y-68871912D01*
X123877814Y-68933413D01*
X123877814Y-68933414D01*
X123877813Y-68933413D01*
X123867000Y-68973769D01*
X123867000Y-77129460D01*
X123850387Y-77191460D01*
X123801109Y-77276810D01*
X123801109Y-77276811D01*
X123801109Y-77276812D01*
X123801108Y-77276814D01*
X123790975Y-77314633D01*
X123767000Y-77404108D01*
X119766500Y-77404108D01*
X119766500Y-76300539D01*
X119783112Y-76238540D01*
X119832392Y-76153186D01*
X119866500Y-76025892D01*
X119866500Y-75894108D01*
X119832392Y-75766814D01*
X119766500Y-75652686D01*
X119673314Y-75559500D01*
X119616250Y-75526554D01*
X119559187Y-75493608D01*
X119495539Y-75476554D01*
X119431892Y-75459500D01*
X119300108Y-75459500D01*
X119172812Y-75493608D01*
X119058686Y-75559500D01*
X119058683Y-75559502D01*
X118965502Y-75652683D01*
X118965500Y-75652686D01*
X118899608Y-75766812D01*
X118883615Y-75826500D01*
X118865500Y-75894108D01*
X118865500Y-76025892D01*
X118899608Y-76153186D01*
X118948887Y-76238540D01*
X118965500Y-76300539D01*
X118965500Y-79858324D01*
X118945815Y-79925363D01*
X118893011Y-79971118D01*
X118823853Y-79981062D01*
X118760297Y-79952037D01*
X118753819Y-79946005D01*
X118671316Y-79863502D01*
X118671314Y-79863500D01*
X118614250Y-79830554D01*
X118557187Y-79797608D01*
X118493539Y-79780554D01*
X118429892Y-79763500D01*
X118298108Y-79763500D01*
X118170812Y-79797608D01*
X118056686Y-79863500D01*
X118056683Y-79863502D01*
X117960181Y-79960005D01*
X117898858Y-79993490D01*
X117829166Y-79988506D01*
X117773233Y-79946634D01*
X117748816Y-79881170D01*
X117748500Y-79872324D01*
X117748500Y-66228107D01*
X123574500Y-66228107D01*
X123574500Y-66228108D01*
X123574500Y-66359891D01*
X123608608Y-66487187D01*
X123628770Y-66522108D01*
X123674500Y-66601314D01*
X123767686Y-66694500D01*
X123866521Y-66751563D01*
X123881739Y-66760349D01*
X123881814Y-66760392D01*
X124009108Y-66794500D01*
X124009110Y-66794500D01*
X124140890Y-66794500D01*
X124140892Y-66794500D01*
X124268186Y-66760392D01*
X124382314Y-66694500D01*
X124475500Y-66601314D01*
X124541392Y-66487186D01*
X124575500Y-66359892D01*
X124575500Y-66228108D01*
X124541392Y-66100814D01*
X124492113Y-66015460D01*
X124475500Y-65953460D01*
X124475500Y-60434108D01*
X138999500Y-60434108D01*
X138999500Y-60565891D01*
X139033608Y-60693187D01*
X139045673Y-60714084D01*
X139099500Y-60807314D01*
X139192686Y-60900500D01*
X139291521Y-60957563D01*
X139306810Y-60966390D01*
X139306814Y-60966392D01*
X139434108Y-61000500D01*
X139434110Y-61000500D01*
X139565890Y-61000500D01*
X139565892Y-61000500D01*
X139693186Y-60966392D01*
X139773219Y-60920185D01*
X139778540Y-60917113D01*
X139840540Y-60900500D01*
X141308745Y-60900500D01*
X141338185Y-60909144D01*
X141368172Y-60915668D01*
X141373187Y-60919422D01*
X141375784Y-60920185D01*
X141396426Y-60936819D01*
X141549181Y-61089574D01*
X141582666Y-61150897D01*
X141585500Y-61177255D01*
X141585500Y-70975500D01*
X141565815Y-71042539D01*
X141513011Y-71088294D01*
X141461500Y-71099500D01*
X139840540Y-71099500D01*
X139778540Y-71082887D01*
X139693188Y-71033609D01*
X139693187Y-71033608D01*
X139693186Y-71033608D01*
X139565892Y-70999500D01*
X139434108Y-70999500D01*
X139306812Y-71033608D01*
X139192686Y-71099500D01*
X139192683Y-71099502D01*
X139099502Y-71192683D01*
X139099500Y-71192686D01*
X139033608Y-71306812D01*
X138999500Y-71434108D01*
X138999500Y-71565891D01*
X139033608Y-71693187D01*
X139064570Y-71746813D01*
X139099500Y-71807314D01*
X139192686Y-71900500D01*
X139261102Y-71940000D01*
X139306810Y-71966390D01*
X139306814Y-71966392D01*
X139434108Y-72000500D01*
X139434110Y-72000500D01*
X139565890Y-72000500D01*
X139565892Y-72000500D01*
X139693186Y-71966392D01*
X139778540Y-71917113D01*
X139840540Y-71900500D01*
X141461500Y-71900500D01*
X141528539Y-71920185D01*
X141574294Y-71972989D01*
X141585500Y-72024500D01*
X141585500Y-81975500D01*
X141565815Y-82042539D01*
X141513011Y-82088294D01*
X141461500Y-82099500D01*
X139840540Y-82099500D01*
X139778540Y-82082887D01*
X139693188Y-82033609D01*
X139693187Y-82033608D01*
X139693186Y-82033608D01*
X139565892Y-81999500D01*
X139434108Y-81999500D01*
X139306812Y-82033608D01*
X139192686Y-82099500D01*
X139192683Y-82099502D01*
X139099502Y-82192683D01*
X139099500Y-82192686D01*
X139033608Y-82306812D01*
X138999500Y-82434108D01*
X138999500Y-82565891D01*
X139033608Y-82693187D01*
X139062476Y-82743186D01*
X139099500Y-82807314D01*
X139192686Y-82900500D01*
X139258504Y-82938500D01*
X139306810Y-82966390D01*
X139306814Y-82966392D01*
X139434108Y-83000500D01*
X139434110Y-83000500D01*
X139565890Y-83000500D01*
X139565892Y-83000500D01*
X139693186Y-82966392D01*
X139778540Y-82917113D01*
X139840540Y-82900500D01*
X141461500Y-82900500D01*
X141528539Y-82920185D01*
X141574294Y-82972989D01*
X141585500Y-83024500D01*
X141585500Y-92975500D01*
X141565815Y-93042539D01*
X141513011Y-93088294D01*
X141461500Y-93099500D01*
X139840540Y-93099500D01*
X139778540Y-93082887D01*
X139693188Y-93033609D01*
X139693187Y-93033608D01*
X139693186Y-93033608D01*
X139565892Y-92999500D01*
X139434108Y-92999500D01*
X139306812Y-93033608D01*
X139192686Y-93099500D01*
X139192683Y-93099502D01*
X139099502Y-93192683D01*
X139099500Y-93192686D01*
X139033608Y-93306812D01*
X139015984Y-93372588D01*
X138999500Y-93434108D01*
X138999500Y-93565892D01*
X139002104Y-93575609D01*
X139033608Y-93693187D01*
X139057566Y-93734683D01*
X139099500Y-93807314D01*
X139192686Y-93900500D01*
X139291345Y-93957461D01*
X139306810Y-93966390D01*
X139306814Y-93966392D01*
X139434108Y-94000500D01*
X139434110Y-94000500D01*
X139565890Y-94000500D01*
X139565892Y-94000500D01*
X139693186Y-93966392D01*
X139778540Y-93917113D01*
X139840540Y-93900500D01*
X141756725Y-93900500D01*
X141756727Y-93900500D01*
X141858588Y-93873207D01*
X141949913Y-93820480D01*
X142306480Y-93463913D01*
X142359207Y-93372588D01*
X142386500Y-93270727D01*
X142386500Y-93165273D01*
X142386500Y-82602730D01*
X142386501Y-82602727D01*
X142386501Y-82497273D01*
X142386500Y-82497269D01*
X142386500Y-71321273D01*
X142386500Y-60907273D01*
X142363244Y-60820480D01*
X142359207Y-60805412D01*
X142306480Y-60714087D01*
X141771913Y-60179520D01*
X141726250Y-60153156D01*
X141680589Y-60126793D01*
X141629657Y-60113146D01*
X141578727Y-60099500D01*
X141578726Y-60099500D01*
X139840540Y-60099500D01*
X139778540Y-60082887D01*
X139693188Y-60033609D01*
X139693187Y-60033608D01*
X139693186Y-60033608D01*
X139565892Y-59999500D01*
X139434108Y-59999500D01*
X139306812Y-60033608D01*
X139192686Y-60099500D01*
X139192683Y-60099502D01*
X139099502Y-60192683D01*
X139099500Y-60192686D01*
X139033608Y-60306812D01*
X138999500Y-60434108D01*
X124475500Y-60434108D01*
X124475500Y-58895254D01*
X124495185Y-58828215D01*
X124511819Y-58807573D01*
X125219284Y-58100108D01*
X126499500Y-58100108D01*
X126499500Y-58231891D01*
X126533608Y-58359187D01*
X126556883Y-58399500D01*
X126599500Y-58473314D01*
X126692686Y-58566500D01*
X126763733Y-58607519D01*
X126806810Y-58632390D01*
X126806814Y-58632392D01*
X126934108Y-58666500D01*
X126934110Y-58666500D01*
X127065890Y-58666500D01*
X127065892Y-58666500D01*
X127193186Y-58632392D01*
X127278540Y-58583113D01*
X127340540Y-58566500D01*
X134656745Y-58566500D01*
X134723784Y-58586185D01*
X134744426Y-58602819D01*
X135311179Y-59169571D01*
X135311189Y-59169582D01*
X135315519Y-59173912D01*
X135315520Y-59173913D01*
X135390087Y-59248480D01*
X135390089Y-59248481D01*
X135390090Y-59248482D01*
X135480180Y-59300496D01*
X135480181Y-59300496D01*
X135480188Y-59300500D01*
X135481413Y-59301207D01*
X135583273Y-59328501D01*
X135583275Y-59328501D01*
X135696323Y-59328501D01*
X135696339Y-59328500D01*
X139207958Y-59328500D01*
X139269957Y-59345112D01*
X139306814Y-59366392D01*
X139434108Y-59400500D01*
X139434110Y-59400500D01*
X139565890Y-59400500D01*
X139565892Y-59400500D01*
X139693186Y-59366392D01*
X139807314Y-59300500D01*
X139900500Y-59207314D01*
X139966392Y-59093186D01*
X140000500Y-58965892D01*
X140000500Y-58834108D01*
X139966392Y-58706814D01*
X139900500Y-58592686D01*
X139807314Y-58499500D01*
X139750250Y-58466554D01*
X139693187Y-58433608D01*
X139629539Y-58416554D01*
X139565892Y-58399500D01*
X139434108Y-58399500D01*
X139306812Y-58433608D01*
X139192685Y-58499500D01*
X139189593Y-58501874D01*
X139186511Y-58503065D01*
X139185648Y-58503564D01*
X139185570Y-58503429D01*
X139124424Y-58527070D01*
X139114104Y-58527500D01*
X135853254Y-58527500D01*
X135786215Y-58507815D01*
X135765573Y-58491181D01*
X135119915Y-57845522D01*
X135119914Y-57845521D01*
X135119913Y-57845520D01*
X135074250Y-57819156D01*
X135028589Y-57792793D01*
X134977657Y-57779146D01*
X134926727Y-57765500D01*
X134926726Y-57765500D01*
X127340540Y-57765500D01*
X127278540Y-57748887D01*
X127193188Y-57699609D01*
X127193187Y-57699608D01*
X127193186Y-57699608D01*
X127065892Y-57665500D01*
X126934108Y-57665500D01*
X126806812Y-57699608D01*
X126692686Y-57765500D01*
X126692683Y-57765502D01*
X126599502Y-57858683D01*
X126599500Y-57858686D01*
X126533608Y-57972812D01*
X126499500Y-58100108D01*
X125219284Y-58100108D01*
X125315092Y-58004300D01*
X126156284Y-57163108D01*
X126945471Y-56373920D01*
X132499499Y-56373920D01*
X132528340Y-56518907D01*
X132528343Y-56518917D01*
X132584912Y-56655488D01*
X132584919Y-56655501D01*
X132667048Y-56778415D01*
X132667051Y-56778419D01*
X132771580Y-56882948D01*
X132771584Y-56882951D01*
X132894498Y-56965080D01*
X132894511Y-56965087D01*
X133031082Y-57021656D01*
X133031087Y-57021658D01*
X133031091Y-57021658D01*
X133031092Y-57021659D01*
X133176079Y-57050500D01*
X133176082Y-57050500D01*
X133323920Y-57050500D01*
X133421462Y-57031096D01*
X133468913Y-57021658D01*
X133605495Y-56965084D01*
X133728416Y-56882951D01*
X133832951Y-56778416D01*
X133915084Y-56655495D01*
X133920630Y-56642107D01*
X133971656Y-56518917D01*
X133971658Y-56518913D01*
X133990968Y-56421837D01*
X134000500Y-56373920D01*
X135999499Y-56373920D01*
X136028340Y-56518907D01*
X136028343Y-56518917D01*
X136084912Y-56655488D01*
X136084919Y-56655501D01*
X136167048Y-56778415D01*
X136167051Y-56778419D01*
X136271580Y-56882948D01*
X136271584Y-56882951D01*
X136394498Y-56965080D01*
X136394511Y-56965087D01*
X136531082Y-57021656D01*
X136531087Y-57021658D01*
X136531091Y-57021658D01*
X136531092Y-57021659D01*
X136676079Y-57050500D01*
X136676082Y-57050500D01*
X136823920Y-57050500D01*
X136921462Y-57031096D01*
X136968913Y-57021658D01*
X137105495Y-56965084D01*
X137228416Y-56882951D01*
X137332951Y-56778416D01*
X137415084Y-56655495D01*
X137420630Y-56642107D01*
X137471656Y-56518917D01*
X137471658Y-56518913D01*
X137490968Y-56421837D01*
X137500500Y-56373920D01*
X137500500Y-56226079D01*
X137471659Y-56081092D01*
X137471658Y-56081091D01*
X137471658Y-56081087D01*
X137465570Y-56066390D01*
X137415087Y-55944511D01*
X137415080Y-55944498D01*
X137332951Y-55821584D01*
X137332948Y-55821580D01*
X137228419Y-55717051D01*
X137228415Y-55717048D01*
X137105501Y-55634919D01*
X137105488Y-55634912D01*
X136968917Y-55578343D01*
X136968907Y-55578340D01*
X136823920Y-55549500D01*
X136823918Y-55549500D01*
X136676082Y-55549500D01*
X136676080Y-55549500D01*
X136531092Y-55578340D01*
X136531082Y-55578343D01*
X136394511Y-55634912D01*
X136394498Y-55634919D01*
X136271584Y-55717048D01*
X136271580Y-55717051D01*
X136167051Y-55821580D01*
X136167048Y-55821584D01*
X136084919Y-55944498D01*
X136084912Y-55944511D01*
X136028343Y-56081082D01*
X136028340Y-56081092D01*
X135999500Y-56226079D01*
X135999500Y-56226082D01*
X135999500Y-56373918D01*
X135999500Y-56373920D01*
X135999499Y-56373920D01*
X134000500Y-56373920D01*
X134000500Y-56226079D01*
X133971659Y-56081092D01*
X133971658Y-56081091D01*
X133971658Y-56081087D01*
X133965570Y-56066390D01*
X133915087Y-55944511D01*
X133915080Y-55944498D01*
X133832951Y-55821584D01*
X133832948Y-55821580D01*
X133728419Y-55717051D01*
X133728415Y-55717048D01*
X133605501Y-55634919D01*
X133605488Y-55634912D01*
X133468917Y-55578343D01*
X133468907Y-55578340D01*
X133323920Y-55549500D01*
X133323918Y-55549500D01*
X133176082Y-55549500D01*
X133176080Y-55549500D01*
X133031092Y-55578340D01*
X133031082Y-55578343D01*
X132894511Y-55634912D01*
X132894498Y-55634919D01*
X132771584Y-55717048D01*
X132771580Y-55717051D01*
X132667051Y-55821580D01*
X132667048Y-55821584D01*
X132584919Y-55944498D01*
X132584912Y-55944511D01*
X132528343Y-56081082D01*
X132528340Y-56081092D01*
X132499500Y-56226079D01*
X132499500Y-56226082D01*
X132499500Y-56373918D01*
X132499500Y-56373920D01*
X132499499Y-56373920D01*
X126945471Y-56373920D01*
X127042399Y-56276992D01*
X127097982Y-56244901D01*
X127193186Y-56219392D01*
X127307314Y-56153500D01*
X127400500Y-56060314D01*
X127466392Y-55946186D01*
X127500500Y-55818892D01*
X127500500Y-55687108D01*
X127466392Y-55559814D01*
X127400500Y-55445686D01*
X127307314Y-55352500D01*
X127227640Y-55306500D01*
X127193187Y-55286608D01*
X127110677Y-55264500D01*
X127065892Y-55252500D01*
X126934108Y-55252500D01*
X126806812Y-55286608D01*
X126692686Y-55352500D01*
X126692683Y-55352502D01*
X126599502Y-55445683D01*
X126599500Y-55445686D01*
X126533608Y-55559812D01*
X126508099Y-55655014D01*
X126476005Y-55710601D01*
X123754522Y-58432084D01*
X123754520Y-58432087D01*
X123701794Y-58523409D01*
X123701793Y-58523411D01*
X123701793Y-58523412D01*
X123679257Y-58607520D01*
X123679256Y-58607519D01*
X123674500Y-58625270D01*
X123674500Y-65953460D01*
X123657887Y-66015460D01*
X123608609Y-66100810D01*
X123608609Y-66100811D01*
X123608609Y-66100812D01*
X123608608Y-66100814D01*
X123574500Y-66228107D01*
X117748500Y-66228107D01*
X117748500Y-63869254D01*
X117768185Y-63802215D01*
X117784814Y-63781578D01*
X120542399Y-61023992D01*
X120597986Y-60991900D01*
X120693183Y-60966393D01*
X120693183Y-60966392D01*
X120693186Y-60966392D01*
X120807314Y-60900500D01*
X120900500Y-60807314D01*
X120966392Y-60693186D01*
X121000500Y-60565892D01*
X121000500Y-60434108D01*
X120966392Y-60306814D01*
X120900500Y-60192686D01*
X120807314Y-60099500D01*
X120750250Y-60066554D01*
X120693187Y-60033608D01*
X120629539Y-60016554D01*
X120565892Y-59999500D01*
X120434108Y-59999500D01*
X120306812Y-60033608D01*
X120192686Y-60099500D01*
X120192683Y-60099502D01*
X120099502Y-60192683D01*
X120099500Y-60192686D01*
X120033607Y-60306814D01*
X120033607Y-60306815D01*
X120008098Y-60402014D01*
X119976005Y-60457600D01*
X117027522Y-63406084D01*
X117027518Y-63406090D01*
X116974793Y-63497410D01*
X116970676Y-63512779D01*
X116947500Y-63599273D01*
X116947500Y-89190745D01*
X116938855Y-89220185D01*
X116932332Y-89250172D01*
X116928577Y-89255187D01*
X116927815Y-89257784D01*
X116911181Y-89278426D01*
X116773926Y-89415681D01*
X116712603Y-89449166D01*
X116686245Y-89452000D01*
X113421773Y-89452000D01*
X113319910Y-89479293D01*
X113228587Y-89532020D01*
X113228584Y-89532022D01*
X109855426Y-92905181D01*
X109794103Y-92938666D01*
X109767745Y-92941500D01*
X108671540Y-92941500D01*
X108609540Y-92924887D01*
X108524188Y-92875609D01*
X108524187Y-92875608D01*
X108524186Y-92875608D01*
X108396892Y-92841500D01*
X108265108Y-92841500D01*
X108137812Y-92875608D01*
X108023686Y-92941500D01*
X108023683Y-92941502D01*
X107930502Y-93034683D01*
X107930500Y-93034686D01*
X107864608Y-93148812D01*
X107852109Y-93195461D01*
X107830500Y-93276108D01*
X107830500Y-93407892D01*
X107845511Y-93463913D01*
X107851270Y-93485407D01*
X107849607Y-93555257D01*
X107810444Y-93613119D01*
X107746216Y-93640623D01*
X107731495Y-93641500D01*
X96352540Y-93641500D01*
X96290540Y-93624887D01*
X96205188Y-93575609D01*
X96205187Y-93575608D01*
X96205186Y-93575608D01*
X96077892Y-93541500D01*
X95946108Y-93541500D01*
X95818812Y-93575608D01*
X95704686Y-93641500D01*
X95704683Y-93641502D01*
X95611502Y-93734683D01*
X95611500Y-93734686D01*
X95545608Y-93848812D01*
X95511500Y-93976108D01*
X77750500Y-93976108D01*
X77750500Y-86034108D01*
X78299500Y-86034108D01*
X78299500Y-86165891D01*
X78333608Y-86293187D01*
X78366554Y-86350250D01*
X78399500Y-86407314D01*
X78492686Y-86500500D01*
X78606814Y-86566392D01*
X78734108Y-86600500D01*
X78734110Y-86600500D01*
X78865890Y-86600500D01*
X78865892Y-86600500D01*
X78993186Y-86566392D01*
X79107314Y-86500500D01*
X79200500Y-86407314D01*
X79266392Y-86293186D01*
X79300500Y-86165892D01*
X79300500Y-86034108D01*
X79266392Y-85906814D01*
X79221850Y-85829666D01*
X79217113Y-85821460D01*
X79200500Y-85759460D01*
X79200500Y-84717255D01*
X79220185Y-84650216D01*
X79236819Y-84629574D01*
X81932285Y-81934108D01*
X82938500Y-81934108D01*
X82938500Y-82065892D01*
X82949754Y-82107892D01*
X82972608Y-82193187D01*
X82972811Y-82193538D01*
X83038500Y-82307314D01*
X83131686Y-82400500D01*
X83230521Y-82457563D01*
X83245810Y-82466390D01*
X83245814Y-82466392D01*
X83373108Y-82500500D01*
X83373110Y-82500500D01*
X83504890Y-82500500D01*
X83504892Y-82500500D01*
X83632186Y-82466392D01*
X83683408Y-82436819D01*
X83717540Y-82417113D01*
X83779540Y-82400500D01*
X84957745Y-82400500D01*
X85024784Y-82420185D01*
X85045426Y-82436819D01*
X85542181Y-82933573D01*
X85575666Y-82994896D01*
X85578500Y-83021254D01*
X85578500Y-89714726D01*
X85605793Y-89816589D01*
X85624975Y-89849812D01*
X85658520Y-89907913D01*
X85658521Y-89907914D01*
X85658522Y-89907915D01*
X87305179Y-91554571D01*
X87305189Y-91554582D01*
X87309519Y-91558912D01*
X87309520Y-91558913D01*
X87384087Y-91633480D01*
X87475413Y-91686207D01*
X87577273Y-91713501D01*
X87577275Y-91713501D01*
X87690323Y-91713501D01*
X87690339Y-91713500D01*
X88253460Y-91713500D01*
X88315460Y-91730113D01*
X88400814Y-91779392D01*
X88528108Y-91813500D01*
X88528110Y-91813500D01*
X88659890Y-91813500D01*
X88659892Y-91813500D01*
X88787186Y-91779392D01*
X88901314Y-91713500D01*
X88994500Y-91620314D01*
X89060392Y-91506186D01*
X89094500Y-91378892D01*
X89094500Y-91247108D01*
X89060392Y-91119814D01*
X88994500Y-91005686D01*
X88901314Y-90912500D01*
X88819946Y-90865522D01*
X88787187Y-90846608D01*
X88723539Y-90829554D01*
X88659892Y-90812500D01*
X88528108Y-90812500D01*
X88400814Y-90846608D01*
X88400813Y-90846608D01*
X88400811Y-90846609D01*
X88400810Y-90846609D01*
X88315460Y-90895887D01*
X88253460Y-90912500D01*
X87847254Y-90912500D01*
X87780215Y-90892815D01*
X87759573Y-90876181D01*
X86940055Y-90056662D01*
X86860501Y-89977108D01*
X88093500Y-89977108D01*
X88093500Y-90108891D01*
X88127608Y-90236187D01*
X88144544Y-90265520D01*
X88193500Y-90350314D01*
X88286686Y-90443500D01*
X88385407Y-90500497D01*
X88400810Y-90509390D01*
X88400814Y-90509392D01*
X88528108Y-90543500D01*
X88528110Y-90543500D01*
X88659890Y-90543500D01*
X88659892Y-90543500D01*
X88787186Y-90509392D01*
X88872540Y-90460113D01*
X88934540Y-90443500D01*
X91238725Y-90443500D01*
X91238727Y-90443500D01*
X91340588Y-90416207D01*
X91431913Y-90363480D01*
X95379574Y-86415819D01*
X95440897Y-86382334D01*
X95467255Y-86379500D01*
X96687460Y-86379500D01*
X96749460Y-86396113D01*
X96783592Y-86415819D01*
X96834814Y-86445392D01*
X96962108Y-86479500D01*
X96962110Y-86479500D01*
X97093890Y-86479500D01*
X97093892Y-86479500D01*
X97221186Y-86445392D01*
X97272408Y-86415819D01*
X97306540Y-86396113D01*
X97368540Y-86379500D01*
X99366725Y-86379500D01*
X99366727Y-86379500D01*
X99468588Y-86352207D01*
X99559913Y-86299480D01*
X100904480Y-84954913D01*
X100957207Y-84863588D01*
X100984500Y-84761727D01*
X100984500Y-84656273D01*
X100984500Y-82868872D01*
X110999500Y-82868872D01*
X110999500Y-83131127D01*
X111020747Y-83292502D01*
X111033730Y-83391116D01*
X111100491Y-83640273D01*
X111101602Y-83644418D01*
X111101605Y-83644428D01*
X111201953Y-83886690D01*
X111201958Y-83886700D01*
X111333075Y-84113803D01*
X111492718Y-84321851D01*
X111492726Y-84321860D01*
X111678140Y-84507274D01*
X111678148Y-84507281D01*
X111678149Y-84507282D01*
X111724837Y-84543107D01*
X111886196Y-84666924D01*
X112113299Y-84798041D01*
X112113309Y-84798046D01*
X112355571Y-84898394D01*
X112355581Y-84898398D01*
X112608884Y-84966270D01*
X112868880Y-85000500D01*
X112868887Y-85000500D01*
X113131113Y-85000500D01*
X113131120Y-85000500D01*
X113391116Y-84966270D01*
X113644419Y-84898398D01*
X113886697Y-84798043D01*
X114113803Y-84666924D01*
X114321851Y-84507282D01*
X114321855Y-84507277D01*
X114321860Y-84507274D01*
X114507274Y-84321860D01*
X114507277Y-84321855D01*
X114507282Y-84321851D01*
X114666924Y-84113803D01*
X114798043Y-83886697D01*
X114898398Y-83644419D01*
X114966270Y-83391116D01*
X115000500Y-83131120D01*
X115000500Y-82868880D01*
X114966270Y-82608884D01*
X114898398Y-82355581D01*
X114856959Y-82255539D01*
X114798046Y-82113309D01*
X114798041Y-82113299D01*
X114666924Y-81886196D01*
X114518434Y-81692683D01*
X114507282Y-81678149D01*
X114507281Y-81678148D01*
X114507274Y-81678140D01*
X114321860Y-81492726D01*
X114321851Y-81492718D01*
X114113803Y-81333075D01*
X113886700Y-81201958D01*
X113886690Y-81201953D01*
X113644428Y-81101605D01*
X113644421Y-81101603D01*
X113644419Y-81101602D01*
X113391116Y-81033730D01*
X113333339Y-81026123D01*
X113131127Y-80999500D01*
X113131120Y-80999500D01*
X112868880Y-80999500D01*
X112868872Y-80999500D01*
X112646763Y-81028743D01*
X112608884Y-81033730D01*
X112389625Y-81092480D01*
X112355581Y-81101602D01*
X112355571Y-81101605D01*
X112113309Y-81201953D01*
X112113299Y-81201958D01*
X111886196Y-81333075D01*
X111678148Y-81492718D01*
X111492718Y-81678148D01*
X111333075Y-81886196D01*
X111201958Y-82113299D01*
X111201953Y-82113309D01*
X111101605Y-82355571D01*
X111101602Y-82355581D01*
X111033730Y-82608884D01*
X111032807Y-82615892D01*
X110999500Y-82868872D01*
X100984500Y-82868872D01*
X100984500Y-82382539D01*
X101001112Y-82320540D01*
X101050392Y-82235186D01*
X101084500Y-82107892D01*
X101084500Y-81976108D01*
X101050392Y-81848814D01*
X100984500Y-81734686D01*
X100891314Y-81641500D01*
X100789794Y-81582887D01*
X100777187Y-81575608D01*
X100713539Y-81558554D01*
X100649892Y-81541500D01*
X100518108Y-81541500D01*
X100390812Y-81575608D01*
X100276686Y-81641500D01*
X100276683Y-81641502D01*
X100183502Y-81734683D01*
X100183500Y-81734686D01*
X100117608Y-81848812D01*
X100107591Y-81886197D01*
X100083500Y-81976108D01*
X100083500Y-82107892D01*
X100117608Y-82235186D01*
X100166887Y-82320540D01*
X100183500Y-82382539D01*
X100183500Y-84491745D01*
X100163815Y-84558784D01*
X100147181Y-84579426D01*
X99184426Y-85542181D01*
X99123103Y-85575666D01*
X99096745Y-85578500D01*
X97368540Y-85578500D01*
X97306540Y-85561887D01*
X97221188Y-85512609D01*
X97221187Y-85512608D01*
X97221186Y-85512608D01*
X97093892Y-85478500D01*
X96962108Y-85478500D01*
X96834814Y-85512608D01*
X96834813Y-85512608D01*
X96834811Y-85512609D01*
X96834810Y-85512609D01*
X96749460Y-85561887D01*
X96687460Y-85578500D01*
X95197273Y-85578500D01*
X95095410Y-85605793D01*
X95004087Y-85658520D01*
X95004084Y-85658522D01*
X91056426Y-89606181D01*
X90995103Y-89639666D01*
X90968745Y-89642500D01*
X88934540Y-89642500D01*
X88872540Y-89625887D01*
X88787188Y-89576609D01*
X88787187Y-89576608D01*
X88787186Y-89576608D01*
X88659892Y-89542500D01*
X88528108Y-89542500D01*
X88400812Y-89576608D01*
X88286686Y-89642500D01*
X88286683Y-89642502D01*
X88193502Y-89735683D01*
X88193500Y-89735686D01*
X88127608Y-89849812D01*
X88093500Y-89977108D01*
X86860501Y-89977108D01*
X86415819Y-89532426D01*
X86382334Y-89471103D01*
X86379500Y-89444745D01*
X86379500Y-86167108D01*
X88093500Y-86167108D01*
X88093500Y-86298892D01*
X88093658Y-86299480D01*
X88127608Y-86426187D01*
X88158388Y-86479499D01*
X88193500Y-86540314D01*
X88286686Y-86633500D01*
X88385521Y-86690563D01*
X88400810Y-86699390D01*
X88400814Y-86699392D01*
X88528108Y-86733500D01*
X88528110Y-86733500D01*
X88659890Y-86733500D01*
X88659892Y-86733500D01*
X88787186Y-86699392D01*
X88872540Y-86650113D01*
X88934540Y-86633500D01*
X91492725Y-86633500D01*
X91492727Y-86633500D01*
X91594588Y-86606207D01*
X91685913Y-86553480D01*
X94363573Y-83875818D01*
X94424896Y-83842334D01*
X94451254Y-83839500D01*
X96560460Y-83839500D01*
X96622460Y-83856113D01*
X96707814Y-83905392D01*
X96835108Y-83939500D01*
X96835110Y-83939500D01*
X96966890Y-83939500D01*
X96966892Y-83939500D01*
X97094186Y-83905392D01*
X97208314Y-83839500D01*
X97301500Y-83746314D01*
X97367392Y-83632186D01*
X97401500Y-83504892D01*
X97401500Y-83373108D01*
X97367392Y-83245814D01*
X97301500Y-83131686D01*
X97208314Y-83038500D01*
X97132790Y-82994896D01*
X97094187Y-82972608D01*
X97030539Y-82955554D01*
X96966892Y-82938500D01*
X96835108Y-82938500D01*
X96707814Y-82972608D01*
X96707813Y-82972608D01*
X96707811Y-82972609D01*
X96707810Y-82972609D01*
X96622460Y-83021887D01*
X96560460Y-83038500D01*
X94294339Y-83038500D01*
X94294323Y-83038499D01*
X94286727Y-83038499D01*
X94181273Y-83038499D01*
X94113366Y-83056695D01*
X94079412Y-83065793D01*
X93988084Y-83118522D01*
X91310426Y-85796181D01*
X91249103Y-85829666D01*
X91222745Y-85832500D01*
X88934540Y-85832500D01*
X88925854Y-85829949D01*
X88916893Y-85831238D01*
X88872540Y-85815887D01*
X88787188Y-85766609D01*
X88787187Y-85766608D01*
X88787186Y-85766608D01*
X88659892Y-85732500D01*
X88528108Y-85732500D01*
X88400812Y-85766608D01*
X88286686Y-85832500D01*
X88286683Y-85832502D01*
X88193502Y-85925683D01*
X88193500Y-85925686D01*
X88127608Y-86039812D01*
X88093826Y-86165890D01*
X88093500Y-86167108D01*
X86379500Y-86167108D01*
X86379500Y-84897108D01*
X88093500Y-84897108D01*
X88093500Y-85028891D01*
X88127608Y-85156187D01*
X88160554Y-85213250D01*
X88193500Y-85270314D01*
X88286686Y-85363500D01*
X88385521Y-85420563D01*
X88400810Y-85429390D01*
X88400814Y-85429392D01*
X88528108Y-85463500D01*
X88528110Y-85463500D01*
X88659890Y-85463500D01*
X88659892Y-85463500D01*
X88787186Y-85429392D01*
X88872540Y-85380113D01*
X88878691Y-85378464D01*
X88883029Y-85374706D01*
X88903940Y-85371699D01*
X88934540Y-85363500D01*
X90603725Y-85363500D01*
X90603727Y-85363500D01*
X90705588Y-85336207D01*
X90796913Y-85283480D01*
X91421706Y-84658684D01*
X91421711Y-84658681D01*
X91431911Y-84648480D01*
X91431913Y-84648480D01*
X91506480Y-84573913D01*
X91559207Y-84482587D01*
X91564589Y-84462500D01*
X91586501Y-84380727D01*
X91586501Y-84275273D01*
X91586500Y-84275269D01*
X91586500Y-82255539D01*
X91603112Y-82193540D01*
X91652392Y-82108186D01*
X91686500Y-81980892D01*
X91686500Y-81849108D01*
X91652392Y-81721814D01*
X91586500Y-81607686D01*
X91493314Y-81514500D01*
X91436250Y-81481554D01*
X91379187Y-81448608D01*
X91315539Y-81431554D01*
X91251892Y-81414500D01*
X91120108Y-81414500D01*
X90992812Y-81448608D01*
X90878686Y-81514500D01*
X90878683Y-81514502D01*
X90785502Y-81607683D01*
X90785500Y-81607686D01*
X90719608Y-81721812D01*
X90685579Y-81848812D01*
X90685500Y-81849108D01*
X90685500Y-81980892D01*
X90719608Y-82108186D01*
X90768887Y-82193540D01*
X90785500Y-82255539D01*
X90785500Y-84110745D01*
X90765815Y-84177784D01*
X90749181Y-84198426D01*
X90421426Y-84526181D01*
X90360103Y-84559666D01*
X90333745Y-84562500D01*
X88934540Y-84562500D01*
X88872540Y-84545887D01*
X88787188Y-84496609D01*
X88787187Y-84496608D01*
X88787186Y-84496608D01*
X88659892Y-84462500D01*
X88528108Y-84462500D01*
X88400812Y-84496608D01*
X88286686Y-84562500D01*
X88286683Y-84562502D01*
X88193502Y-84655683D01*
X88193500Y-84655686D01*
X88127608Y-84769812D01*
X88093500Y-84897108D01*
X86379500Y-84897108D01*
X86379500Y-84217500D01*
X86399185Y-84150461D01*
X86451989Y-84104706D01*
X86503500Y-84093500D01*
X88305460Y-84093500D01*
X88367460Y-84110113D01*
X88411141Y-84135332D01*
X88452814Y-84159392D01*
X88580108Y-84193500D01*
X88580110Y-84193500D01*
X88711890Y-84193500D01*
X88711892Y-84193500D01*
X88839186Y-84159392D01*
X88953314Y-84093500D01*
X89046500Y-84000314D01*
X89112392Y-83886186D01*
X89146500Y-83758892D01*
X89146500Y-83627108D01*
X89112392Y-83499814D01*
X89046500Y-83385686D01*
X88953314Y-83292500D01*
X88872452Y-83245814D01*
X88839187Y-83226608D01*
X88775539Y-83209554D01*
X88711892Y-83192500D01*
X88580108Y-83192500D01*
X88452814Y-83226608D01*
X88452813Y-83226608D01*
X88452811Y-83226609D01*
X88452810Y-83226609D01*
X88367460Y-83275887D01*
X88305460Y-83292500D01*
X86503500Y-83292500D01*
X86436461Y-83272815D01*
X86390706Y-83220011D01*
X86379500Y-83168500D01*
X86379500Y-82866729D01*
X86379501Y-82866716D01*
X86379501Y-82751274D01*
X86377334Y-82743186D01*
X86352207Y-82649413D01*
X86299480Y-82558087D01*
X86224913Y-82483520D01*
X86224912Y-82483519D01*
X86220582Y-82479189D01*
X86220571Y-82479179D01*
X85420915Y-81679522D01*
X85420914Y-81679521D01*
X85420913Y-81679520D01*
X85355061Y-81641500D01*
X85329589Y-81626793D01*
X85258267Y-81607683D01*
X85227727Y-81599500D01*
X85227726Y-81599500D01*
X83779540Y-81599500D01*
X83717540Y-81582887D01*
X83632188Y-81533609D01*
X83632187Y-81533608D01*
X83632186Y-81533608D01*
X83504892Y-81499500D01*
X83373108Y-81499500D01*
X83245812Y-81533608D01*
X83131686Y-81599500D01*
X83131683Y-81599502D01*
X83038502Y-81692683D01*
X83038500Y-81692686D01*
X82972608Y-81806812D01*
X82941802Y-81921786D01*
X82938500Y-81934108D01*
X81932285Y-81934108D01*
X87102574Y-76763819D01*
X87129501Y-76749115D01*
X87155320Y-76732523D01*
X87161520Y-76731631D01*
X87163897Y-76730334D01*
X87190255Y-76727500D01*
X87238324Y-76727500D01*
X87305363Y-76747185D01*
X87351118Y-76799989D01*
X87361062Y-76869147D01*
X87332037Y-76932703D01*
X87326005Y-76939181D01*
X87229502Y-77035683D01*
X87229500Y-77035686D01*
X87163608Y-77149812D01*
X87129500Y-77277108D01*
X87129500Y-77408891D01*
X87163608Y-77536187D01*
X87187946Y-77578340D01*
X87229500Y-77650314D01*
X87322686Y-77743500D01*
X87436814Y-77809392D01*
X87564108Y-77843500D01*
X87564110Y-77843500D01*
X87696598Y-77843500D01*
X87763637Y-77863185D01*
X87809392Y-77915989D01*
X87819336Y-77985147D01*
X87803985Y-78029501D01*
X87798608Y-78038812D01*
X87764500Y-78166108D01*
X87764500Y-78297891D01*
X87798608Y-78425187D01*
X87831554Y-78482250D01*
X87864500Y-78539314D01*
X87957686Y-78632500D01*
X88056521Y-78689563D01*
X88071810Y-78698390D01*
X88071814Y-78698392D01*
X88199108Y-78732500D01*
X88199110Y-78732500D01*
X88330890Y-78732500D01*
X88330892Y-78732500D01*
X88458186Y-78698392D01*
X88499858Y-78674332D01*
X88543540Y-78649113D01*
X88605540Y-78632500D01*
X114213460Y-78632500D01*
X114275460Y-78649113D01*
X114319141Y-78674332D01*
X114360814Y-78698392D01*
X114488108Y-78732500D01*
X114488110Y-78732500D01*
X114619890Y-78732500D01*
X114619892Y-78732500D01*
X114747186Y-78698392D01*
X114861314Y-78632500D01*
X114954500Y-78539314D01*
X115020392Y-78425186D01*
X115054500Y-78297892D01*
X115054500Y-78166108D01*
X115020392Y-78038814D01*
X114954500Y-77924686D01*
X114861314Y-77831500D01*
X114767465Y-77777316D01*
X114747187Y-77765608D01*
X114664666Y-77743497D01*
X114619892Y-77731500D01*
X114488108Y-77731500D01*
X114360814Y-77765608D01*
X114360813Y-77765608D01*
X114360811Y-77765609D01*
X114360810Y-77765609D01*
X114275460Y-77814887D01*
X114259971Y-77819037D01*
X114248395Y-77826477D01*
X114213460Y-77831500D01*
X114175666Y-77831500D01*
X114108627Y-77811815D01*
X114062872Y-77759011D01*
X114052928Y-77689853D01*
X114068277Y-77645503D01*
X114131392Y-77536186D01*
X114165500Y-77408892D01*
X114165500Y-77277108D01*
X114131392Y-77149814D01*
X114065500Y-77035686D01*
X113972314Y-76942500D01*
X113915250Y-76909554D01*
X113858187Y-76876608D01*
X113794539Y-76859554D01*
X113730892Y-76842500D01*
X113599108Y-76842500D01*
X113471814Y-76876608D01*
X113471813Y-76876608D01*
X113471811Y-76876609D01*
X113471810Y-76876609D01*
X113386460Y-76925887D01*
X113370971Y-76930037D01*
X113359395Y-76937477D01*
X113324460Y-76942500D01*
X113294676Y-76942500D01*
X113227637Y-76922815D01*
X113181882Y-76870011D01*
X113171938Y-76800853D01*
X113200963Y-76737297D01*
X113206995Y-76730819D01*
X113210314Y-76727500D01*
X113303500Y-76634314D01*
X113369392Y-76520186D01*
X113403500Y-76392892D01*
X113403500Y-76261108D01*
X113369392Y-76133814D01*
X113303500Y-76019686D01*
X113210314Y-75926500D01*
X113153250Y-75893554D01*
X113096187Y-75860608D01*
X113032539Y-75843554D01*
X112968892Y-75826500D01*
X112837108Y-75826500D01*
X112709814Y-75860608D01*
X112709813Y-75860608D01*
X112709811Y-75860609D01*
X112709810Y-75860609D01*
X112624460Y-75909887D01*
X112562460Y-75926500D01*
X86920273Y-75926500D01*
X86818413Y-75953793D01*
X86818410Y-75953794D01*
X86727085Y-76006521D01*
X78479522Y-84254084D01*
X78479520Y-84254087D01*
X78426791Y-84345413D01*
X78401378Y-84440266D01*
X78401375Y-84440278D01*
X78399500Y-84447273D01*
X78399500Y-85759460D01*
X78382887Y-85821460D01*
X78333609Y-85906810D01*
X78333609Y-85906811D01*
X78299500Y-86034108D01*
X77750500Y-86034108D01*
X77750500Y-70439275D01*
X77750500Y-70439273D01*
X77723207Y-70337413D01*
X77723207Y-70337412D01*
X77670480Y-70246087D01*
X77258501Y-69834108D01*
X82756500Y-69834108D01*
X82756500Y-69965891D01*
X82790608Y-70093187D01*
X82792182Y-70095913D01*
X82856500Y-70207314D01*
X82949686Y-70300500D01*
X83048521Y-70357563D01*
X83063810Y-70366390D01*
X83063814Y-70366392D01*
X83191108Y-70400500D01*
X83191110Y-70400500D01*
X83322890Y-70400500D01*
X83322892Y-70400500D01*
X83450186Y-70366392D01*
X83535540Y-70317113D01*
X83597540Y-70300500D01*
X98765745Y-70300500D01*
X98832784Y-70320185D01*
X98853426Y-70336819D01*
X99258181Y-70741574D01*
X99291666Y-70802897D01*
X99294500Y-70829255D01*
X99294500Y-71098960D01*
X99277887Y-71160960D01*
X99228609Y-71246310D01*
X99228609Y-71246311D01*
X99194500Y-71373608D01*
X99194500Y-71505391D01*
X99228608Y-71632687D01*
X99261554Y-71689750D01*
X99294500Y-71746814D01*
X99387686Y-71840000D01*
X99501814Y-71905892D01*
X99629108Y-71940000D01*
X99629110Y-71940000D01*
X99760890Y-71940000D01*
X99760892Y-71940000D01*
X99888186Y-71905892D01*
X100002314Y-71840000D01*
X100095500Y-71746814D01*
X100161392Y-71632686D01*
X100195500Y-71505392D01*
X100195500Y-71373608D01*
X100161392Y-71246314D01*
X100112113Y-71160960D01*
X100095500Y-71098960D01*
X100095500Y-70559275D01*
X100095500Y-70559273D01*
X100068207Y-70457413D01*
X100068207Y-70457412D01*
X100015480Y-70366087D01*
X99228913Y-69579520D01*
X99183250Y-69553156D01*
X99137589Y-69526793D01*
X99086657Y-69513146D01*
X99035727Y-69499500D01*
X99035726Y-69499500D01*
X83597540Y-69499500D01*
X83535540Y-69482887D01*
X83450188Y-69433609D01*
X83450187Y-69433608D01*
X83450186Y-69433608D01*
X83322892Y-69399500D01*
X83191108Y-69399500D01*
X83063812Y-69433608D01*
X82949686Y-69499500D01*
X82949683Y-69499502D01*
X82856502Y-69592683D01*
X82856500Y-69592686D01*
X82790608Y-69706812D01*
X82756500Y-69834108D01*
X77258501Y-69834108D01*
X74798313Y-67373920D01*
X85256499Y-67373920D01*
X85285340Y-67518907D01*
X85285343Y-67518917D01*
X85341912Y-67655488D01*
X85341919Y-67655501D01*
X85424048Y-67778415D01*
X85424051Y-67778419D01*
X85528580Y-67882948D01*
X85528584Y-67882951D01*
X85651498Y-67965080D01*
X85651511Y-67965087D01*
X85780912Y-68018686D01*
X85788087Y-68021658D01*
X85788091Y-68021658D01*
X85788092Y-68021659D01*
X85933079Y-68050500D01*
X85933082Y-68050500D01*
X86080920Y-68050500D01*
X86178462Y-68031096D01*
X86225913Y-68021658D01*
X86362495Y-67965084D01*
X86485416Y-67882951D01*
X86589951Y-67778416D01*
X86672084Y-67655495D01*
X86728658Y-67518913D01*
X86748908Y-67417113D01*
X86757500Y-67373920D01*
X88756499Y-67373920D01*
X88785340Y-67518907D01*
X88785343Y-67518917D01*
X88841912Y-67655488D01*
X88841919Y-67655501D01*
X88924048Y-67778415D01*
X88924051Y-67778419D01*
X89028580Y-67882948D01*
X89028584Y-67882951D01*
X89151498Y-67965080D01*
X89151511Y-67965087D01*
X89280912Y-68018686D01*
X89288087Y-68021658D01*
X89288091Y-68021658D01*
X89288092Y-68021659D01*
X89433079Y-68050500D01*
X89433082Y-68050500D01*
X89580920Y-68050500D01*
X89678462Y-68031096D01*
X89725913Y-68021658D01*
X89862495Y-67965084D01*
X89985416Y-67882951D01*
X90089951Y-67778416D01*
X90172084Y-67655495D01*
X90228658Y-67518913D01*
X90248908Y-67417113D01*
X90257500Y-67373920D01*
X90257500Y-67226079D01*
X90228659Y-67081092D01*
X90228658Y-67081091D01*
X90228658Y-67081087D01*
X90228656Y-67081082D01*
X90172087Y-66944511D01*
X90172080Y-66944498D01*
X90089951Y-66821584D01*
X90089948Y-66821580D01*
X89985419Y-66717051D01*
X89985415Y-66717048D01*
X89862501Y-66634919D01*
X89862488Y-66634912D01*
X89725917Y-66578343D01*
X89725907Y-66578340D01*
X89580920Y-66549500D01*
X89580918Y-66549500D01*
X89433082Y-66549500D01*
X89433080Y-66549500D01*
X89288092Y-66578340D01*
X89288082Y-66578343D01*
X89151511Y-66634912D01*
X89151498Y-66634919D01*
X89028584Y-66717048D01*
X89028580Y-66717051D01*
X88924051Y-66821580D01*
X88924048Y-66821584D01*
X88841919Y-66944498D01*
X88841912Y-66944511D01*
X88785343Y-67081082D01*
X88785340Y-67081092D01*
X88756500Y-67226079D01*
X88756500Y-67226082D01*
X88756500Y-67373918D01*
X88756500Y-67373920D01*
X88756499Y-67373920D01*
X86757500Y-67373920D01*
X86757500Y-67226079D01*
X86728659Y-67081092D01*
X86728658Y-67081091D01*
X86728658Y-67081087D01*
X86728656Y-67081082D01*
X86672087Y-66944511D01*
X86672080Y-66944498D01*
X86589951Y-66821584D01*
X86589948Y-66821580D01*
X86485419Y-66717051D01*
X86485415Y-66717048D01*
X86362501Y-66634919D01*
X86362488Y-66634912D01*
X86225917Y-66578343D01*
X86225907Y-66578340D01*
X86080920Y-66549500D01*
X86080918Y-66549500D01*
X85933082Y-66549500D01*
X85933080Y-66549500D01*
X85788092Y-66578340D01*
X85788082Y-66578343D01*
X85651511Y-66634912D01*
X85651498Y-66634919D01*
X85528584Y-66717048D01*
X85528580Y-66717051D01*
X85424051Y-66821580D01*
X85424048Y-66821584D01*
X85341919Y-66944498D01*
X85341912Y-66944511D01*
X85285343Y-67081082D01*
X85285340Y-67081092D01*
X85256500Y-67226079D01*
X85256500Y-67226082D01*
X85256500Y-67373918D01*
X85256500Y-67373920D01*
X85256499Y-67373920D01*
X74798313Y-67373920D01*
X71208501Y-63784108D01*
X78999500Y-63784108D01*
X78999500Y-63915891D01*
X79033608Y-64043187D01*
X79066554Y-64100250D01*
X79099500Y-64157314D01*
X79192686Y-64250500D01*
X79306814Y-64316392D01*
X79434108Y-64350500D01*
X79434110Y-64350500D01*
X79565890Y-64350500D01*
X79565892Y-64350500D01*
X79693186Y-64316392D01*
X79807314Y-64250500D01*
X79900500Y-64157314D01*
X79966392Y-64043186D01*
X80000500Y-63915892D01*
X80000500Y-63784108D01*
X79966392Y-63656814D01*
X79917113Y-63571460D01*
X79900500Y-63509460D01*
X79900500Y-61560254D01*
X79920185Y-61493215D01*
X79936819Y-61472573D01*
X86122573Y-55286819D01*
X86183896Y-55253334D01*
X86210254Y-55250500D01*
X88662212Y-55250500D01*
X88724210Y-55267112D01*
X88776414Y-55297252D01*
X88832348Y-55329546D01*
X88833814Y-55330392D01*
X88961108Y-55364500D01*
X88961110Y-55364500D01*
X89093598Y-55364500D01*
X89160637Y-55384185D01*
X89206392Y-55436989D01*
X89216336Y-55506147D01*
X89200985Y-55550501D01*
X89195608Y-55559812D01*
X89167368Y-55665207D01*
X89161500Y-55687108D01*
X89161500Y-55818892D01*
X89195608Y-55946186D01*
X89244887Y-56031540D01*
X89261500Y-56093539D01*
X89261500Y-61669273D01*
X89261500Y-61774727D01*
X89261658Y-61775316D01*
X89288793Y-61876589D01*
X89315156Y-61922250D01*
X89341520Y-61967913D01*
X91321087Y-63947480D01*
X91412412Y-64000207D01*
X91514273Y-64027500D01*
X91619727Y-64027500D01*
X95036460Y-64027500D01*
X95098460Y-64044113D01*
X95183814Y-64093392D01*
X95311108Y-64127500D01*
X95311110Y-64127500D01*
X95442890Y-64127500D01*
X95442892Y-64127500D01*
X95570186Y-64093392D01*
X95684314Y-64027500D01*
X95777500Y-63934314D01*
X95843392Y-63820186D01*
X95877500Y-63692892D01*
X95877500Y-63561108D01*
X95843392Y-63433814D01*
X95780278Y-63324498D01*
X95763806Y-63256601D01*
X95786658Y-63190574D01*
X95841579Y-63147383D01*
X95887666Y-63138500D01*
X101636745Y-63138500D01*
X101703784Y-63158185D01*
X101724426Y-63174819D01*
X105870087Y-67320480D01*
X105961412Y-67373207D01*
X106063273Y-67400500D01*
X107659460Y-67400500D01*
X107721460Y-67417113D01*
X107806814Y-67466392D01*
X107934108Y-67500500D01*
X107934110Y-67500500D01*
X108065890Y-67500500D01*
X108065892Y-67500500D01*
X108193186Y-67466392D01*
X108278540Y-67417113D01*
X108340540Y-67400500D01*
X110217725Y-67400500D01*
X110217727Y-67400500D01*
X110319588Y-67373207D01*
X110410913Y-67320480D01*
X119954480Y-57776913D01*
X120007207Y-57685588D01*
X120034500Y-57583727D01*
X120034500Y-57478273D01*
X120034500Y-55816500D01*
X120054185Y-55749461D01*
X120106989Y-55703706D01*
X120158500Y-55692500D01*
X125100725Y-55692500D01*
X125100727Y-55692500D01*
X125202588Y-55665207D01*
X125293913Y-55612480D01*
X126113574Y-54792819D01*
X126174897Y-54759334D01*
X126201255Y-54756500D01*
X141260745Y-54756500D01*
X141327784Y-54776185D01*
X141348426Y-54792819D01*
X141549181Y-54993574D01*
X141582666Y-55054897D01*
X141585500Y-55081255D01*
X141585500Y-56936460D01*
X141568887Y-56998460D01*
X141519609Y-57083810D01*
X141519609Y-57083811D01*
X141519608Y-57083813D01*
X141519608Y-57083814D01*
X141485500Y-57211108D01*
X141485500Y-57342892D01*
X141495653Y-57380784D01*
X141519608Y-57470187D01*
X141552554Y-57527250D01*
X141585500Y-57584314D01*
X141678686Y-57677500D01*
X141792814Y-57743392D01*
X141920108Y-57777500D01*
X141920110Y-57777500D01*
X142051890Y-57777500D01*
X142051892Y-57777500D01*
X142179186Y-57743392D01*
X142293314Y-57677500D01*
X142386500Y-57584314D01*
X142452392Y-57470186D01*
X142486500Y-57342892D01*
X142486500Y-57211108D01*
X142452392Y-57083814D01*
X142403113Y-56998460D01*
X142386500Y-56936460D01*
X142386500Y-54811275D01*
X142386500Y-54811273D01*
X142359207Y-54709413D01*
X142306480Y-54618087D01*
X142231913Y-54543520D01*
X141723913Y-54035520D01*
X141663257Y-54000500D01*
X141632589Y-53982793D01*
X141571377Y-53966392D01*
X141530727Y-53955500D01*
X126036727Y-53955500D01*
X125931273Y-53955500D01*
X125829410Y-53982793D01*
X125738087Y-54035520D01*
X125738084Y-54035522D01*
X124918426Y-54855181D01*
X124857103Y-54888666D01*
X124830745Y-54891500D01*
X119974540Y-54891500D01*
X119912540Y-54874887D01*
X119827188Y-54825609D01*
X119827187Y-54825608D01*
X119827186Y-54825608D01*
X119699892Y-54791500D01*
X119568108Y-54791500D01*
X119440812Y-54825608D01*
X119326686Y-54891500D01*
X119326683Y-54891502D01*
X119233502Y-54984683D01*
X119233500Y-54984686D01*
X119167608Y-55098812D01*
X119137635Y-55210676D01*
X119133500Y-55226108D01*
X119133500Y-55357892D01*
X119167608Y-55485186D01*
X119216887Y-55570540D01*
X119233500Y-55632539D01*
X119233500Y-57313745D01*
X119213815Y-57380784D01*
X119197181Y-57401426D01*
X110035426Y-66563181D01*
X109974103Y-66596666D01*
X109947745Y-66599500D01*
X108340540Y-66599500D01*
X108278540Y-66582887D01*
X108193188Y-66533609D01*
X108193187Y-66533608D01*
X108193186Y-66533608D01*
X108065892Y-66499500D01*
X107934108Y-66499500D01*
X107806814Y-66533608D01*
X107806813Y-66533608D01*
X107806811Y-66533609D01*
X107806810Y-66533609D01*
X107721460Y-66582887D01*
X107659460Y-66599500D01*
X106333255Y-66599500D01*
X106266216Y-66579815D01*
X106245574Y-66563181D01*
X102099915Y-62417522D01*
X102099913Y-62417520D01*
X102054250Y-62391156D01*
X102008589Y-62364793D01*
X101920487Y-62341187D01*
X101906727Y-62337500D01*
X101906726Y-62337500D01*
X93181255Y-62337500D01*
X93114216Y-62317815D01*
X93093574Y-62301181D01*
X92897993Y-62105600D01*
X92865900Y-62050014D01*
X92840392Y-61954814D01*
X92774500Y-61840686D01*
X92681314Y-61747500D01*
X92624250Y-61714554D01*
X92567187Y-61681608D01*
X92471984Y-61656099D01*
X92439892Y-61647500D01*
X92308108Y-61647500D01*
X92180812Y-61681608D01*
X92066686Y-61747500D01*
X92066683Y-61747502D01*
X91973502Y-61840683D01*
X91973500Y-61840686D01*
X91907608Y-61954812D01*
X91903941Y-61968499D01*
X91873500Y-62082108D01*
X91873500Y-62213892D01*
X91882099Y-62245985D01*
X91907608Y-62341187D01*
X91940554Y-62398250D01*
X91973500Y-62455314D01*
X92066686Y-62548500D01*
X92180814Y-62614392D01*
X92276014Y-62639900D01*
X92331600Y-62671993D01*
X92674426Y-63014819D01*
X92707911Y-63076142D01*
X92702927Y-63145834D01*
X92661055Y-63201767D01*
X92595591Y-63226184D01*
X92586745Y-63226500D01*
X91784255Y-63226500D01*
X91717216Y-63206815D01*
X91696574Y-63190181D01*
X90098819Y-61592426D01*
X90065334Y-61531103D01*
X90062500Y-61504745D01*
X90062500Y-56093539D01*
X90079112Y-56031540D01*
X90128392Y-55946186D01*
X90162500Y-55818892D01*
X90162500Y-55687108D01*
X90128392Y-55559814D01*
X90062500Y-55445686D01*
X89969314Y-55352500D01*
X89889640Y-55306500D01*
X89855187Y-55286608D01*
X89772677Y-55264500D01*
X89727892Y-55252500D01*
X89596108Y-55252500D01*
X89595402Y-55252500D01*
X89528363Y-55232815D01*
X89482608Y-55180011D01*
X89472664Y-55110853D01*
X89488015Y-55066499D01*
X89493392Y-55057186D01*
X89527500Y-54929892D01*
X89527500Y-54798108D01*
X89493392Y-54670814D01*
X89427500Y-54556686D01*
X89334314Y-54463500D01*
X89245114Y-54412000D01*
X89220187Y-54397608D01*
X89156539Y-54380554D01*
X89092892Y-54363500D01*
X88961108Y-54363500D01*
X88833812Y-54397608D01*
X88808886Y-54412000D01*
X88772708Y-54432887D01*
X88710709Y-54449500D01*
X86053339Y-54449500D01*
X86053323Y-54449499D01*
X86045727Y-54449499D01*
X85940273Y-54449499D01*
X85872366Y-54467695D01*
X85838412Y-54476793D01*
X85747084Y-54529522D01*
X79179522Y-61097084D01*
X79179518Y-61097090D01*
X79126792Y-61188412D01*
X79126793Y-61188413D01*
X79099500Y-61290273D01*
X79099500Y-63509460D01*
X79082887Y-63571460D01*
X79033609Y-63656810D01*
X79033609Y-63656811D01*
X78999500Y-63784108D01*
X71208501Y-63784108D01*
X68849993Y-61425600D01*
X68817900Y-61370014D01*
X68792392Y-61274814D01*
X68726500Y-61160686D01*
X68633314Y-61067500D01*
X68557960Y-61023994D01*
X68519187Y-61001608D01*
X68455539Y-60984554D01*
X68391892Y-60967500D01*
X68260108Y-60967500D01*
X68132812Y-61001608D01*
X68018686Y-61067500D01*
X68018683Y-61067502D01*
X67925502Y-61160683D01*
X67925500Y-61160686D01*
X67859608Y-61274812D01*
X67834100Y-61370012D01*
X67825500Y-61402108D01*
X67825500Y-61533892D01*
X67832564Y-61560254D01*
X67859608Y-61661187D01*
X67871399Y-61681609D01*
X67925500Y-61775314D01*
X68018686Y-61868500D01*
X68132814Y-61934392D01*
X68228014Y-61959900D01*
X68283600Y-61991993D01*
X76913181Y-70621574D01*
X76946666Y-70682897D01*
X76949500Y-70709255D01*
X76949500Y-98309460D01*
X76932887Y-98371460D01*
X76883609Y-98456810D01*
X76883609Y-98456811D01*
X76849500Y-98584108D01*
X76849500Y-98683745D01*
X76829815Y-98750784D01*
X76777011Y-98796539D01*
X76707853Y-98806483D01*
X76644297Y-98777458D01*
X76637819Y-98771426D01*
X73698137Y-95831744D01*
X73664652Y-95770421D01*
X73661822Y-95743273D01*
X73667990Y-94788555D01*
X73667989Y-94788554D01*
X72699252Y-94782295D01*
X72632341Y-94762178D01*
X72612372Y-94745979D01*
X70693219Y-92826826D01*
X70659734Y-92765503D01*
X70656900Y-92739145D01*
X70656900Y-82069139D01*
X70673512Y-82007140D01*
X70722792Y-81921786D01*
X70756900Y-81794492D01*
X70756900Y-81662708D01*
X70722792Y-81535414D01*
X70656900Y-81421286D01*
X70563714Y-81328100D01*
X70497821Y-81290056D01*
X70449585Y-81262207D01*
X70442082Y-81259100D01*
X70443269Y-81256233D01*
X70396146Y-81227511D01*
X70365616Y-81164665D01*
X70373910Y-81095289D01*
X70418395Y-81041410D01*
X70484946Y-81020135D01*
X70487899Y-81020100D01*
X73391944Y-81020100D01*
X73421380Y-81028743D01*
X73451370Y-81035267D01*
X73456387Y-81039022D01*
X73458983Y-81039785D01*
X73479625Y-81056418D01*
X73563181Y-81139973D01*
X73596666Y-81201296D01*
X73599500Y-81227655D01*
X73599500Y-81659460D01*
X73582887Y-81721460D01*
X73533609Y-81806810D01*
X73533609Y-81806811D01*
X73533609Y-81806812D01*
X73533608Y-81806814D01*
X73499500Y-81934108D01*
X73499500Y-82065892D01*
X73510754Y-82107892D01*
X73533608Y-82193187D01*
X73533811Y-82193538D01*
X73599500Y-82307314D01*
X73692686Y-82400500D01*
X73791521Y-82457563D01*
X73806810Y-82466390D01*
X73806814Y-82466392D01*
X73934108Y-82500500D01*
X73934110Y-82500500D01*
X74065890Y-82500500D01*
X74065892Y-82500500D01*
X74193186Y-82466392D01*
X74307314Y-82400500D01*
X74400500Y-82307314D01*
X74466392Y-82193186D01*
X74500500Y-82065892D01*
X74500500Y-81934108D01*
X74466392Y-81806814D01*
X74459277Y-81794491D01*
X74417113Y-81721460D01*
X74400500Y-81659460D01*
X74400500Y-81073129D01*
X74400501Y-81073116D01*
X74400501Y-80957674D01*
X74397714Y-80947273D01*
X74373207Y-80855813D01*
X74367202Y-80845412D01*
X74320480Y-80764487D01*
X74245913Y-80689920D01*
X74245911Y-80689918D01*
X73855113Y-80299120D01*
X73809450Y-80272756D01*
X73763789Y-80246393D01*
X73712857Y-80232746D01*
X73661927Y-80219100D01*
X68886127Y-80219100D01*
X68780673Y-80219100D01*
X68678810Y-80246393D01*
X68587487Y-80299120D01*
X68587484Y-80299122D01*
X68132522Y-80754084D01*
X68132520Y-80754087D01*
X68079793Y-80845411D01*
X68079793Y-80845412D01*
X68077006Y-80855813D01*
X68077006Y-80855814D01*
X68077005Y-80855813D01*
X68052500Y-80947271D01*
X68052500Y-91829745D01*
X68032815Y-91896784D01*
X68016181Y-91917426D01*
X66870426Y-93063181D01*
X66809103Y-93096666D01*
X66782745Y-93099500D01*
X61324500Y-93099500D01*
X61257461Y-93079815D01*
X61211706Y-93027011D01*
X61200500Y-92975500D01*
X61200500Y-79003273D01*
X62199500Y-79003273D01*
X62199500Y-79047273D01*
X62199500Y-79134108D01*
X62199500Y-79265892D01*
X62233608Y-79393186D01*
X62282887Y-79478540D01*
X62299500Y-79540539D01*
X62299500Y-89759460D01*
X62282887Y-89821460D01*
X62233609Y-89906810D01*
X62233609Y-89906811D01*
X62199500Y-90034108D01*
X62199500Y-90165891D01*
X62233608Y-90293187D01*
X62266554Y-90350250D01*
X62299500Y-90407314D01*
X62392686Y-90500500D01*
X62506814Y-90566392D01*
X62634108Y-90600500D01*
X62634110Y-90600500D01*
X62765890Y-90600500D01*
X62765892Y-90600500D01*
X62893186Y-90566392D01*
X63007314Y-90500500D01*
X63100500Y-90407314D01*
X63166392Y-90293186D01*
X63200500Y-90165892D01*
X63200500Y-90034108D01*
X63166392Y-89906814D01*
X63117113Y-89821460D01*
X63100500Y-89759460D01*
X63100500Y-79540539D01*
X63117112Y-79478540D01*
X63166392Y-79393186D01*
X63200500Y-79265892D01*
X63200500Y-79134108D01*
X63166392Y-79006814D01*
X63117113Y-78921460D01*
X63100500Y-78859460D01*
X63100500Y-77404108D01*
X63418500Y-77404108D01*
X63418500Y-77535892D01*
X63452608Y-77663186D01*
X63501887Y-77748540D01*
X63518500Y-77810539D01*
X63518500Y-84440273D01*
X63518500Y-84545727D01*
X63532146Y-84596657D01*
X63545793Y-84647589D01*
X63572156Y-84693250D01*
X63598520Y-84738913D01*
X63598522Y-84738915D01*
X66278681Y-87419074D01*
X66312166Y-87480397D01*
X66315000Y-87506755D01*
X66315000Y-88060960D01*
X66298387Y-88122960D01*
X66249109Y-88208310D01*
X66249109Y-88208311D01*
X66249108Y-88208313D01*
X66249108Y-88208314D01*
X66217545Y-88326110D01*
X66215000Y-88335608D01*
X66215000Y-88467391D01*
X66249108Y-88594687D01*
X66282054Y-88651750D01*
X66315000Y-88708814D01*
X66408186Y-88802000D01*
X66522314Y-88867892D01*
X66649608Y-88902000D01*
X66649610Y-88902000D01*
X66781390Y-88902000D01*
X66781392Y-88902000D01*
X66908686Y-88867892D01*
X67022814Y-88802000D01*
X67116000Y-88708814D01*
X67181892Y-88594686D01*
X67216000Y-88467392D01*
X67216000Y-88335608D01*
X67181892Y-88208314D01*
X67176405Y-88198811D01*
X67132613Y-88122960D01*
X67116000Y-88060960D01*
X67116000Y-87236775D01*
X67116000Y-87236773D01*
X67088707Y-87134913D01*
X67088707Y-87134912D01*
X67035980Y-87043587D01*
X64355819Y-84363426D01*
X64322334Y-84302103D01*
X64319500Y-84275745D01*
X64319500Y-77810539D01*
X64336112Y-77748540D01*
X64385392Y-77663186D01*
X64419500Y-77535892D01*
X64419500Y-77404108D01*
X64385392Y-77276814D01*
X64319500Y-77162686D01*
X64226314Y-77069500D01*
X64167741Y-77035683D01*
X64112187Y-77003608D01*
X64048539Y-76986554D01*
X63984892Y-76969500D01*
X63853108Y-76969500D01*
X63725812Y-77003608D01*
X63611686Y-77069500D01*
X63611683Y-77069502D01*
X63518502Y-77162683D01*
X63518500Y-77162686D01*
X63452608Y-77276812D01*
X63418500Y-77404108D01*
X63100500Y-77404108D01*
X63100500Y-68722676D01*
X63120185Y-68655637D01*
X63136819Y-68634995D01*
X63138500Y-68633314D01*
X63187686Y-68548121D01*
X63198113Y-68530062D01*
X63248680Y-68481846D01*
X63317287Y-68468624D01*
X63382152Y-68494592D01*
X63422680Y-68551506D01*
X63429500Y-68592062D01*
X63429500Y-73026726D01*
X63456793Y-73128589D01*
X63483156Y-73174250D01*
X63509520Y-73219913D01*
X63509521Y-73219914D01*
X63509522Y-73219915D01*
X66407181Y-76117573D01*
X66440666Y-76178896D01*
X66443500Y-76205254D01*
X66443500Y-77129460D01*
X66426887Y-77191460D01*
X66377609Y-77276810D01*
X66377609Y-77276811D01*
X66377609Y-77276812D01*
X66377608Y-77276814D01*
X66367475Y-77314633D01*
X66343500Y-77404108D01*
X66343500Y-77535891D01*
X66377608Y-77663187D01*
X66393004Y-77689853D01*
X66443500Y-77777314D01*
X66536686Y-77870500D01*
X66650814Y-77936392D01*
X66778108Y-77970500D01*
X66778110Y-77970500D01*
X66909890Y-77970500D01*
X66909892Y-77970500D01*
X67037186Y-77936392D01*
X67151314Y-77870500D01*
X67244500Y-77777314D01*
X67310392Y-77663186D01*
X67344500Y-77535892D01*
X67344500Y-77404108D01*
X67310392Y-77276814D01*
X67261113Y-77191460D01*
X67244500Y-77129460D01*
X67244500Y-76050729D01*
X67244501Y-76050716D01*
X67244501Y-75935274D01*
X67244501Y-75935273D01*
X67217207Y-75833413D01*
X67178756Y-75766814D01*
X67164480Y-75742087D01*
X67089913Y-75667520D01*
X67089910Y-75667518D01*
X64266819Y-72844426D01*
X64233334Y-72783103D01*
X64230500Y-72756745D01*
X64230500Y-66928539D01*
X64247112Y-66866540D01*
X64296392Y-66781186D01*
X64330500Y-66653892D01*
X64330500Y-66522108D01*
X64296392Y-66394814D01*
X64230500Y-66280686D01*
X64137314Y-66187500D01*
X64080250Y-66154554D01*
X64023187Y-66121608D01*
X63945581Y-66100814D01*
X63895892Y-66087500D01*
X63764108Y-66087500D01*
X63636812Y-66121608D01*
X63522686Y-66187500D01*
X63522683Y-66187502D01*
X63429502Y-66280683D01*
X63429500Y-66280686D01*
X63369887Y-66383938D01*
X63319319Y-66432153D01*
X63250712Y-66445375D01*
X63185848Y-66419407D01*
X63145320Y-66362493D01*
X63138500Y-66321937D01*
X63138500Y-57674500D01*
X63158185Y-57607461D01*
X63210989Y-57561706D01*
X63262500Y-57550500D01*
X71955745Y-57550500D01*
X72022784Y-57570185D01*
X72043426Y-57586819D01*
X76647005Y-62190398D01*
X76679099Y-62245985D01*
X76704608Y-62341186D01*
X76770500Y-62455314D01*
X76863686Y-62548500D01*
X76962521Y-62605563D01*
X76977810Y-62614390D01*
X76977814Y-62614392D01*
X77105108Y-62648500D01*
X77105110Y-62648500D01*
X77236890Y-62648500D01*
X77236892Y-62648500D01*
X77364186Y-62614392D01*
X77478314Y-62548500D01*
X77571500Y-62455314D01*
X77637392Y-62341186D01*
X77671500Y-62213892D01*
X77671500Y-62082108D01*
X77637392Y-61954814D01*
X77571500Y-61840686D01*
X77478314Y-61747500D01*
X77364186Y-61681608D01*
X77268985Y-61656099D01*
X77213398Y-61624005D01*
X72418915Y-56829522D01*
X72418913Y-56829520D01*
X72354241Y-56792181D01*
X72327589Y-56776793D01*
X72274648Y-56762608D01*
X72225727Y-56749500D01*
X72225726Y-56749500D01*
X63078540Y-56749500D01*
X63016540Y-56732887D01*
X62931188Y-56683609D01*
X62931187Y-56683608D01*
X62931186Y-56683608D01*
X62803892Y-56649500D01*
X62672108Y-56649500D01*
X62544812Y-56683608D01*
X62430686Y-56749500D01*
X62430683Y-56749502D01*
X62337502Y-56842683D01*
X62337500Y-56842686D01*
X62271608Y-56956812D01*
X62269393Y-56965080D01*
X62237500Y-57084108D01*
X62237500Y-57215892D01*
X62271608Y-57343186D01*
X62320887Y-57428540D01*
X62337500Y-57490539D01*
X62337500Y-67985460D01*
X62320887Y-68047460D01*
X62271609Y-68132810D01*
X62271609Y-68132811D01*
X62271608Y-68132813D01*
X62271608Y-68132814D01*
X62237500Y-68260108D01*
X62237500Y-68391892D01*
X62265018Y-68494592D01*
X62271609Y-68519188D01*
X62271610Y-68519191D01*
X62282886Y-68538721D01*
X62299500Y-68600722D01*
X62299500Y-78742256D01*
X62282887Y-78804256D01*
X62226794Y-78901410D01*
X62226793Y-78901413D01*
X62199500Y-79003273D01*
X61200500Y-79003273D01*
X61200500Y-53163108D01*
X88799500Y-53163108D01*
X88799500Y-53294892D01*
X88816554Y-53358539D01*
X88833608Y-53422187D01*
X88840491Y-53434108D01*
X88899500Y-53536314D01*
X88992686Y-53629500D01*
X89076188Y-53677710D01*
X89106810Y-53695390D01*
X89106814Y-53695392D01*
X89234108Y-53729500D01*
X89234110Y-53729500D01*
X89365890Y-53729500D01*
X89365892Y-53729500D01*
X89493186Y-53695392D01*
X89534858Y-53671332D01*
X89578540Y-53646113D01*
X89640540Y-53629500D01*
X92565544Y-53629500D01*
X92568442Y-53630351D01*
X92571380Y-53629637D01*
X92601756Y-53640133D01*
X92632583Y-53649185D01*
X92634561Y-53651468D01*
X92637419Y-53652456D01*
X92657300Y-53677710D01*
X92678338Y-53701989D01*
X92678768Y-53704979D01*
X92680638Y-53707355D01*
X92683708Y-53739342D01*
X92688282Y-53771147D01*
X92687113Y-53774805D01*
X92687315Y-53776904D01*
X92681218Y-53793262D01*
X92675789Y-53810263D01*
X92674426Y-53812908D01*
X92626793Y-53895412D01*
X92626793Y-53895413D01*
X92621202Y-53916278D01*
X92621201Y-53916281D01*
X92599500Y-53997273D01*
X92599500Y-56590745D01*
X92590855Y-56620185D01*
X92584332Y-56650172D01*
X92580577Y-56655187D01*
X92579815Y-56657784D01*
X92563181Y-56678426D01*
X92449426Y-56792181D01*
X92388103Y-56825666D01*
X92361745Y-56828500D01*
X91614540Y-56828500D01*
X91552540Y-56811887D01*
X91467188Y-56762609D01*
X91467187Y-56762608D01*
X91467186Y-56762608D01*
X91339892Y-56728500D01*
X91208108Y-56728500D01*
X91080812Y-56762608D01*
X90966686Y-56828500D01*
X90966683Y-56828502D01*
X90873502Y-56921683D01*
X90873500Y-56921686D01*
X90807608Y-57035812D01*
X90773500Y-57163108D01*
X90773500Y-57294892D01*
X90786440Y-57343186D01*
X90807608Y-57422187D01*
X90811275Y-57428538D01*
X90873500Y-57536314D01*
X90966686Y-57629500D01*
X91063833Y-57685588D01*
X91080810Y-57695390D01*
X91080814Y-57695392D01*
X91208108Y-57729500D01*
X91208110Y-57729500D01*
X91339890Y-57729500D01*
X91339892Y-57729500D01*
X91467186Y-57695392D01*
X91552540Y-57646113D01*
X91614540Y-57629500D01*
X92631725Y-57629500D01*
X92631727Y-57629500D01*
X92733588Y-57602207D01*
X92824913Y-57549480D01*
X93320480Y-57053913D01*
X93373207Y-56962588D01*
X93400500Y-56860727D01*
X93400500Y-56755273D01*
X93400500Y-54267254D01*
X93420185Y-54200215D01*
X93436819Y-54179573D01*
X94654573Y-52961819D01*
X94715896Y-52928334D01*
X94742254Y-52925500D01*
X106215745Y-52925500D01*
X106282784Y-52945185D01*
X106303426Y-52961819D01*
X107129087Y-53787480D01*
X107220412Y-53840207D01*
X107322273Y-53867500D01*
X108649500Y-53867500D01*
X108716539Y-53887185D01*
X108760942Y-53937124D01*
X108773500Y-53962861D01*
X108773500Y-53986748D01*
X108785133Y-54045231D01*
X108829448Y-54111552D01*
X108854082Y-54128012D01*
X108868775Y-54158124D01*
X108869241Y-54160870D01*
X108871028Y-54163008D01*
X108875060Y-54195105D01*
X108880482Y-54227006D01*
X108879389Y-54229568D01*
X108879737Y-54232333D01*
X108865774Y-54261517D01*
X108853090Y-54291282D01*
X108850785Y-54292847D01*
X108849583Y-54295361D01*
X108822063Y-54312360D01*
X108795296Y-54330546D01*
X108792509Y-54330617D01*
X108790140Y-54332081D01*
X108757333Y-54336500D01*
X107147361Y-54336500D01*
X107115268Y-54332275D01*
X107108815Y-54330546D01*
X107033875Y-54310466D01*
X106902091Y-54310466D01*
X106774795Y-54344574D01*
X106660669Y-54410466D01*
X106660666Y-54410468D01*
X106567485Y-54503649D01*
X106567483Y-54503652D01*
X106501591Y-54617778D01*
X106467483Y-54745074D01*
X106467483Y-54876857D01*
X106501591Y-55004153D01*
X106522202Y-55039851D01*
X106567483Y-55118280D01*
X106567485Y-55118282D01*
X106647734Y-55198531D01*
X106681219Y-55259854D01*
X106676235Y-55329546D01*
X106667441Y-55348210D01*
X106633610Y-55406808D01*
X106633609Y-55406811D01*
X106633608Y-55406813D01*
X106633608Y-55406814D01*
X106599500Y-55534108D01*
X106599500Y-55665892D01*
X106605185Y-55687108D01*
X106633608Y-55793187D01*
X106666554Y-55850250D01*
X106699500Y-55907314D01*
X106792686Y-56000500D01*
X106906814Y-56066392D01*
X107002014Y-56091900D01*
X107057600Y-56123993D01*
X107261087Y-56327480D01*
X107352412Y-56380207D01*
X107454273Y-56407500D01*
X108833453Y-56407500D01*
X108900492Y-56427185D01*
X108925427Y-56449385D01*
X108925578Y-56449235D01*
X108928164Y-56451821D01*
X108929313Y-56452844D01*
X108929889Y-56453546D01*
X109027454Y-56551111D01*
X109027458Y-56551114D01*
X109142182Y-56627771D01*
X109142195Y-56627778D01*
X109214637Y-56657784D01*
X109269672Y-56680580D01*
X109269676Y-56680580D01*
X109269677Y-56680581D01*
X109405004Y-56707500D01*
X109405007Y-56707500D01*
X109542995Y-56707500D01*
X109663105Y-56683608D01*
X109678328Y-56680580D01*
X109805811Y-56627775D01*
X109920542Y-56551114D01*
X109952749Y-56518907D01*
X110021319Y-56450338D01*
X110082642Y-56416853D01*
X110152334Y-56421837D01*
X110196681Y-56450338D01*
X110297454Y-56551111D01*
X110297458Y-56551114D01*
X110412182Y-56627771D01*
X110412195Y-56627778D01*
X110484637Y-56657784D01*
X110539672Y-56680580D01*
X110539676Y-56680580D01*
X110539677Y-56680581D01*
X110675004Y-56707500D01*
X110675007Y-56707500D01*
X110812995Y-56707500D01*
X110933105Y-56683608D01*
X110948328Y-56680580D01*
X111075811Y-56627775D01*
X111190542Y-56551114D01*
X111288114Y-56453542D01*
X111288117Y-56453537D01*
X111288687Y-56452844D01*
X111289082Y-56452574D01*
X111292422Y-56449235D01*
X111293055Y-56449868D01*
X111346429Y-56413504D01*
X111384547Y-56407500D01*
X113045725Y-56407500D01*
X113045727Y-56407500D01*
X113147588Y-56380207D01*
X113238913Y-56327480D01*
X113837573Y-55728818D01*
X113898896Y-55695334D01*
X113925254Y-55692500D01*
X114721460Y-55692500D01*
X114783460Y-55709113D01*
X114797204Y-55717048D01*
X114868814Y-55758392D01*
X114996108Y-55792500D01*
X114996110Y-55792500D01*
X115127890Y-55792500D01*
X115127892Y-55792500D01*
X115255186Y-55758392D01*
X115369314Y-55692500D01*
X115462500Y-55599314D01*
X115528392Y-55485186D01*
X115562500Y-55357892D01*
X115562500Y-55226108D01*
X115528392Y-55098814D01*
X115462500Y-54984686D01*
X115369314Y-54891500D01*
X115272306Y-54835492D01*
X115255187Y-54825608D01*
X115181981Y-54805993D01*
X115127892Y-54791500D01*
X114996108Y-54791500D01*
X114868814Y-54825608D01*
X114868813Y-54825608D01*
X114868811Y-54825609D01*
X114868810Y-54825609D01*
X114783460Y-54874887D01*
X114721460Y-54891500D01*
X113768339Y-54891500D01*
X113768323Y-54891499D01*
X113760727Y-54891499D01*
X113655273Y-54891499D01*
X113587366Y-54909695D01*
X113553412Y-54918793D01*
X113462084Y-54971522D01*
X112863426Y-55570181D01*
X112802103Y-55603666D01*
X112775745Y-55606500D01*
X111384547Y-55606500D01*
X111317508Y-55586815D01*
X111292572Y-55564614D01*
X111292422Y-55564765D01*
X111289835Y-55562178D01*
X111288687Y-55561156D01*
X111288110Y-55560453D01*
X111190545Y-55462888D01*
X111190537Y-55462882D01*
X111075813Y-55386226D01*
X111075812Y-55386225D01*
X111036902Y-55370108D01*
X110996675Y-55343228D01*
X110715447Y-55062000D01*
X110786787Y-55062000D01*
X110869445Y-55039851D01*
X110943554Y-54997064D01*
X111004064Y-54936554D01*
X111046851Y-54862445D01*
X111069000Y-54779787D01*
X111069000Y-54736999D01*
X111097553Y-54736999D01*
X111097553Y-54737001D01*
X111606572Y-55246020D01*
X111606573Y-55246019D01*
X111630187Y-55210680D01*
X111630190Y-55210676D01*
X111705569Y-55028693D01*
X111705572Y-55028681D01*
X111743999Y-54835495D01*
X111744000Y-54835492D01*
X111744000Y-54638508D01*
X111743999Y-54638504D01*
X111705572Y-54445318D01*
X111705569Y-54445306D01*
X111630192Y-54263328D01*
X111606572Y-54227979D01*
X111097553Y-54736999D01*
X111069000Y-54736999D01*
X111069000Y-54694213D01*
X111046851Y-54611555D01*
X111004064Y-54537446D01*
X110943554Y-54476936D01*
X110869445Y-54434149D01*
X110786787Y-54412000D01*
X110715446Y-54412000D01*
X110996675Y-54130770D01*
X111036899Y-54103892D01*
X111075811Y-54087775D01*
X111190542Y-54011114D01*
X111288114Y-53913542D01*
X111288117Y-53913537D01*
X111288687Y-53912844D01*
X111289082Y-53912574D01*
X111292422Y-53909235D01*
X111293055Y-53909868D01*
X111346429Y-53873504D01*
X111384547Y-53867500D01*
X112408324Y-53867500D01*
X112475363Y-53887185D01*
X112486051Y-53895798D01*
X112486240Y-53895553D01*
X112492681Y-53900495D01*
X112492686Y-53900500D01*
X112606814Y-53966392D01*
X112734108Y-54000500D01*
X112734110Y-54000500D01*
X112865890Y-54000500D01*
X112865892Y-54000500D01*
X112993186Y-53966392D01*
X113107314Y-53900500D01*
X113200500Y-53807314D01*
X113266392Y-53693186D01*
X113300500Y-53565892D01*
X113300500Y-53434108D01*
X113266392Y-53306814D01*
X113259508Y-53294891D01*
X113217113Y-53221460D01*
X113200500Y-53159460D01*
X113200500Y-52597275D01*
X113200500Y-52597273D01*
X113173207Y-52495413D01*
X113173207Y-52495412D01*
X113120480Y-52404087D01*
X112170913Y-51454520D01*
X112125250Y-51428156D01*
X112079589Y-51401793D01*
X112028657Y-51388146D01*
X111977727Y-51374500D01*
X111977726Y-51374500D01*
X94085339Y-51374500D01*
X94085323Y-51374499D01*
X94077727Y-51374499D01*
X93972274Y-51374499D01*
X93870413Y-51401793D01*
X93870411Y-51401793D01*
X93870411Y-51401794D01*
X93779084Y-51454522D01*
X92441426Y-52792181D01*
X92380103Y-52825666D01*
X92353745Y-52828500D01*
X89640540Y-52828500D01*
X89578540Y-52811887D01*
X89493188Y-52762609D01*
X89493187Y-52762608D01*
X89493186Y-52762608D01*
X89365892Y-52728500D01*
X89234108Y-52728500D01*
X89106812Y-52762608D01*
X88992686Y-52828500D01*
X88992683Y-52828502D01*
X88899502Y-52921683D01*
X88899500Y-52921686D01*
X88833608Y-53035812D01*
X88800477Y-53159460D01*
X88799500Y-53163108D01*
X61200500Y-53163108D01*
X61200500Y-51341518D01*
X61220185Y-51274479D01*
X61236814Y-51253842D01*
X62448216Y-50042440D01*
X62509535Y-50008958D01*
X62536362Y-50006125D01*
X87342825Y-50101521D01*
G37*
G04 #@! TD.AperFunction*
G04 #@! TA.AperFunction,Conductor*
G36*
X53179021Y-49970141D02*
G01*
X53245980Y-49990082D01*
X53285927Y-50032139D01*
X53333071Y-50113795D01*
X53333083Y-50113813D01*
X53492718Y-50321851D01*
X53492726Y-50321860D01*
X53678140Y-50507274D01*
X53678148Y-50507281D01*
X53886196Y-50666924D01*
X54113299Y-50798041D01*
X54113309Y-50798046D01*
X54355571Y-50898394D01*
X54355581Y-50898398D01*
X54608884Y-50966270D01*
X54868880Y-51000500D01*
X54868887Y-51000500D01*
X55131113Y-51000500D01*
X55131120Y-51000500D01*
X55391116Y-50966270D01*
X55644419Y-50898398D01*
X55886697Y-50798043D01*
X56113803Y-50666924D01*
X56321851Y-50507282D01*
X56321855Y-50507277D01*
X56321860Y-50507274D01*
X56507274Y-50321860D01*
X56507277Y-50321855D01*
X56507282Y-50321851D01*
X56666924Y-50113803D01*
X56706002Y-50046116D01*
X56756568Y-49997902D01*
X56813860Y-49984119D01*
X60213269Y-49997192D01*
X60280229Y-50017133D01*
X60325781Y-50070113D01*
X60335458Y-50139309D01*
X60306189Y-50202753D01*
X60300470Y-50208871D01*
X59955885Y-50553456D01*
X59880074Y-50666916D01*
X59880075Y-50666917D01*
X59879224Y-50668190D01*
X59879220Y-50668197D01*
X59826421Y-50795667D01*
X59826418Y-50795677D01*
X59799500Y-50931004D01*
X59799500Y-71348115D01*
X59790061Y-71395567D01*
X59778421Y-71423667D01*
X59778418Y-71423677D01*
X59751500Y-71559003D01*
X59751500Y-71559006D01*
X59751500Y-71696994D01*
X59751500Y-71696996D01*
X59751499Y-71696996D01*
X59778418Y-71832322D01*
X59778420Y-71832328D01*
X59781597Y-71839999D01*
X59790061Y-71860431D01*
X59799500Y-71907884D01*
X59799500Y-93268115D01*
X59790061Y-93315567D01*
X59778421Y-93343667D01*
X59778418Y-93343677D01*
X59751500Y-93479003D01*
X59751500Y-93479006D01*
X59751500Y-93616994D01*
X59751500Y-93616996D01*
X59751499Y-93616996D01*
X59778418Y-93752322D01*
X59778420Y-93752328D01*
X59790061Y-93780431D01*
X59799500Y-93827884D01*
X59799500Y-94574155D01*
X59779815Y-94641194D01*
X59727011Y-94686949D01*
X59674699Y-94698152D01*
X49465031Y-94632195D01*
X49398120Y-94612078D01*
X49352707Y-94558980D01*
X49341834Y-94507530D01*
X49369583Y-89373920D01*
X53499499Y-89373920D01*
X53528340Y-89518907D01*
X53528343Y-89518917D01*
X53584912Y-89655488D01*
X53584919Y-89655501D01*
X53667048Y-89778415D01*
X53667051Y-89778419D01*
X53771580Y-89882948D01*
X53771584Y-89882951D01*
X53894498Y-89965080D01*
X53894511Y-89965087D01*
X54031082Y-90021656D01*
X54031087Y-90021658D01*
X54031091Y-90021658D01*
X54031092Y-90021659D01*
X54176079Y-90050500D01*
X54176082Y-90050500D01*
X54323920Y-90050500D01*
X54421462Y-90031096D01*
X54468913Y-90021658D01*
X54605495Y-89965084D01*
X54728416Y-89882951D01*
X54832951Y-89778416D01*
X54915084Y-89655495D01*
X54971658Y-89518913D01*
X55000500Y-89373920D01*
X56999499Y-89373920D01*
X57028340Y-89518907D01*
X57028343Y-89518917D01*
X57084912Y-89655488D01*
X57084919Y-89655501D01*
X57167048Y-89778415D01*
X57167051Y-89778419D01*
X57271580Y-89882948D01*
X57271584Y-89882951D01*
X57394498Y-89965080D01*
X57394511Y-89965087D01*
X57531082Y-90021656D01*
X57531087Y-90021658D01*
X57531091Y-90021658D01*
X57531092Y-90021659D01*
X57676079Y-90050500D01*
X57676082Y-90050500D01*
X57823920Y-90050500D01*
X57921462Y-90031096D01*
X57968913Y-90021658D01*
X58105495Y-89965084D01*
X58228416Y-89882951D01*
X58332951Y-89778416D01*
X58415084Y-89655495D01*
X58471658Y-89518913D01*
X58500500Y-89373918D01*
X58500500Y-89226082D01*
X58500500Y-89226079D01*
X58471659Y-89081092D01*
X58471658Y-89081091D01*
X58471658Y-89081087D01*
X58471656Y-89081082D01*
X58415087Y-88944511D01*
X58415080Y-88944498D01*
X58332951Y-88821584D01*
X58332948Y-88821580D01*
X58228419Y-88717051D01*
X58228415Y-88717048D01*
X58105501Y-88634919D01*
X58105488Y-88634912D01*
X57968917Y-88578343D01*
X57968907Y-88578340D01*
X57823920Y-88549500D01*
X57823918Y-88549500D01*
X57676082Y-88549500D01*
X57676080Y-88549500D01*
X57531092Y-88578340D01*
X57531082Y-88578343D01*
X57394511Y-88634912D01*
X57394498Y-88634919D01*
X57271584Y-88717048D01*
X57271580Y-88717051D01*
X57167051Y-88821580D01*
X57167048Y-88821584D01*
X57084919Y-88944498D01*
X57084912Y-88944511D01*
X57028343Y-89081082D01*
X57028340Y-89081092D01*
X56999500Y-89226079D01*
X56999500Y-89226082D01*
X56999500Y-89373918D01*
X56999500Y-89373920D01*
X56999499Y-89373920D01*
X55000500Y-89373920D01*
X55000500Y-89373918D01*
X55000500Y-89226082D01*
X55000500Y-89226079D01*
X54971659Y-89081092D01*
X54971658Y-89081091D01*
X54971658Y-89081087D01*
X54971656Y-89081082D01*
X54915087Y-88944511D01*
X54915080Y-88944498D01*
X54832951Y-88821584D01*
X54832948Y-88821580D01*
X54728419Y-88717051D01*
X54728415Y-88717048D01*
X54605501Y-88634919D01*
X54605488Y-88634912D01*
X54468917Y-88578343D01*
X54468907Y-88578340D01*
X54323920Y-88549500D01*
X54323918Y-88549500D01*
X54176082Y-88549500D01*
X54176080Y-88549500D01*
X54031092Y-88578340D01*
X54031082Y-88578343D01*
X53894511Y-88634912D01*
X53894498Y-88634919D01*
X53771584Y-88717048D01*
X53771580Y-88717051D01*
X53667051Y-88821580D01*
X53667048Y-88821584D01*
X53584919Y-88944498D01*
X53584912Y-88944511D01*
X53528343Y-89081082D01*
X53528340Y-89081092D01*
X53499500Y-89226079D01*
X53499500Y-89226082D01*
X53499500Y-89373918D01*
X53499500Y-89373920D01*
X53499499Y-89373920D01*
X49369583Y-89373920D01*
X49429041Y-78373920D01*
X53499499Y-78373920D01*
X53528340Y-78518907D01*
X53528343Y-78518917D01*
X53584912Y-78655488D01*
X53584919Y-78655501D01*
X53667048Y-78778415D01*
X53667051Y-78778419D01*
X53771580Y-78882948D01*
X53771584Y-78882951D01*
X53894498Y-78965080D01*
X53894511Y-78965087D01*
X53995243Y-79006811D01*
X54031087Y-79021658D01*
X54031091Y-79021658D01*
X54031092Y-79021659D01*
X54176079Y-79050500D01*
X54176082Y-79050500D01*
X54323920Y-79050500D01*
X54421462Y-79031096D01*
X54468913Y-79021658D01*
X54605495Y-78965084D01*
X54728416Y-78882951D01*
X54832951Y-78778416D01*
X54915084Y-78655495D01*
X54971658Y-78518913D01*
X55000500Y-78373920D01*
X56999499Y-78373920D01*
X57028340Y-78518907D01*
X57028343Y-78518917D01*
X57084912Y-78655488D01*
X57084919Y-78655501D01*
X57167048Y-78778415D01*
X57167051Y-78778419D01*
X57271580Y-78882948D01*
X57271584Y-78882951D01*
X57394498Y-78965080D01*
X57394511Y-78965087D01*
X57495243Y-79006811D01*
X57531087Y-79021658D01*
X57531091Y-79021658D01*
X57531092Y-79021659D01*
X57676079Y-79050500D01*
X57676082Y-79050500D01*
X57823920Y-79050500D01*
X57921462Y-79031096D01*
X57968913Y-79021658D01*
X58105495Y-78965084D01*
X58228416Y-78882951D01*
X58332951Y-78778416D01*
X58415084Y-78655495D01*
X58471658Y-78518913D01*
X58500500Y-78373918D01*
X58500500Y-78226082D01*
X58500500Y-78226079D01*
X58471659Y-78081092D01*
X58471658Y-78081091D01*
X58471658Y-78081087D01*
X58454147Y-78038812D01*
X58415087Y-77944511D01*
X58415080Y-77944498D01*
X58332951Y-77821584D01*
X58332948Y-77821580D01*
X58228419Y-77717051D01*
X58228415Y-77717048D01*
X58105501Y-77634919D01*
X58105488Y-77634912D01*
X57968917Y-77578343D01*
X57968907Y-77578340D01*
X57823920Y-77549500D01*
X57823918Y-77549500D01*
X57676082Y-77549500D01*
X57676080Y-77549500D01*
X57531092Y-77578340D01*
X57531082Y-77578343D01*
X57394511Y-77634912D01*
X57394498Y-77634919D01*
X57271584Y-77717048D01*
X57271580Y-77717051D01*
X57167051Y-77821580D01*
X57167048Y-77821584D01*
X57084919Y-77944498D01*
X57084912Y-77944511D01*
X57028343Y-78081082D01*
X57028340Y-78081092D01*
X56999500Y-78226079D01*
X56999500Y-78226082D01*
X56999500Y-78373918D01*
X56999500Y-78373920D01*
X56999499Y-78373920D01*
X55000500Y-78373920D01*
X55000500Y-78373918D01*
X55000500Y-78226082D01*
X55000500Y-78226079D01*
X54971659Y-78081092D01*
X54971658Y-78081091D01*
X54971658Y-78081087D01*
X54954147Y-78038812D01*
X54915087Y-77944511D01*
X54915080Y-77944498D01*
X54832951Y-77821584D01*
X54832948Y-77821580D01*
X54728419Y-77717051D01*
X54728415Y-77717048D01*
X54605501Y-77634919D01*
X54605488Y-77634912D01*
X54468917Y-77578343D01*
X54468907Y-77578340D01*
X54323920Y-77549500D01*
X54323918Y-77549500D01*
X54176082Y-77549500D01*
X54176080Y-77549500D01*
X54031092Y-77578340D01*
X54031082Y-77578343D01*
X53894511Y-77634912D01*
X53894498Y-77634919D01*
X53771584Y-77717048D01*
X53771580Y-77717051D01*
X53667051Y-77821580D01*
X53667048Y-77821584D01*
X53584919Y-77944498D01*
X53584912Y-77944511D01*
X53528343Y-78081082D01*
X53528340Y-78081092D01*
X53499500Y-78226079D01*
X53499500Y-78226082D01*
X53499500Y-78373918D01*
X53499500Y-78373920D01*
X53499499Y-78373920D01*
X49429041Y-78373920D01*
X49488500Y-67373920D01*
X53499499Y-67373920D01*
X53528340Y-67518907D01*
X53528343Y-67518917D01*
X53584912Y-67655488D01*
X53584919Y-67655501D01*
X53667048Y-67778415D01*
X53667051Y-67778419D01*
X53771580Y-67882948D01*
X53771584Y-67882951D01*
X53894498Y-67965080D01*
X53894511Y-67965087D01*
X54023912Y-68018686D01*
X54031087Y-68021658D01*
X54031091Y-68021658D01*
X54031092Y-68021659D01*
X54176079Y-68050500D01*
X54176082Y-68050500D01*
X54323920Y-68050500D01*
X54421462Y-68031096D01*
X54468913Y-68021658D01*
X54605495Y-67965084D01*
X54728416Y-67882951D01*
X54832951Y-67778416D01*
X54915084Y-67655495D01*
X54971658Y-67518913D01*
X54991908Y-67417113D01*
X55000500Y-67373920D01*
X56999499Y-67373920D01*
X57028340Y-67518907D01*
X57028343Y-67518917D01*
X57084912Y-67655488D01*
X57084919Y-67655501D01*
X57167048Y-67778415D01*
X57167051Y-67778419D01*
X57271580Y-67882948D01*
X57271584Y-67882951D01*
X57394498Y-67965080D01*
X57394511Y-67965087D01*
X57523912Y-68018686D01*
X57531087Y-68021658D01*
X57531091Y-68021658D01*
X57531092Y-68021659D01*
X57676079Y-68050500D01*
X57676082Y-68050500D01*
X57823920Y-68050500D01*
X57921462Y-68031096D01*
X57968913Y-68021658D01*
X58105495Y-67965084D01*
X58228416Y-67882951D01*
X58332951Y-67778416D01*
X58415084Y-67655495D01*
X58471658Y-67518913D01*
X58491908Y-67417113D01*
X58500500Y-67373920D01*
X58500500Y-67226079D01*
X58471659Y-67081092D01*
X58471658Y-67081091D01*
X58471658Y-67081087D01*
X58471656Y-67081082D01*
X58415087Y-66944511D01*
X58415080Y-66944498D01*
X58332951Y-66821584D01*
X58332948Y-66821580D01*
X58228419Y-66717051D01*
X58228415Y-66717048D01*
X58105501Y-66634919D01*
X58105488Y-66634912D01*
X57968917Y-66578343D01*
X57968907Y-66578340D01*
X57823920Y-66549500D01*
X57823918Y-66549500D01*
X57676082Y-66549500D01*
X57676080Y-66549500D01*
X57531092Y-66578340D01*
X57531082Y-66578343D01*
X57394511Y-66634912D01*
X57394498Y-66634919D01*
X57271584Y-66717048D01*
X57271580Y-66717051D01*
X57167051Y-66821580D01*
X57167048Y-66821584D01*
X57084919Y-66944498D01*
X57084912Y-66944511D01*
X57028343Y-67081082D01*
X57028340Y-67081092D01*
X56999500Y-67226079D01*
X56999500Y-67226082D01*
X56999500Y-67373918D01*
X56999500Y-67373920D01*
X56999499Y-67373920D01*
X55000500Y-67373920D01*
X55000500Y-67226079D01*
X54971659Y-67081092D01*
X54971658Y-67081091D01*
X54971658Y-67081087D01*
X54971656Y-67081082D01*
X54915087Y-66944511D01*
X54915080Y-66944498D01*
X54832951Y-66821584D01*
X54832948Y-66821580D01*
X54728419Y-66717051D01*
X54728415Y-66717048D01*
X54605501Y-66634919D01*
X54605488Y-66634912D01*
X54468917Y-66578343D01*
X54468907Y-66578340D01*
X54323920Y-66549500D01*
X54323918Y-66549500D01*
X54176082Y-66549500D01*
X54176080Y-66549500D01*
X54031092Y-66578340D01*
X54031082Y-66578343D01*
X53894511Y-66634912D01*
X53894498Y-66634919D01*
X53771584Y-66717048D01*
X53771580Y-66717051D01*
X53667051Y-66821580D01*
X53667048Y-66821584D01*
X53584919Y-66944498D01*
X53584912Y-66944511D01*
X53528343Y-67081082D01*
X53528340Y-67081092D01*
X53499500Y-67226079D01*
X53499500Y-67226082D01*
X53499500Y-67373918D01*
X53499500Y-67373920D01*
X53499499Y-67373920D01*
X49488500Y-67373920D01*
X49547958Y-56373920D01*
X53499499Y-56373920D01*
X53528340Y-56518907D01*
X53528343Y-56518917D01*
X53584912Y-56655488D01*
X53584919Y-56655501D01*
X53667048Y-56778415D01*
X53667051Y-56778419D01*
X53771580Y-56882948D01*
X53771584Y-56882951D01*
X53894498Y-56965080D01*
X53894511Y-56965087D01*
X54031082Y-57021656D01*
X54031087Y-57021658D01*
X54031091Y-57021658D01*
X54031092Y-57021659D01*
X54176079Y-57050500D01*
X54176082Y-57050500D01*
X54323920Y-57050500D01*
X54421462Y-57031096D01*
X54468913Y-57021658D01*
X54605495Y-56965084D01*
X54728416Y-56882951D01*
X54832951Y-56778416D01*
X54915084Y-56655495D01*
X54920630Y-56642107D01*
X54971656Y-56518917D01*
X54971658Y-56518913D01*
X54990968Y-56421837D01*
X55000500Y-56373920D01*
X56999499Y-56373920D01*
X57028340Y-56518907D01*
X57028343Y-56518917D01*
X57084912Y-56655488D01*
X57084919Y-56655501D01*
X57167048Y-56778415D01*
X57167051Y-56778419D01*
X57271580Y-56882948D01*
X57271584Y-56882951D01*
X57394498Y-56965080D01*
X57394511Y-56965087D01*
X57531082Y-57021656D01*
X57531087Y-57021658D01*
X57531091Y-57021658D01*
X57531092Y-57021659D01*
X57676079Y-57050500D01*
X57676082Y-57050500D01*
X57823920Y-57050500D01*
X57921462Y-57031096D01*
X57968913Y-57021658D01*
X58105495Y-56965084D01*
X58228416Y-56882951D01*
X58332951Y-56778416D01*
X58415084Y-56655495D01*
X58420630Y-56642107D01*
X58471656Y-56518917D01*
X58471658Y-56518913D01*
X58490968Y-56421837D01*
X58500500Y-56373920D01*
X58500500Y-56226079D01*
X58471659Y-56081092D01*
X58471658Y-56081091D01*
X58471658Y-56081087D01*
X58465570Y-56066390D01*
X58415087Y-55944511D01*
X58415080Y-55944498D01*
X58332951Y-55821584D01*
X58332948Y-55821580D01*
X58228419Y-55717051D01*
X58228415Y-55717048D01*
X58105501Y-55634919D01*
X58105488Y-55634912D01*
X57968917Y-55578343D01*
X57968907Y-55578340D01*
X57823920Y-55549500D01*
X57823918Y-55549500D01*
X57676082Y-55549500D01*
X57676080Y-55549500D01*
X57531092Y-55578340D01*
X57531082Y-55578343D01*
X57394511Y-55634912D01*
X57394498Y-55634919D01*
X57271584Y-55717048D01*
X57271580Y-55717051D01*
X57167051Y-55821580D01*
X57167048Y-55821584D01*
X57084919Y-55944498D01*
X57084912Y-55944511D01*
X57028343Y-56081082D01*
X57028340Y-56081092D01*
X56999500Y-56226079D01*
X56999500Y-56226082D01*
X56999500Y-56373918D01*
X56999500Y-56373920D01*
X56999499Y-56373920D01*
X55000500Y-56373920D01*
X55000500Y-56226079D01*
X54971659Y-56081092D01*
X54971658Y-56081091D01*
X54971658Y-56081087D01*
X54965570Y-56066390D01*
X54915087Y-55944511D01*
X54915080Y-55944498D01*
X54832951Y-55821584D01*
X54832948Y-55821580D01*
X54728419Y-55717051D01*
X54728415Y-55717048D01*
X54605501Y-55634919D01*
X54605488Y-55634912D01*
X54468917Y-55578343D01*
X54468907Y-55578340D01*
X54323920Y-55549500D01*
X54323918Y-55549500D01*
X54176082Y-55549500D01*
X54176080Y-55549500D01*
X54031092Y-55578340D01*
X54031082Y-55578343D01*
X53894511Y-55634912D01*
X53894498Y-55634919D01*
X53771584Y-55717048D01*
X53771580Y-55717051D01*
X53667051Y-55821580D01*
X53667048Y-55821584D01*
X53584919Y-55944498D01*
X53584912Y-55944511D01*
X53528343Y-56081082D01*
X53528340Y-56081092D01*
X53499500Y-56226079D01*
X53499500Y-56226082D01*
X53499500Y-56373918D01*
X53499500Y-56373920D01*
X53499499Y-56373920D01*
X49547958Y-56373920D01*
X49581978Y-50080113D01*
X49602024Y-50013184D01*
X49655075Y-49967715D01*
X49706452Y-49956787D01*
X53179021Y-49970141D01*
G37*
G04 #@! TD.AperFunction*
G04 #@! TD*
G04 #@! TA.AperFunction,Conductor*
G04 #@! TO.N,GND*
G36*
X65674722Y-110239043D02*
G01*
X65720519Y-110291811D01*
X65731765Y-110343313D01*
X65735101Y-114581434D01*
X65715469Y-114648489D01*
X65662701Y-114694286D01*
X65610237Y-114705529D01*
X60428556Y-114669442D01*
X60361656Y-114649291D01*
X60316270Y-114596170D01*
X60305420Y-114545445D01*
X60305420Y-110347487D01*
X60325105Y-110280448D01*
X60377909Y-110234693D01*
X60429319Y-110223487D01*
X65607669Y-110219411D01*
X65674722Y-110239043D01*
G37*
G04 #@! TD.AperFunction*
G04 #@! TD*
M02*
