G04 #@! TF.GenerationSoftware,KiCad,Pcbnew,10.0.1*
G04 #@! TF.CreationDate,2026-06-01T13:42:42+01:00*
G04 #@! TF.ProjectId,hw-controller,68772d63-6f6e-4747-926f-6c6c65722e6b,rev?*
G04 #@! TF.SameCoordinates,Original*
G04 #@! TF.FileFunction,Soldermask,Bot*
G04 #@! TF.FilePolarity,Negative*
%FSLAX46Y46*%
G04 Gerber Fmt 4.6, Leading zero omitted, Abs format (unit mm)*
G04 Created by KiCad (PCBNEW 10.0.1) date 2026-06-01 13:42:42*
%MOMM*%
%LPD*%
G01*
G04 APERTURE LIST*
G04 Aperture macros list*
%AMRoundRect*
0 Rectangle with rounded corners*
0 $1 Rounding radius*
0 $2 $3 $4 $5 $6 $7 $8 $9 X,Y pos of 4 corners*
0 Add a 4 corners polygon primitive as box body*
4,1,4,$2,$3,$4,$5,$6,$7,$8,$9,$2,$3,0*
0 Add four circle primitives for the rounded corners*
1,1,$1+$1,$2,$3*
1,1,$1+$1,$4,$5*
1,1,$1+$1,$6,$7*
1,1,$1+$1,$8,$9*
0 Add four rect primitives between the rounded corners*
20,1,$1+$1,$2,$3,$4,$5,0*
20,1,$1+$1,$4,$5,$6,$7,0*
20,1,$1+$1,$6,$7,$8,$9,0*
20,1,$1+$1,$8,$9,$2,$3,0*%
G04 Aperture macros list end*
%ADD10C,1.000000*%
%ADD11C,3.500000*%
%ADD12R,2.000000X1.905000*%
%ADD13O,2.000000X1.905000*%
%ADD14RoundRect,0.250000X-1.050000X-1.050000X1.050000X-1.050000X1.050000X1.050000X-1.050000X1.050000X0*%
%ADD15R,2.600000X2.600000*%
%ADD16C,2.600000*%
%ADD17R,1.000000X1.000000*%
%ADD18R,3.500000X3.500000*%
%ADD19RoundRect,0.750000X1.000000X-0.750000X1.000000X0.750000X-1.000000X0.750000X-1.000000X-0.750000X0*%
%ADD20RoundRect,0.875000X0.875000X-0.875000X0.875000X0.875000X-0.875000X0.875000X-0.875000X-0.875000X0*%
G04 APERTURE END LIST*
D10*
G04 #@! TO.C,S1*
X57750000Y-56300000D03*
X54250000Y-56300000D03*
G04 #@! TD*
G04 #@! TO.C,S5*
X133250000Y-56300000D03*
X136750000Y-56300000D03*
G04 #@! TD*
G04 #@! TO.C,S3*
X54250000Y-78300000D03*
X57750000Y-78300000D03*
G04 #@! TD*
D11*
G04 #@! TO.C,H4*
X55000000Y-49000000D03*
G04 #@! TD*
D12*
G04 #@! TO.C,Q2*
X128510000Y-125984000D03*
D13*
X128510000Y-123444000D03*
X128510000Y-120904000D03*
G04 #@! TD*
D12*
G04 #@! TO.C,Q4*
X110222000Y-125984000D03*
D13*
X110222000Y-123444000D03*
X110222000Y-120904000D03*
G04 #@! TD*
D10*
G04 #@! TO.C,S7*
X133250000Y-78300000D03*
X136750000Y-78300000D03*
G04 #@! TD*
D12*
G04 #@! TO.C,Q7*
X83044000Y-125984000D03*
D13*
X83044000Y-123444000D03*
X83044000Y-120904000D03*
G04 #@! TD*
D14*
G04 #@! TO.C,J2*
X84455000Y-137500000D03*
D15*
X89535000Y-137500000D03*
D16*
X94615000Y-137500000D03*
X99695000Y-137500000D03*
X104775000Y-137500000D03*
X109855000Y-137500000D03*
X114935000Y-137500000D03*
X120015000Y-137500000D03*
X125095000Y-137500000D03*
X130175000Y-137500000D03*
G04 #@! TD*
D17*
G04 #@! TO.C,J1*
X109474000Y-53467000D03*
D10*
X110744000Y-53467000D03*
X109474000Y-54737000D03*
X110744000Y-54737000D03*
X109474000Y-56007000D03*
X110744000Y-56007000D03*
G04 #@! TD*
G04 #@! TO.C,S8*
X133250000Y-89300000D03*
X136750000Y-89300000D03*
G04 #@! TD*
G04 #@! TO.C,S4*
X54250000Y-89300000D03*
X57750000Y-89300000D03*
G04 #@! TD*
D12*
G04 #@! TO.C,Q5*
X101266000Y-125984000D03*
D13*
X101266000Y-123444000D03*
X101266000Y-120904000D03*
G04 #@! TD*
D11*
G04 #@! TO.C,H2*
X139000000Y-139000000D03*
G04 #@! TD*
D10*
G04 #@! TO.C,S2*
X54250000Y-67300000D03*
X57750000Y-67300000D03*
G04 #@! TD*
D11*
G04 #@! TO.C,H1*
X55000000Y-139000000D03*
G04 #@! TD*
D12*
G04 #@! TO.C,Q1*
X137654000Y-125984000D03*
D13*
X137654000Y-123444000D03*
X137654000Y-120904000D03*
G04 #@! TD*
D10*
G04 #@! TO.C,S9*
X86007000Y-67300000D03*
X89507000Y-67300000D03*
G04 #@! TD*
D18*
G04 #@! TO.C,J3*
X70300000Y-131000000D03*
D19*
X70300000Y-137000000D03*
D20*
X75000000Y-134000000D03*
G04 #@! TD*
D10*
G04 #@! TO.C,S6*
X133250000Y-67300000D03*
X136750000Y-67300000D03*
G04 #@! TD*
D12*
G04 #@! TO.C,Q8*
X73900000Y-125984000D03*
D13*
X73900000Y-123444000D03*
X73900000Y-120904000D03*
G04 #@! TD*
D12*
G04 #@! TO.C,Q6*
X92188000Y-125984000D03*
D13*
X92188000Y-123444000D03*
X92188000Y-120904000D03*
G04 #@! TD*
D12*
G04 #@! TO.C,Q3*
X119366000Y-125984000D03*
D13*
X119366000Y-123444000D03*
X119366000Y-120904000D03*
G04 #@! TD*
D11*
G04 #@! TO.C,H5*
X113000000Y-83000000D03*
G04 #@! TD*
G04 #@! TO.C,H3*
X139000000Y-49000000D03*
G04 #@! TD*
M02*
