M48
; DRILL file KiCad 10.0.1 date 2026-06-01T13:42:53
; FORMAT={-:-/ absolute / metric / decimal}
; #@! TF.CreationDate,2026-06-01T13:42:53+01:00
; #@! TF.GenerationSoftware,Kicad,Pcbnew,10.0.1
; #@! TF.FileFunction,Plated,1,2,PTH
FMAT,2
METRIC
; #@! TA.AperFunction,Plated,PTH,ViaDrill
T1C0.300
; #@! TA.AperFunction,Plated,PTH,ViaDrill
T2C0.400
; #@! TA.AperFunction,Plated,PTH,ComponentDrill
T3C0.650
; #@! TA.AperFunction,Plated,PTH,ComponentDrill
T4C1.000
; #@! TA.AperFunction,Plated,PTH,ComponentDrill
T5C1.100
; #@! TA.AperFunction,Plated,PTH,ComponentDrill
T6C1.300
%
G90
G05
T1
X51.5Y-55.5
X54.044Y-133.248
X54.044Y-134.08
X58.5Y-101.6
X58.5Y-122.733
X60.452Y-71.628
X60.452Y-96.317
X60.5Y-60.5
X60.5Y-82.5
X60.5Y-93.5
X61.341Y-111.379
X61.341Y-112.522
X61.341Y-113.665
X62.484Y-111.379
X62.484Y-112.522
X62.484Y-113.665
X62.7Y-79.2
X62.7Y-90.1
X62.738Y-57.15
X62.738Y-68.326
X63.025Y-55.5
X63.627Y-111.379
X63.627Y-112.522
X63.627Y-113.665
X63.83Y-66.588
X63.919Y-77.47
X64.643Y-111.379
X64.643Y-112.522
X64.643Y-113.665
X66.0Y-48.5
X66.715Y-88.401
X66.755Y-66.588
X66.844Y-77.47
X68.326Y-61.468
X68.4Y-94.751
X69.3Y-83.6
X69.746Y-112.5
X69.746Y-115.062
X70.256Y-81.729
X70.675Y-48.5
X71.522Y-102.722
X74.0Y-72.0
X74.0Y-82.0
X75.5Y-93.9
X76.948Y-107.95
X77.171Y-62.148
X77.35Y-98.65
X78.7Y-92.583
X78.8Y-86.1
X79.5Y-63.85
X79.9Y-130.025
X83.0Y-99.822
X83.257Y-66.5
X83.257Y-69.9
X83.439Y-82.0
X84.2Y-59.3
X85.584Y-107.95
X87.63Y-77.343
X88.265Y-78.232
X88.594Y-84.963
X88.594Y-86.233
X88.594Y-90.043
X88.594Y-91.313
X88.646Y-83.693
X89.027Y-54.864
X89.225Y-51.629
X89.287Y-52.362
X89.3Y-53.229
X89.662Y-55.753
X91.186Y-81.915
X91.224Y-50.679
X91.224Y-60.579
X91.274Y-57.229
X92.188Y-100.711
X92.257Y-66.5
X92.374Y-62.148
X94.728Y-107.95
X95.199Y-53.654
X95.199Y-55.629
X95.199Y-57.604
X95.377Y-63.627
X96.012Y-94.042
X96.901Y-83.439
X97.028Y-85.979
X97.174Y-53.654
X97.174Y-55.629
X97.174Y-57.604
X97.917Y-94.742
X99.149Y-53.654
X99.149Y-55.629
X99.149Y-57.604
X99.695Y-71.439
X100.584Y-82.042
X101.332Y-101.614
X103.124Y-50.679
X103.124Y-60.579
X103.872Y-107.95
X106.968Y-54.811
X107.1Y-55.6
X108.0Y-67.0
X108.331Y-93.342
X112.762Y-107.95
X112.8Y-53.5
X112.903Y-76.327
X113.665Y-77.343
X114.554Y-78.232
X115.062Y-55.292
X118.237Y-91.186
X118.364Y-80.264
X119.366Y-75.96
X119.366Y-103.585
X119.634Y-55.292
X120.5Y-60.5
X121.0Y-82.55
X121.0Y-101.0
X121.906Y-107.95
X124.075Y-66.294
X124.267Y-77.47
X124.267Y-88.392
X127.0Y-55.753
X127.0Y-58.166
X127.0Y-66.294
X127.0Y-69.088
X127.0Y-80.264
X127.192Y-77.47
X127.254Y-91.186
X131.05Y-107.95
X139.446Y-91.948
X139.5Y-58.9
X139.5Y-60.5
X139.5Y-69.9
X139.5Y-71.5
X139.5Y-80.9
X139.5Y-82.5
X139.5Y-93.5
X140.448Y-107.95
X141.986Y-57.277
T2
X78.4Y-76.3
X79.629Y-92.583
X81.0Y-51.758
X106.426Y-83.439
T3
X109.474Y-53.467
X109.474Y-54.737
X109.474Y-56.007
X110.744Y-53.467
X110.744Y-54.737
X110.744Y-56.007
T5
X73.9Y-120.904
X73.9Y-123.444
X73.9Y-125.984
X83.044Y-120.904
X83.044Y-123.444
X83.044Y-125.984
X92.188Y-120.904
X92.188Y-123.444
X92.188Y-125.984
X101.266Y-120.904
X101.266Y-123.444
X101.266Y-125.984
X110.222Y-120.904
X110.222Y-123.444
X110.222Y-125.984
X119.366Y-120.904
X119.366Y-123.444
X119.366Y-125.984
X128.51Y-120.904
X128.51Y-123.444
X128.51Y-125.984
X137.654Y-120.904
X137.654Y-123.444
X137.654Y-125.984
T6
X84.455Y-137.5
X89.535Y-137.5
X94.615Y-137.5
X99.695Y-137.5
X104.775Y-137.5
X109.855Y-137.5
X114.935Y-137.5
X120.015Y-137.5
X125.095Y-137.5
X130.175Y-137.5
T4
G00X69.3Y-131.0
M15
G01X71.3Y-131.0
M16
G05
G00X69.3Y-137.0
M15
G01X71.3Y-137.0
M16
G05
G00X75.0Y-135.0
M15
G01X75.0Y-133.0
M16
G05
M30
